<svg xmlns="http://www.w3.org/2000/svg" xmlns:xlink="http://www.w3.org/1999/xlink" width="623.784" height="143.798" viewBox="0 0 623.784 143.798"><defs><linearGradient id="linear-gradient" x1=".5" x2=".5" y2="1.593" gradientUnits="objectBoundingBox"><stop offset="0" stop-color="#ff0080"/><stop offset="1" stop-color="#ff88e3"/></linearGradient></defs><g id="Group_619" data-name="Group 619" transform="translate(9965 -10684)"><path id="Path_2034" fill="#000" d="M13.44-89.6h12.8v78.464H74.752V0H13.44ZM148.1-33.536a35.217,35.217,0,0,1-.256,3.712H92.8a21.3,21.3,0,0,0,7.872,14.4q6.72,5.44,16.7,5.44,12.16,0,19.584-8.192l6.784,7.936a29.715,29.715,0,0,1-11.456,8.192,39.874,39.874,0,0,1-15.3,2.816A40.062,40.062,0,0,1,97.92-3.648,31.5,31.5,0,0,1,85.056-16a35.413,35.413,0,0,1-4.544-17.92,35.963,35.963,0,0,1,4.416-17.792,31.635,31.635,0,0,1,12.16-12.352A34.639,34.639,0,0,1,114.56-68.48,33.939,33.939,0,0,1,131.9-64.064a31.011,31.011,0,0,1,11.9,12.352A37.629,37.629,0,0,1,148.1-33.536ZM114.56-58.112a21.238,21.238,0,0,0-14.784,5.376A21.673,21.673,0,0,0,92.8-38.656h43.52a21.816,21.816,0,0,0-6.976-14.016A21.091,21.091,0,0,0,114.56-58.112ZM223.872-67.84,194.176,0H181.632l-29.7-67.84h12.8l23.3,54.4,23.808-54.4Zm70.528,0L261.5,6.784q-4.352,10.368-10.176,14.592A23.227,23.227,0,0,1,237.312,25.6a29.623,29.623,0,0,1-9.664-1.6,19.837,19.837,0,0,1-7.744-4.672l5.248-9.216a17.109,17.109,0,0,0,12.16,4.992,11.732,11.732,0,0,0,7.488-2.368q3.008-2.368,5.44-8.128l2.176-4.736L222.464-67.84h12.8l23.68,54.272L282.368-67.84Zm47.744-.64q12.928,0,20.544,7.488T370.3-39.04V0H358.016V-37.632q0-9.856-4.736-14.848t-13.568-4.992q-9.984,0-15.744,5.824t-5.76,16.7V0H305.92V-67.84H317.7V-57.6a23.884,23.884,0,0,1,10.048-8.064A35.111,35.111,0,0,1,342.144-68.48Zm112.64,34.944a35.213,35.213,0,0,1-.256,3.712h-55.04a21.3,21.3,0,0,0,7.872,14.4q6.72,5.44,16.7,5.44,12.16,0,19.584-8.192l6.784,7.936a29.715,29.715,0,0,1-11.456,8.192A39.874,39.874,0,0,1,423.68.768a40.062,40.062,0,0,1-19.072-4.416A31.5,31.5,0,0,1,391.744-16,35.413,35.413,0,0,1,387.2-33.92a35.963,35.963,0,0,1,4.416-17.792,31.635,31.635,0,0,1,12.16-12.352,34.639,34.639,0,0,1,17.472-4.416,33.939,33.939,0,0,1,17.344,4.416,31.011,31.011,0,0,1,11.9,12.352A37.629,37.629,0,0,1,454.784-33.536ZM421.248-58.112a21.238,21.238,0,0,0-14.784,5.376,21.673,21.673,0,0,0-6.976,14.08h43.52a21.816,21.816,0,0,0-6.976-14.016A21.091,21.091,0,0,0,421.248-58.112Z" data-name="Path 2034" transform="translate(-9796 10801)"/><path id="Path_1730" fill="url(#linear-gradient)" d="M184.9-354.5c-7.4,9.6-13.7,17.5-14.1,17.5s-6.7-3.8-13.9-8.6c-7.2-4.7-13.9-8.4-14.8-8.2-1.4.3-1.6,3.4-1.9,29.7-.1,20.4.1,29.8.9,30.7.6.7,12.3,8.6,26.1,17.6l25,16.2-2.6,2.3c-1.5,1.3-3.5,2.3-4.4,2.3s-10.4-5.7-21.1-12.6c-27.4-17.7-27.4-17.6-17.2,14.3,4,12.5,7.8,23.4,8.3,24,1.8,2.3,3.9,1.4,16.4-6.7,6.8-4.4,12.8-8,13.3-8,.6,0,3.8,1.8,7.2,4s7,4,7.9,4,4.5-1.8,7.9-4,6.6-4,7.2-4c.5,0,6.5,3.6,13.3,8,12.5,8.1,14.6,9,16.4,6.7.5-.6,4.3-11.5,8.3-24,7.5-23.4,7.8-25.7,3.7-26.5-.8-.2-10.2,5.4-20.9,12.2-10.7,6.9-20.2,12.6-21.1,12.6s-2.9-1-4.4-2.3l-2.6-2.3,25-16.2c13.8-9,25.5-16.9,26.1-17.6.8-.9,1-10.3.9-30.7-.3-26.3-.5-29.4-1.9-29.7-.9-.2-7.6,3.5-14.8,8.2-7.2,4.8-13.5,8.6-13.9,8.6s-6.7-7.9-14.1-17.5C207.1-364.9,201-372,200-372S192.9-364.9,184.9-354.5Zm28.6,11c6.9,9.1,13.3,16.5,14.1,16.5s6-2.9,11.5-6.5,10.7-6.5,11.5-6.5c1.2,0,1.4,3.1,1.2,21.2l-.3,21.2-24.9,16.3c-13.7,9-25.7,16.3-26.6,16.3s-12.9-7.3-26.6-16.3l-24.9-16.3-.3-21.2c-.2-18.2,0-21.2,1.2-21.2.9,0,6,2.9,11.5,6.5,5.4,3.6,10.5,6.5,11.4,6.5.8,0,7.2-7.4,14.2-16.5S199.6-360,200-360,206.5-352.6,213.5-343.5Zm-48.2,86.2,12,7.7-2.7,2.1c-5.3,4.2-13.7,8.8-14.5,7.9-.8-.8-8.1-23.3-8.1-24.8C152-265.7,153.6-264.8,165.3-257.3Zm82.7-7.1c0,1.5-7.3,24-8.1,24.8-.8.9-9.2-3.7-14.5-7.9l-2.7-2.1,11.9-7.7C246.1-264.7,248-265.7,248-264.4Zm-43.6,12.7,2.9,2.4-3.1,2.1c-1.6,1.2-3.5,2.2-4.2,2.2s-2.6-1-4.2-2.2l-3.1-2.1,2.9-2.4C199.2-254.6,200.8-254.6,204.4-251.7Z" data-name="Path 1730" transform="translate(-10105.176 11056)"/></g></svg>