<svg xmlns="http://www.w3.org/2000/svg" xmlns:xlink="http://www.w3.org/1999/xlink" width="275.439" height="72.969" viewBox="0 0 275.439 72.969">
  <defs>
    <linearGradient id="linear-gradient" x1="0.5" x2="0.5" y2="1.593" gradientUnits="objectBoundingBox">
      <stop offset="0" stop-color="#ff0080"/>
      <stop offset="1" stop-color="#ff88e3"/>
    </linearGradient>
  </defs>
  <g id="Group_3691" data-name="Group 3691" transform="translate(973.239 -2372.191)">
    <path id="Reset_Password" data-name="Reset Password" d="M-61.78-11.4v3.7h6.48v2.6h-6.48V0h-3.24V-14h10.58v2.6ZM-47.62.16a6.452,6.452,0,0,1-3.05-.71,5.278,5.278,0,0,1-2.11-1.97,5.428,5.428,0,0,1-.76-2.86,5.428,5.428,0,0,1,.76-2.86,5.278,5.278,0,0,1,2.11-1.97,6.452,6.452,0,0,1,3.05-.71,6.393,6.393,0,0,1,3.04.71,5.3,5.3,0,0,1,2.1,1.97,5.428,5.428,0,0,1,.76,2.86,5.428,5.428,0,0,1-.76,2.86,5.3,5.3,0,0,1-2.1,1.97A6.393,6.393,0,0,1-47.62.16Zm0-2.56a2.6,2.6,0,0,0,1.97-.81,3.019,3.019,0,0,0,.77-2.17,3.019,3.019,0,0,0-.77-2.17,2.6,2.6,0,0,0-1.97-.81,2.631,2.631,0,0,0-1.98.81,3,3,0,0,0-.78,2.17,3,3,0,0,0,.78,2.17A2.631,2.631,0,0,0-47.62-2.4Zm10.96-6.94a3.469,3.469,0,0,1,1.51-1.18,5.6,5.6,0,0,1,2.19-.4v2.88q-.52-.04-.7-.04a2.86,2.86,0,0,0-2.1.75,3.031,3.031,0,0,0-.76,2.25V0h-3.12V-10.76h2.98Zm21.8,2.06a3.692,3.692,0,0,1,1.88,1.27,3.5,3.5,0,0,1,.68,2.19A3.235,3.235,0,0,1-13.73-.99,7.311,7.311,0,0,1-17.9,0h-7.24V-14h6.84a6.7,6.7,0,0,1,3.93.98A3.1,3.1,0,0,1-13-10.36a3.414,3.414,0,0,1-.49,1.82A3.432,3.432,0,0,1-14.86-7.28Zm-7.06-4.28v3.3h3.22a3.251,3.251,0,0,0,1.82-.42,1.4,1.4,0,0,0,.62-1.24,1.376,1.376,0,0,0-.62-1.23,3.314,3.314,0,0,0-1.82-.41Zm3.78,9.12a3.59,3.59,0,0,0,1.93-.42,1.438,1.438,0,0,0,.65-1.3q0-1.74-2.58-1.74h-3.78v3.46ZM.78-10.76V0H-2.18V-1.28A4.138,4.138,0,0,1-3.66-.21,4.656,4.656,0,0,1-5.52.16,4.583,4.583,0,0,1-8.88-1.06a4.863,4.863,0,0,1-1.24-3.62v-6.08H-7v5.62q0,2.6,2.18,2.6a2.344,2.344,0,0,0,1.8-.73,3.08,3.08,0,0,0,.68-2.17v-5.32ZM7.3.16A10.452,10.452,0,0,1,4.68-.17,6.845,6.845,0,0,1,2.64-1L3.68-3.24a6.546,6.546,0,0,0,1.74.75,7.293,7.293,0,0,0,2,.29q1.98,0,1.98-.98a.694.694,0,0,0-.54-.66A8,8,0,0,0,7.2-4.18a16.014,16.014,0,0,1-2.18-.46,3.382,3.382,0,0,1-1.49-.92A2.616,2.616,0,0,1,2.9-7.44a2.945,2.945,0,0,1,.59-1.81,3.8,3.8,0,0,1,1.72-1.23,7.346,7.346,0,0,1,2.67-.44,10.479,10.479,0,0,1,2.27.25,6.345,6.345,0,0,1,1.87.69L10.98-7.76a6.209,6.209,0,0,0-3.1-.8,3.154,3.154,0,0,0-1.5.28.823.823,0,0,0-.5.72.715.715,0,0,0,.54.7,9.56,9.56,0,0,0,1.72.38,18.411,18.411,0,0,1,2.16.47,3.245,3.245,0,0,1,1.46.91,2.582,2.582,0,0,1,.62,1.84,2.841,2.841,0,0,1-.6,1.78A3.83,3.83,0,0,1,10.03-.27,7.8,7.8,0,0,1,7.3.16Zm7-10.92h3.12V0H14.3Zm1.56-1.5a1.979,1.979,0,0,1-1.4-.5A1.622,1.622,0,0,1,13.92-14a1.622,1.622,0,0,1,.54-1.24,1.979,1.979,0,0,1,1.4-.5,2.029,2.029,0,0,1,1.4.48,1.539,1.539,0,0,1,.54,1.2,1.7,1.7,0,0,1-.54,1.29A1.956,1.956,0,0,1,15.86-12.26Zm11,1.34a4.428,4.428,0,0,1,3.23,1.2,4.759,4.759,0,0,1,1.23,3.56V0H28.2V-5.68a2.8,2.8,0,0,0-.56-1.91,2.054,2.054,0,0,0-1.62-.63,2.483,2.483,0,0,0-1.88.73,3.023,3.023,0,0,0-.7,2.17V0H20.32V-10.76H23.3V-9.5a4.138,4.138,0,0,1,1.54-1.05A5.366,5.366,0,0,1,26.86-10.92ZM44.8-5.34q0,.06-.06.84H36.6a2.535,2.535,0,0,0,1.04,1.58,3.445,3.445,0,0,0,2.04.58,4.131,4.131,0,0,0,1.49-.25,3.609,3.609,0,0,0,1.21-.79l1.66,1.8A5.579,5.579,0,0,1,39.6.16a7.024,7.024,0,0,1-3.22-.71,5.2,5.2,0,0,1-2.16-1.97,5.428,5.428,0,0,1-.76-2.86,5.5,5.5,0,0,1,.75-2.85,5.254,5.254,0,0,1,2.06-1.98,6.048,6.048,0,0,1,2.93-.71,6,6,0,0,1,2.86.68,4.963,4.963,0,0,1,2.01,1.95A5.815,5.815,0,0,1,44.8-5.34ZM39.22-8.56a2.687,2.687,0,0,0-1.78.6,2.554,2.554,0,0,0-.88,1.64h5.3a2.58,2.58,0,0,0-.88-1.63A2.63,2.63,0,0,0,39.22-8.56ZM50.5.16a10.452,10.452,0,0,1-2.62-.33A6.845,6.845,0,0,1,45.84-1l1.04-2.24a6.546,6.546,0,0,0,1.74.75,7.293,7.293,0,0,0,2,.29q1.98,0,1.98-.98a.694.694,0,0,0-.54-.66,8,8,0,0,0-1.66-.34,16.014,16.014,0,0,1-2.18-.46,3.382,3.382,0,0,1-1.49-.92,2.616,2.616,0,0,1-.63-1.88,2.945,2.945,0,0,1,.59-1.81,3.8,3.8,0,0,1,1.72-1.23,7.346,7.346,0,0,1,2.67-.44,10.479,10.479,0,0,1,2.27.25,6.345,6.345,0,0,1,1.87.69L54.18-7.76a6.209,6.209,0,0,0-3.1-.8,3.154,3.154,0,0,0-1.5.28.823.823,0,0,0-.5.72.715.715,0,0,0,.54.7,9.56,9.56,0,0,0,1.72.38,18.411,18.411,0,0,1,2.16.47,3.245,3.245,0,0,1,1.46.91,2.582,2.582,0,0,1,.62,1.84,2.841,2.841,0,0,1-.6,1.78A3.83,3.83,0,0,1,53.23-.27,7.8,7.8,0,0,1,50.5.16Zm10.62,0A10.452,10.452,0,0,1,58.5-.17,6.845,6.845,0,0,1,56.46-1L57.5-3.24a6.546,6.546,0,0,0,1.74.75,7.293,7.293,0,0,0,2,.29q1.98,0,1.98-.98a.694.694,0,0,0-.54-.66,8,8,0,0,0-1.66-.34,16.014,16.014,0,0,1-2.18-.46,3.382,3.382,0,0,1-1.49-.92,2.616,2.616,0,0,1-.63-1.88,2.945,2.945,0,0,1,.59-1.81,3.8,3.8,0,0,1,1.72-1.23,7.346,7.346,0,0,1,2.67-.44,10.479,10.479,0,0,1,2.27.25,6.345,6.345,0,0,1,1.87.69L64.8-7.76a6.209,6.209,0,0,0-3.1-.8,3.154,3.154,0,0,0-1.5.28.823.823,0,0,0-.5.72.715.715,0,0,0,.54.7,9.56,9.56,0,0,0,1.72.38,18.411,18.411,0,0,1,2.16.47,3.245,3.245,0,0,1,1.46.91,2.582,2.582,0,0,1,.62,1.84,2.841,2.841,0,0,1-.6,1.78A3.83,3.83,0,0,1,63.85-.27,7.8,7.8,0,0,1,61.12.16Z" transform="translate(-764 2445)" fill="#000"/>
    <path id="Path_1737" data-name="Path 1737" d="M13.44-55.57H36.726V-59.8H18.3V-89.6H13.44ZM64.583-68.307c0-7.924-5.3-13.272-12.737-13.272S38.914-76.085,38.914-68.453c0,7.681,5.542,13.175,13.855,13.175,4.278,0,7.827-1.458,10.16-4.181l-2.577-3.014a9.62,9.62,0,0,1-7.438,3.111c-5.1,0-8.751-3.014-9.334-7.535h20.9C64.534-67.335,64.583-67.918,64.583-68.307ZM51.846-77.641a8.035,8.035,0,0,1,8.264,7.389H43.581A8.032,8.032,0,0,1,51.846-77.641Zm36.947-3.695L79.75-60.674,70.9-81.336H66.041L77.32-55.57h4.764L93.362-81.336Zm26.787,0-8.9,20.613L97.689-81.336H92.828L104.2-55.618l-.826,1.8c-1.264,2.965-2.674,3.986-4.91,3.986a6.593,6.593,0,0,1-4.618-1.9l-1.993,3.5a9.674,9.674,0,0,0,6.612,2.382c3.938,0,6.9-1.7,9.188-7.146l12.494-28.342Zm22.7-.243c-4.084,0-7.389,1.507-9.285,4.132v-3.889h-4.473V-55.57h4.667V-68.842c0-5.591,3.209-8.556,8.167-8.556,4.424,0,6.952,2.479,6.952,7.535V-55.57h4.667V-70.4C148.978-77.981,144.554-81.579,138.282-81.579Zm42.781,13.272c0-7.924-5.3-13.272-12.737-13.272s-12.931,5.493-12.931,13.126c0,7.681,5.542,13.175,13.855,13.175,4.278,0,7.827-1.458,10.16-4.181l-2.577-3.014a9.62,9.62,0,0,1-7.438,3.111c-5.1,0-8.751-3.014-9.334-7.535h20.9C181.015-67.335,181.063-67.918,181.063-68.307Zm-12.737-9.334a8.035,8.035,0,0,1,8.264,7.389H160.062A8.032,8.032,0,0,1,168.326-77.641Z" transform="translate(-903.5 2473.054)" fill="#000"/>
    <path id="Path_1730" data-name="Path 1730" d="M160.567-364.021c-3.374,4.377-6.246,7.979-6.429,7.979a68.887,68.887,0,0,1-6.337-3.921c-3.283-2.143-6.337-3.83-6.748-3.739-.638.137-.729,1.55-.866,13.541-.046,9.3.046,13.587.41,14,.274.319,5.608,3.921,11.9,8.024l11.4,7.386-1.185,1.049a4.239,4.239,0,0,1-2.006,1.049c-.41,0-4.742-2.6-9.62-5.745-12.492-8.07-12.492-8.024-7.842,6.52,1.824,5.7,3.556,10.669,3.784,10.942.821,1.049,1.778.638,7.477-3.055a60.421,60.421,0,0,1,6.064-3.647,16.484,16.484,0,0,1,3.283,1.824,13.314,13.314,0,0,0,3.6,1.824,13.314,13.314,0,0,0,3.6-1.824,16.484,16.484,0,0,1,3.283-1.824,60.424,60.424,0,0,1,6.064,3.647c5.7,3.693,6.656,4.1,7.477,3.055.228-.274,1.96-5.243,3.784-10.942,3.419-10.669,3.556-11.717,1.687-12.082-.365-.091-4.65,2.462-9.529,5.562-4.878,3.146-9.21,5.745-9.62,5.745a4.239,4.239,0,0,1-2.006-1.049l-1.185-1.049,11.4-7.386c6.292-4.1,11.626-7.705,11.9-8.024.365-.41.456-4.7.41-14-.137-11.991-.228-13.4-.866-13.541-.41-.091-3.465,1.6-6.748,3.739a68.891,68.891,0,0,1-6.337,3.921c-.182,0-3.055-3.6-6.429-7.979-3.647-4.742-6.429-7.979-6.884-7.979S164.214-368.763,160.567-364.021Zm13.039,5.015c3.146,4.149,6.064,7.523,6.429,7.523a28.794,28.794,0,0,0,5.243-2.964,28.8,28.8,0,0,1,5.243-2.963c.547,0,.638,1.413.547,9.666l-.137,9.666-11.353,7.432c-6.246,4.1-11.717,7.432-12.128,7.432s-5.881-3.328-12.128-7.432l-11.353-7.432-.137-9.666c-.091-8.3,0-9.666.547-9.666a27.282,27.282,0,0,1,5.243,2.963,26.141,26.141,0,0,0,5.2,2.964c.365,0,3.283-3.374,6.474-7.523a89.177,89.177,0,0,1,6.155-7.523A89.189,89.189,0,0,1,173.606-359.006Zm-21.976,39.3,5.471,3.511-1.231.957c-2.416,1.915-6.246,4.012-6.611,3.6a105.858,105.858,0,0,1-3.693-11.307C145.567-323.535,146.3-323.125,151.631-319.705Zm37.705-3.237a105.858,105.858,0,0,1-3.693,11.307c-.365.41-4.195-1.687-6.611-3.6l-1.231-.957,5.425-3.511C188.47-323.079,189.336-323.535,189.336-322.942Zm-19.878,5.79,1.322,1.094-1.413.957a5.111,5.111,0,0,1-1.915,1,5.111,5.111,0,0,1-1.915-1l-1.413-.957,1.322-1.094C167.087-318.474,167.816-318.474,169.457-317.152Z" transform="translate(-1113.415 2744.191)" fill="url(#linear-gradient)"/>
  </g>
</svg>
