<svg xmlns="http://www.w3.org/2000/svg" width="633.235" height="161" viewBox="0 0 633.235 161">
  <g id="Group_3877" data-name="Group 3877" transform="translate(-5731 -4790)">
    <path id="Path_2626" data-name="Path 2626" d="M0,0H490.738L385.533,161H0Z" transform="translate(5731 4790)" fill="#f60"/>
    <path id="Path_2629" data-name="Path 2629" d="M216.234,250.1h0l-1.158-.2a18.982,18.982,0,0,1-3.715-1.427,24.606,24.606,0,0,1-3.864-2.224,12.531,12.531,0,0,1-2.941-3.022,14.911,14.911,0,0,1-1.924-4.027,22.233,22.233,0,0,1-.906-5.016,36.074,36.074,0,0,1,.112-5.99c.233-2.406.52-4.152.682-4.152a.024.024,0,0,1,.013,0,1.807,1.807,0,0,1,.3,1.195,22.526,22.526,0,0,0,2.019,7.4,19.258,19.258,0,0,0,1.783,2.987c.679.935,1.225,1.494,1.46,1.494.154,0,.353-.507.5-1.261.328-2.1,2.021-5.042,4.9-8.5,7.357-8.752,9.468-11.755,10.756-15.3.331-.847.481-1.233.592-1.233.087,0,.151.226.268.636a15.569,15.569,0,0,1,.066,3.717,28.182,28.182,0,0,1-1.229,6.808,84.38,84.38,0,0,1-3.835,9.521c-3.438,7.591-3.872,9.2-3.872,14.337V250.1Zm-11.611-.809h0a17.5,17.5,0,0,1-3.237-.945c-1.693-.6-3.33-1.259-4.381-1.764a23.415,23.415,0,0,1-6.2-4.207,19.174,19.174,0,0,1-4.062-5.75c-1.388-2.95-1.983-5.974-2.449-12.446-.7-9.469-1.589-12.216-5.03-15.466-1.047-.971-1.5-1.428-1.449-1.57.012-.031.049-.046.112-.046a14.607,14.607,0,0,1,2.859,1.019,16.23,16.23,0,0,1,5.407,3.609,18.945,18.945,0,0,1,3.893,5.65c.634,1.342,1.922,4.849,2.813,7.467,1.86,5.5,2.7,7.4,4.1,9.259.407.554.8,1.186.695,1.295a.039.039,0,0,1-.027.007,8.737,8.737,0,0,1-1.925-.9,18.97,18.97,0,0,1-6.023-6.306l-.827-1.527.2,1.991c.759,7.41,6.187,14.9,14.165,19.548a6.366,6.366,0,0,1,1.461,1.047.017.017,0,0,1,0,.015A.142.142,0,0,1,204.623,249.292Zm-23.238-9.778h0l-1.058-.6a11.418,11.418,0,0,1-2.362-1.925,8.761,8.761,0,0,1-1.642-2.323,8.34,8.34,0,0,1-.6-3.435,31.6,31.6,0,0,1,.6-5.426,61.882,61.882,0,0,0,.861-6.206,12.178,12.178,0,0,1,.389-2.595s.006,0,.008.006a26.487,26.487,0,0,1,.761,3.219,35.558,35.558,0,0,1,.662,7.6c0,5.465.436,8.34,1.555,10.255l.827,1.426ZM170.5,229.822c-.336,0-2.121-4.331-2.449-5.941a22.373,22.373,0,0,1-.215-5.36,17.785,17.785,0,0,1,.877-4.962c.681-1.691,2.282-4.523,2.558-4.523a.031.031,0,0,1,.024.01,12.248,12.248,0,0,1-.4,2.39,22.985,22.985,0,0,0-.5,3.684v1.394l1.688-1.162a7.683,7.683,0,0,1,1.817-1.009.041.041,0,0,1,.037.013,7.672,7.672,0,0,1-.827,2.058,20.56,20.56,0,0,0-2.482,9.99A23.119,23.119,0,0,1,170.5,229.822Zm35.5-1.385a.029.029,0,0,1-.023-.009,10.294,10.294,0,0,1,.4-2.423c.665-3.166.378-11.567-.53-15.5a75.262,75.262,0,0,0-4.633-13.441l-1.688-3.584,1.721,1.826a39.513,39.513,0,0,1,3.309,4.314,47.964,47.964,0,0,1,5.064,10.521,7.054,7.054,0,0,0,1.2,2.562.041.041,0,0,0,.022-.006,10.986,10.986,0,0,0,1.407-2.435,39.292,39.292,0,0,0,1.7-4l.761-2.157v2.058a33.349,33.349,0,0,1-3.574,14.868,47.971,47.971,0,0,1-2.849,4.531A13.583,13.583,0,0,1,206,228.438Zm-45.76-7.145h0l-1.555-.2a10.5,10.5,0,0,1-2.431-.645,11.03,11.03,0,0,1-2.227-1.2,11.691,11.691,0,0,1-1.941-1.706,12.382,12.382,0,0,1-1.575-2.157l-.993-1.66.232,1.328a10.6,10.6,0,0,0,1.986,4.712l.827,1.1-1.092-.2a17.062,17.062,0,0,1-6.785-3.584c-1.636-1.5-4.071-4.759-4.071-5.443,0-.173.588-.436,1.258-.564a28.637,28.637,0,0,0,8.009-3.352,30.849,30.849,0,0,0,6.321-5.908c.517-.692.741-.937.856-.937.072,0,.1.1.1.339a13.241,13.241,0,0,1-2.184,5.277c-.4.513-.583.828-.542.912a.042.042,0,0,0,.042.022,11.072,11.072,0,0,0,2.718-2.393,22,22,0,0,0,5.428-12.18c.124-.943.228-1.488.388-1.488.211,0,.523.961,1.1,2.982a26.8,26.8,0,0,1,.894,6.6,25.222,25.222,0,0,1-.223,5.543,17.848,17.848,0,0,1-1.564,4.646c-.475,1.012-.729,1.493-.891,1.493-.1,0-.164-.172-.234-.431-.911-3.319-1.465-4.865-1.743-4.865-.141,0-.209.4-.209,1.215a32.9,32.9,0,0,1-.861,4.879c-.95,3.911-.9,5.331.232,6.9l.727.962Zm68.856-.856a.028.028,0,0,1-.019-.007,26.388,26.388,0,0,1,.265-3.419,95.352,95.352,0,0,0-.695-20.046c-2.72-16.465-9.4-29.988-17.871-36.175l-1.489-1.062,1.158.232A23.5,23.5,0,0,1,221,165.338a11.562,11.562,0,0,0,2,1.576c.012,0,.018-.005.018-.016a30.286,30.286,0,0,0-1.522-3.086c-5.193-9.614-10.467-14.642-20.155-19.216l-2.317-1.1,3.343.166a54.178,54.178,0,0,1,6.784.863,59.676,59.676,0,0,1,8.4,2.369,67.14,67.14,0,0,1,8.179,3.588,66.116,66.116,0,0,1,7.583,4.609,56.89,56.89,0,0,1,6.615,5.43c2.126,2.038,5.813,6.345,5.8,6.777a.035.035,0,0,1-.01.027.037.037,0,0,1-.026.007,8.141,8.141,0,0,1-1.761-.9,23.957,23.957,0,0,0-6.818-2.788l-1.291-.232,1.324,1.593a38.131,38.131,0,0,1,4.7,7.368,49.382,49.382,0,0,1,2.267,5.771,42.155,42.155,0,0,1,1.572,5.547c.081.521.127.844.064.919a.043.043,0,0,1-.034.016c-.177,0-.795-.938-2.148-2.992a52.309,52.309,0,0,0-10.789-11.715l0,0a15.858,15.858,0,0,0-3-2.133.061.061,0,0,0-.058.028c-.076.132.262.714.874,1.772v0a34.385,34.385,0,0,1,2.3,5.381,51.326,51.326,0,0,1,1.833,6.5,59.4,59.4,0,0,1,.939,15.267,61.359,61.359,0,0,1-2.759,15.167C231.906,214.932,229.443,220.437,229.094,220.437Zm-10.047-11.693-.827-3.813c-1.731-7.977-4.361-16.31-6.255-19.814-.148-.276-.242-.425-.313-.425-.172,0-.194.89-.217,3.645a77.214,77.214,0,0,1-.612,8.355c-.369,2.989-.765,4.92-1.009,4.92a13.288,13.288,0,0,1-.993-3.252,113.021,113.021,0,0,0-5.758-16.992c-.81-1.689-2.25-4.295-3.21-5.808-1.7-2.606-6.741-8.01-8.174-8.762a1.287,1.287,0,0,0-.416-.171.07.07,0,0,0-.064.03c-.077.12.134.617.712,1.9a29.716,29.716,0,0,1,1.638,4.779,28.372,28.372,0,0,1,.844,4.879,6.615,6.615,0,0,1,.056,1.841.028.028,0,0,1-.021.01c-.044,0-.114-.107-.233-.358-.23-.461-1.129-2.4-2-4.272l-.02-.043a69.691,69.691,0,0,0-7.281-12.213c-1.512-2.037-1.964-2.709-1.849-2.938.048-.1.193-.115.426-.115a20.945,20.945,0,0,1,3.872,1,26.992,26.992,0,0,1,5.581,2.5,27.446,27.446,0,0,1,4.911,3.742,33.687,33.687,0,0,1,4.29,5.036,47.262,47.262,0,0,1,3.719,6.38l1.357,2.755-.232-2.223c-.429-4.238-2.263-10.25-5.03-16.494-.035-.078-.044-.132-.026-.16a.061.061,0,0,1,.055-.024c.371,0,2.233,1.495,4.24,3.4a33.87,33.87,0,0,1,5.41,6.566,38.333,38.333,0,0,1,3.844,8.107,56.858,56.858,0,0,1,2.385,9.955,98.559,98.559,0,0,1,1.036,12.111l.165,5.97Zm-78.458-1.2c-.925,0-1.4-.432-2.261-1.65a13.145,13.145,0,0,1-1.688-3.257,16.208,16.208,0,0,1-.894-3.779l-.2-2.024,1.622,1.626c1.876,1.882,4.3,3.219,5.891,3.253h.1c1.686,0,4-1.216,6.2-3.252a16.109,16.109,0,0,0,4.523-6.705l.463-1.593.1,1.394a17.652,17.652,0,0,1-.232,3.319,14.877,14.877,0,0,1-1.506,4.316,16.324,16.324,0,0,1-6.313,6.5,14.809,14.809,0,0,1-4.261,1.627A7.558,7.558,0,0,1,140.589,207.544Zm55.655-1.785-1.323-3.648c-3.829-10.46-9.437-18.78-16.217-24.061a8.224,8.224,0,0,1-2.038-1.9.029.029,0,0,1,.019-.025.45.45,0,0,1,.151-.019,15.908,15.908,0,0,1,3.176.752,27.523,27.523,0,0,1,3.656,1.358,5.763,5.763,0,0,0,1.558.632c.042,0,.063-.012.063-.034a27.874,27.874,0,0,0-2.081-3.887c-1.255-2.121-2.568-4.2-3.347-5.306a13.153,13.153,0,0,1-1.635-2.515.013.013,0,0,1,.013-.007,11.3,11.3,0,0,1,1.721,1.128,39.285,39.285,0,0,1,7.248,7.733,41.036,41.036,0,0,1,3.154,5.682,58.622,58.622,0,0,1,2.592,6.722,73.637,73.637,0,0,1,3.09,15.242l.2,2.155Zm-12.916-2.46a10.169,10.169,0,0,1-2.406-1.055,26.352,26.352,0,0,1-5.523-3.829,28.042,28.042,0,0,1-4.505-5.1l-1.224-1.825.232,2.124c.2,2,1.253,5.5,1.853,6.14.251.276.375.5.331.6a.1.1,0,0,1-.1.051,1.546,1.546,0,0,1-.8-.483,10.725,10.725,0,0,1-2.615-4.161,46.164,46.164,0,0,1-2.019-7.721c-.759-3.857-1.141-5.578-1.4-5.578-.055,0-.107.077-.16.235-.773,2.36-1.345,3.639-1.853,4.149-.241.2-.392.326-.467.327a.045.045,0,0,1-.038-.017c-.057-.073.012-.371.174-1.039a24.4,24.4,0,0,0-.5-9.99c-.095-.3-.135-.5-.057-.6s.274-.127.586-.127a15.712,15.712,0,0,1,2.681.5,18.372,18.372,0,0,1,4.234,1.69,20.155,20.155,0,0,1,3.775,2.695,22.147,22.147,0,0,1,3.179,3.572,23.942,23.942,0,0,1,2.447,4.322l.861,1.991-1.953-2.157a16.256,16.256,0,0,0-5.792-4.48l-1.258-.531,1.688,2.191a78.164,78.164,0,0,1,4.6,8.065,50.606,50.606,0,0,0,4.8,8.1c.96,1.156,1.4,1.735,1.326,1.9C183.423,203.282,183.387,203.3,183.328,203.3Zm-37.421-5a35.208,35.208,0,0,1-1.258-4.746c-1.271-5.6-1.351-8.077-.331-10.189l.695-1.493.265,1.892c.24,1.584,1.366,4.58,1.721,4.58.035,0,.066-1.471.066-3.086a11.234,11.234,0,0,1,.629-4.381c.339-.781.483-1.076.646-1.076.116,0,.239.149.446.412a20.208,20.208,0,0,1,1.357,2.489c.752,1.573.86,2.218.894,5.31,0,3.287-.061,3.607-1.092,5.708a14.367,14.367,0,0,1-2.081,3.012C147,197.708,146.266,198.294,145.907,198.294Zm10.888-11.12-1.059-2.819a27.533,27.533,0,0,0-5.957-9.525,28.462,28.462,0,0,0-7.91-6.106l-2.284-1.195-.066-2.622a10.155,10.155,0,0,0-.794-4.115c-.349-.74-.516-1.042-.575-1.042a.016.016,0,0,0-.013.006,1.411,1.411,0,0,0,.059.57,5.482,5.482,0,0,1-1.133,4.124,7.826,7.826,0,0,1-3.963,2.78l-.761.232.662-1.427a8.548,8.548,0,0,0,.563-1.493.059.059,0,0,0-.025,0,8.351,8.351,0,0,0-1.531.468,29.567,29.567,0,0,1-7.43.712,28.225,28.225,0,0,1-4.418-.281c-2.939-.5-3.872-1.193-4.534-3.385a4.673,4.673,0,0,1-.368-2.414c.167-.475.668-.764,1.692-1.269,2.025-1,4.669-3.261,4.964-4.248.127-.4,1-.869,2.391-1.294a24.405,24.405,0,0,1,4.824-.9,6.923,6.923,0,0,0,2.151-.291c0-.058-.235-.125-.6-.206a51.914,51.914,0,0,0-7.136-.342c-2.189,0-3.991.064-4.944.176a10.859,10.859,0,0,1-1.213.109c-.206,0-.312-.025-.322-.077-.031-.156.752-.551,2.892-1.459a52.973,52.973,0,0,1,8.667-2.473,49.147,49.147,0,0,1,8.741-1.178c1.052,0,1.66-.143,1.757-.414.056-.156-.056-.352-.334-.581-.338-.282-.467-.472-.447-.654.035-.315.546-.63,1.539-1.138a43,43,0,0,1,13.37-3.518c.815-.085,2.073-.132,3.544-.132a28.341,28.341,0,0,1,5.722.364.021.021,0,0,1,.013.019,7.53,7.53,0,0,1-2.131,1.341A7.606,7.606,0,0,0,158.086,143a7.893,7.893,0,0,0,2.449,1.1,28.917,28.917,0,0,1,9.209,5.252,38.244,38.244,0,0,1,7.67,8.787A19.179,19.179,0,0,1,179,160.924c0,.018-.01.028-.029.028a6.646,6.646,0,0,1-1.692-1.388,25.031,25.031,0,0,0-6.056-4.281l-1.158-.465,1.158,1.593c1.548,2.194,2.151,3.729,2.151,5.476a4.3,4.3,0,0,1-1.167,2.825,10.621,10.621,0,0,1-3.4,2.452,9.864,9.864,0,0,1-4.633,1.228l-2.449.1-1.721-1.66c-1.578-1.55-4.054-3.385-4.567-3.385a.021.021,0,0,0-.02.012,5.4,5.4,0,0,0,.98,1.548c1.274,1.681,3.409,5.879,3.409,6.7,0,.036-.019.054-.057.054a5.648,5.648,0,0,1-1.73-1.283,33.141,33.141,0,0,0-8.638-5.642,14.966,14.966,0,0,0-3.079-1.148c-.07,0-.111.017-.125.053-.07.177.551.8,1.881,2.057a29.531,29.531,0,0,1,2.931,3.244,27.486,27.486,0,0,1,2.344,3.568,27.888,27.888,0,0,1,1.767,3.9,30.773,30.773,0,0,1,1.2,4.252,26.619,26.619,0,0,1,.53,4.48l-.033,1.923Zm-9.061-41.146a6.842,6.842,0,0,0-1.662.193,6.977,6.977,0,0,0-1.254.4c-.282.131-.425.252-.414.351.016.136.326.211.873.211l1.125.033-1.655.863-1.655.863.993.432.993.4-1.158.2-.321.051h-.006c-.751.119-2.149.341-3.313.512l-2.482.4,1.919.431a16.927,16.927,0,0,1,6.983,3.485c.7.623,1.144.926,1.345.926a.108.108,0,0,0,.1-.051c.1-.174-.144-.786-.75-1.87l-.827-1.427.728.166a16.8,16.8,0,0,0,3.685.445,9.076,9.076,0,0,0,1.511-.113l1.456-.266-2.052-.631a6.513,6.513,0,0,1-1.894-.748.015.015,0,0,1,.008-.015,21.025,21.025,0,0,1,3.359-.639c1.476-.214,3.527-.471,4.451-.49l1.489-.033-2.648-1.261C152.675,146.9,149.921,146.028,147.734,146.028Zm2.111-3.49a6.835,6.835,0,0,0-1.952.564l-1.158.564,2.648.2a16.947,16.947,0,0,1,3.938.763,5.824,5.824,0,0,0,1.043.411c.019,0,.03,0,.034-.014.021-.047-.122-.206-.382-.5A8.125,8.125,0,0,0,149.845,142.538ZM125.984,180.77h0l-.827-.8a20.246,20.246,0,0,1-3.843-5.845,17.412,17.412,0,0,1-1.882-6.368c0-.489.033-.644.714-.644.364,0,.925.048,1.7.114,1.295.133,3.523.467,4.865.73,4.868.989,10.421,3.249,12.642,5.144l1.092.929-1.688-.631a33.465,33.465,0,0,0-9.564-1.659c-2.371,0-2.416,0-2.846,1.062a14.548,14.548,0,0,0-.43,4.514l.066,3.451Zm56.44-25.4c-.055,0-.089-.015-.1-.045-.074-.145.278-.68,1.151-1.905a17.869,17.869,0,0,0,2.78-4.712l.3-.763-1.688.929A21.535,21.535,0,0,1,177.844,151l-.239.026h-.014c-.348.038-.623.069-.794.069-.133,0-.2-.018-.211-.057-.041-.14.637-.572,2.273-1.618l.033-.021.508-.325a9.09,9.09,0,0,0,1.857-1.382.014.014,0,0,0,0-.012.155.155,0,0,0-.093-.017,7.117,7.117,0,0,0-1.661.382,15.521,15.521,0,0,1-3.673.5l-2.052.033-2.151-2.257-2.151-2.29,5.494-.232a47.532,47.532,0,0,0,13.139-1.892l.317-.1.013,0a8.652,8.652,0,0,1,1.973-.508.464.464,0,0,1,.367.128c.209.229.159.782.067,1.786q-.011.124-.023.258a16.9,16.9,0,0,1-.86,4.128A14.013,14.013,0,0,1,188.2,151.1a13.774,13.774,0,0,1-2.623,2.531,10.551,10.551,0,0,1-2.871,1.684A1.084,1.084,0,0,1,182.424,155.374Zm-31.924-5.55h0c-1.32,0-2.519-.367-2.791-.853a.429.429,0,0,1,.018-.46c.091-.159.462-.246,1.045-.247a10.691,10.691,0,0,1,3.357.612c.44.194.669.3.666.389,0,.07-.136.131-.435.242A4.977,4.977,0,0,1,150.5,149.824Zm67.107-8.464h0a29.9,29.9,0,0,1-3.855-.813,87.583,87.583,0,0,0-20.619-2.321h0a104.361,104.361,0,0,0-19.025,1.757,30.254,30.254,0,0,1-3.8.568c-.1,0-.153-.009-.166-.025a.013.013,0,0,1,0-.012,19.186,19.186,0,0,1,2.251-1.958,39.011,39.011,0,0,1,9.9-5.754,28.531,28.531,0,0,1,10.123-2.145h1.986l-1.82.4a39.925,39.925,0,0,0-7.182,2.456c-.3.167-.5.283-.48.365.051.2,1.378.2,5.775.2a53.938,53.938,0,0,1,8.828.552,46.127,46.127,0,0,1,8.083,2.17c3.232,1.112,10.029,4.157,10.1,4.525a.021.021,0,0,1-.007.021C217.683,141.354,217.655,141.359,217.607,141.359Zm-49.624-4.332h0l.628-1.094a25.62,25.62,0,0,1,6.123-6.339,19.206,19.206,0,0,1,4.617-2.329,14.372,14.372,0,0,1,4.57-.853,8.272,8.272,0,0,1,1.039.062c.584.062,1.4.124,1.986.166.066,0,.1.01.1.03a9.5,9.5,0,0,1-2.619,1.1,49.173,49.173,0,0,0-14.5,7.766Zm-15.33-.248a.031.031,0,0,1-.029-.013c-.024-.041.049-.172.159-.37.031-.056.069-.125.108-.2.7-1.338,3.677-4.084,5.792-5.343a26.81,26.81,0,0,1,6.3-2.639,30.07,30.07,0,0,1,6.9-1.244l.134,0c.2,0,.3.024.31.077.034.134-.472.462-1.933,1.253a24.559,24.559,0,0,0-7.182,5.41c-1.525,1.46-2.306,2.083-2.613,2.083a.132.132,0,0,1-.119-.059c-.121-.188.079-.833.647-2.09.307-.708.445-1.23.359-1.361a.069.069,0,0,0-.061-.033c-.729,0-4.334,1.681-6.122,2.854l-.753.5A11.488,11.488,0,0,1,152.652,136.779Z" transform="translate(5638 4683)" fill="#fff"/>
    <path id="Path_2628" data-name="Path 2628" d="M11.032.336A8.869,8.869,0,0,1,4.494-1.988,8.947,8.947,0,0,1,2.156-8.624V-19.6H6.692V-8.792q0,5.264,4.368,5.264A4.094,4.094,0,0,0,14.308-4.8a5.939,5.939,0,0,0,1.12-3.99V-19.6h4.48V-8.624A8.947,8.947,0,0,1,17.57-1.988,8.869,8.869,0,0,1,11.032.336Zm22.2-15.624a6.2,6.2,0,0,1,4.522,1.68A6.662,6.662,0,0,1,39.48-8.624V0H35.112V-7.952a3.927,3.927,0,0,0-.784-2.674,2.875,2.875,0,0,0-2.268-.882,3.476,3.476,0,0,0-2.632,1.022,4.232,4.232,0,0,0-.98,3.038V0H24.08V-15.064h4.172V-13.3a5.793,5.793,0,0,1,2.156-1.47A7.512,7.512,0,0,1,33.236-15.288Zm25.7-5.488V0H54.768V-1.736a5.76,5.76,0,0,1-4.7,1.96,7.822,7.822,0,0,1-3.85-.952,6.816,6.816,0,0,1-2.7-2.716,8.279,8.279,0,0,1-.98-4.088,8.279,8.279,0,0,1,.98-4.088,6.816,6.816,0,0,1,2.7-2.716,7.822,7.822,0,0,1,3.85-.952,5.73,5.73,0,0,1,4.508,1.82v-7.308ZM50.82-3.36a3.65,3.65,0,0,0,2.744-1.134,4.2,4.2,0,0,0,1.092-3.038,4.2,4.2,0,0,0-1.092-3.038A3.65,3.65,0,0,0,50.82-11.7a3.683,3.683,0,0,0-2.772,1.134,4.2,4.2,0,0,0-1.092,3.038,4.2,4.2,0,0,0,1.092,3.038A3.683,3.683,0,0,0,50.82-3.36ZM77.728-7.476q0,.084-.084,1.176h-11.4A3.549,3.549,0,0,0,67.7-4.088a4.823,4.823,0,0,0,2.856.812,5.783,5.783,0,0,0,2.086-.35A5.053,5.053,0,0,0,74.34-4.732l2.324,2.52A7.81,7.81,0,0,1,70.448.224,9.833,9.833,0,0,1,65.94-.77a7.287,7.287,0,0,1-3.024-2.758,7.6,7.6,0,0,1-1.064-4,7.7,7.7,0,0,1,1.05-3.99,7.356,7.356,0,0,1,2.884-2.772,8.468,8.468,0,0,1,4.1-.994,8.4,8.4,0,0,1,4,.952,6.949,6.949,0,0,1,2.814,2.73A8.141,8.141,0,0,1,77.728-7.476Zm-7.812-4.508a3.762,3.762,0,0,0-2.492.84,3.576,3.576,0,0,0-1.232,2.3h7.42A3.612,3.612,0,0,0,72.38-11.13,3.682,3.682,0,0,0,69.916-11.984Zm14.9-1.092a4.857,4.857,0,0,1,2.114-1.652,7.846,7.846,0,0,1,3.066-.56v4.032q-.728-.056-.98-.056a4,4,0,0,0-2.94,1.05,4.244,4.244,0,0,0-1.064,3.15V0H80.64V-15.064h4.172ZM20.16,34l-.028-11.76-5.768,9.688H12.32L6.58,22.492V34H2.324V14.4H6.076l7.336,12.18L20.636,14.4H24.36L24.416,34ZM34.832,18.712a7.84,7.84,0,0,1,5.376,1.666A6.375,6.375,0,0,1,42.084,25.4V34H38V32.124q-1.232,2.1-4.592,2.1a7.127,7.127,0,0,1-3.01-.588,4.488,4.488,0,0,1-1.946-1.624,4.227,4.227,0,0,1-.672-2.352,3.925,3.925,0,0,1,1.582-3.3,8.062,8.062,0,0,1,4.886-1.2h3.472a2.784,2.784,0,0,0-.868-2.2,3.823,3.823,0,0,0-2.6-.77,7.6,7.6,0,0,0-2.366.378A6.26,6.26,0,0,0,29.9,23.584l-1.568-3.052a9.461,9.461,0,0,1,2.954-1.344A13.233,13.233,0,0,1,34.832,18.712ZM34.5,31.284a3.8,3.8,0,0,0,1.988-.518,2.834,2.834,0,0,0,1.232-1.526V27.7h-3q-2.688,0-2.688,1.764a1.571,1.571,0,0,0,.658,1.33A2.964,2.964,0,0,0,34.5,31.284Zm18-3.192-2.1,2.072V34H46.032V13.224H50.4v11.76l6.384-6.048h5.208L55.72,25.32,62.552,34H57.26Zm26.124-1.568q0,.084-.084,1.176h-11.4A3.549,3.549,0,0,0,68.6,29.912a4.823,4.823,0,0,0,2.856.812,5.783,5.783,0,0,0,2.086-.35,5.053,5.053,0,0,0,1.694-1.106l2.324,2.52a7.81,7.81,0,0,1-6.216,2.436,9.833,9.833,0,0,1-4.508-.994,7.287,7.287,0,0,1-3.024-2.758,7.6,7.6,0,0,1-1.064-4,7.7,7.7,0,0,1,1.05-3.99,7.356,7.356,0,0,1,2.884-2.772,8.929,8.929,0,0,1,8.106-.042,6.949,6.949,0,0,1,2.814,2.73A8.141,8.141,0,0,1,78.624,26.524Zm-7.812-4.508a3.762,3.762,0,0,0-2.492.84,3.576,3.576,0,0,0-1.232,2.3h7.42a3.612,3.612,0,0,0-1.232-2.282A3.682,3.682,0,0,0,70.812,22.016ZM89.768,14.4H94.3V34H89.768ZM107.8,18.712a6.2,6.2,0,0,1,4.522,1.68,6.662,6.662,0,0,1,1.722,4.984V34h-4.368V26.048a3.927,3.927,0,0,0-.784-2.674,2.875,2.875,0,0,0-2.268-.882,3.476,3.476,0,0,0-2.632,1.022,4.232,4.232,0,0,0-.98,3.038V34H98.644V18.936h4.172V20.7a5.793,5.793,0,0,1,2.156-1.47A7.512,7.512,0,0,1,107.8,18.712ZM126.224,14.4h4.536V34h-4.536Zm27.16,0V34H149.66l-9.772-11.9V34h-4.48V14.4h3.752L148.9,26.3V14.4Zm4.648,0h8.9a12.514,12.514,0,0,1,5.642,1.218,9.119,9.119,0,0,1,3.808,3.43,9.648,9.648,0,0,1,1.358,5.152,9.648,9.648,0,0,1-1.358,5.152,9.119,9.119,0,0,1-3.808,3.43A12.514,12.514,0,0,1,166.936,34h-8.9Zm8.68,15.876a6.587,6.587,0,0,0,4.69-1.638,5.785,5.785,0,0,0,1.75-4.438,5.785,5.785,0,0,0-1.75-4.438,6.587,6.587,0,0,0-4.69-1.638h-4.144V30.276ZM181.16,14.4H185.7V34H181.16Zm22.092,15.4h-9.1L192.416,34h-4.648L196.5,14.4h4.48L209.748,34h-4.76Zm-1.428-3.444-3.108-7.5-3.108,7.5ZM2.324,48.4H6.86V68H2.324Zm18.032,4.312a6.2,6.2,0,0,1,4.522,1.68A6.662,6.662,0,0,1,26.6,59.376V68H22.232V60.048a3.927,3.927,0,0,0-.784-2.674,2.875,2.875,0,0,0-2.268-.882,3.476,3.476,0,0,0-2.632,1.022,4.232,4.232,0,0,0-.98,3.038V68H11.2V52.936h4.172V54.7a5.793,5.793,0,0,1,2.156-1.47A7.512,7.512,0,0,1,20.356,52.712Zm10.192.224h4.368V68H30.548Zm2.184-2.1a2.77,2.77,0,0,1-1.96-.7,2.371,2.371,0,0,1,0-3.472,2.77,2.77,0,0,1,1.96-.7,2.84,2.84,0,0,1,1.96.672,2.155,2.155,0,0,1,.756,1.68,2.378,2.378,0,0,1-.756,1.806A2.738,2.738,0,0,1,32.732,50.836Zm15.96,16.436a4.49,4.49,0,0,1-1.582.714,8,8,0,0,1-1.974.238,5.864,5.864,0,0,1-4.158-1.372,5.25,5.25,0,0,1-1.47-4.032V56.632H37.184v-3.36h2.324V49.6h4.368v3.668h3.752v3.36H43.876v6.132a2.056,2.056,0,0,0,.49,1.47,1.816,1.816,0,0,0,1.386.518,2.807,2.807,0,0,0,1.764-.56Zm2.464-14.336h4.368V68H51.156Zm2.184-2.1a2.77,2.77,0,0,1-1.96-.7,2.371,2.371,0,0,1,0-3.472,2.77,2.77,0,0,1,1.96-.7,2.84,2.84,0,0,1,1.96.672,2.155,2.155,0,0,1,.756,1.68,2.378,2.378,0,0,1-.756,1.806A2.738,2.738,0,0,1,53.34,50.836Zm12.32,1.876a7.84,7.84,0,0,1,5.376,1.666A6.375,6.375,0,0,1,72.912,59.4V68H68.824V66.124q-1.232,2.1-4.592,2.1a7.127,7.127,0,0,1-3.01-.588,4.488,4.488,0,0,1-1.946-1.624A4.227,4.227,0,0,1,58.6,63.66a3.925,3.925,0,0,1,1.582-3.3,8.062,8.062,0,0,1,4.886-1.2h3.472a2.784,2.784,0,0,0-.868-2.2,3.823,3.823,0,0,0-2.6-.77,7.6,7.6,0,0,0-2.366.378,6.26,6.26,0,0,0-1.974,1.022l-1.568-3.052a9.461,9.461,0,0,1,2.954-1.344A13.233,13.233,0,0,1,65.66,52.712Zm-.336,12.572a3.8,3.8,0,0,0,1.988-.518,2.834,2.834,0,0,0,1.232-1.526V61.7h-3q-2.688,0-2.688,1.764a1.571,1.571,0,0,0,.658,1.33A2.964,2.964,0,0,0,65.324,65.284Zm21.252,1.988a4.49,4.49,0,0,1-1.582.714,8,8,0,0,1-1.974.238,5.865,5.865,0,0,1-4.158-1.372,5.25,5.25,0,0,1-1.47-4.032V56.632H75.068v-3.36h2.324V49.6H81.76v3.668h3.752v3.36H81.76v6.132a2.056,2.056,0,0,0,.49,1.47,1.816,1.816,0,0,0,1.386.518,2.807,2.807,0,0,0,1.764-.56ZM89.04,52.936h4.368V68H89.04Zm2.184-2.1a2.77,2.77,0,0,1-1.96-.7,2.371,2.371,0,0,1,0-3.472,2.77,2.77,0,0,1,1.96-.7,2.84,2.84,0,0,1,1.96.672,2.155,2.155,0,0,1,.756,1.68,2.378,2.378,0,0,1-.756,1.806A2.738,2.738,0,0,1,91.224,50.836Zm21.2,2.1L106.064,68h-4.508L95.228,52.936h4.508l4.172,10.248,4.312-10.248Zm16.128,7.588q0,.084-.084,1.176h-11.4a3.549,3.549,0,0,0,1.456,2.212,4.823,4.823,0,0,0,2.856.812,5.783,5.783,0,0,0,2.086-.35,5.052,5.052,0,0,0,1.694-1.106l2.324,2.52a7.81,7.81,0,0,1-6.216,2.436,9.833,9.833,0,0,1-4.508-.994,7.287,7.287,0,0,1-3.024-2.758,7.6,7.6,0,0,1-1.064-4,7.7,7.7,0,0,1,1.05-3.99,7.356,7.356,0,0,1,2.884-2.772,8.929,8.929,0,0,1,8.106-.042,6.949,6.949,0,0,1,2.814,2.73A8.141,8.141,0,0,1,128.548,60.524Zm-7.812-4.508a3.762,3.762,0,0,0-2.492.84,3.576,3.576,0,0,0-1.232,2.3h7.42A3.612,3.612,0,0,0,123.2,56.87,3.682,3.682,0,0,0,120.736,56.016Z" transform="translate(5913 4847)" fill="#fff"/>
    <path id="Path_2627" data-name="Path 2627" d="M220.235,161H-.208L104.526,0H220.235Z" transform="translate(6144 4790)" fill="#0ba000"/>
  </g>
</svg>
