<svg xmlns="http://www.w3.org/2000/svg" width="885.479" height="900.535" viewBox="0 0 885.479 900.535">
  <g id="Group_7" data-name="Group 7" transform="translate(-359 -620.465)">
    <rect id="Rectangle_1" data-name="Rectangle 1" width="554.512" height="316.398" transform="matrix(0.958, 0.287, -0.287, 0.958, 634.309, 947.993)" fill="#e7eaf0"/>
    <path id="Path_47" data-name="Path 47" d="M873.266,782.089l-716-220.315L326.734,11,1042.74,231.315ZM161.225,559.752l709.9,218.436,167.651-544.851L328.876,14.9Z" transform="translate(201.739 632)" fill="#3f3d56"/>
    <rect id="Rectangle_2" data-name="Rectangle 2" width="197.715" height="224.382" transform="translate(617.087 827.269)" fill="#2f2e41"/>
    <path id="Path_48" data-name="Path 48" d="M723.679,861.143H435.7v-106.8a213.732,213.732,0,0,1,13.178-73.484c.439-1.2.877-2.384,1.335-3.566,12.759-33.166,29.352-52.638,29.352-52.638,116.338,64.844,186.9,5.722,186.9,5.722L679.089,681.3,680,685l33.585,135.448.915,3.719Z" transform="translate(201.739 632)" fill="#2f2e41"/>
    <path id="Path_49" data-name="Path 49" d="M680.005,685c-43.331,10.547-81.723,14.17-114.087,14.17a397.591,397.591,0,0,1-60.191-4.444,324.332,324.332,0,0,1-56.853-13.865c.439-1.2.877-2.384,1.335-3.566a319.111,319.111,0,0,0,56.319,13.693c39.345,6.027,98.7,8.277,172.561-9.688Z" transform="translate(201.739 632)" fill="#3f3d56"/>
    <path id="Path_50" data-name="Path 50" d="M714.505,824.162c-57.616,18.023-107.889,23.763-148.588,23.763a397.591,397.591,0,0,1-60.191-4.444c-32.765-5.054-56.662-13.312-70.032-18.824v-4.139c12.8,5.416,37,14.037,70.833,19.224,45.3,6.942,117.12,8.868,207.062-19.3Z" transform="translate(201.739 632)" fill="#3f3d56"/>
    <path id="Path_51" data-name="Path 51" d="M722.725,379.581l-40.6,70.107v.019l-1.354,2.346-93.452,83.916L472.885,457.775,423.3,394.838s7.629-24.793,34.329-28.608c7.037-1.011,13.007-2,18.442-3.147,3.7-.782,7.152-1.621,10.528-2.575,10.47-2.956,20.14-6.98,33.967-13.35,24.793-11.443-7.629-47.679-7.629-47.679l66.751-41.958s29.638,96.312,81.608,95.454c.763,0,1.526-.038,2.308-.1,2.861-.21,5.588-.305,8.182-.324C717.595,352.251,722.725,379.581,722.725,379.581Z" transform="translate(201.739 632)" fill="#ffb8b8"/>
    <path id="Path_52" data-name="Path 52" d="M490.05,432.981l-13.98-69.9c3.7-.782,7.152-1.621,10.528-2.575Z" transform="translate(201.739 632)" fill="#3f3d56"/>
    <path id="Path_53" data-name="Path 53" d="M671.785,352.556l-12.95,69.936,2.46-69.517c.763,0,1.526-.038,2.308-.1C666.464,352.67,669.191,352.575,671.785,352.556Z" transform="translate(201.739 632)" fill="#3f3d56"/>
    <circle id="Ellipse_1" data-name="Ellipse 1" cx="72.473" cy="72.473" r="72.473" transform="translate(646.017 794.162)" fill="#ffb8b8"/>
    <path id="Path_54" data-name="Path 54" d="M434.742,383.395,423.3,394.838s-17.165,154.481,0,228.861l80.1,205.975s20.979,72.473,66.751,57.215-38.143-99.173-38.143-99.173l-59.122-162.11V423.446Z" transform="translate(201.739 632)" fill="#ffb8b8"/>
    <path id="Path_55" data-name="Path 55" d="M694.118,362.416l28.608,17.165s24.793,85.823,3.814,204.068L694.118,808.7S675.046,894.519,635,873.54,661.7,782,661.7,782l17.164-175.46,3.814-183.089Z" transform="translate(201.739 632)" fill="#ffb8b8"/>
    <path id="Path_56" data-name="Path 56" d="M577.78,494.011l-89.637-74.38L469.071,465.4S450,656.122,465.257,652.307s17.165-20.979,30.515-7.629S593.037,677.1,604.48,665.657s66.751-28.608,66.751-28.608S694.118,619.885,686.489,597s0-26.7,1.907-36.236,0-110.616,0-110.616l-26.7-45.772Z" transform="translate(201.739 632)" fill="#3f3d56"/>
    <path id="Path_57" data-name="Path 57" d="M580.175,367.23c16.93-2.1,31.612-12.864,43.638-31.984l-3.23-2.03c-11.382,18.1-25.128,28.266-40.857,30.227-27.95,3.484-53.163-20.214-53.414-20.453l-2.634,2.759c1,.957,23.238,21.866,50.235,21.866l.052,0v30.181a9.529,9.529,0,1,0,3.814.389V367.452C578.576,367.391,579.373,367.33,580.175,367.23Z" transform="translate(201.739 632)" fill="#ff0080"/>
    <path id="Path_58" data-name="Path 58" d="M513.89,109.715s-73.335,9.169-89.753,53.41-45.15,67.468-45.15,67.468-45.26,31.461-22.63,87.623c0,0-70.406,47.314-23.888,89.343,0,0-2.736,42.029,24.627,70.786,0,0,21.891,11.06,13.682,17.7s54.727,2.212,49.254-57.514S451.5,336.73,451.5,336.73s-35.573-77.437-19.155-103.982c9.968-16.117,14.249-28.135,22.524-35.091a103.818,103.818,0,0,0,12.774-12.467c5.1-6.054,15.411-14.3,31.742-9.9a45.98,45.98,0,0,1,18.841,9.912A344.816,344.816,0,0,0,571.1,223.81c8.845,5.248,18.107,11.179,26.707,17.5,15.925,11.7,2.769,36.507-13.155,57.273-23.559,30.723-24.024,73.882.617,103.744q1.086,1.316,2.216,2.582c24.094,26.983-6.944,50.5-8.742,53.528-4.1,6.9-20.5,50.492,47.215,50.685,0,0,15.721-32.988,37.612-52.9s5.473-77.423,5.473-77.423,32.836-19.909-2.736-68.574c0,0,18.816-59.233-11.284-87.99C655.021,222.238,606.926,94.23,513.89,109.715Z" transform="translate(201.739 632)" fill="#2f2e41"/>
    <ellipse id="Ellipse_2" data-name="Ellipse 2" cx="9.536" cy="14.304" rx="9.536" ry="14.304" transform="translate(788.101 854.238)" fill="#ffb8b8"/>
    <path id="Path_59" data-name="Path 59" d="M596.852,296.665c-11.067,0-20.072-11.571-20.072-25.793s9-25.793,20.072-25.793a1,1,0,0,1,0,2c-9.965,0-18.072,10.674-18.072,23.793s8.107,23.793,18.072,23.793,18.072-10.673,18.072-23.793c0-11.7-4.193-20.253-11.219-22.888a1,1,0,1,1,.7-1.873c7.837,2.94,12.516,12.2,12.516,24.761C616.924,285.094,607.92,296.665,596.852,296.665Z" transform="translate(201.739 632)" fill="#ff0080"/>
    <path id="Path_60" data-name="Path 60" d="M604.924,241.168a14.165,14.165,0,0,1-4.638,8.077" transform="translate(201.739 632)" fill="#ffb8b8"/>
    <rect id="Rectangle_3" data-name="Rectangle 3" width="44.008" height="2.175" transform="matrix(0.897, -0.442, 0.442, 0.897, 695.998, 1438.43)" fill="#ff0080"/>
    <circle id="Ellipse_3" data-name="Ellipse 3" cx="8.698" cy="8.698" r="8.698" transform="translate(707.689 1419.965)" fill="#ff0080"/>
    <path id="Path_61" data-name="Path 61" d="M872.462,781.784c-37.924-21.142-61.533-50.005-70.172-85.789-6.414-26.568-4.571-56.465,5.478-88.861a237.993,237.993,0,0,1,33.1-66.851c76.8-108.713,83.735-179.551,76.026-219.833-8.452-44.169-35.914-62.512-36.191-62.692l1.185-1.823c.284.184,28.469,18.954,37.125,64.019,4.99,25.98,2.642,55.6-6.978,88.049-11.973,40.379-35.32,85.307-69.391,133.536a235.833,235.833,0,0,0-32.8,66.239C793.364,660.91,791.032,733.9,873.521,779.885Z" transform="translate(201.739 632)" fill="#2f2e41"/>
    <path id="Path_62" data-name="Path 62" d="M803.2,580.483c-29.9-16.666-29.066-43.079-23.1-62.3a84.468,84.468,0,0,1,11.747-23.73c26.906-38.085,29.338-62.826,26.64-76.875-2.931-15.255-12.332-21.518-12.426-21.58l1.185-1.823c.418.271,10.273,6.837,13.376,22.993,4.041,21.037-5.043,47.461-27,78.54a82.284,82.284,0,0,0-11.447,23.119c-5.725,18.455-6.54,43.8,22.084,59.76Z" transform="translate(201.739 632)" fill="#2f2e41"/>
    <path id="Path_63" data-name="Path 63" d="M937.713,339.109l-1.059-1.9c28.624-15.957,27.809-41.305,22.084-59.759a82.283,82.283,0,0,0-11.447-23.119c-21.956-31.078-31.04-57.5-27-78.54,3.1-16.156,12.958-22.722,13.376-22.993l1.187,1.822c-.095.063-9.543,6.408-12.444,21.667-2.668,14.041-.21,38.76,26.656,76.789A84.475,84.475,0,0,1,960.815,276.8C966.778,296.028,967.611,322.441,937.713,339.109Z" transform="translate(201.739 632)" fill="#2f2e41"/>
    <path id="Path_64" data-name="Path 64" d="M1001.55,230.921a32.618,32.618,0,1,1-54.637-35.646c9.843-15.088,59.4-31.351,59.4-31.351S1011.39,215.834,1001.55,230.921Z" transform="translate(201.739 632)" fill="#ff0080"/>
    <path id="Path_65" data-name="Path 65" d="M989.587,129.8A32.618,32.618,0,1,1,934.95,94.159c9.843-15.087,59.4-31.35,59.4-31.35S999.43,114.717,989.587,129.8Z" transform="translate(201.739 632)" fill="#ff0080"/>
    <path id="Path_66" data-name="Path 66" d="M937.013,500.258a33.7,33.7,0,0,1-14.549-64.134c16.418-7.823,65.661,3.629,67.75,4.12l1.32.311-.59,1.221c-.934,1.931-23.07,47.384-39.489,55.207h0a33.5,33.5,0,0,1-14.443,3.275Zm2.743-64.683c-6.679,0-12.531.691-16.356,2.513a31.531,31.531,0,1,0,27.12,56.934c14.284-6.8,34.15-45.532,37.859-52.962-5.935-1.318-30.362-6.484-48.624-6.484Z" transform="translate(201.739 632)" fill="#2f2e41"/>
    <path id="Path_67" data-name="Path 67" d="M870.543,200.994A32.618,32.618,0,1,1,826.588,249.2c-13.312-12.138-21.408-63.662-21.408-63.662S857.231,188.856,870.543,200.994Z" transform="translate(201.739 632)" fill="#ff0080"/>
    <path id="Path_68" data-name="Path 68" d="M794.433,337.991A32.618,32.618,0,1,1,750.478,386.2c-13.312-12.138-21.408-63.662-21.408-63.662S781.122,325.853,794.433,337.991Z" transform="translate(201.739 632)" fill="#ff0080"/>
    <path id="Path_69" data-name="Path 69" d="M879.744,357.2c-10.887,0-31.705-10.31-32.66-10.786l-1.214-.605.855-1.053c.731-.9,18.011-22.07,27.73-24.175h0a18.609,18.609,0,1,1,7.874,36.375,12.338,12.338,0,0,1-2.586.245Zm-30.451-12.132c5.127,2.447,24.765,11.455,32.577,9.762a16.434,16.434,0,1,0-6.955-32.123c-7.815,1.693-21.967,18.013-25.622,22.361Z" transform="translate(201.739 632)" fill="#2f2e41"/>
    <path id="Path_70" data-name="Path 70" d="M16.72-19.25,13.7-7.92a22.8,22.8,0,0,0-.715,3.465,1.149,1.149,0,0,0,.825,1.21,13.9,13.9,0,0,0,3.52.275h1.43L18.315,0H-2.255l.385-2.97h.22q3.41,0,4.18-.77a2.015,2.015,0,0,0,.578-.853q.192-.523.908-3.327l6.38-23.87a19.812,19.812,0,0,0,.77-3.465,1.149,1.149,0,0,0-.825-1.21,13.9,13.9,0,0,0-3.52-.275H5.775l.385-2.97H25.245q7.81,0,11.66,1.76a7.348,7.348,0,0,1,3.19,2.943,8.515,8.515,0,0,1,1.21,4.483q0,9.515-15.785,10.78a12.039,12.039,0,0,1,5.5,3.025q2.145,2.365,2.145,6.765v1.87q0,2.7.055,3.217a1.868,1.868,0,0,0,.33.908,1.236,1.236,0,0,0,.99.605,2.367,2.367,0,0,0,1.6-.8A6.231,6.231,0,0,0,37.51-6.27q.385-.88.935-2.365L40.81-7.48Q38.06.825,31.185.825a7.668,7.668,0,0,1-5.665-2.2,7.6,7.6,0,0,1-2.2-5.61,40.848,40.848,0,0,1,.385-4.62,23.35,23.35,0,0,0,.275-3.19q0-4.455-5.61-4.455Zm.825-2.97h1.87a28.787,28.787,0,0,0,5.28-.33,7.329,7.329,0,0,0,2.915-1.375,8.412,8.412,0,0,0,2.612-3.217,9.616,9.616,0,0,0,.963-4.208,5.119,5.119,0,0,0-1.54-3.987,6.309,6.309,0,0,0-4.4-1.4H23.87a3.736,3.736,0,0,0-2.062.412A2.92,2.92,0,0,0,20.9-34.65ZM65.615-6.93,67.54-5.005A16.117,16.117,0,0,1,55,.77q-5.445,0-8.333-2.613T43.78-9.4a16.046,16.046,0,0,1,5.225-11.853A16.888,16.888,0,0,1,61.16-26.345a10.581,10.581,0,0,1,6.435,1.9A5.7,5.7,0,0,1,70.18-19.69q0,5.72-9.35,8.415a33.91,33.91,0,0,1-8.195,1.32q-.11,1.43-.11,2.42A5.209,5.209,0,0,0,53.79-3.822a4.522,4.522,0,0,0,3.465,1.347,8.453,8.453,0,0,0,4.015-.99A19.491,19.491,0,0,0,65.615-6.93ZM53.13-12.54a18.848,18.848,0,0,0,3.85-.88,10.81,10.81,0,0,0,4.648-3.272,7.032,7.032,0,0,0,1.842-4.483,2.627,2.627,0,0,0-.66-1.9,2.326,2.326,0,0,0-1.76-.687q-2.585,0-4.785,3.108A20.41,20.41,0,0,0,53.13-12.54ZM92.785-40.48,82.775-6.71l-.275.88a5.539,5.539,0,0,0-.275,1.43q0,.935.825.935.935,0,2.585-1.76a27.558,27.558,0,0,0,3.3-4.455L91.08-8.195a24.749,24.749,0,0,1-4.73,5.94A9.9,9.9,0,0,1,79.475.825,5.882,5.882,0,0,1,75.4-.55a4.631,4.631,0,0,1-1.54-3.63,22.273,22.273,0,0,1,1.265-5.83l6.435-21.78a16.53,16.53,0,0,0,.825-3.63,1.384,1.384,0,0,0-.66-1.375,7.078,7.078,0,0,0-2.695-.33h-1.32L78.1-39.71Zm22.77,33.55,1.925,1.925A16.117,16.117,0,0,1,104.94.77Q99.5.77,96.607-1.843T93.72-9.4a16.046,16.046,0,0,1,5.225-11.853A16.888,16.888,0,0,1,111.1-26.345a10.581,10.581,0,0,1,6.435,1.9,5.7,5.7,0,0,1,2.585,4.757q0,5.72-9.35,8.415a33.91,33.91,0,0,1-8.195,1.32q-.11,1.43-.11,2.42a5.209,5.209,0,0,0,1.265,3.713,4.522,4.522,0,0,0,3.465,1.347,8.453,8.453,0,0,0,4.015-.99A19.491,19.491,0,0,0,115.555-6.93ZM103.07-12.54a18.848,18.848,0,0,0,3.85-.88,10.81,10.81,0,0,0,4.648-3.272,7.032,7.032,0,0,0,1.842-4.483,2.627,2.627,0,0,0-.66-1.9,2.326,2.326,0,0,0-1.76-.687q-2.585,0-4.785,3.108A20.411,20.411,0,0,0,103.07-12.54Zm43.5-12.98h8.635L149.82-7.26a17.939,17.939,0,0,0-.55,2.53.885.885,0,0,0,.247.605.708.708,0,0,0,.523.275q.715,0,2.447-1.87a29.947,29.947,0,0,0,3.272-4.29L157.9-8.635a30.35,30.35,0,0,1-3.63,5.005q-3.96,4.455-7.92,4.455a4.964,4.964,0,0,1-2.887-.852,3.934,3.934,0,0,1-1.622-2.228,6,6,0,0,1-.165-1.76A13.025,13.025,0,0,1,137.637-.33a10.325,10.325,0,0,1-4.923,1.1,9.031,9.031,0,0,1-6.847-2.805,9.956,9.956,0,0,1-2.668-7.15,17.154,17.154,0,0,1,4.812-11.907q4.812-5.253,10.917-5.253,4.9,0,6.875,3.465Zm-5.885,2.2q-3.3,0-5.83,5.28a24.329,24.329,0,0,0-2.695,10.615,5.063,5.063,0,0,0,.907,3.163A2.924,2.924,0,0,0,135.52-3.08q3.3,0,5.72-5.335a36.167,36.167,0,0,0,2.035-5.72,20.658,20.658,0,0,0,.825-5.17,4.372,4.372,0,0,0-.935-2.888A3.056,3.056,0,0,0,140.69-23.32Zm32.56-3.025a13.12,13.12,0,0,1,7.1,1.733,5.116,5.116,0,0,1,2.75,4.427,3.812,3.812,0,0,1-1.045,2.778,3.666,3.666,0,0,1-2.75,1.073,3.923,3.923,0,0,1-2.723-.962,3.084,3.084,0,0,1-1.072-2.392,3.847,3.847,0,0,1,.99-2.255,1.109,1.109,0,0,0,.33-.66q0-.44-.935-.8a5.979,5.979,0,0,0-2.145-.357,6.132,6.132,0,0,0-3.52.935,2.82,2.82,0,0,0-1.375,2.42,2.5,2.5,0,0,0,.935,1.925,13.5,13.5,0,0,0,3.355,1.87,27.351,27.351,0,0,1,4.125,2.09,7.278,7.278,0,0,1,3.74,6.325,7.768,7.768,0,0,1-3.328,6.545A14.245,14.245,0,0,1,168.96.825a12.818,12.818,0,0,1-7.067-1.76,5.307,5.307,0,0,1-2.723-4.62,3.923,3.923,0,0,1,1.072-2.86,3.708,3.708,0,0,1,2.778-1.1,4.06,4.06,0,0,1,2.777.99A3.216,3.216,0,0,1,166.925-6a3.381,3.381,0,0,1-1.43,2.53.759.759,0,0,0-.275.5q0,.605.99,1.017a6.464,6.464,0,0,0,2.475.413,6.225,6.225,0,0,0,3.74-1.072,3.238,3.238,0,0,0,1.485-2.723q0-2.09-3.19-3.355a41.35,41.35,0,0,1-4.62-2.2,7.422,7.422,0,0,1-3.96-6.71,7.7,7.7,0,0,1,3-6.38A12.75,12.75,0,0,1,173.25-26.345Zm28.875.055L196.35-6.71a12.449,12.449,0,0,0-.55,2.31.778.778,0,0,0,.88.88q1.65,0,5.555-6.215l2.145,1.54a24.872,24.872,0,0,1-5.528,6.875A9.287,9.287,0,0,1,192.995.825a6.042,6.042,0,0,1-4.1-1.4,4.487,4.487,0,0,1-1.623-3.548,16.528,16.528,0,0,1,.825-4.07l2.8-9.35a16.345,16.345,0,0,0,.825-3.685,1.384,1.384,0,0,0-.66-1.375,7.078,7.078,0,0,0-2.7-.33h-1.32l.385-2.585Zm-6.27-12.87a4.5,4.5,0,0,1,3.3-1.375,4.5,4.5,0,0,1,3.3,1.375,4.5,4.5,0,0,1,1.375,3.3,4.5,4.5,0,0,1-1.375,3.3,4.565,4.565,0,0,1-3.355,1.375,4.4,4.4,0,0,1-3.245-1.4,4.529,4.529,0,0,1-1.375-3.272A4.5,4.5,0,0,1,195.855-39.16Zm26.73,12.87-1.76,7.26a24.957,24.957,0,0,1,5.665-5.638,10.107,10.107,0,0,1,5.61-1.678,6.382,6.382,0,0,1,4.455,1.6,5.249,5.249,0,0,1,1.76,4.07,21.615,21.615,0,0,1-1.705,7.04L234.025-6.6a9.5,9.5,0,0,0-.55,2.09.885.885,0,0,0,.247.605.708.708,0,0,0,.523.275,3.29,3.29,0,0,0,1.98-1.238A38.4,38.4,0,0,0,239.58-9.13l.5-.605L242.22-8.36a30.065,30.065,0,0,1-5.885,7.04,9.039,9.039,0,0,1-5.72,2.145,5.936,5.936,0,0,1-4.1-1.347,4.651,4.651,0,0,1-1.512-3.657,15.916,15.916,0,0,1,1.1-4.785l3.41-9.3a6.323,6.323,0,0,0,.5-1.98,1.28,1.28,0,0,0-.523-.99,1.718,1.718,0,0,0-1.128-.44q-2.035,0-5.225,3.8A30.773,30.773,0,0,0,217.8-6.985L215.71,0h-8.635L212.3-17.545a18.2,18.2,0,0,0,.825-3.685,1.384,1.384,0,0,0-.66-1.375,7.077,7.077,0,0,0-2.695-.33h-1.32l.385-2.585Zm43.945.825q3.85-3.85,7.205-3.85A4.045,4.045,0,0,1,276.6-28.3a3.464,3.464,0,0,1,1.1,2.667,3.264,3.264,0,0,1-.825,2.282,2.7,2.7,0,0,1-2.09.908q-1.87,0-2.75-2.365-.385-.935-.935-.935-.88,0-1.87,1.32a7.889,7.889,0,0,1,4.345,7.15,7.437,7.437,0,0,1-3.272,6.187,13.441,13.441,0,0,1-8.277,2.448,46.941,46.941,0,0,1-6.435-.55,14.862,14.862,0,0,0-1.87-.165,3.25,3.25,0,0,0-1.842.495,1.435,1.435,0,0,0-.743,1.21q0,1.65,2.7,1.87,7.645.77,9.79,1.21a8.146,8.146,0,0,1,4.373,2.255,6.213,6.213,0,0,1,1.348,4.235,7.518,7.518,0,0,1-3.933,6.82q-3.933,2.365-11.357,2.365-6.215,0-9.653-1.6t-3.437-4.51q0-4.07,6.93-5.335A7.49,7.49,0,0,1,245.3-2.31a4.023,4.023,0,0,1-.715-2.42q0-4.51,6.6-6.6a6.832,6.832,0,0,1-2.805-5.39,8.375,8.375,0,0,1,3.493-6.93,14.3,14.3,0,0,1,8.993-2.695A17.8,17.8,0,0,1,266.53-25.465Zm-4.51,1.705a4.107,4.107,0,0,0-3.63,2.365,12.444,12.444,0,0,0-1.6,6.16,4.142,4.142,0,0,0,.962,2.915,3.377,3.377,0,0,0,2.612,1.045q2.365,0,3.63-2.64a13.124,13.124,0,0,0,1.43-5.94,4.1,4.1,0,0,0-.962-2.8A3.109,3.109,0,0,0,262.02-23.76ZM252.34,1.485q-4.62,0-4.62,3.19,0,3.85,6.6,3.85,8.36,0,8.36-3.85,0-1.87-2.42-2.475A34.246,34.246,0,0,0,252.34,1.485Zm82.335-40.81-2.42,14.465-2.86-.5a17.452,17.452,0,0,0-1.375-6.765,9.767,9.767,0,0,0-3.685-4.015,10.21,10.21,0,0,0-5.39-1.43,9.25,9.25,0,0,0-5.72,1.623,5.146,5.146,0,0,0-2.145,4.317,4.92,4.92,0,0,0,1.76,3.96,12.569,12.569,0,0,0,4.4,2.145,49.257,49.257,0,0,1,9.515,3.96q4.95,2.805,4.95,9.24a11.7,11.7,0,0,1-4.455,9.487Q322.795.825,315.645.825A18.519,18.519,0,0,1,309.21-.192a18.251,18.251,0,0,1-5.5-3.383L300.52,0H298.1l2.75-15.565,2.86.44v.825a12.14,12.14,0,0,0,3.217,8.855,11.4,11.4,0,0,0,8.552,3.3,10.4,10.4,0,0,0,6.242-1.732,5.306,5.306,0,0,0,2.393-4.482,4.77,4.77,0,0,0-1.925-3.933q-1.925-1.512-7.48-3.383a41,41,0,0,1-5.033-1.98,12.266,12.266,0,0,1-2.943-2.09,9.842,9.842,0,0,1-3.08-7.48,12.312,12.312,0,0,1,4.18-9.515,14.961,14.961,0,0,1,10.45-3.795,16.232,16.232,0,0,1,11,4.18l2.915-2.97Zm18.865,12.98a12.914,12.914,0,0,1,8.8,2.97q3.08,2.64,3.08,7.7A15.391,15.391,0,0,1,360.36-3.96,17.663,17.663,0,0,1,347.82.77q-5.28,0-8.25-2.805a9.318,9.318,0,0,1-2.42-3.6,12.536,12.536,0,0,1-.88-4.648,14.894,14.894,0,0,1,5.143-11.3A17.27,17.27,0,0,1,353.54-26.345Zm-.22,2.585q-3.52,0-6.05,6.05a35.83,35.83,0,0,0-1.76,5.94,28.514,28.514,0,0,0-.715,5.83,4.935,4.935,0,0,0,.935,3.19A3.143,3.143,0,0,0,348.315-1.6q3.575,0,5.83-5.775a41.363,41.363,0,0,0,1.953-6.407,27.362,27.362,0,0,0,.8-5.693,4.68,4.68,0,0,0-.99-3.107A3.21,3.21,0,0,0,353.32-23.76Zm31.79-2.585a12.914,12.914,0,0,1,8.8,2.97q3.08,2.64,3.08,7.7A15.391,15.391,0,0,1,391.93-3.96,17.663,17.663,0,0,1,379.39.77q-5.28,0-8.25-2.805a9.318,9.318,0,0,1-2.42-3.6,12.536,12.536,0,0,1-.88-4.648,14.894,14.894,0,0,1,5.143-11.3A17.27,17.27,0,0,1,385.11-26.345Zm-.22,2.585q-3.52,0-6.05,6.05a35.83,35.83,0,0,0-1.76,5.94,28.514,28.514,0,0,0-.715,5.83,4.935,4.935,0,0,0,.935,3.19A3.143,3.143,0,0,0,379.885-1.6q3.575,0,5.83-5.775a41.363,41.363,0,0,0,1.953-6.407,27.362,27.362,0,0,0,.8-5.693,4.68,4.68,0,0,0-.99-3.107A3.21,3.21,0,0,0,384.89-23.76Zm29.645-2.53-1.76,7.26a24.957,24.957,0,0,1,5.665-5.638,10.107,10.107,0,0,1,5.61-1.678,6.382,6.382,0,0,1,4.455,1.6,5.249,5.249,0,0,1,1.76,4.07,21.616,21.616,0,0,1-1.7,7.04L425.975-6.6a9.5,9.5,0,0,0-.55,2.09.885.885,0,0,0,.247.605.708.708,0,0,0,.522.275,3.29,3.29,0,0,0,1.98-1.238A38.4,38.4,0,0,0,431.53-9.13l.495-.605L434.17-8.36a30.065,30.065,0,0,1-5.885,7.04,9.038,9.038,0,0,1-5.72,2.145,5.936,5.936,0,0,1-4.1-1.347,4.651,4.651,0,0,1-1.513-3.657,15.916,15.916,0,0,1,1.1-4.785l3.41-9.3a6.323,6.323,0,0,0,.495-1.98,1.28,1.28,0,0,0-.523-.99,1.718,1.718,0,0,0-1.127-.44q-2.035,0-5.225,3.8a30.774,30.774,0,0,0-5.335,10.89L407.66,0h-8.635l5.225-17.545a18.206,18.206,0,0,0,.825-3.685,1.384,1.384,0,0,0-.66-1.375,7.078,7.078,0,0,0-2.7-.33H400.4l.385-2.585Zm24.2,19.2,5.17-5.445q.66-.715.935-.715t.55.715L447.645-7.1a1.946,1.946,0,0,1-.605,2.09L441.925.44q-.66.715-.963.715T440.385.44l-2.2-5.445a1.728,1.728,0,0,1-.165-1.073A2.583,2.583,0,0,1,438.735-7.1Zm9.13-10.725,6.49-13.31a19.572,19.572,0,0,0,1.375-3.63q1.54-5.775-3.52-5.775-5.225,0-6.71,5.665a15.285,15.285,0,0,0-.605,3.74l-.66,13.31a2.712,2.712,0,0,0,.33,1.32q.55.88.935.88t1.375-.88A5.171,5.171,0,0,0,447.865-17.82Z" transform="translate(788 661)" fill="#3f3d56"/>
  </g>
</svg>
