<svg xmlns="http://www.w3.org/2000/svg" width="870" height="574.733" viewBox="0 0 870 574.733"><g id="Group_4099" data-name="Group 4099" transform="translate(-5304 8984)"><path id="Path_5601" fill="#e7eaf0" d="M831.092,704.187c-11.138-9.412-17.9-24.28-16.13-38.754s12.764-27.78,27.018-30.854,30.5,5.435,34.834,19.359c2.383-26.846,5.129-54.818,19.4-77.68,12.924-20.7,35.309-35.514,59.569-38.164s49.8,7.359,64.933,26.507,18.835,46.985,8.238,68.969c-7.806,16.195-22.188,28.247-37.257,38.052A240.451,240.451,0,0,1,827.245,707.6Z" data-name="Path 5601" transform="translate(5139 -9173.931)"/><path id="Path_5602" fill="#fff" d="M996.728,546.01A396.755,396.755,0,0,0,880.15,703.646c-1.112,2.725,3.313,3.911,4.412,1.216a392.343,392.343,0,0,1,115.4-155.618c2.284-1.86-.97-5.08-3.236-3.235Z" data-name="Path 5602" transform="translate(5139 -9173.931)"/><path id="Path_5603" fill="#e7eaf0" d="M445.067,701.63c15.3-12.927,24.591-33.348,22.154-53.228s-17.531-38.156-37.11-42.378-41.9,7.464-47.844,26.59c-3.273-36.873-7.044-75.292-26.648-106.693-17.751-28.433-48.5-48.778-81.818-52.418s-68.4,10.107-89.185,36.407S158.747,574.445,173.3,604.64c10.722,22.243,30.475,38.8,51.172,52.264,66.029,42.965,147.939,60.884,225.877,49.414" data-name="Path 5603" transform="translate(5139 -9173.931)"/><path id="Path_5604" fill="#fff" d="M217.567,484.373a540.35,540.35,0,0,1,75.3,74.777,548.077,548.077,0,0,1,59.386,87.891,545.843,545.843,0,0,1,25.43,53.846c1.527,3.743-4.55,5.372-6.06,1.671a536.355,536.355,0,0,0-49.009-92.727,539.729,539.729,0,0,0-65.729-81.2,538.459,538.459,0,0,0-43.766-39.815c-3.138-2.555,1.332-6.978,4.444-4.444Z" data-name="Path 5604" transform="translate(5139 -9173.931)"/><path id="Path_5605" fill="#e7eaf0" d="M789.5,708.931h-365v-374.5c0-79.678,64.822-144.5,144.5-144.5h76c79.677,0,144.5,64.822,144.5,144.5Z" data-name="Path 5605" transform="translate(5139 -9173.931)"/><path id="Path_5606" fill="#2f2e41" d="M713.5,708.931h-289v-374.5a143.382,143.382,0,0,1,27.6-84.944c.664-.9,1.326-1.8,2.009-2.681a144.467,144.467,0,0,1,30.754-29.851c.66-.48,1.322-.952,1.994-1.423a144.159,144.159,0,0,1,31.472-16.459c.661-.25,1.334-.5,2.007-.742a144.021,144.021,0,0,1,31.108-7.336c.658-.09,1.333-.16,2.008-.23a146.288,146.288,0,0,1,31.105,0c.673.07,1.349.141,2.014.231a143.992,143.992,0,0,1,31.1,7.335c.673.241,1.346.492,2.009.743a143.8,143.8,0,0,1,31.106,16.216c.672.461,1.344.933,2.006,1.4a145.991,145.991,0,0,1,18.383,15.564A144.291,144.291,0,0,1,683.9,246.809c.681.88,1.343,1.773,2.005,2.677a143.382,143.382,0,0,1,27.6,84.946Z" data-name="Path 5606" transform="translate(5139 -9173.931)"/><circle id="Ellipse_215" cx="16" cy="16" r="16" fill="#ff0080" data-name="Ellipse 215" transform="translate(5813 -8664.5)"/><path id="Path_5607" fill="#ffb8b8" d="M594.6,507.783h-12.26l-5.833-47.288h18.1Z" data-name="Path 5607" transform="translate(5304 -8984)"/><path id="Path_5608" fill="#2f2e41" d="M573.582,504.28h23.644v14.887H558.7a14.887,14.887,0,0,1,14.887-14.887Z" data-name="Path 5608" transform="translate(5304 -8984)"/><path id="Path_5609" fill="#ffb8b8" d="M655.6,507.783h-12.26l-5.833-47.288h18.1Z" data-name="Path 5609" transform="translate(5304 -8984)"/><path id="Path_5610" fill="#2f2e41" d="M634.582,504.28h23.644v14.887H619.7a14.887,14.887,0,0,1,14.887-14.887Z" data-name="Path 5610" transform="translate(5304 -8984)"/><path id="Path_5611" fill="#ffb8b8" d="M698.1,528.6a10.743,10.743,0,0,1,4.51-15.843L744.284,397.89l20.507,11.192L717.206,518.853A10.8,10.8,0,0,1,698.1,528.6Z" data-name="Path 5611" transform="translate(5139 -9173.931)"/><path id="Path_5612" fill="#ffb8b8" d="M814.336,550.184a10.743,10.743,0,0,1-2.893-16.217l-12.91-121.509,23.338,1.066,5.365,119.521a10.8,10.8,0,0,1-12.9,17.139Z" data-name="Path 5612" transform="translate(5139 -9173.931)"/><circle id="Ellipse_216" cx="24.561" cy="24.561" r="24.561" fill="#ffb8b8" data-name="Ellipse 216" transform="translate(5891.545 -8846.438)"/><path id="Path_5613" fill="#ff0080" d="M814.18,522.549H740.133l.089-.576c.133-.861,13.2-86.439,3.562-114.436a11.813,11.813,0,0,1,6.069-14.583h0c13.772-6.485,40.208-14.471,62.52,4.909a28.235,28.235,0,0,1,9.459,23.4Z" data-name="Path 5613" transform="translate(5139 -9173.931)"/><path id="Path_5614" fill="#ff0080" d="M754.354,448.181l-33.336-6.763,15.626-37.03a14,14,0,1,1,27.106,7Z" data-name="Path 5614" transform="translate(5139 -9173.931)"/><path id="Path_5615" fill="#ff0080" d="M797.05,460.739l-2-45.941c-1.52-8.636,3.424-16.8,11.027-18.135s15.032,4.66,16.558,13.36l7.533,42.928Z" data-name="Path 5615" transform="translate(5139 -9173.931)"/><path id="Path_5616" fill="#2f2e41" d="M811.716,517.049c11.914,45.377,13.214,103.069,10,166l-16-2-29-120-16,122-18-1c-5.377-66.03-10.613-122.715-2-160Z" data-name="Path 5616" transform="translate(5139 -9173.931)"/><path id="Path_5617" fill="#2f2e41" d="M793.289,371.035c-4.582,4.881-13.091,2.261-13.688-4.407a8.049,8.049,0,0,1,.01-1.556c.308-2.954,2.015-5.635,1.606-8.754a4.59,4.59,0,0,0-.84-2.149c-3.651-4.889-12.222,2.187-15.668-2.239-2.113-2.714.371-6.987-1.251-10.021-2.14-4-8.479-2.029-12.454-4.221-4.423-2.439-4.158-9.225-1.247-13.353,3.551-5.034,9.776-7.72,15.923-8.107s12.253,1.275,17.992,3.511c6.521,2.541,12.988,6.053,17,11.788,4.88,6.973,5.35,16.348,2.909,24.5C802.1,360.99,797.031,367.049,793.289,371.035Z" data-name="Path 5617" transform="translate(5139 -9173.931)"/><path id="Path_5618" fill="#3f3d56" d="M1004.98,709.574H266.686a1.191,1.191,0,1,1,0-2.381H1004.98a1.191,1.191,0,1,1,0,2.381Z" data-name="Path 5618" transform="translate(5139 -9173.931)"/><path id="Path_5619" fill="#fff" d="M634,600.431H504a6.465,6.465,0,0,1-6.5-6.415V303.846a6.465,6.465,0,0,1,6.5-6.415H634a6.465,6.465,0,0,1,6.5,6.415V594.015A6.465,6.465,0,0,1,634,600.431Z" data-name="Path 5619" transform="translate(5139 -9173.931)"/><rect id="Rectangle_592" width="143" height="2" fill="#ccc" data-name="Rectangle 592" transform="translate(5636.5 -8782.61)"/><rect id="Rectangle_593" width="143" height="2" fill="#ccc" data-name="Rectangle 593" transform="translate(5637 -8668.5)"/><rect id="Rectangle_594" width="2" height="304" fill="#ccc" data-name="Rectangle 594" transform="translate(5681.5 -8876.5)"/><rect id="Rectangle_595" width="2" height="304" fill="#ccc" data-name="Rectangle 595" transform="translate(5731.5 -8876.5)"/><path id="Path_5620" fill="#ff0080" d="M20.6-8.867l1.733.367L20.067,0H-1.367l.233-1.8H-1a4.351,4.351,0,0,0,2.567-.467,1.246,1.246,0,0,0,.3-.517q.1-.317.567-2.017l3.9-14.467a12.813,12.813,0,0,0,.433-2.1.7.7,0,0,0-.5-.733,8.422,8.422,0,0,0-2.133-.167H3.5l.267-1.8H16.5l-.267,1.8h-.6A4.171,4.171,0,0,0,13.1-21.8a1.1,1.1,0,0,0-.333.517q-.1.317-.567,2.017L8.333-4.8a10.337,10.337,0,0,0-.467,2.133.687.687,0,0,0,.383.683A3.577,3.577,0,0,0,9.633-1.8h1.2A9.033,9.033,0,0,0,14.4-2.467,10.909,10.909,0,0,0,17.6-4.7,12.871,12.871,0,0,0,20.6-8.867Zm13.667-7.1a7.826,7.826,0,0,1,5.333,1.8A5.808,5.808,0,0,1,41.467-9.5,9.328,9.328,0,0,1,38.4-2.4,10.7,10.7,0,0,1,30.8.467a6.992,6.992,0,0,1-5-1.7,5.647,5.647,0,0,1-1.467-2.183A7.6,7.6,0,0,1,23.8-6.233a9.027,9.027,0,0,1,3.117-6.85A10.467,10.467,0,0,1,34.267-15.967ZM34.133-14.4q-2.133,0-3.667,3.667a21.715,21.715,0,0,0-1.067,3.6A17.281,17.281,0,0,0,28.967-3.6a2.991,2.991,0,0,0,.567,1.933,1.9,1.9,0,0,0,1.567.7q2.167,0,3.533-3.5A25.067,25.067,0,0,0,35.817-8.35,16.582,16.582,0,0,0,36.3-11.8a2.837,2.837,0,0,0-.6-1.883A1.946,1.946,0,0,0,34.133-14.4ZM55.9-15.433q2.333-2.333,4.367-2.333A2.451,2.451,0,0,1,62-17.15a2.1,2.1,0,0,1,.667,1.617,1.978,1.978,0,0,1-.5,1.383,1.637,1.637,0,0,1-1.267.55q-1.133,0-1.667-1.433Q59-15.6,58.667-15.6q-.533,0-1.133.8a4.781,4.781,0,0,1,2.633,4.333,4.508,4.508,0,0,1-1.983,3.75,8.146,8.146,0,0,1-5.017,1.483,28.449,28.449,0,0,1-3.9-.333,9.007,9.007,0,0,0-1.133-.1,1.97,1.97,0,0,0-1.117.3.87.87,0,0,0-.45.733q0,1,1.633,1.133,4.633.467,5.933.733A4.937,4.937,0,0,1,56.783-1.4,3.765,3.765,0,0,1,57.6,1.167,4.557,4.557,0,0,1,55.217,5.3a13.493,13.493,0,0,1-6.883,1.433,14.241,14.241,0,0,1-5.85-.967A3.006,3.006,0,0,1,40.4,3.033Q40.4.567,44.6-.2a4.539,4.539,0,0,1-1.567-1.2A2.438,2.438,0,0,1,42.6-2.867q0-2.733,4-4a4.141,4.141,0,0,1-1.7-3.267,5.076,5.076,0,0,1,2.117-4.2,8.666,8.666,0,0,1,5.45-1.633A10.79,10.79,0,0,1,55.9-15.433ZM53.167-14.4a2.489,2.489,0,0,0-2.2,1.433A7.542,7.542,0,0,0,50-9.233a2.51,2.51,0,0,0,.583,1.767,2.047,2.047,0,0,0,1.583.633,2.4,2.4,0,0,0,2.2-1.6,7.954,7.954,0,0,0,.867-3.6,2.487,2.487,0,0,0-.583-1.7A1.884,1.884,0,0,0,53.167-14.4ZM47.3.9q-2.8,0-2.8,1.933,0,2.333,4,2.333,5.067,0,5.067-2.333,0-1.133-1.467-1.5A20.755,20.755,0,0,0,47.3.9ZM73.033-15.933l-3.5,11.867a7.545,7.545,0,0,0-.333,1.4.471.471,0,0,0,.533.533q1,0,3.367-3.767l1.3.933A15.074,15.074,0,0,1,71.05-.8,5.628,5.628,0,0,1,67.5.5a3.662,3.662,0,0,1-2.483-.85,2.72,2.72,0,0,1-.983-2.15,10.017,10.017,0,0,1,.5-2.467l1.7-5.667a9.906,9.906,0,0,0,.5-2.233.839.839,0,0,0-.4-.833,4.289,4.289,0,0,0-1.633-.2h-.8l.233-1.567Zm-3.8-7.8a2.728,2.728,0,0,1,2-.833,2.728,2.728,0,0,1,2,.833,2.728,2.728,0,0,1,.833,2,2.728,2.728,0,0,1-.833,2A2.767,2.767,0,0,1,71.2-18.9a2.664,2.664,0,0,1-1.967-.85,2.745,2.745,0,0,1-.833-1.983A2.728,2.728,0,0,1,69.233-23.733Zm16.2,7.8-1.067,4.4A15.125,15.125,0,0,1,87.8-14.95a6.126,6.126,0,0,1,3.4-1.017A3.868,3.868,0,0,1,93.9-15a3.181,3.181,0,0,1,1.067,2.467,13.1,13.1,0,0,1-1.033,4.267L92.367-4a5.76,5.76,0,0,0-.333,1.267.537.537,0,0,0,.15.367A.429.429,0,0,0,92.5-2.2a1.994,1.994,0,0,0,1.2-.75,23.272,23.272,0,0,0,2.033-2.583l.3-.367,1.3.833A18.221,18.221,0,0,1,93.767-.8,5.478,5.478,0,0,1,90.3.5a3.6,3.6,0,0,1-2.483-.817A2.819,2.819,0,0,1,86.9-2.533a9.646,9.646,0,0,1,.667-2.9l2.067-5.633a3.832,3.832,0,0,0,.3-1.2.776.776,0,0,0-.317-.6,1.041,1.041,0,0,0-.683-.267q-1.233,0-3.167,2.3a18.651,18.651,0,0,0-3.233,6.6L81.267,0H76.033L79.2-10.633a11.034,11.034,0,0,0,.5-2.233.839.839,0,0,0-.4-.833,4.289,4.289,0,0,0-1.633-.2h-.8l.233-1.567Zm35.433,0-3.5,11.867a7.545,7.545,0,0,0-.333,1.4.471.471,0,0,0,.533.533q1,0,3.367-3.767l1.3.933A15.074,15.074,0,0,1,118.883-.8a5.628,5.628,0,0,1-3.55,1.3,3.662,3.662,0,0,1-2.483-.85,2.72,2.72,0,0,1-.983-2.15,10.017,10.017,0,0,1,.5-2.467l1.7-5.667a9.907,9.907,0,0,0,.5-2.233.839.839,0,0,0-.4-.833,4.289,4.289,0,0,0-1.633-.2h-.8l.233-1.567Zm-3.8-7.8a2.728,2.728,0,0,1,2-.833,2.728,2.728,0,0,1,2,.833,2.728,2.728,0,0,1,.833,2,2.728,2.728,0,0,1-.833,2,2.767,2.767,0,0,1-2.033.833,2.664,2.664,0,0,1-1.967-.85,2.745,2.745,0,0,1-.833-1.983A2.728,2.728,0,0,1,117.067-23.733Zm16.2,7.8-1.067,4.4a15.125,15.125,0,0,1,3.433-3.417,6.126,6.126,0,0,1,3.4-1.017,3.868,3.868,0,0,1,2.7.967,3.181,3.181,0,0,1,1.067,2.467,13.1,13.1,0,0,1-1.033,4.267L140.2-4a5.76,5.76,0,0,0-.333,1.267.537.537,0,0,0,.15.367.429.429,0,0,0,.317.167,1.994,1.994,0,0,0,1.2-.75,23.273,23.273,0,0,0,2.033-2.583l.3-.367,1.3.833A18.221,18.221,0,0,1,141.6-.8,5.478,5.478,0,0,1,138.133.5a3.6,3.6,0,0,1-2.483-.817,2.819,2.819,0,0,1-.917-2.217,9.646,9.646,0,0,1,.667-2.9l2.067-5.633a3.832,3.832,0,0,0,.3-1.2.776.776,0,0,0-.317-.6,1.041,1.041,0,0,0-.683-.267q-1.233,0-3.167,2.3a18.65,18.65,0,0,0-3.233,6.6L129.1,0h-5.233l3.167-10.633a11.033,11.033,0,0,0,.5-2.233.839.839,0,0,0-.4-.833,4.289,4.289,0,0,0-1.633-.2h-.8l.233-1.567ZM168.633-6.1l1.233.9A22.84,22.84,0,0,1,167.6-2.133a6.945,6.945,0,0,1-5,2.6,3.3,3.3,0,0,1-2.25-.8,2.511,2.511,0,0,1-.917-1.967,9.414,9.414,0,0,1,.467-2.567q.2-.567.367-1.233l2.167-7.333h-2.9l.6-2.033h2.9l1.867-6.2h5.233l-1.833,6.2h3.8l-.6,2.033h-3.8l-2.333,7.867a19.479,19.479,0,0,0-.7,2.767.64.64,0,0,0,.15.417.443.443,0,0,0,.35.183q.5,0,1.517-1.133A16.083,16.083,0,0,0,168.633-6.1Zm13.6-9.867a7.826,7.826,0,0,1,5.333,1.8A5.808,5.808,0,0,1,189.433-9.5a9.328,9.328,0,0,1-3.067,7.1,10.7,10.7,0,0,1-7.6,2.867,6.992,6.992,0,0,1-5-1.7A5.647,5.647,0,0,1,172.3-3.417a7.6,7.6,0,0,1-.533-2.817,9.027,9.027,0,0,1,3.117-6.85A10.467,10.467,0,0,1,182.233-15.967ZM182.1-14.4q-2.133,0-3.667,3.667a21.716,21.716,0,0,0-1.067,3.6,17.28,17.28,0,0,0-.433,3.533,2.991,2.991,0,0,0,.567,1.933,1.9,1.9,0,0,0,1.567.7q2.167,0,3.533-3.5a25.067,25.067,0,0,0,1.183-3.883,16.582,16.582,0,0,0,.483-3.45,2.837,2.837,0,0,0-.6-1.883A1.946,1.946,0,0,0,182.1-14.4ZM215.767-4.2l1.167,1.167a9.768,9.768,0,0,1-7.6,3.5,7.28,7.28,0,0,1-5.05-1.583,5.865,5.865,0,0,1-1.75-4.583,9.725,9.725,0,0,1,3.167-7.183,10.235,10.235,0,0,1,7.367-3.083,6.413,6.413,0,0,1,3.9,1.15,3.456,3.456,0,0,1,1.567,2.883q0,3.467-5.667,5.1a20.552,20.552,0,0,1-4.967.8q-.067.867-.067,1.467a3.157,3.157,0,0,0,.767,2.25,2.741,2.741,0,0,0,2.1.817,5.123,5.123,0,0,0,2.433-.6A11.813,11.813,0,0,0,215.767-4.2ZM208.2-7.6a11.423,11.423,0,0,0,2.333-.533,6.552,6.552,0,0,0,2.817-1.983,4.262,4.262,0,0,0,1.117-2.717,1.592,1.592,0,0,0-.4-1.15A1.41,1.41,0,0,0,213-14.4a3.672,3.672,0,0,0-2.9,1.883A12.37,12.37,0,0,0,208.2-7.6Zm18.767,3.133-1.233,1.733A9.461,9.461,0,0,1,223.4-.367,4.337,4.337,0,0,1,220.967.5a2.758,2.758,0,0,1-1.933-.7,2.366,2.366,0,0,1-.767-1.833,2.243,2.243,0,0,1,.617-1.633A2.155,2.155,0,0,1,220.5-4.3a1.921,1.921,0,0,1,1.967,1.667q.1.367.3.367.7,0,2.367-2.367l1.367-1.9L226.033-8.7a22.287,22.287,0,0,0-.833-3.233q-.3-.7-.767-.7a1.2,1.2,0,0,0-.9.517,19.012,19.012,0,0,0-1.433,2.25l-.033.067a.645.645,0,0,0-.083.117q-.05.083-.083.15l-1.333-.667a16.474,16.474,0,0,1,1.833-2.967q2.133-2.8,4.4-2.8a2.84,2.84,0,0,1,2.317,1.033,8.2,8.2,0,0,1,1.35,3.467l.733-.967a13.259,13.259,0,0,1,2.6-2.783,4.127,4.127,0,0,1,2.433-.75,2.825,2.825,0,0,1,1.95.667,2.211,2.211,0,0,1,.75,1.733,2.3,2.3,0,0,1-.617,1.65,2.047,2.047,0,0,1-1.55.65,2.041,2.041,0,0,1-1.45-.483,1.758,1.758,0,0,1-.517-1.35q-.033-.4-.3-.4-.833,0-3.6,4.1l.533,2.733a19.161,19.161,0,0,0,.767,3.033q.3.7.833.7,1.167,0,2.5-3.367l1.3.667a14.985,14.985,0,0,1-1.9,3.567Q233.167.5,230.867.5A3.1,3.1,0,0,1,228.3-.733,8.194,8.194,0,0,1,227.067-4Zm21.167-11.467L247.6-13.3a6.887,6.887,0,0,1,5.267-2.667,5.646,5.646,0,0,1,4.25,1.633,6.053,6.053,0,0,1,1.583,4.4,10.449,10.449,0,0,1-2.9,7.267A8.819,8.819,0,0,1,249.133.5a4.572,4.572,0,0,1-4.2-2.167L243.8,2.167a14.394,14.394,0,0,0-.533,2.133q0,.867,1.9.867h.5l-.233,1.567H235.1l.233-1.567h.133a3.175,3.175,0,0,0,2.1-.467,1.221,1.221,0,0,0,.35-.517q.117-.317.617-2.017l3.833-12.9a10.338,10.338,0,0,0,.5-2.133.83.83,0,0,0-.417-.833,4.434,4.434,0,0,0-1.65-.2H240l.233-1.567Zm3.1,2.3q-1.8,0-3.2,2.467a19.389,19.389,0,0,0-1.45,3.683A13.418,13.418,0,0,0,245.9-3.9a2.475,2.475,0,0,0,.667,1.75,2.145,2.145,0,0,0,1.633.717q1.867,0,3.233-2.633a18.927,18.927,0,0,0,1.383-3.667,13.643,13.643,0,0,0,.55-3.467,2.586,2.586,0,0,0-.583-1.767A1.958,1.958,0,0,0,251.233-13.633Zm21.733-10.9L266.9-4.067l-.167.533a3.357,3.357,0,0,0-.167.867q0,.567.5.567.567,0,1.567-1.067a16.7,16.7,0,0,0,2-2.7l1.3.9a15,15,0,0,1-2.867,3.6A6,6,0,0,1,264.9.5a3.565,3.565,0,0,1-2.467-.833,2.807,2.807,0,0,1-.933-2.2,13.5,13.5,0,0,1,.767-3.533l3.9-13.2a10.018,10.018,0,0,0,.5-2.2.839.839,0,0,0-.4-.833,4.289,4.289,0,0,0-1.633-.2h-.8l.233-1.567ZM284.4-15.967a7.826,7.826,0,0,1,5.333,1.8A5.808,5.808,0,0,1,291.6-9.5a9.328,9.328,0,0,1-3.067,7.1,10.7,10.7,0,0,1-7.6,2.867,6.992,6.992,0,0,1-5-1.7,5.647,5.647,0,0,1-1.467-2.183,7.6,7.6,0,0,1-.533-2.817,9.027,9.027,0,0,1,3.117-6.85A10.467,10.467,0,0,1,284.4-15.967Zm-.133,1.567q-2.133,0-3.667,3.667a21.718,21.718,0,0,0-1.067,3.6A17.281,17.281,0,0,0,279.1-3.6a2.991,2.991,0,0,0,.567,1.933,1.9,1.9,0,0,0,1.567.7q2.167,0,3.533-3.5A25.067,25.067,0,0,0,285.95-8.35a16.581,16.581,0,0,0,.483-3.45,2.837,2.837,0,0,0-.6-1.883A1.946,1.946,0,0,0,284.267-14.4Zm17.967-1.533L301.2-11.7a12.5,12.5,0,0,1,2.883-3.3,5.06,5.06,0,0,1,3.017-.967,3.149,3.149,0,0,1,2.25.8,2.791,2.791,0,0,1,.85,2.133,2.841,2.841,0,0,1-.717,1.967,2.3,2.3,0,0,1-1.783.8,2.414,2.414,0,0,1-1.433-.45,1.939,1.939,0,0,1-.8-1.183,4.381,4.381,0,0,1-.1-1.033q0-.433-.333-.433-.467,0-1.333.867a12.973,12.973,0,0,0-2.383,3.317,23.664,23.664,0,0,0-1.85,4.55L298.067,0h-5.233L296-10.633a9.906,9.906,0,0,0,.5-2.233.839.839,0,0,0-.4-.833,4.289,4.289,0,0,0-1.633-.2h-.8l.233-1.567ZM323-4.2l1.167,1.167a9.768,9.768,0,0,1-7.6,3.5,7.28,7.28,0,0,1-5.05-1.583,5.865,5.865,0,0,1-1.75-4.583,9.725,9.725,0,0,1,3.167-7.183,10.235,10.235,0,0,1,7.367-3.083,6.413,6.413,0,0,1,3.9,1.15,3.456,3.456,0,0,1,1.567,2.883q0,3.467-5.667,5.1a20.552,20.552,0,0,1-4.967.8q-.067.867-.067,1.467a3.157,3.157,0,0,0,.767,2.25,2.741,2.741,0,0,0,2.1.817,5.123,5.123,0,0,0,2.433-.6A11.813,11.813,0,0,0,323-4.2Zm-7.567-3.4a11.423,11.423,0,0,0,2.333-.533,6.552,6.552,0,0,0,2.817-1.983,4.262,4.262,0,0,0,1.117-2.717,1.592,1.592,0,0,0-.4-1.15,1.41,1.41,0,0,0-1.067-.417,3.672,3.672,0,0,0-2.9,1.883A12.37,12.37,0,0,0,315.433-7.6Zm13.033,3.3L331.6-7.6q.4-.433.567-.433t.333.433l1.367,3.3a1.179,1.179,0,0,1-.367,1.267l-3.1,3.3Q330,.7,329.817.7t-.35-.433l-1.333-3.3a1.047,1.047,0,0,1-.1-.65A1.566,1.566,0,0,1,328.467-4.3ZM334-10.8l3.933-8.067a11.86,11.86,0,0,0,.833-2.2q.933-3.5-2.133-3.5-3.167,0-4.067,3.433a9.264,9.264,0,0,0-.367,2.267l-.4,8.067a1.644,1.644,0,0,0,.2.8q.333.533.567.533T333.4-10A3.134,3.134,0,0,0,334-10.8Z" data-name="Path 5620" transform="translate(5405 -8416)"/></g></svg>