<svg xmlns="http://www.w3.org/2000/svg" width="924.18" height="865.542" viewBox="0 0 924.18 865.542"><g id="Group_4096" data-name="Group 4096" transform="translate(3582 -7914)"><path id="Path_5490" fill="#ff0080" d="M551.94,357.39c-36.12-11.69-74.31-21.49-113.34-20.48-57.38,1.49-112.55,28.23-139.76,67.75-23,33.49-26.07,72.85-36.11,110.09-12.37,45.88-35.85,89.42-60.91,132-13.46,22.87-27.66,46.22-30,71.35-3.21,34.89,17.93,69.77,51.26,93.15S300.76,847.09,345.32,850c23.71,1.54,48.49.35,69.6-8.19,22.33-9,38.66-25.47,61.08-34.37,20.78-8.24,45-9.3,68.31-8.09a380.063,380.063,0,0,1,89.06,15.26c32.49,9.72,62.68,23.71,95.1,33.57s68.66,15.44,101.88,7.51c31.19-7.44,55.93-25.78,78.24-44.36a850.672,850.672,0,0,0,99.95-98c20.15-23.39,38.92-48.09,47.92-75.42,17.19-52.26-5.84-111.43-57.37-147.42-42.69-29.83-100.12-43-156.36-51-51.29-7.37-110.63-8.1-157.77-26.87C640,394.67,599.1,372.65,551.94,357.39Z" data-name="Path 5490" opacity=".1" transform="translate(-3719.91 7873.434)"/><ellipse id="Ellipse_189" cx="23.11" cy="3.17" fill="#ff0080" data-name="Ellipse 189" opacity=".1" rx="23.11" ry="3.17" transform="translate(-2730.66 8402.574)"/><ellipse id="Ellipse_190" cx="23.11" cy="3.17" fill="#ff0080" data-name="Ellipse 190" opacity=".1" rx="23.11" ry="3.17" transform="translate(-2819.19 8411.554)"/><ellipse id="Ellipse_191" cx="23.11" cy="3.17" fill="#ff0080" data-name="Ellipse 191" opacity=".1" rx="23.11" ry="3.17" transform="translate(-2923.47 8399.404)"/><ellipse id="Ellipse_192" cx="16.43" cy="2.26" fill="#ff0080" data-name="Ellipse 192" opacity=".1" rx="16.43" ry="2.26" transform="translate(-2777.08 8438.024)"/><ellipse id="Ellipse_193" cx="16.43" cy="2.26" fill="#ff0080" data-name="Ellipse 193" opacity=".1" rx="16.43" ry="2.26" transform="translate(-2868.96 8435.764)"/><path id="Path_5491" fill="#ff0080" d="M923.33,540.57s32.42-106.26-5.07-148.82c-28-31.84-59.88-28-74.13-24.09a26.32,26.32,0,0,0-17,14.13c-5,10.75-4.08,28.2,31.1,48.57,58.91,34.11,62.58,80.9,62.58,80.9Z" data-name="Path 5491" transform="translate(-3719.91 7873.434)"/><path id="Path_5492" fill="none" stroke="#565987" stroke-miterlimit="10" stroke-width="1" d="M849.2,382.73s95.56,29.88,74.13,157.84" data-name="Path 5492" transform="translate(-3719.91 7873.434)"/><path id="Path_5493" fill="none" stroke="#565987" stroke-miterlimit="10" stroke-width="1" d="M905,393.44s-13.16,8.87-9,22.19" data-name="Path 5493" transform="translate(-3719.91 7873.434)"/><path id="Path_5494" fill="none" stroke="#565987" stroke-miterlimit="10" stroke-width="1" d="M858.79,401.33s8-8.18,17.83-3.67" data-name="Path 5494" transform="translate(-3719.91 7873.434)"/><path id="Path_5495" fill="none" stroke="#565987" stroke-miterlimit="10" stroke-width="1" d="M896.56,442.48s14.12-7.16,17.77,1.81" data-name="Path 5495" transform="translate(-3719.91 7873.434)"/><path id="Path_5496" fill="none" stroke="#565987" stroke-miterlimit="10" stroke-width="1" d="M931.51,457.42s-10.61-.84-10.8,4.23" data-name="Path 5496" transform="translate(-3719.91 7873.434)"/><path id="Path_5497" fill="#ff0080" d="M924.64,541.42s-38-77.23-48.39-75.54c-5,.8-7.24,5.68-8.27,10.57a31.079,31.079,0,0,0,2.07,18.8C875.44,507.61,889.91,531.08,924.64,541.42Z" data-name="Path 5497" transform="translate(-3719.91 7873.434)"/><path id="Path_5498" fill="none" stroke="#565987" stroke-miterlimit="10" stroke-width="1" d="M876.53,480.54s39.85,57.78,47.55,60.32" data-name="Path 5498" transform="translate(-3719.91 7873.434)"/><line id="Line_26" x2="9.3" fill="none" stroke="#565987" stroke-miterlimit="10" stroke-width="1" data-name="Line 26" transform="translate(-2847.04 8362.994)"/><line id="Line_27" x2="14.58" y2=".62" fill="none" stroke="#565987" stroke-miterlimit="10" stroke-width="1" data-name="Line 27" transform="translate(-2835.9 8384.134)"/><line id="Line_28" x1="1.58" y2="7.59" fill="none" stroke="#565987" stroke-miterlimit="10" stroke-width="1" data-name="Line 28" transform="translate(-2828.61 8367.225)"/><line id="Line_29" x1=".28" y2="6.9" fill="none" stroke="#565987" stroke-miterlimit="10" stroke-width="1" data-name="Line 29" transform="translate(-2811.81 8390.334)"/><path id="Path_5499" fill="#ff0080" d="M923.52,541.42s38-77.23,48.39-75.54c5,.8,7.24,5.68,8.27,10.57a31.081,31.081,0,0,1-2.07,18.8C972.72,507.61,958.25,531.08,923.52,541.42Z" data-name="Path 5499" transform="translate(-3719.91 7873.434)"/><path id="Path_5500" fill="none" stroke="#565987" stroke-miterlimit="10" stroke-width="1" d="M971.63,480.54s-39.85,57.78-47.55,60.32" data-name="Path 5500" transform="translate(-3719.91 7873.434)"/><line id="Line_30" x1="9.3" fill="none" stroke="#565987" stroke-miterlimit="10" stroke-width="1" data-name="Line 30" transform="translate(-2753.92 8362.994)"/><line id="Line_31" x1="14.58" y2=".62" fill="none" stroke="#565987" stroke-miterlimit="10" stroke-width="1" data-name="Line 31" transform="translate(-2770.34 8384.134)"/><line id="Line_32" x2="1.58" y2="7.59" fill="none" stroke="#565987" stroke-miterlimit="10" stroke-width="1" data-name="Line 32" transform="translate(-2764.63 8367.225)"/><line id="Line_33" x2=".29" y2="6.9" fill="none" stroke="#565987" stroke-miterlimit="10" stroke-width="1" data-name="Line 33" transform="translate(-2780.14 8390.334)"/><path id="Path_5501" fill="#ff0080" d="M858.33,559.46a6.64,6.64,0,0,1-2.16-3.26,2.91,2.91,0,0,1,1.51-3.33c1.39-.53,2.87.43,4,1.41s2.41,2.07,3.88,1.87a5.91,5.91,0,0,1-1.82-5.53,2.321,2.321,0,0,1,.5-1.13c.77-.82,2.17-.46,3.09.18,2.93,2.07,3.75,6.05,3.77,9.63a18.689,18.689,0,0,0,0-4,4.07,4.07,0,0,1,1.49-3.51,4.41,4.41,0,0,1,2.27-.54,4.72,4.72,0,0,1,3.69,1.05c1.11,1.2.82,3.21-.15,4.53a14.381,14.381,0,0,1-3.81,3,8.38,8.38,0,0,0-2.73,2.6,3.2,3.2,0,0,0-.2.46H863.4a22.78,22.78,0,0,1-5.07-3.43Z" data-name="Path 5501" transform="translate(-3719.91 7873.434)"/><path id="Path_5502" fill="#ff0080" d="M1003,528.35a6.551,6.551,0,0,1-2.16-3.26,2.9,2.9,0,0,1,1.51-3.32c1.39-.53,2.87.43,4,1.4s2.42,2.08,3.89,1.87a5.89,5.89,0,0,1-1.83-5.53,2.21,2.21,0,0,1,.51-1.12c.77-.82,2.16-.47,3.08.18,2.93,2.06,3.75,6,3.77,9.63a18.15,18.15,0,0,0,0-4,4.07,4.07,0,0,1,1.49-3.51,4.549,4.549,0,0,1,2.27-.53,4.68,4.68,0,0,1,3.69,1c1.12,1.19.83,3.2-.15,4.52a14.219,14.219,0,0,1-3.81,3.06,8.38,8.38,0,0,0-2.73,2.6,2.45,2.45,0,0,0-.2.46h-8.26a23.05,23.05,0,0,1-5.07-3.45Z" data-name="Path 5502" transform="translate(-3719.91 7873.434)"/><path id="Path_5503" fill="#ff0080" d="M954.78,559.46a6.64,6.64,0,0,1-2.16-3.26,2.91,2.91,0,0,1,1.51-3.33c1.39-.53,2.87.43,4,1.41s2.41,2.07,3.88,1.87a5.92,5.92,0,0,1-1.83-5.53,2.43,2.43,0,0,1,.51-1.13c.77-.82,2.17-.46,3.09.18,2.93,2.07,3.75,6.05,3.77,9.63a18.7,18.7,0,0,0,.05-4,4.07,4.07,0,0,1,1.49-3.51,4.41,4.41,0,0,1,2.27-.54,4.72,4.72,0,0,1,3.69,1.05c1.11,1.2.82,3.21-.15,4.53a14.379,14.379,0,0,1-3.81,3,8.379,8.379,0,0,0-2.73,2.6,3.191,3.191,0,0,0-.2.46H959.9A22.779,22.779,0,0,1,954.78,559.46Z" data-name="Path 5503" transform="translate(-3719.91 7873.434)"/><path id="Path_5504" fill="#ff0080" d="M818.05,496.58s-3.1,4.05,1.43,10.16,8.25,11.28,6.75,15.09c0,0-6.83-11.35-12.39-11.51S811.93,503.41,818.05,496.58Z" data-name="Path 5504" transform="translate(-3719.91 7873.434)"/><path id="Path_5505" d="M818.05,496.58a4.889,4.889,0,0,0-.64,1.27c-5.42,6.37-8.31,12.32-3.1,12.47,4.86.14,10.69,8.82,12.08,11a1.537,1.537,0,0,1-.16.5s-6.83-11.35-12.39-11.51S811.93,503.41,818.05,496.58Z" data-name="Path 5505" opacity=".1" transform="translate(-3719.91 7873.434)"/><path id="Path_5506" fill="#ffd037" d="M812.29,501.74c0,1.43.16,2.58.36,2.58s.35-1.15.35-2.58-.2-.75-.39-.75S812.29,500.32,812.29,501.74Z" data-name="Path 5506" transform="translate(-3719.91 7873.434)"/><path id="Path_5507" fill="#ffd037" d="M810.31,503.44c1.25.69,2.35,1.1,2.44.93s-.84-.87-2.09-1.55-.76-.19-.86,0S809.06,502.76,810.31,503.44Z" data-name="Path 5507" transform="translate(-3719.91 7873.434)"/><path id="Path_5508" fill="#ff0080" d="M834.4,496.58s3.1,4.05-1.43,10.16-8.25,11.28-6.74,15.09c0,0,6.82-11.35,12.38-11.51S840.52,503.41,834.4,496.58Z" data-name="Path 5508" transform="translate(-3719.91 7873.434)"/><path id="Path_5509" d="M834.4,496.58a4.89,4.89,0,0,1,.64,1.27c5.42,6.37,8.31,12.32,3.1,12.47-4.86.14-10.69,8.82-12.08,11a4.211,4.211,0,0,0,.17.5s6.82-11.35,12.38-11.51S840.52,503.41,834.4,496.58Z" data-name="Path 5509" opacity=".1" transform="translate(-3719.91 7873.434)"/><path id="Path_5510" fill="#ffd037" d="M840.16,501.74c0,1.43-.16,2.58-.36,2.58s-.35-1.15-.35-2.58.2-.75.39-.75S840.16,500.32,840.16,501.74Z" data-name="Path 5510" transform="translate(-3719.91 7873.434)"/><path id="Path_5511" fill="#ffd037" d="M842.14,503.44c-1.25.69-2.35,1.1-2.44.93s.84-.87,2.09-1.55.76-.19.86,0S843.39,502.76,842.14,503.44Z" data-name="Path 5511" transform="translate(-3719.91 7873.434)"/><path id="Path_5512" fill="#b4c2d3" d="M839.17,521.3s-8.65-.26-11.26-2.12-13.32-4.08-14-1.1-13,14.82-3.24,14.9,22.72-1.52,25.32-3.11S839.17,521.3,839.17,521.3Z" data-name="Path 5512" transform="translate(-3719.91 7873.434)"/><path id="Path_5513" fill="#192431" d="M810.53,531.94c9.77.08,22.71-1.52,25.32-3.11,2-1.2,2.77-5.54,3-7.54h.28s-.54,7-3.15,8.57-15.54,3.19-25.32,3.11c-2.82,0-3.79-1-3.74-2.51C807.35,531.37,808.43,531.93,810.53,531.94Z" data-name="Path 5513" opacity=".2" transform="translate(-3719.91 7873.434)"/><circle id="Ellipse_194" cx="21.63" cy="21.63" r="21.63" fill="#ff0080" data-name="Ellipse 194" opacity=".1" transform="translate(-3474.64 7952.884)"/><circle id="Ellipse_195" cx="21.63" cy="21.63" r="21.63" fill="#ff0080" data-name="Ellipse 195" opacity=".1" transform="translate(-3100.53 7918.744)"/><circle id="Ellipse_196" cx="21.63" cy="21.63" r="21.63" fill="#ff0080" data-name="Ellipse 196" opacity=".1" transform="translate(-2757.38 8004.194)"/><circle id="Ellipse_197" cx="36.25" cy="36.25" r="36.25" fill="#ff0080" data-name="Ellipse 197" opacity=".1" transform="translate(-3582 8136.594)"/><circle id="Ellipse_198" cx="36.25" cy="36.25" r="36.25" fill="#ff0080" data-name="Ellipse 198" opacity=".1" transform="translate(-3547.25 8315.594)"/><circle id="Ellipse_199" cx="36.25" cy="36.25" r="36.25" fill="#ff0080" data-name="Ellipse 199" opacity=".1" transform="translate(-2868.33 8157.704)"/><path id="Path_5514" fill="#65617d" d="M588.07,388.4c-1.28.12-2.58.06-3.85.26a17.531,17.531,0,0,0-6,2.41c-9.1,5.18-17.69,12.3-21.46,22.06a3,3,0,0,0-.28,1.95,3.3,3.3,0,0,0,1.06,1.38l3.54,3.22a5,5,0,0,0,1.57,1.1,5.13,5.13,0,0,0,2.9-.09c9.73-2.23,20.07-4.8,26.9-12.08,3.24-3.45,6.23-8.2,11-8.33,2,0,3.87.77,5.84,1s4.34-.61,4.81-2.53a5.32,5.32,0,0,0-.32-2.83l-2.94-9.79c-.8-2.68-8.87-2.82-11.56-2.34C595.18,384.5,592.42,388,588.07,388.4Z" data-name="Path 5514" transform="translate(-3719.91 7873.434)"/><path id="Path_5515" fill="#65617d" d="M622.71,443.55c-.14,3.35.13,6.74-.42,10.06a29.348,29.348,0,0,1-2.49,7.55,49.57,49.57,0,0,1-6.8,10.71c-2.53,3-5.56,5.82-9.31,7s-8.36.33-10.7-2.83c-1.91-2.57-2-6-1.86-9.21.34-7.89,1.58-15.89,5.12-22.95,1.52-3,3.45-5.86,5-8.89,3.24-6.29,5.09-13.75,10.68-18.09a35.112,35.112,0,0,0,11.1,3.05c1.49.16,5.75.26,6.25,2.17.34,1.29-2.46,4.9-3,6.17a42.111,42.111,0,0,0-3.57,15.26Z" data-name="Path 5515" transform="translate(-3719.91 7873.434)"/><path id="Path_5516" fill="#3f3d56" d="M583.07,299.33c1.2,3.06,2.72,6.06,3,9.32.2,2,0,4,0,6a39.189,39.189,0,0,0,1.36,8.1l5.57,22.8c.83,3.41,1.66,6.91,1.23,10.39-.29,2.32-1.13,4.57-1.12,6.9a26.764,26.764,0,0,0,.84,5.23,32.22,32.22,0,0,1-.84,15.9,2.38,2.38,0,0,0-.17,1.23c.14.65.77,1.05,1.34,1.36a57.111,57.111,0,0,0,19.3,6.43,189.052,189.052,0,0,0,12.7-45.35c1.42-9.44,2.11-19,3.93-28.37a2.32,2.32,0,0,1,.65-1.44c.68-.57,1.71-.21,2.51.17a224.042,224.042,0,0,1,29.41,17,36.74,36.74,0,0,0,6.79-30.41,62.993,62.993,0,0,0-5-13.08,73.887,73.887,0,0,0-8.5-14.27c-7.42-9.3-18.3-15.24-29.5-19.27-6.81-2.46-13.82-4.28-20.82-6.14-3.92-1.05-10.49-4.47-14.3-1.81-4,2.77-6.66,9.64-8.3,14a51.58,51.58,0,0,0-3.26,16.89,47.719,47.719,0,0,0,3.18,18.42Z" data-name="Path 5516" transform="translate(-3719.91 7873.434)"/><path id="Path_5517" fill="#3f3d56" d="M663.46,326.82c-2.09,2.28-.33,5.92-.73,9a12.431,12.431,0,0,1-1.47,3.95l-9.57,18.79a34.842,34.842,0,0,0-3.56,9c-1.31,6.78,1.38,14.4-2.06,20.39-1.11,1.93-2.83,3.59-3.29,5.77-.34,1.59,0,3.25-.17,4.86-.23,1.89-1.24,3.59-1.8,5.41a37.7,37.7,0,0,0-.93,5.32,31.3,31.3,0,0,1-11.24,19.44,17.88,17.88,0,0,1-12.4,4.22c-4.46-.38-8.89-3.41-9.8-7.79-.31-1.49-.25-3.15-1.18-4.36-1.32-1.73-4.1-1.8-5.37-3.57l4.92-8.1c1.53-2.51,3.09-5.13,3.34-8.06.3-3.59-1.43-7.17-.81-10.72.53-3.05,2.72-5.59,3.38-8.61.82-3.75-.82-7.54-1.71-11.28-2.18-9.21.26-18.81,2.69-28,3.23-12.16,6.54-24.51,13.08-35.26C637.83,314.25,649.83,321,663.46,326.82Z" data-name="Path 5517" transform="translate(-3719.91 7873.434)"/><path id="Path_5518" fill="#ff0080" d="M663.58,136.34c.78,2.12.36,4.47.21,6.72-.35,5,.71,10,.47,15.07s-1.8,9.91-2.88,14.84c-3.07,14.07-2.33,28.73-5.11,42.86-3.43,17.5-12.2,33.8-13.93,51.56-.55,5.64-.48,11.68-3.57,16.44a258.15,258.15,0,0,1-51.72-30.38c3.52-26.11,7-52.35,6.53-78.69a33.779,33.779,0,0,1,.66-9.48,29.229,29.229,0,0,1,3.56-7.38c3.87-6.29,8.13-12.33,12.38-18.36,2.72-3.86,5.66-7.91,10-9.72s9.48-1,14.21-.14q8.54,1.56,17.06,3.12C655,133.45,662.06,132.21,663.58,136.34Z" data-name="Path 5518" transform="translate(-3719.91 7873.434)"/><path id="Path_5519" fill="#be6f72" d="M526.65,236.39a53.369,53.369,0,0,0-7.6-6.31c3.55-4.32,2.85-10.57,3.72-16.1A53.093,53.093,0,0,1,526,203.51c.36-.95.87-2,1.86-2.25a3.27,3.27,0,0,1,1.78.28c3,1.06,9.26,1,11.59,2.94,2.81,2.36.24,7.3-.82,10.25C539.66,216.71,528.14,237.89,526.65,236.39Z" data-name="Path 5519" transform="translate(-3719.91 7873.434)"/><path id="Path_5520" fill="#65617d" d="M535.36,423.14a20.72,20.72,0,0,1,2.89,8c.24,2.84-.8,5.95-3.22,7.45s-5.89,1-8.77.1a45.64,45.64,0,0,1-27.65-25c-.91-2.1-1.7-4.33-3.31-5.95a18.321,18.321,0,0,0-3.95-2.65c-3.93-2.22-7.72-5.14-9.54-9.28s-1-9.67,2.77-12.13a10.22,10.22,0,0,1,7.84-1,30.32,30.32,0,0,1,7.42,3.23c3.88,2.11,8.62,3.93,12,6.74,3,2.47,5.69,5.81,8.25,8.72a122.641,122.641,0,0,1,8.23,10.5C529.14,412.94,536.05,422.17,535.36,423.14Z" data-name="Path 5520" transform="translate(-3719.91 7873.434)"/><path id="Path_5521" fill="#65617d" d="M462.06,402.15A69.26,69.26,0,0,1,459.41,417c-.81,2.72-1.88,5.55-4.13,7.28a15.11,15.11,0,0,1-6.31,2.31,6,6,0,0,1-2.41.15c-1.38-.29-2.36-1.48-3.21-2.61-3.34-4.42-6.59-9.09-8-14.45-2-7.77,0-16.1,3.47-23.36a23.91,23.91,0,0,1,5.35-7.79,20.49,20.49,0,0,1,9.82-4.41c3.69-.74,8.22-2.32,8.49,2.17a208.646,208.646,0,0,1-.42,25.86Z" data-name="Path 5521" transform="translate(-3719.91 7873.434)"/><path id="Path_5522" fill="#3f3d56" d="M517.39,214.19c6.9,3.57,14.56,8.11,16,15.74.89,4.66-.82,9.43-.54,14.17.25,4.17,2,8.2,1.78,12.36a58.184,58.184,0,0,1-1,5.85c-.59,3.69-.24,7.45-.39,11.18-.33,8.4-3.14,16.48-4.5,24.77a72.559,72.559,0,0,0-.67,17.91c.33,3.86,1,7.7,1,11.58a50.73,50.73,0,0,1-.69,8.341,83.2,83.2,0,0,1-8,24.869c-4.81,9.47-4.13,21.69-3.62,32.3a8,8,0,0,1-.54,4.32c-1.26,2.29-4.4,2.62-7,2.4a38,38,0,0,1-25-12.66,6.41,6.41,0,0,1-1.82-3.37c-.22-2.14,1.5-3.9,2.74-5.67,4.22-6,3.15-14.13,3.65-21.5a47,47,0,0,1,3.79-15.55c1.24-2.85,2.79-5.66,3.07-8.76.26-2.89-.62-5.75-1.49-8.51l-3-9.52c-4.65-14.79-9.33-29.67-16.37-43.48a21.75,21.75,0,0,0-9.25,13c-2.62,9.42,1.11,19.94-2.46,29a26.514,26.514,0,0,0-1.47,3.89,15.65,15.65,0,0,0-.24,3.49,284.181,284.181,0,0,0,1.78,29.17,9,9,0,0,0,1.2,4.17c.59.85,1.45,1.48,2.08,2.29,1.75,2.27,1.42,5.45,1,8.28l-2,13.38a3.629,3.629,0,0,1-.65,1.89,3.579,3.579,0,0,1-1.7.92,47.4,47.4,0,0,1-19.66,1.8c-1.95-.23-3.72-1.54-5.35-2.64-.17-2,2.32-3.33,2.41-5.32a4.59,4.59,0,0,0-1.53-3.06c-3.72-4.2-8.16-8.66-8.12-14.27,0-1.47.35-2.94.3-4.41-.13-3.77-2.73-7-3.64-10.63-1.12-4.49.37-9.15.94-13.74.78-6.18-.14-12.44-1-18.61l-3.35-22.64A60.643,60.643,0,0,0,422,276.54a81.267,81.267,0,0,0-4.43-9.74c-3.2-6.5-5.83-13.26-8.45-20a18.229,18.229,0,0,1-1.55-5.79c-.15-3.43,1.62-6.67,3.82-9.31a29.11,29.11,0,0,1,16-9.7,7,7,0,0,1,3.21-.13,8.619,8.619,0,0,1,2.49,1.31,59.82,59.82,0,0,0,52.87,6.27c1,.76,2.85.43,4-.11,3.21-1.47,5.83-3.92,8.65-6C503.86,219.36,510.94,215.58,517.39,214.19Z" data-name="Path 5522" transform="translate(-3719.91 7873.434)"/><path id="Path_5523" fill="#3f3d56" d="M310.12,471a13.68,13.68,0,0,0,2.36,4.21c3.62,4.72,8.67,8.49,11,14,.49,1.18.85,2.42,1.3,3.62a23.81,23.81,0,0,0,6.5,9.42,40,40,0,0,0,7.17,4.75c4.42,2.41,9.2,4.59,14.22,4.46a15.449,15.449,0,0,0,3-.36,16.229,16.229,0,0,0,4.47-1.64c3.23-1.78,6-5.26,5.36-8.89a8.13,8.13,0,0,0-.65-2,21,21,0,0,0-1.83-2.89c-1.69-2.34-3.43-4.74-5.9-6.24-2.78-1.7-6.28-2.12-8.78-4.22a13.8,13.8,0,0,1-2.53-3.06,38.578,38.578,0,0,1-5-11.33c-.76-3-1.27-6.29-3.46-8.49s-5.2-2.7-8.12-3.2a14.107,14.107,0,0,0-3-.29c-1.43.05-2.91.46-4.25-.21s-1.79-1.62-3.41-1.49a7,7,0,0,0-3.51,1.53C311.26,461.49,308.74,466.49,310.12,471Z" data-name="Path 5523" transform="translate(-3719.91 7873.434)"/><path id="Path_5524" fill="#fbbebe" d="M345.65,475.55c.65,3.39,1.65,7,4.27,9.21,1.67,1.44,4,2.34,4.83,4.37s-.24,4.58-1.62,6.44a23.719,23.719,0,0,1-6.44,5.91c-2.12,1.31-4.65,2.31-7.08,1.73-2-.47-3.58-1.91-5.07-3.3-3.42-3.17-6.92-6.46-8.84-10.71-2-4.48-2.1-9.67-4.28-14.08-1.27-2.57-3.23-4.82-4-7.58a4.71,4.71,0,0,1,0-3.08,4.34,4.34,0,0,1,3.92-2.33,13.642,13.642,0,0,1,4.69,1A103.279,103.279,0,0,0,339.86,467c1.87.35,3,.34,4,2.15a21.56,21.56,0,0,1,1.79,6.4Z" data-name="Path 5524" transform="translate(-3719.91 7873.434)"/><path id="Path_5525" fill="#fbbebe" d="M357.25,504.21a11,11,0,0,0-1.55,3.72,8.31,8.31,0,0,0-.11,3.14,16.23,16.23,0,0,0,4.47-1.64c3.23-1.78,6-5.26,5.36-8.89a8.131,8.131,0,0,0-.65-2,2.79,2.79,0,0,0-2.66.83,22.088,22.088,0,0,0-4.86,4.84Z" data-name="Path 5525" transform="translate(-3719.91 7873.434)"/><path id="Path_5526" fill="#3f3d56" d="M321.41,428.23a4.921,4.921,0,0,0-.37,3c.46,2,2.51,3.15,4.36,4.06l17.59,8.6a36.845,36.845,0,0,1,3.56,1.89c3,1.84,5.36,4.44,7.92,6.82s5.41,4.61,8.8,5.45a14.87,14.87,0,0,0,10-1.31,20.668,20.668,0,0,0,4.58-3.11,28.16,28.16,0,0,0,3.3-3.43,7.4,7.4,0,0,0,1.79-3.23c.33-1.83-.58-3.63-1.64-5.14a23.744,23.744,0,0,0-2-2.48c-6.67-7.37-17.6-11.19-27-12.69-3.74-.6-7.29-2-10.89-3.14s-7.41-2-11.15-1.47S322.84,424.73,321.41,428.23Z" data-name="Path 5526" transform="translate(-3719.91 7873.434)"/><path id="Path_5527" d="M321.41,428.23a4.921,4.921,0,0,0-.37,3c.46,2,2.51,3.15,4.36,4.06l17.59,8.6a36.845,36.845,0,0,1,3.56,1.89c3,1.84,5.36,4.44,7.92,6.82s5.41,4.61,8.8,5.45a14.87,14.87,0,0,0,10-1.31,20.668,20.668,0,0,0,4.58-3.11,28.16,28.16,0,0,0,3.3-3.43,7.4,7.4,0,0,0,1.79-3.23c.33-1.83-.58-3.63-1.64-5.14a23.744,23.744,0,0,0-2-2.48c-6.67-7.37-17.6-11.19-27-12.69-3.74-.6-7.29-2-10.89-3.14s-7.41-2-11.15-1.47S322.84,424.73,321.41,428.23Z" data-name="Path 5527" opacity=".1" transform="translate(-3719.91 7873.434)"/><path id="Path_5528" fill="#fbbebe" d="M365.43,433.72a20,20,0,0,1,3.3,5.09,5.7,5.7,0,0,1,.75,4.07,5.941,5.941,0,0,1-1.83,2.4l-1.75,1.62a7,7,0,0,1-1.82,1.36,7.28,7.28,0,0,1-3,.45c-2.35,0-4.88,0-6.79-1.41-2.61-1.88-3.08-5.77-1.89-8.76s3.68-5.25,6.19-7.27C360.63,429.62,364,432.21,365.43,433.72Z" data-name="Path 5528" transform="translate(-3719.91 7873.434)"/><path id="Path_5529" fill="#fbbebe" d="M376.11,444.06a8.89,8.89,0,0,0,.45,4.95c.44,1.5.87,3,1.3,4.53v.06a28.16,28.16,0,0,0,3.3-3.43,7.4,7.4,0,0,0,1.79-3.23c.33-1.83-.58-3.63-1.64-5.14a23.737,23.737,0,0,0-2-2.48c-.47.61-.88,1.21-1.22,1.6A8.83,8.83,0,0,0,376.11,444.06Z" data-name="Path 5529" transform="translate(-3719.91 7873.434)"/><path id="Path_5530" fill="#3f3d56" d="M330.16,369.53c-2.07,8.7-1.19,17.8-.09,26.68.84,6.76,1.78,13.76-.22,20.27-.74,2.43-1.91,4.9-1.46,7.41.85,4.73,6.55,6.55,11.27,7.44a11.111,11.111,0,0,0,4.17.25,9.9,9.9,0,0,0,3.8-2,41.54,41.54,0,0,0,14.63-19.45c1.79-5.22,2.36-10.77,2.91-16.26.92-9.24,1.85-18.59.5-27.77-.4-2.7-1-5.37-1.25-8.09a58.458,58.458,0,0,1,.78-14.15,228.263,228.263,0,0,1,7.8-34.14,46,46,0,0,1-27.68-5c1.64.88-.24,14.91-.44,16.88a114.574,114.574,0,0,1-3.17,17.4C338.92,349.67,332.69,358.93,330.16,369.53Z" data-name="Path 5530" transform="translate(-3719.91 7873.434)"/><path id="Path_5531" d="M330.16,369.53c-2.07,8.7-1.19,17.8-.09,26.68.84,6.76,1.78,13.76-.22,20.27-.74,2.43-1.91,4.9-1.46,7.41.85,4.73,6.55,6.55,11.27,7.44a11.111,11.111,0,0,0,4.17.25,9.9,9.9,0,0,0,3.8-2,41.54,41.54,0,0,0,14.63-19.45c1.79-5.22,2.36-10.77,2.91-16.26.92-9.24,1.85-18.59.5-27.77-.4-2.7-1-5.37-1.25-8.09a58.458,58.458,0,0,1,.78-14.15,228.263,228.263,0,0,1,7.8-34.14,46,46,0,0,1-27.68-5c1.64.88-.24,14.91-.44,16.88a114.574,114.574,0,0,1-3.17,17.4C338.92,349.67,332.69,358.93,330.16,369.53Z" data-name="Path 5531" opacity=".1" transform="translate(-3719.91 7873.434)"/><path id="Path_5532" fill="#3f3d56" d="M382.08,318.55c4,11.59,3.12,24.25,1.39,36.39s-4.28,24.28-3.53,36.51c.29,4.8,1.07,9.73-.33,14.32a31.3,31.3,0,0,1-3.07,6.39l-31.91,55.18a9.92,9.92,0,0,1-8,5c-3.41.24-6.76-.88-9.94-2.13A17.88,17.88,0,0,1,320.9,467a6.85,6.85,0,0,1-2.44-5.86c1.43-9.58,3.58-19.39,5.17-29a50.2,50.2,0,0,1,6.94-18.37c2.47-4,5.51-7.59,7.64-11.75,6.12-11.92,4-26.46-.72-39s-11.75-24.18-15.5-37a42.42,42.42,0,0,1-1.89-11,29.33,29.33,0,0,1,8.36-20.86,7.33,7.33,0,0,1,2.89-2,8.1,8.1,0,0,1,3.94.07C353.06,295.68,376.21,301.43,382.08,318.55Z" data-name="Path 5532" transform="translate(-3719.91 7873.434)"/><path id="Path_5533" fill="#fbbebe" d="M668.91,145.52c.58,4.38-1,8.81-3.25,12.6-8.51,14.2-28.13,20.48-43.3,13.87-6.25-2.73-11.54-7.23-16.72-11.67-1.74-1.5-3.55-3.07-4.43-5.19-1.55-3.75.32-8.22,3.37-10.9s7-4,10.93-5.19C628.48,135,665.82,122.26,668.91,145.52Z" data-name="Path 5533" transform="translate(-3719.91 7873.434)"/><path id="Path_5534" fill="#3f3d56" d="M661.32,131.62c11.81,9.5,29,18.55,42.38,25.59,4.55,2.4,9.6,5.1,11.24,10,.88,2.62.59,5.47.3,8.23-.56,5.31-1.14,10.7-3.19,15.63-2.41,5.77-6.67,10.53-10.09,15.77-6,9.18-9.52,20-16.93,28.11,5,16.61,10.47,33.2,12.25,50.44a2.32,2.32,0,0,1-.15,1.41,2.42,2.42,0,0,1-.78.71l-12.44,8.16a14,14,0,0,0-3.59,3c-2.2,2.86-1.91,6.88-3.27,10.21a13.27,13.27,0,0,1-7.7,7A23.71,23.71,0,0,1,658.76,317a24.62,24.62,0,0,1-12.64-4.45c-3.17-2.4-5.43-5.77-7.61-9.09a35.39,35.39,0,0,1-4-7.29c-1.33-3.68-1.41-7.69-1.36-11.61a122.734,122.734,0,0,1,2.13-22.23c.58-2.91,1.3-5.78,1.76-8.71.92-5.9.74-11.92,1.42-17.85a120.057,120.057,0,0,1,4.45-19.67,101.463,101.463,0,0,0,2.6-12.1c1.17-7.18,3.5-14.11,5.83-21l4-11.81c.85-2.55,1.71-5.09,2.72-7.58,1.88-4.65,4.3-9.18,4.94-14.14.71-5.41-5.13-11.83-3.16-16.91C660,132,660.87,131.26,661.32,131.62Z" data-name="Path 5534" transform="translate(-3719.91 7873.434)"/><path id="Path_5535" fill="#3f3d56" d="M711.74,164.42c2.77,1.25,4.3,4.23,5.29,7.11a40.3,40.3,0,0,1,1.56,20.2,36.157,36.157,0,0,0-.8,5.16,34.412,34.412,0,0,0,.59,6c1,7.65,0,15.42.33,23.14.34,8.68,2.23,17.85-1.41,25.74-2.42,5.24-7,9.14-11.52,12.68a230.52,230.52,0,0,1-55.17,31.84c3.41-4.1,3.47-10.27,1.2-15.1s-6.49-8.46-11-11.28A70.88,70.88,0,0,0,657.36,264c10.48-5.32,19.46-13.11,28.33-20.82a8.62,8.62,0,0,0,2.94-3.72c.9-3-1.58-5.85-3.3-8.48-5.21-8-4-18.45-1.82-27.71,2.43-10.15,6-20.26,12.51-28.42C700.08,169.75,705.38,165.83,711.74,164.42Z" data-name="Path 5535" transform="translate(-3719.91 7873.434)"/><path id="Path_5536" fill="#fbbebe" d="M649.73,296.54a13.669,13.669,0,0,1-3.44,3.78c-3,2-7.12,1.24-10.47-.18a30.549,30.549,0,0,1-8.5-5.41,13.321,13.321,0,0,0-3.77-2.8c-2.62-1-6.28-.25-7.75-2.66a1.41,1.41,0,0,1-.24-.86c.09-.87,1.23-1.11,2.11-1.16a26.19,26.19,0,0,0,11.57-3.57,11.109,11.109,0,0,1-2.84-3,2.34,2.34,0,0,1-.48-1.42,2.54,2.54,0,0,1,.87-1.42,22.26,22.26,0,0,1,24.48-4.08,4.88,4.88,0,0,1,2,1.5,5.552,5.552,0,0,1,.73,2c.65,2.8,3,7,2.15,9.83C655.21,290.34,651.66,293.79,649.73,296.54Z" data-name="Path 5536" transform="translate(-3719.91 7873.434)"/><path id="Path_5537" fill="#3f3d56" d="M581.54,283.93c12.44-14.37,18-33.28,23.16-51.57l3.69-13,8.9-31.31c1.31-4.62,2.62-9.24,3.49-13.95,1.49-8.13,1.63-16.44,1.54-24.7a26.731,26.731,0,0,0-2.31-9.92c-.87-2.16-1.29-4.46-2-6.69A33.38,33.38,0,0,0,614,124a9.2,9.2,0,0,0-1.81-2.16,10.52,10.52,0,0,0-4.09-1.66,36,36,0,0,0-9.79-1.49c-3.32.12-6.74,1.27-8.88,3.79-1.63,1.93-2.38,4.43-3.67,6.6a25.74,25.74,0,0,0-1.63,2.77,14,14,0,0,0-.9,4.54q-.78,9.45-1.33,18.92c-.17,2.87-.32,5.76-.21,8.64.09,2.24.33,4.47.57,6.7l2.37,21.84c.55,5.13.16,9.93.62,15.07,1.12,12.41-1.55,24.82-4.29,37-1.31,5.79-2.66,11.66-5.46,16.9-2.47,4.64-6.17,9.35-5.19,14.52.34,1.8,1.25,3.48,1.39,5.3a10.64,10.64,0,0,0,.33,3.35,4,4,0,0,0,4.27,2A9.91,9.91,0,0,0,581.54,283.93Z" data-name="Path 5537" transform="translate(-3719.91 7873.434)"/><path id="Path_5538" fill="#fbbebe" d="M583.06,226.42c.38,2.87.09,5.78.23,8.67a58.478,58.478,0,0,0,2,11c1,4,2.28,8.48,5.81,10.7a18.26,18.26,0,0,1,2.53,1.59,2.46,2.46,0,0,1,.82,2.68l-2.75-.46a2.79,2.79,0,1,1-3.84,4,6.51,6.51,0,0,1-.25,2.68,2.18,2.18,0,0,1-2,1.5,3.221,3.221,0,0,1-1.43-.6L577,263.73a13.25,13.25,0,0,1-5.17-5L568.69,254a11.3,11.3,0,0,1-1.63-3c-1.17-4,2.1-8.44.4-12.21a16.411,16.411,0,0,0-1.79-2.62c-3.63-5-3.4-11.8-3-18,.13-2.09.51-4.57,2.4-5.48,1.5-.73,3.3-.08,4.69.83s2.62,2.11,4.2,2.65c1,.34,2.1.38,3.1.74,1.4.49,2.7,2.4,3.64,3.53a11.71,11.71,0,0,1,2.36,5.98Z" data-name="Path 5538" transform="translate(-3719.91 7873.434)"/><path id="Path_5539" fill="#be6f72" d="M495.43,136.55a17.779,17.779,0,0,1-3.52,5.26,6.81,6.81,0,0,1-5.8,2c-2.22-.44-3.85-2.27-5.32-4-3.84-4.51-7.73-9.08-10.31-14.42-3.94-8.13-4.57-17.41-5.14-26.42-.14-2.32-.26-4.78.85-6.81,1.41-2.59,4.4-3.81,7.16-4.84l15.25-5.7a5.91,5.91,0,0,1,3-.55c2.39.4,3.27,3.28,3.92,5.61a35,35,0,0,0,5.7,11.6c3.42,4.56,11.09,10.7,6.71,16.39C502.64,121.49,499.28,128.85,495.43,136.55Z" data-name="Path 5539" transform="translate(-3719.91 7873.434)"/><path id="Path_5540" fill="#e3e8f4" d="M514.94,110.53c6.68,6.28,8.94,16.06,8.62,25.21s-2.86,18.07-4.31,27.11-1.74,18.69,2.19,27c1.35,2.85,3.19,5.49,4.13,8.5a26.672,26.672,0,0,1,.79,9.13,26.07,26.07,0,0,1-1.82,9.44c-2.13,4.72-6.51,8-10.7,11-8.55,6.18-17.27,12.46-27.31,15.69-6.8,2.19-14,2.91-21.12,3.3a67.18,67.18,0,0,1-14.46-.41A39.27,39.27,0,0,1,429,234.88a12.3,12.3,0,0,1-2.49-3.43,14.251,14.251,0,0,1-.87-5.2q-.36-9.85.12-19.7A86.6,86.6,0,0,1,428.33,188c1.91-7,5.22-13.56,7.73-20.38,8.74-23.71,7.86-50.69,20-72.83,2.62-4.78,7-9.81,12.4-9.05A4.16,4.16,0,0,1,471.2,87a5.77,5.77,0,0,1,1,3.08c1.29,10.76,3.12,21.8,8.19,31.51,2,3.81,5,9.61,9.61,10.63s7.33-3.38,9.8-6.5a79.809,79.809,0,0,1,15.14-15.19Z" data-name="Path 5540" transform="translate(-3719.91 7873.434)"/><path id="Path_5541" fill="#3f3d56" d="M546.91,94.34A19.929,19.929,0,0,1,550.7,97c3,2.84,4.1,7.19,4.08,11.31s-1,8.18-1.6,12.26c-1.61,11-.24,22.26.4,33.4a16.17,16.17,0,0,1-.32,5.38c-.49,1.68-1.5,3.16-2.15,4.79-1.91,4.82-.47,10.32-1.59,15.38-1.2,5.39-5.31,10.29-4.54,15.76.31,2.14,1.34,4.11,1.78,6.23s.06,4.68-1.77,5.82-4.49.31-6.67.94a20.552,20.552,0,0,0-2.58,1.16c-3.37,1.52-7.39,1-10.71-.66a32.459,32.459,0,0,1-8.65-6.86c-3.81-3.9-7.5-8.17-9.17-13.36-2.44-7.52-.27-15.71,2.38-23.17s5.81-15,5.34-22.93c-.26-4.44-1.66-8.71-2.5-13.07a83.6,83.6,0,0,1-1.11-18.3c.13-4.48.43-9.1,2.36-13.15A18.11,18.11,0,0,1,528,88.13C535,87.37,541,90.94,546.91,94.34Z" data-name="Path 5541" transform="translate(-3719.91 7873.434)"/><path id="Path_5542" d="M528,191a30.489,30.489,0,0,0,1.7,9.39c1.79-4.08,2-8.66,2.24-13.1,1-15.29,4.39-29.71,8-44.52-2.63,2-4.11,7-5.37,10A88.18,88.18,0,0,0,528,191Z" data-name="Path 5542" opacity=".1" transform="translate(-3719.91 7873.434)"/><path id="Path_5543" fill="#3f3d56" d="M460.59,84.46c-4.82,1.27-9,4.13-13.67,6-4.85,2-10.07,2.85-15.16,4.08-11.78,2.86-23.61,8.17-30.72,18-5.24,7.23-7.41,16.16-11,24.35-3,6.87-7,13.31-9.21,20.46-2.89,9.33-2.56,19.33-1.85,29.07.58,8,1.46,16.09,5.09,23.18,1.9,3.72,4.52,7.05,6.42,10.77,2.28,4.47,3.48,9.4,5.38,14s4.69,9.2,9.1,11.6l7.3-4.27c10.89-6.37,21.78-12.75,32.33-19.67,9.2-6,18.48-12.89,23.38-22.75,4.34-8.71,4.77-18.89,3.65-28.56s-3.68-19.13-5-28.77a115.858,115.858,0,0,1,.75-36.51c1-5.44,3.66-11.06,4.21-16.48C472.2,83.17,464.76,83.36,460.59,84.46Z" data-name="Path 5543" transform="translate(-3719.91 7873.434)"/><path id="Path_5544" fill="#fbbebe" d="M415.46,243.43c5.59,5.29,13.63,6.83,20.62,10a44.27,44.27,0,0,1,13.77,10C452,265.79,454.08,269,453,272c-.91,2.58-3.7,3.9-6.26,4.86-3.18,1.2-6.73,2.26-9.9,1.05-1.86-.71-3.36-2.13-5.07-3.14-4.19-2.49-9.47-2.5-13.77-4.8-6.06-3.24-9.08-10.37-14.78-14.22-3.12-2.1-7.43-3.82-7.75-7.57a9.15,9.15,0,0,1,.84-3.93c1.15-3.06,3.11-13.57,7.49-13.29C408.57,231.27,411.91,240.9,415.46,243.43Z" data-name="Path 5544" transform="translate(-3719.91 7873.434)"/><path id="Path_5545" fill="#fbbebe" d="M386.17,196.56c1.83,6.58,6.08,12.19,10.49,17.41,3.17,3.75,6.65,7.83,6.76,12.74.1,4.64-3,8.91-7,11.28s-8.71,3.13-13.34,3.43a33.65,33.65,0,0,1-11.06-.77c-9.14-2.48-15.48-10.45-22.67-16.61-4.27-3.65-9.07-6.83-12.34-11.4s-4.65-11.13-1.43-15.74a22.779,22.779,0,0,1,4-4,66.86,66.86,0,0,0,13.79-16.55c1.48-2.51,2.9-5.23,5.39-6.74,3.57-2.17,8.15-1.18,12.19-.12,4.39,1.15,16.76,3.4,17.62,9,.35,2.3-2.5,5.88-2.93,8.35a22.119,22.119,0,0,0,.53,9.72Z" data-name="Path 5545" transform="translate(-3719.91 7873.434)"/><path id="Path_5546" fill="#ff67b3" d="M408.78,209.1a42.229,42.229,0,0,1,3.22,7.45c3.05,10.6-2.4,21.52-5,32.24-3.32,13.73-1.91,28.09-2.07,42.22-.07,6.46-.76,13.57-5.41,18.05-1.2,1.14-2.64,2.1-3.45,3.54a14.651,14.651,0,0,0-1.11,3.31,17.06,17.06,0,0,1-24.72,10.18c-3.79-2.11-7.08-5.77-11.42-5.88a33.1,33.1,0,0,0-4.07.45c-4.32.43-8.55-1.17-12.6-2.74a8.22,8.22,0,0,1-2.66-1.42c-.73-.67-1.2-1.57-1.87-2.29-2.47-2.66-6.69-2.2-10.25-2.94A14.35,14.35,0,0,1,316.5,300.4c-.72-3.44-.11-7,.49-10.47l2.68-15.46A142.335,142.335,0,0,0,322,257.3a72,72,0,0,0-1.66-19.41c-1.18-5.2-2.94-10.29-3.58-15.59a38.09,38.09,0,0,1,7-26.81c1.39-1.91,3.21-3.82,5.57-4,1.91-.17,3.7.85,5.36,1.83q21.63,12.8,43.56,25.07c4,2.25,8.09,4.51,12.55,5.62,1.34.34,3.26.2,3.45-1.16a2.53,2.53,0,0,0-.39-1.47c-2.5-4.81-6.12-8.94-9-13.52s-5.1-10-4.25-15.32c1.16-7.36,8-12.23,13.59-6.46C400.47,192.63,404.67,201.05,408.78,209.1Z" data-name="Path 5546" transform="translate(-3719.91 7873.434)"/><path id="Path_5547" fill="#fbbebe" d="M364,302.43c11.73.75,23.72,1.55,34.58,6.05,3.49,1.44,7.19,3.3,10.86,2.41a14.52,14.52,0,0,0,5-2.68,114.388,114.388,0,0,0,12.78-10.9c-.4-2.19-3.37-2.49-5.59-2.47a33.41,33.41,0,0,1-15.56-3.74,26.221,26.221,0,0,0-5-2.33c-4.75-1.31-9.59,1.19-14.36,2.41-7.06,1.8-14.5.75-21.71-.31L345.54,288c-1.81-.26-3.85-.47-5.29.65a6.46,6.46,0,0,0-1.89,3.39c-2.38,8-1.24,8.67,6.68,9.17Z" data-name="Path 5547" transform="translate(-3719.91 7873.434)"/><circle id="Ellipse_200" cx="32" cy="32" r="32" data-name="Ellipse 200" opacity=".1" transform="translate(-3122.19 7973.024)"/><circle id="Ellipse_201" cx="32" cy="32" r="32" fill="#fbbebe" data-name="Ellipse 201" transform="translate(-3122.42 7971.634)"/><path id="Path_5548" fill="#3f3d56" d="M656.5,89.57c2.56,1.58,5.24,3.28,6.64,5.94a29.735,29.735,0,0,1,1.71,5.6c1.75,6,6.41,11.21,6.69,17.46.31,6.85-4.83,12.8-10.65,16.39a7.9,7.9,0,0,1-4.58,1.54c-1.69-.11-3.15-1.17-4.7-1.85-6.57-2.92-13.92.78-20.88,2.48a37.48,37.48,0,0,1-21.8-1.28c-3.75-1.4-7.39-3.5-9.74-6.75S596,121.3,598,117.81c1-1.78,2.66-3.39,2.55-5.42-.06-1.22-.78-2.32-1-3.52-.32-1.91.68-3.77,1.7-5.4a78.159,78.159,0,0,1,17.3-19.57c2-1.64,4.31-3.24,6.93-3.36,5.26-.23,9.78,3.69,15.19,3.71C646.81,84.27,651.22,86.31,656.5,89.57Z" data-name="Path 5548" transform="translate(-3719.91 7873.434)"/><circle id="Ellipse_202" cx="33" cy="33" r="33" data-name="Ellipse 202" opacity=".1" transform="translate(-3241.22 7930.874)"/><circle id="Ellipse_203" cx="33" cy="33" r="33" fill="#be6f72" data-name="Ellipse 203" transform="translate(-3240.64 7930.064)"/><path id="Path_5549" fill="#3f3d56" d="M529.9,108.27c4.66,2.61,10.41,2.34,15.61,1.15a21,21,0,0,0,8.2-3.46,9.89,9.89,0,0,0,4.13-7.6c0-3.35-2.2-6.37-2.47-9.72-.33-4.22,2.42-8.12,2.71-12.36s-1.8-8.06-3.84-11.7c-3.51-6.25-7.16-12.58-12.5-17.36S529,39.39,522,41c-3.44.79-6.63,2.64-10.14,3-3.12.29-6.2-.65-9.31-1.05s-6.6-.15-8.83,2c-1.22,1.2-2,2.89-3.43,3.77a20.579,20.579,0,0,1-3,1.11c-3.61,1.45-5.26,5.52-6.54,9.18L472.17,83.6c2.87,2,6.33,2.91,9.47,4.45s6.19,4,6.83,7.44c.49,2.61-.44,5.61,1.08,7.79,1.39,2,4.22,2.34,6.62,2s4.81-1.17,7.21-.8c6,.91,8.23,4.59,13.78,0S524.74,105.37,529.9,108.27Z" data-name="Path 5549" transform="translate(-3719.91 7873.434)"/><circle id="Ellipse_204" cx="30" cy="30" r="30" data-name="Ellipse 204" opacity=".1" transform="translate(-3377.88 8007.484)"/><circle id="Ellipse_205" cx="30" cy="30" r="30" fill="#fbbebe" data-name="Ellipse 205" transform="translate(-3376.72 8005.854)"/><path id="Path_5550" fill="#3f3d56" d="M396.16,133.09a79.12,79.12,0,0,0-23.73-12.48c-5.48-1.78-11.44-3-17-1.36-7.54,2.15-17.63,5.36-22.3,11.67-2.3,3.1-4.63,6.29-5.74,10-2.22,7.46.94,15.41.73,23.19-.25,9.07-5.06,17.35-10.31,24.75s-6.31,18-9.41,26.54c-1.06,2.93-1.4,7,1.33,8.47,2.4,1.33,5.3-.33,7.52-1.93l13.35-9.65a10.171,10.171,0,0,1,3.52-1.88c2.75-.64,5.44,1.08,7.74,2.71l28,19.8a8.59,8.59,0,0,0,.13-7.28c2.63.81,4.54,3,6.85,4.56s5.82,2.07,7.5-.11.41-5.11-1.46-6.87-4.33-2.81-6.16-4.62c-3.63-3.61-4-9.31-6.29-13.87-1.64-3.2-4.29-5.88-5.45-9.29-1.89-5.57.58-11.57,3-16.93,2.89-6.36,6.16-13.15,12.31-16.47,2.07-1.12,4.36-1.78,6.48-2.8,5.28-2.53,11.87-8.5,14.45-13.85C403.48,140.64,400,136.05,396.16,133.09Z" data-name="Path 5550" transform="translate(-3719.91 7873.434)"/><path id="Path_5551" d="M350.75,232.23c2.87,1.83,6.11,3,8.93,4.91s5.29,4.81,5.37,8.21c.08,3.25-2,6.1-4,8.68L336.69,286l12.42,3.29c-2,2.76-2.51,6.28-3.55,9.52s-3,6.61-6.32,7.46c-3,.77-6.14-.81-9.24-.63-2.29.14-4.45,1.22-6.74,1.31-2.95.11-5.69-1.44-8.15-3.08-5.48-3.67-10.92-8.93-10.88-15.53a23.49,23.49,0,0,1,1.33-6.54c3.59-11.71,7.31-23.7,14.75-33.44,4-5.2,8.89-9.59,13.78-13.95a12.85,12.85,0,0,1,3.86-2.67c3.2-1.2,6.69.28,10,1.24s7.48,1.1,9.39-1.73" data-name="Path 5551" opacity=".1" transform="translate(-3719.91 7873.434)"/><path id="Path_5552" fill="#ff67b3" d="M349.7,230.26c2.87,1.82,6.11,3,8.93,4.91s5.29,4.81,5.38,8.2-2,6.11-4,8.69L335.64,284l12.42,3.29c-2,2.76-2.51,6.27-3.55,9.52s-3,6.61-6.32,7.46c-3,.77-6.14-.81-9.24-.63-2.29.13-4.45,1.22-6.74,1.3-2.95.11-5.69-1.44-8.15-3.08-5.48-3.66-10.92-8.93-10.87-15.52a23,23,0,0,1,1.32-6.54c3.59-11.72,7.31-23.71,14.75-33.44,4-5.21,8.9-9.6,13.78-14a13.22,13.22,0,0,1,3.86-2.67c3.2-1.2,6.69.28,10,1.25s7.48,1.1,9.39-1.73" data-name="Path 5552" transform="translate(-3719.91 7873.434)"/><g id="Group_4093" data-name="Group 4093" opacity=".1" transform="translate(-3582 7913.994)"><path id="Path_5553" d="M600.23,122.47c2.35,3.25,6,5.36,9.74,6.75a37.31,37.31,0,0,0,21.8,1.28c7-1.7,14.31-5.4,20.88-2.48,1.55.69,3,1.74,4.69,1.86a8,8,0,0,0,4.59-1.55c4.05-2.5,7.77-6.14,9.55-10.43a2.573,2.573,0,0,0,.06.67c.31,6.85-4.83,12.8-10.65,16.39a7.9,7.9,0,0,1-4.58,1.54c-1.69-.11-3.15-1.17-4.7-1.85-6.57-2.92-13.92.78-20.88,2.48a37.48,37.48,0,0,1-21.8-1.28c-3.75-1.4-7.39-3.5-9.74-6.75S596,121.3,598,117.81l.15-.25a12.23,12.23,0,0,0,2.08,4.91Z" data-name="Path 5553" transform="translate(-137.91 -40.56)"/><path id="Path_5554" d="M601.56,105.76c.08,1.54-.85,2.83-1.74,4.14a6.322,6.322,0,0,1-.29-1c-.3-1.79.56-3.53,1.51-5.1a6.65,6.65,0,0,1,.52,1.96Z" data-name="Path 5554" transform="translate(-137.91 -40.56)"/></g><path id="Path_5555" d="M483.09,55.75l-8.58,24.58c2.87,2,6.33,2.92,9.47,4.45s6.19,4,6.83,7.44c.49,2.61-.44,5.61,1.08,7.8,1.39,2,4.22,2.33,6.62,2s4.81-1.17,7.21-.8c6,.91,8.23,4.59,13.78.05s7.56.85,12.72,3.75c4.66,2.62,10.41,2.35,15.61,1.15a21,21,0,0,0,8.2-3.45,12.77,12.77,0,0,0,1-.91,11.14,11.14,0,0,1-3.36,4.16,21,21,0,0,1-8.2,3.46c-5.2,1.19-11,1.46-15.61-1.15-5.16-2.9-7.28-8.19-12.72-3.75s-7.8.86-13.78,0c-2.4-.37-4.8.46-7.21.8s-5.23,0-6.62-2c-1.52-2.18-.59-5.18-1.08-7.79-.64-3.44-3.69-5.91-6.83-7.44s-6.6-2.46-9.47-4.45L480.77,59c1-2.71,2.1-5.64,4.1-7.57a33.575,33.575,0,0,0-1.78,4.32Z" data-name="Path 5555" opacity=".1" transform="translate(-3719.91 7873.434)"/><g id="Group_4094" data-name="Group 4094" opacity=".1" transform="translate(-3582 7913.994)"><path id="Path_5556" d="M372.22,226.72c2.21,1,5,1.15,6.4-.72,1.57-2,.41-5.1-1.46-6.87s-4.33-2.81-6.16-4.62c-3.63-3.6-4-9.3-6.29-13.86-1.64-3.21-4.29-5.89-5.45-9.3-1.89-5.56.58-11.57,3-16.92,2.89-6.36,6.16-13.15,12.31-16.47,2.07-1.12,4.36-1.78,6.48-2.8,5.28-2.53,11.87-8.51,14.45-13.86,2.17-4.51-.89-8.89-4.53-11.86,1.77,1.15,3.5,2.36,5.18,3.65,3.85,3,7.32,7.55,5,12.28-2.58,5.35-9.17,11.32-14.45,13.85-2.12,1-4.41,1.68-6.48,2.8-6.15,3.32-9.42,10.11-12.31,16.47-2.43,5.36-4.9,11.36-3,16.93,1.16,3.41,3.81,6.09,5.45,9.29,2.32,4.56,2.66,10.26,6.29,13.87,1.83,1.81,4.29,2.85,6.16,4.62s3,4.83,1.46,6.87-5.2,1.62-7.5.11C375.22,229.13,373.81,227.75,372.22,226.72Z" data-name="Path 5556" transform="translate(-137.91 -40.56)"/><path id="Path_5557" d="M311.57,217.85l13.35-9.64a10.2,10.2,0,0,1,3.52-1.89c2.75-.63,5.44,1.09,7.74,2.72l28,19.8a8.61,8.61,0,0,0,.13-7.29c2.57.8,4.44,2.94,6.67,4.44a7.478,7.478,0,0,0-1-.37,8.59,8.59,0,0,1-.13,7.28l-28-19.8c-2.3-1.63-5-3.35-7.74-2.71a10.17,10.17,0,0,0-3.52,1.88l-13.35,9.65c-2.22,1.6-5.12,3.26-7.52,1.93a4.39,4.39,0,0,1-2.09-3.86,14.491,14.491,0,0,0,3.94-2.14Z" data-name="Path 5557" transform="translate(-137.91 -40.56)"/></g><path id="Path_5558" fill="#e3e8f4" d="M645.1,283.16s-57.3,4.59-68.7-3.53l52.42-8.08Z" data-name="Path 5558" transform="translate(-3719.91 7873.434)"/><path id="Path_5559" d="M645.1,283.16s-57.3,4.59-68.7-3.53l52.42-8.08Z" data-name="Path 5559" opacity=".1" transform="translate(-3719.91 7873.434)"/><path id="Path_5560" fill="#e3e8f4" d="M645.1,283.16,629.05,273s-47.88,13.76-61,8.08l13.35-18.73,47.44,9.25Z" data-name="Path 5560" transform="translate(-3719.91 7873.434)"/><path id="Path_5561" fill="#3f3d56" d="M573.9,148.44a28.128,28.128,0,0,0-4.21,7.39c-.46,1.41-.69,2.88-1.08,4.31a33.12,33.12,0,0,1-5,9.91c-4.93,7.17-11.09,14.09-12.33,22.7-.6,4.25.06,8.57.9,12.78a34.5,34.5,0,0,0,2.36,8.07c1.27,2.74,3.16,5.15,4.61,7.8a55.392,55.392,0,0,1,3.34,8.08c1.71-1.71,2.72-4,4.09-6s3.41-3.8,5.82-3.83c2.78,0,5.07,2.3,7.82,2.66a2.23,2.23,0,0,0,1.28-.12c1-.47,1.08-1.82,1-2.9-.79-7.55-5.11-15-3.07-22.32,1.88-6.77,8.6-11,12.13-17.07,2.56-4.41,3.32-9.61,4-14.67.85-6.05,1.71-12.15,1.33-18.24-.19-3.07-2.63-22.47-7.09-20.44-1.55.7-2.9,3.67-3.87,5l-4,5.67Z" data-name="Path 5561" transform="translate(-3719.91 7873.434)"/><path id="Path_5562" fill="#e3e8f4" d="M316.3,233.03l-32.17,26.19-41.39-7.4,27.87-21.88Z" data-name="Path 5562" transform="translate(-3582 7913.994)"/><path id="Path_5563" d="M317.46,231.4l-32.17,26.19-41.39-7.4,27.87-21.88Z" data-name="Path 5563" opacity=".1" transform="translate(-3582 7913.994)"/><path id="Path_5564" fill="#e3e8f4" d="M317.23,230.01l-32.17,26.18-41.4-7.39,27.88-21.89Z" data-name="Path 5564" transform="translate(-3582 7913.994)"/><path id="Path_5565" d="M318.16,226.98l-32.18,26.19-41.39-7.4,27.88-21.88Z" data-name="Path 5565" opacity=".1" transform="translate(-3582 7913.994)"/><path id="Path_5566" fill="#e3e8f4" d="M317.92,225.59l-32.17,26.19-41.39-7.4,27.87-21.88Z" data-name="Path 5566" transform="translate(-3582 7913.994)"/><path id="Path_5567" fill="#3f3d56" d="M879,624h0a5.18,5.18,0,0,1,7.43,4.25l1.79,23.21-10.62,1.92L872,636.6Z" data-name="Path 5567" transform="translate(-3719.91 7873.434)"/><path id="Path_5568" fill="#3f3d56" d="M507.45,468.43,344.92,550.91A11.31,11.31,0,0,0,345,571.1L695.05,746.77a42.49,42.49,0,0,0,39.93-1l147.44-83.14a11.31,11.31,0,0,0-.67-20L517.44,468.32a11.31,11.31,0,0,0-9.99.11Z" data-name="Path 5568" transform="translate(-3719.91 7873.434)"/><path id="Path_5569" fill="#3f3d56" d="M343.83,536.56l-5.09,3.78-.4,18.1a7.52,7.52,0,0,0,4.08,6.86L698.45,748a5.3,5.3,0,0,0,7.73-4.71V717Z" data-name="Path 5569" transform="translate(-3719.91 7873.434)"/><path id="Path_5570" fill="#e3e8f4" d="M507.45,447.45,344.92,529.92a11.31,11.31,0,0,0,.05,20.19L695.05,725.78a42.52,42.52,0,0,0,39.93-1l147.44-83.15a11.31,11.31,0,0,0-.67-20L517.44,447.33a11.31,11.31,0,0,0-9.99.12Z" data-name="Path 5570" transform="translate(-3719.91 7873.434)"/><path id="Path_5571" fill="#3f3d56" d="M403.18,421.86,224.1,512.79l307.79,153.9,184.68-93.74Z" data-name="Path 5571" transform="translate(-3582 7913.994)"/><ellipse id="Ellipse_206" cx="18.89" cy="11.19" fill="#3f3d56" data-name="Ellipse 206" rx="18.89" ry="11.19" transform="translate(-2956.37 8530.324)"/><circle id="Ellipse_207" cx="1.75" cy="1.75" r="1.75" fill="#3f3d56" data-name="Ellipse 207" transform="translate(-3283.75 8363.134)"/><circle id="Ellipse_208" cx="2.1" cy="2.1" r="2.1" fill="#3f3d56" data-name="Ellipse 208" transform="translate(-3289.34 8376.424)"/><line id="Line_34" x2="20.99" y1="9.79" fill="none" stroke="#3f3d56" stroke-miterlimit="10" stroke-width="1" data-name="Line 34" transform="translate(-3279.55 8365.234)"/><rect id="Rectangle_587" width="104.42" height="36" fill="#ff0080" data-name="Rectangle 587" rx="18" transform="translate(-3168.448 8463.755) rotate(-30)"/><rect id="Rectangle_588" width="104.42" height="36" fill="#ff0080" data-name="Rectangle 588" rx="18" transform="translate(-3115.449 8490.758) rotate(-30)"/><rect id="Rectangle_589" width="104.42" height="36" fill="#ff0080" data-name="Rectangle 589" rx="18" transform="translate(-3216.448 8432.758) rotate(-30)"/><path id="Path_5573" fill="#3f3d56" d="M-324.083-29.667-326.5-17.75l-2.042-.25q-.167-5.333-1.854-7.917a5.6,5.6,0,0,0-5.021-2.583q-4.333,0-6.958,4.5a26.839,26.839,0,0,0-2.9,6.792,27,27,0,0,0-1.062,7.292A8.271,8.271,0,0,0-344.4-4.125,6.728,6.728,0,0,0-339.167-2a8.871,8.871,0,0,0,5.4-1.917,11,11,0,0,0,3.729-4.917h2.625a14.482,14.482,0,0,1-3.667,5.917A12.564,12.564,0,0,1-340.375.625,17.405,17.405,0,0,1-346.1-.333a12.255,12.255,0,0,1-4.521-2.625,12.05,12.05,0,0,1-3.625-9.208,17.932,17.932,0,0,1,5.458-13A17.39,17.39,0,0,1-336-30.708a9.364,9.364,0,0,1,7.667,3.417L-326-29.667Zm13.5,9.708a9.783,9.783,0,0,1,6.667,2.25,7.26,7.26,0,0,1,2.333,5.833A11.66,11.66,0,0,1-305.417-3a13.381,13.381,0,0,1-9.5,3.583,8.74,8.74,0,0,1-6.25-2.125A7.059,7.059,0,0,1-323-4.271a9.5,9.5,0,0,1-.667-3.521,11.283,11.283,0,0,1,3.9-8.563A13.083,13.083,0,0,1-310.583-19.958ZM-310.75-18q-2.667,0-4.583,4.583a27.145,27.145,0,0,0-1.333,4.5,21.6,21.6,0,0,0-.542,4.417,3.738,3.738,0,0,0,.708,2.417,2.381,2.381,0,0,0,1.958.875q2.708,0,4.417-4.375a31.332,31.332,0,0,0,1.479-4.854,20.728,20.728,0,0,0,.6-4.313,3.546,3.546,0,0,0-.75-2.354A2.432,2.432,0,0,0-310.75-18Zm22.458-1.917-1.333,5.5a18.907,18.907,0,0,1,4.292-4.271,7.657,7.657,0,0,1,4.25-1.271,4.835,4.835,0,0,1,3.375,1.208,3.976,3.976,0,0,1,1.333,3.083,16.375,16.375,0,0,1-1.292,5.333L-279.625-5a7.2,7.2,0,0,0-.417,1.583.671.671,0,0,0,.188.458.536.536,0,0,0,.4.208,2.492,2.492,0,0,0,1.5-.938,29.09,29.09,0,0,0,2.542-3.229l.375-.458,1.625,1.042A22.776,22.776,0,0,1-277.875-1,6.847,6.847,0,0,1-282.208.625a4.5,4.5,0,0,1-3.1-1.021,3.523,3.523,0,0,1-1.146-2.771,12.058,12.058,0,0,1,.833-3.625l2.583-7.042a4.79,4.79,0,0,0,.375-1.5.97.97,0,0,0-.4-.75,1.3,1.3,0,0,0-.854-.333q-1.542,0-3.958,2.875a23.314,23.314,0,0,0-4.042,8.25L-293.5,0h-6.542l3.958-13.292a13.793,13.793,0,0,0,.625-2.792,1.049,1.049,0,0,0-.5-1.042,5.362,5.362,0,0,0-2.042-.25h-1l.292-1.958Zm27.958,0-3.042,10.333a30.238,30.238,0,0,0-1,4.875,2.3,2.3,0,0,0,.708,1.646,2.205,2.205,0,0,0,1.625.729q2.125,0,4.167-3.125,2.542-3.833,2.542-6.792a1.752,1.752,0,0,0-.271-1.042,16.018,16.018,0,0,0-1.563-1.583,3.349,3.349,0,0,1-1.208-2.375,2.574,2.574,0,0,1,.792-1.958,2.9,2.9,0,0,1,2.083-.75,2.981,2.981,0,0,1,2.354,1.021,3.926,3.926,0,0,1,.9,2.688,18.77,18.77,0,0,1-.833,5.167,25.757,25.757,0,0,1-2.167,5.292Q-258.833.625-264.208.625a6.863,6.863,0,0,1-4.667-1.708A5.586,5.586,0,0,1-270.667-5.5a11.134,11.134,0,0,1,.5-3.292l1.333-4.5a14.769,14.769,0,0,0,.667-2.792,1.049,1.049,0,0,0-.5-1.042,5.526,5.526,0,0,0-2.083-.25h-1l.292-1.958ZM-234.042-5.25l1.458,1.458a12.21,12.21,0,0,1-9.5,4.375q-4.125,0-6.312-1.979a7.331,7.331,0,0,1-2.187-5.729,12.156,12.156,0,0,1,3.958-8.979,12.794,12.794,0,0,1,9.208-3.854,8.016,8.016,0,0,1,4.875,1.438,4.32,4.32,0,0,1,1.958,3.6q0,4.333-7.083,6.375a25.69,25.69,0,0,1-6.208,1q-.083,1.083-.083,1.833A3.946,3.946,0,0,0-243-2.9a3.426,3.426,0,0,0,2.625,1.021,6.4,6.4,0,0,0,3.042-.75A14.766,14.766,0,0,0-234.042-5.25ZM-243.5-9.5a14.279,14.279,0,0,0,2.917-.667,8.189,8.189,0,0,0,3.521-2.479,5.328,5.328,0,0,0,1.4-3.4,1.99,1.99,0,0,0-.5-1.437A1.762,1.762,0,0,0-237.5-18q-1.958,0-3.625,2.354A15.462,15.462,0,0,0-243.5-9.5Zm25.792-4.375,2.333,7.917q2.792-4.708,2.792-6.583a4.45,4.45,0,0,0-.792-2.208,4.423,4.423,0,0,1-.875-2.458,2.575,2.575,0,0,1,.833-1.979,3.007,3.007,0,0,1,2.125-.771,2.984,2.984,0,0,1,2.063.688,2.41,2.41,0,0,1,.771,1.9,16.165,16.165,0,0,1-1.687,5.625,68.76,68.76,0,0,1-4.437,8.292,49.794,49.794,0,0,1-6.833,9.25,8.037,8.037,0,0,1-5.875,2.625A4.743,4.743,0,0,1-230.5,7.375a3.453,3.453,0,0,1-1.208-2.75,3,3,0,0,1,.833-2.187,2.841,2.841,0,0,1,2.125-.854,2.922,2.922,0,0,1,2.063.75,2.493,2.493,0,0,1,.813,1.917,3.4,3.4,0,0,1-.25,1.167.58.58,0,0,0-.042.25q0,.417.542.417a3.923,3.923,0,0,0,2.167-1.062,12.45,12.45,0,0,0,2.417-2.6L-219.833.75-224-13.333a6.732,6.732,0,0,0-.562-1.521.727.727,0,0,0-.646-.354q-.542,0-.958.813a28.657,28.657,0,0,0-1.292,3.646l-1.792-.542q2.042-8.667,6.75-8.667A3.39,3.39,0,0,1-219.25-18,21.279,21.279,0,0,1-217.708-13.875Zm36.667,0,2.333,7.917q2.792-4.708,2.792-6.583a4.45,4.45,0,0,0-.792-2.208,4.423,4.423,0,0,1-.875-2.458,2.575,2.575,0,0,1,.833-1.979,3.007,3.007,0,0,1,2.125-.771,2.984,2.984,0,0,1,2.063.688,2.41,2.41,0,0,1,.771,1.9,16.165,16.165,0,0,1-1.687,5.625,68.76,68.76,0,0,1-4.437,8.292,49.794,49.794,0,0,1-6.833,9.25,8.037,8.037,0,0,1-5.875,2.625,4.743,4.743,0,0,1-3.208-1.042,3.453,3.453,0,0,1-1.208-2.75,3,3,0,0,1,.833-2.187,2.841,2.841,0,0,1,2.125-.854,2.922,2.922,0,0,1,2.063.75,2.493,2.493,0,0,1,.813,1.917,3.4,3.4,0,0,1-.25,1.167.58.58,0,0,0-.042.25q0,.417.542.417a3.923,3.923,0,0,0,2.167-1.062,12.45,12.45,0,0,0,2.417-2.6L-183.167.75l-4.167-14.083a6.732,6.732,0,0,0-.562-1.521.727.727,0,0,0-.646-.354q-.542,0-.958.813a28.657,28.657,0,0,0-1.292,3.646l-1.792-.542q2.042-8.667,6.75-8.667A3.39,3.39,0,0,1-182.583-18,21.279,21.279,0,0,1-181.042-13.875Zm23.167-6.083a9.783,9.783,0,0,1,6.667,2.25,7.26,7.26,0,0,1,2.333,5.833A11.66,11.66,0,0,1-152.708-3a13.381,13.381,0,0,1-9.5,3.583,8.74,8.74,0,0,1-6.25-2.125,7.059,7.059,0,0,1-1.833-2.729,9.5,9.5,0,0,1-.667-3.521,11.283,11.283,0,0,1,3.9-8.563A13.083,13.083,0,0,1-157.875-19.958ZM-158.042-18q-2.667,0-4.583,4.583a27.142,27.142,0,0,0-1.333,4.5A21.6,21.6,0,0,0-164.5-4.5a3.738,3.738,0,0,0,.708,2.417,2.381,2.381,0,0,0,1.958.875q2.708,0,4.417-4.375a31.335,31.335,0,0,0,1.479-4.854,20.727,20.727,0,0,0,.6-4.313,3.546,3.546,0,0,0-.75-2.354A2.432,2.432,0,0,0-158.042-18Zm35.458-1.333-3.875,13a17.081,17.081,0,0,0-.667,2.792.558.558,0,0,0,.188.4.558.558,0,0,0,.4.187q.542,0,1.688-1.25A23.561,23.561,0,0,0-122.417-7.5l1.583,1.167A22.951,22.951,0,0,1-125.292-1,6.9,6.9,0,0,1-129.667.583q-4.042,0-4.042-3.542,0-.667.042-1.083A16.13,16.13,0,0,1-137.5-.5,7.212,7.212,0,0,1-141.292.583,4.521,4.521,0,0,1-144.6-.667a4.41,4.41,0,0,1-1.271-3.292A16.454,16.454,0,0,1-145-8.25l1.458-5.042a13.051,13.051,0,0,0,.667-2.792,1.049,1.049,0,0,0-.5-1.042,5.362,5.362,0,0,0-2.042-.25h-.417l.292-1.958L-135-19.917-138.75-7.25q-.042.167-.125.417t-.187.646q-.1.4-.187.646-.25.875-.292,1-.083.5-.083.583a1,1,0,0,0,.313.729,1,1,0,0,0,.729.312,3.919,3.919,0,0,0,2.125-1.062A12.91,12.91,0,0,0-134-6.625a19.665,19.665,0,0,0,2.833-5.833l2-6.875Zm15.542-.583-1.292,5.292a15.62,15.62,0,0,1,3.6-4.125,6.325,6.325,0,0,1,3.771-1.208,3.936,3.936,0,0,1,2.813,1,3.489,3.489,0,0,1,1.063,2.667,3.551,3.551,0,0,1-.9,2.458,2.871,2.871,0,0,1-2.229,1A3.018,3.018,0,0,1-102-13.4a2.424,2.424,0,0,1-1-1.479,5.477,5.477,0,0,1-.125-1.292q0-.542-.417-.542-.583,0-1.667,1.083a16.217,16.217,0,0,0-2.979,4.146A29.584,29.584,0,0,0-110.5-5.792L-112.25,0h-6.542l3.958-13.292a12.383,12.383,0,0,0,.625-2.792,1.049,1.049,0,0,0-.5-1.042,5.362,5.362,0,0,0-2.042-.25h-1l.292-1.958Zm37.375,0L-74.042-5.083a9.431,9.431,0,0,0-.417,1.75.589.589,0,0,0,.667.667q1.25,0,4.208-4.708l1.625,1.167A18.842,18.842,0,0,1-72.146-1,7.035,7.035,0,0,1-76.583.625a4.577,4.577,0,0,1-3.1-1.062,3.4,3.4,0,0,1-1.229-2.687,12.521,12.521,0,0,1,.625-3.083l2.125-7.083a12.383,12.383,0,0,0,.625-2.792,1.049,1.049,0,0,0-.5-1.042,5.362,5.362,0,0,0-2.042-.25h-1l.292-1.958Zm-4.75-9.75a3.41,3.41,0,0,1,2.5-1.042,3.41,3.41,0,0,1,2.5,1.042,3.41,3.41,0,0,1,1.042,2.5,3.41,3.41,0,0,1-1.042,2.5,3.458,3.458,0,0,1-2.542,1.042,3.33,3.33,0,0,1-2.458-1.062,3.431,3.431,0,0,1-1.042-2.479A3.41,3.41,0,0,1-74.417-29.667Zm36-1L-45.875-5.5a12.827,12.827,0,0,0-.417,1.958.671.671,0,0,0,.188.458.536.536,0,0,0,.4.208q.542,0,1.854-1.4a21.763,21.763,0,0,0,2.521-3.312l1.625,1.042a22.993,22.993,0,0,1-2.75,3.792q-3,3.375-6,3.375a3.669,3.669,0,0,1-2.6-.875,3.273,3.273,0,0,1-.979-2.417v-.292A11.856,11.856,0,0,1-55.25-.208a7.487,7.487,0,0,1-3.542.792A6.944,6.944,0,0,1-64-1.521a7.481,7.481,0,0,1-2.042-5.438,12.922,12.922,0,0,1,3.646-9,11.007,11.007,0,0,1,8.271-3.958q3.667,0,5.208,2.583l2-6.75a12.523,12.523,0,0,0,.625-2.75,1.049,1.049,0,0,0-.5-1.042,5.362,5.362,0,0,0-2.042-.25h-1.333l.292-1.958ZM-52.75-17.625q-2.542,0-4.417,3.958a18.81,18.81,0,0,0-2.042,8.042,3.9,3.9,0,0,0,.667,2.417,2.178,2.178,0,0,0,1.833.875q2.5,0,4.375-4.042a20.141,20.141,0,0,0,2.125-8.25,3.23,3.23,0,0,0-.708-2.167A2.294,2.294,0,0,0-52.75-17.625ZM-21.792-5.25l1.458,1.458a12.21,12.21,0,0,1-9.5,4.375q-4.125,0-6.313-1.979a7.331,7.331,0,0,1-2.187-5.729A12.156,12.156,0,0,1-34.375-16.1a12.794,12.794,0,0,1,9.208-3.854,8.016,8.016,0,0,1,4.875,1.438,4.32,4.32,0,0,1,1.958,3.6q0,4.333-7.083,6.375a25.69,25.69,0,0,1-6.208,1q-.083,1.083-.083,1.833A3.946,3.946,0,0,0-30.75-2.9a3.426,3.426,0,0,0,2.625,1.021,6.4,6.4,0,0,0,3.042-.75A14.766,14.766,0,0,0-21.792-5.25ZM-31.25-9.5a14.279,14.279,0,0,0,2.917-.667,8.189,8.189,0,0,0,3.521-2.479,5.328,5.328,0,0,0,1.4-3.4,1.99,1.99,0,0,0-.5-1.437A1.763,1.763,0,0,0-25.25-18q-1.958,0-3.625,2.354A15.463,15.463,0,0,0-31.25-9.5ZM1.708-19.333H8.25L4.167-5.5A13.59,13.59,0,0,0,3.75-3.583a.671.671,0,0,0,.188.458.536.536,0,0,0,.4.208q.542,0,1.854-1.417a22.688,22.688,0,0,0,2.479-3.25l1.625,1.042A22.993,22.993,0,0,1,7.542-2.75q-3,3.375-6,3.375A3.761,3.761,0,0,1-.646-.021,2.98,2.98,0,0,1-1.875-1.708,4.545,4.545,0,0,1-2-3.042,9.868,9.868,0,0,1-5.062-.25,7.822,7.822,0,0,1-8.792.583a6.842,6.842,0,0,1-5.187-2.125A7.543,7.543,0,0,1-16-6.958a13,13,0,0,1,3.646-9.021,10.984,10.984,0,0,1,8.271-3.979q3.708,0,5.208,2.625ZM-2.75-17.667q-2.5,0-4.417,4A18.431,18.431,0,0,0-9.208-5.625a3.836,3.836,0,0,0,.688,2.4,2.215,2.215,0,0,0,1.854.9q2.5,0,4.333-4.042A27.4,27.4,0,0,0-.792-10.708a15.65,15.65,0,0,0,.625-3.917,3.312,3.312,0,0,0-.708-2.187A2.315,2.315,0,0,0-2.75-17.667ZM38.708-7.625,40.25-6.5a28.549,28.549,0,0,1-2.833,3.833Q34.375.583,31.167.583a4.127,4.127,0,0,1-2.812-1,3.139,3.139,0,0,1-1.146-2.458,11.767,11.767,0,0,1,.583-3.208q.25-.708.458-1.542l2.708-9.167H27.333l.75-2.542h3.625l2.333-7.75h6.542l-2.292,7.75h4.75l-.75,2.542h-4.75L34.625-6.958A24.348,24.348,0,0,0,33.75-3.5a.8.8,0,0,0,.188.521.553.553,0,0,0,.438.229q.625,0,1.9-1.417A20.1,20.1,0,0,0,38.708-7.625Zm17-12.333a9.783,9.783,0,0,1,6.667,2.25,7.26,7.26,0,0,1,2.333,5.833A11.66,11.66,0,0,1,60.875-3a13.381,13.381,0,0,1-9.5,3.583,8.74,8.74,0,0,1-6.25-2.125,7.059,7.059,0,0,1-1.833-2.729,9.5,9.5,0,0,1-.667-3.521,11.283,11.283,0,0,1,3.9-8.563A13.083,13.083,0,0,1,55.708-19.958ZM55.542-18q-2.667,0-4.583,4.583a27.144,27.144,0,0,0-1.333,4.5A21.6,21.6,0,0,0,49.083-4.5a3.738,3.738,0,0,0,.708,2.417,2.381,2.381,0,0,0,1.958.875q2.708,0,4.417-4.375a31.333,31.333,0,0,0,1.479-4.854,20.728,20.728,0,0,0,.6-4.313A3.546,3.546,0,0,0,57.5-17.1,2.432,2.432,0,0,0,55.542-18Zm39.125-1.958a9.783,9.783,0,0,1,6.667,2.25,7.26,7.26,0,0,1,2.333,5.833A11.66,11.66,0,0,1,99.833-3a13.381,13.381,0,0,1-9.5,3.583,8.74,8.74,0,0,1-6.25-2.125A7.059,7.059,0,0,1,82.25-4.271a9.5,9.5,0,0,1-.667-3.521,11.283,11.283,0,0,1,3.9-8.563A13.083,13.083,0,0,1,94.667-19.958ZM94.5-18q-2.667,0-4.583,4.583a27.144,27.144,0,0,0-1.333,4.5A21.6,21.6,0,0,0,88.042-4.5a3.738,3.738,0,0,0,.708,2.417,2.381,2.381,0,0,0,1.958.875q2.708,0,4.417-4.375A31.333,31.333,0,0,0,96.6-10.437a20.728,20.728,0,0,0,.6-4.313,3.546,3.546,0,0,0-.75-2.354A2.432,2.432,0,0,0,94.5-18Zm35.458-1.333-3.875,13a17.081,17.081,0,0,0-.667,2.792.558.558,0,0,0,.188.4.558.558,0,0,0,.4.187q.542,0,1.688-1.25A23.561,23.561,0,0,0,130.125-7.5l1.583,1.167A22.951,22.951,0,0,1,127.25-1,6.9,6.9,0,0,1,122.875.583q-4.042,0-4.042-3.542,0-.667.042-1.083A16.129,16.129,0,0,1,115.042-.5,7.212,7.212,0,0,1,111.25.583a4.521,4.521,0,0,1-3.312-1.25,4.41,4.41,0,0,1-1.271-3.292,16.454,16.454,0,0,1,.875-4.292L109-13.292a13.051,13.051,0,0,0,.667-2.792,1.049,1.049,0,0,0-.5-1.042,5.362,5.362,0,0,0-2.042-.25h-.417L107-19.333l10.542-.583L113.792-7.25q-.042.167-.125.417t-.187.646q-.1.4-.187.646-.25.875-.292,1-.083.5-.083.583a1,1,0,0,0,.313.729,1,1,0,0,0,.729.312,3.919,3.919,0,0,0,2.125-1.062,12.909,12.909,0,0,0,2.458-2.646,19.665,19.665,0,0,0,2.833-5.833l2-6.875Zm15.542-.583-1.292,5.292a15.62,15.62,0,0,1,3.6-4.125,6.325,6.325,0,0,1,3.771-1.208,3.936,3.936,0,0,1,2.813,1,3.489,3.489,0,0,1,1.063,2.667,3.551,3.551,0,0,1-.9,2.458,2.871,2.871,0,0,1-2.229,1,3.018,3.018,0,0,1-1.792-.563,2.423,2.423,0,0,1-1-1.479,5.477,5.477,0,0,1-.125-1.292q0-.542-.417-.542-.583,0-1.667,1.083a16.217,16.217,0,0,0-2.979,4.146,29.584,29.584,0,0,0-2.312,5.688L140.292,0H133.75l3.958-13.292a12.383,12.383,0,0,0,.625-2.792,1.049,1.049,0,0,0-.5-1.042,5.362,5.362,0,0,0-2.042-.25h-1l.292-1.958Zm36.167,0L181-16.625a8.609,8.609,0,0,1,6.583-3.333,7.057,7.057,0,0,1,5.313,2.042,7.566,7.566,0,0,1,1.979,5.5,13.061,13.061,0,0,1-3.625,9.083A11.024,11.024,0,0,1,182.917.625a5.714,5.714,0,0,1-5.25-2.708L176.25,2.708a17.99,17.99,0,0,0-.667,2.667q0,1.083,2.375,1.083h.625l-.292,1.958H165.375l.292-1.958h.167a3.968,3.968,0,0,0,2.625-.583,1.527,1.527,0,0,0,.438-.646q.146-.4.771-2.521l4.792-16.125a12.922,12.922,0,0,0,.625-2.667,1.037,1.037,0,0,0-.521-1.042,5.543,5.543,0,0,0-2.062-.25h-1l.292-1.958Zm3.875,2.875q-2.25,0-4,3.083a24.236,24.236,0,0,0-1.812,4.6,16.773,16.773,0,0,0-.854,4.479,3.093,3.093,0,0,0,.833,2.188,2.681,2.681,0,0,0,2.042.9q2.333,0,4.042-3.292a23.66,23.66,0,0,0,1.729-4.583A17.054,17.054,0,0,0,188.208-14a3.233,3.233,0,0,0-.729-2.208A2.447,2.447,0,0,0,185.542-17.042Zm30.083-2.292h6.542L218.083-5.5a13.589,13.589,0,0,0-.417,1.917.671.671,0,0,0,.188.458.536.536,0,0,0,.4.208q.542,0,1.854-1.417a22.688,22.688,0,0,0,2.479-3.25l1.625,1.042a22.994,22.994,0,0,1-2.75,3.792q-3,3.375-6,3.375a3.761,3.761,0,0,1-2.187-.646,2.98,2.98,0,0,1-1.229-1.688,4.545,4.545,0,0,1-.125-1.333A9.868,9.868,0,0,1,208.854-.25a7.822,7.822,0,0,1-3.729.833,6.842,6.842,0,0,1-5.187-2.125,7.543,7.543,0,0,1-2.021-5.417,13,13,0,0,1,3.646-9.021,10.984,10.984,0,0,1,8.271-3.979q3.708,0,5.208,2.625Zm-4.458,1.667q-2.5,0-4.417,4a18.431,18.431,0,0,0-2.042,8.042,3.836,3.836,0,0,0,.688,2.4,2.215,2.215,0,0,0,1.854.9q2.5,0,4.333-4.042a27.4,27.4,0,0,0,1.542-4.333,15.649,15.649,0,0,0,.625-3.917,3.313,3.313,0,0,0-.708-2.187A2.315,2.315,0,0,0,211.167-17.667Zm25.792-2.25-1.292,5.292a15.62,15.62,0,0,1,3.6-4.125,6.325,6.325,0,0,1,3.771-1.208,3.936,3.936,0,0,1,2.813,1,3.489,3.489,0,0,1,1.063,2.667,3.551,3.551,0,0,1-.9,2.458,2.871,2.871,0,0,1-2.229,1A3.018,3.018,0,0,1,242-13.4a2.423,2.423,0,0,1-1-1.479,5.477,5.477,0,0,1-.125-1.292q0-.542-.417-.542-.583,0-1.667,1.083a16.217,16.217,0,0,0-2.979,4.146A29.584,29.584,0,0,0,233.5-5.792L231.75,0h-6.542l3.958-13.292a12.383,12.383,0,0,0,.625-2.792,1.049,1.049,0,0,0-.5-1.042,5.362,5.362,0,0,0-2.042-.25h-1l.292-1.958Zm22.75,12.292L261.25-6.5a28.55,28.55,0,0,1-2.833,3.833q-3.042,3.25-6.25,3.25a4.127,4.127,0,0,1-2.812-1,3.139,3.139,0,0,1-1.146-2.458,11.767,11.767,0,0,1,.583-3.208q.25-.708.458-1.542l2.708-9.167h-3.625l.75-2.542h3.625l2.333-7.75h6.542l-2.292,7.75h4.75l-.75,2.542h-4.75l-2.917,9.833A24.348,24.348,0,0,0,254.75-3.5a.8.8,0,0,0,.188.521.553.553,0,0,0,.438.229q.625,0,1.9-1.417A20.1,20.1,0,0,0,259.708-7.625Zm16.333-12.292-1.333,5.5A18.907,18.907,0,0,1,279-18.687a7.657,7.657,0,0,1,4.25-1.271,4.835,4.835,0,0,1,3.375,1.208,3.976,3.976,0,0,1,1.333,3.083,16.375,16.375,0,0,1-1.292,5.333L284.708-5a7.2,7.2,0,0,0-.417,1.583.671.671,0,0,0,.188.458.536.536,0,0,0,.4.208,2.492,2.492,0,0,0,1.5-.938,29.09,29.09,0,0,0,2.542-3.229l.375-.458,1.625,1.042A22.776,22.776,0,0,1,286.458-1,6.847,6.847,0,0,1,282.125.625a4.5,4.5,0,0,1-3.1-1.021,3.523,3.523,0,0,1-1.146-2.771,12.058,12.058,0,0,1,.833-3.625l2.583-7.042a4.79,4.79,0,0,0,.375-1.5.97.97,0,0,0-.4-.75,1.3,1.3,0,0,0-.854-.333q-1.542,0-3.958,2.875a23.314,23.314,0,0,0-4.042,8.25L270.833,0h-6.542l3.958-13.292a13.793,13.793,0,0,0,.625-2.792,1.049,1.049,0,0,0-.5-1.042,5.362,5.362,0,0,0-2.042-.25h-1l.292-1.958ZM309.167-5.25l1.458,1.458a12.21,12.21,0,0,1-9.5,4.375Q297,.583,294.812-1.4a7.331,7.331,0,0,1-2.187-5.729,12.156,12.156,0,0,1,3.958-8.979,12.794,12.794,0,0,1,9.208-3.854,8.016,8.016,0,0,1,4.875,1.438,4.32,4.32,0,0,1,1.958,3.6q0,4.333-7.083,6.375a25.69,25.69,0,0,1-6.208,1q-.083,1.083-.083,1.833a3.946,3.946,0,0,0,.958,2.813,3.426,3.426,0,0,0,2.625,1.021,6.4,6.4,0,0,0,3.042-.75A14.766,14.766,0,0,0,309.167-5.25ZM299.708-9.5a14.279,14.279,0,0,0,2.917-.667,8.19,8.19,0,0,0,3.521-2.479,5.328,5.328,0,0,0,1.4-3.4,1.99,1.99,0,0,0-.5-1.437A1.763,1.763,0,0,0,305.708-18q-1.958,0-3.625,2.354A15.463,15.463,0,0,0,299.708-9.5Zm26.5-10.417-1.292,5.292a15.62,15.62,0,0,1,3.6-4.125,6.325,6.325,0,0,1,3.771-1.208,3.936,3.936,0,0,1,2.813,1,3.489,3.489,0,0,1,1.063,2.667,3.551,3.551,0,0,1-.9,2.458,2.871,2.871,0,0,1-2.229,1,3.018,3.018,0,0,1-1.792-.563,2.424,2.424,0,0,1-1-1.479,5.476,5.476,0,0,1-.125-1.292q0-.542-.417-.542-.583,0-1.667,1.083a16.216,16.216,0,0,0-2.979,4.146,29.584,29.584,0,0,0-2.312,5.688L321,0h-6.542l3.958-13.292a12.383,12.383,0,0,0,.625-2.792,1.049,1.049,0,0,0-.5-1.042,5.362,5.362,0,0,0-2.042-.25h-1l.292-1.958Zm20.208-.042a9.939,9.939,0,0,1,5.375,1.313,3.876,3.876,0,0,1,2.083,3.354,2.888,2.888,0,0,1-.792,2.1,2.777,2.777,0,0,1-2.083.813,2.972,2.972,0,0,1-2.062-.729,2.337,2.337,0,0,1-.812-1.812,2.914,2.914,0,0,1,.75-1.708.84.84,0,0,0,.25-.5q0-.333-.708-.6A4.529,4.529,0,0,0,346.792-18a4.645,4.645,0,0,0-2.667.708,2.137,2.137,0,0,0-1.042,1.833A1.894,1.894,0,0,0,343.792-14a10.23,10.23,0,0,0,2.542,1.417A20.72,20.72,0,0,1,349.458-11a5.513,5.513,0,0,1,2.833,4.792,5.885,5.885,0,0,1-2.521,4.958,10.792,10.792,0,0,1-6.6,1.875,9.711,9.711,0,0,1-5.354-1.333,4.021,4.021,0,0,1-2.062-3.5,2.972,2.972,0,0,1,.813-2.167,2.809,2.809,0,0,1,2.1-.833,3.075,3.075,0,0,1,2.1.75,2.437,2.437,0,0,1,.854,1.917,2.561,2.561,0,0,1-1.083,1.917.575.575,0,0,0-.208.375q0,.458.75.771a4.9,4.9,0,0,0,1.875.313,4.716,4.716,0,0,0,2.833-.812,2.453,2.453,0,0,0,1.125-2.063q0-1.583-2.417-2.542A31.325,31.325,0,0,1,341-8.25a5.623,5.623,0,0,1-3-5.083,5.834,5.834,0,0,1,2.271-4.833A9.659,9.659,0,0,1,346.417-19.958ZM-347.937,30.667h6.542L-345.479,44.5a13.591,13.591,0,0,0-.417,1.917.671.671,0,0,0,.188.458.536.536,0,0,0,.4.208q.542,0,1.854-1.417a22.687,22.687,0,0,0,2.479-3.25l1.625,1.042a22.992,22.992,0,0,1-2.75,3.792q-3,3.375-6,3.375a3.761,3.761,0,0,1-2.187-.646,2.98,2.98,0,0,1-1.229-1.687,4.545,4.545,0,0,1-.125-1.333,9.868,9.868,0,0,1-3.062,2.792,7.822,7.822,0,0,1-3.729.833,6.842,6.842,0,0,1-5.187-2.125,7.543,7.543,0,0,1-2.021-5.417A13,13,0,0,1-362,34.021a10.984,10.984,0,0,1,8.271-3.979q3.708,0,5.208,2.625Zm-4.458,1.667q-2.5,0-4.417,4a18.431,18.431,0,0,0-2.042,8.042,3.836,3.836,0,0,0,.688,2.4,2.215,2.215,0,0,0,1.854.9q2.5,0,4.333-4.042a27.4,27.4,0,0,0,1.542-4.333,15.65,15.65,0,0,0,.625-3.917,3.312,3.312,0,0,0-.708-2.187A2.315,2.315,0,0,0-352.4,32.333Zm25.792-2.25-1.333,5.5a18.907,18.907,0,0,1,4.292-4.271,7.657,7.657,0,0,1,4.25-1.271,4.835,4.835,0,0,1,3.375,1.208,3.976,3.976,0,0,1,1.333,3.083,16.375,16.375,0,0,1-1.292,5.333L-317.938,45a7.2,7.2,0,0,0-.417,1.583.671.671,0,0,0,.188.458.536.536,0,0,0,.4.208,2.492,2.492,0,0,0,1.5-.937,29.09,29.09,0,0,0,2.542-3.229l.375-.458,1.625,1.042A22.776,22.776,0,0,1-316.188,49a6.847,6.847,0,0,1-4.333,1.625,4.5,4.5,0,0,1-3.1-1.021,3.523,3.523,0,0,1-1.146-2.771,12.058,12.058,0,0,1,.833-3.625l2.583-7.042a4.79,4.79,0,0,0,.375-1.5.97.97,0,0,0-.4-.75,1.3,1.3,0,0,0-.854-.333q-1.542,0-3.958,2.875a23.314,23.314,0,0,0-4.042,8.25L-331.813,50h-6.542l3.958-13.292a13.793,13.793,0,0,0,.625-2.792,1.049,1.049,0,0,0-.5-1.042,5.362,5.362,0,0,0-2.042-.25h-1l.292-1.958Zm44.292-10.75L-289.771,44.5a12.827,12.827,0,0,0-.417,1.958.671.671,0,0,0,.188.458.536.536,0,0,0,.4.208q.542,0,1.854-1.4a21.764,21.764,0,0,0,2.521-3.312l1.625,1.042a22.992,22.992,0,0,1-2.75,3.792q-3,3.375-6,3.375a3.669,3.669,0,0,1-2.6-.875,3.273,3.273,0,0,1-.979-2.417v-.292a11.856,11.856,0,0,1-3.208,2.75,7.487,7.487,0,0,1-3.542.792,6.944,6.944,0,0,1-5.208-2.1,7.481,7.481,0,0,1-2.042-5.437,12.922,12.922,0,0,1,3.646-9,11.007,11.007,0,0,1,8.271-3.958q3.667,0,5.208,2.583l2-6.75a12.523,12.523,0,0,0,.625-2.75,1.049,1.049,0,0,0-.5-1.042,5.362,5.362,0,0,0-2.042-.25h-1.333l.292-1.958Zm-14.333,13.042q-2.542,0-4.417,3.958a18.81,18.81,0,0,0-2.042,8.042,3.9,3.9,0,0,0,.667,2.417,2.178,2.178,0,0,0,1.833.875q2.5,0,4.375-4.042a20.141,20.141,0,0,0,2.125-8.25,3.23,3.23,0,0,0-.708-2.167A2.294,2.294,0,0,0-296.646,32.375Zm42.042,10,1.542,1.125a28.549,28.549,0,0,1-2.833,3.833q-3.042,3.25-6.25,3.25a4.127,4.127,0,0,1-2.812-1,3.139,3.139,0,0,1-1.146-2.458,11.767,11.767,0,0,1,.583-3.208q.25-.708.458-1.542l2.708-9.167h-3.625l.75-2.542h3.625l2.333-7.75h6.542l-2.292,7.75h4.75l-.75,2.542h-4.75l-2.917,9.833a24.346,24.346,0,0,0-.875,3.458.8.8,0,0,0,.188.521.553.553,0,0,0,.438.229q.625,0,1.9-1.417A20.1,20.1,0,0,0-254.6,42.375Zm18.833-23.042-4.583,15.417q3.792-4.708,7.833-4.708a4.759,4.759,0,0,1,3.354,1.208,4.006,4.006,0,0,1,1.313,3.083,17.5,17.5,0,0,1-1.25,5.333L-231.063,45a6.671,6.671,0,0,0-.458,1.583.671.671,0,0,0,.188.458.536.536,0,0,0,.4.208,2.434,2.434,0,0,0,1.479-.917,30.383,30.383,0,0,0,2.563-3.25,4.785,4.785,0,0,0,.375-.458l1.625,1.042a22.1,22.1,0,0,1-4.458,5.354,6.9,6.9,0,0,1-4.333,1.6,4.5,4.5,0,0,1-3.1-1.021,3.523,3.523,0,0,1-1.146-2.771,11.572,11.572,0,0,1,.875-3.625l2.542-7.042a4.79,4.79,0,0,0,.375-1.5,1.05,1.05,0,0,0-.375-.771,1.187,1.187,0,0,0-.833-.354q-1.5,0-3.917,2.917a23.8,23.8,0,0,0-4.042,8.25L-244.9,50h-6.542l7.125-24.083a11.854,11.854,0,0,0,.667-2.75,1.037,1.037,0,0,0-.521-1.042,5.543,5.543,0,0,0-2.062-.25h-1l.292-1.958Zm29.333,25.417,1.458,1.458a12.21,12.21,0,0,1-9.5,4.375q-4.125,0-6.312-1.979a7.331,7.331,0,0,1-2.187-5.729,12.156,12.156,0,0,1,3.958-8.979,12.794,12.794,0,0,1,9.208-3.854,8.016,8.016,0,0,1,4.875,1.438,4.32,4.32,0,0,1,1.958,3.6q0,4.333-7.083,6.375a25.69,25.69,0,0,1-6.208,1q-.083,1.083-.083,1.833A3.946,3.946,0,0,0-215.4,47.1a3.426,3.426,0,0,0,2.625,1.021,6.4,6.4,0,0,0,3.042-.75A14.766,14.766,0,0,0-206.438,44.75ZM-215.9,40.5a14.279,14.279,0,0,0,2.917-.667,8.189,8.189,0,0,0,3.521-2.479,5.328,5.328,0,0,0,1.4-3.4,1.99,1.99,0,0,0-.5-1.437A1.762,1.762,0,0,0-209.9,32q-1.958,0-3.625,2.354A15.462,15.462,0,0,0-215.9,40.5Zm41.542-10.417-1.292,5.292a15.62,15.62,0,0,1,3.6-4.125,6.325,6.325,0,0,1,3.771-1.208,3.936,3.936,0,0,1,2.813,1,3.489,3.489,0,0,1,1.063,2.667,3.551,3.551,0,0,1-.9,2.458,2.871,2.871,0,0,1-2.229,1,3.018,3.018,0,0,1-1.792-.563,2.423,2.423,0,0,1-1-1.479,5.477,5.477,0,0,1-.125-1.292q0-.542-.417-.542-.583,0-1.667,1.083a16.217,16.217,0,0,0-2.979,4.146,29.585,29.585,0,0,0-2.312,5.688L-179.562,50H-186.1l3.958-13.292a12.382,12.382,0,0,0,.625-2.792,1.049,1.049,0,0,0-.5-1.042,5.362,5.362,0,0,0-2.042-.25h-1l.292-1.958ZM-148.4,44.75l1.458,1.458a12.21,12.21,0,0,1-9.5,4.375q-4.125,0-6.312-1.979a7.331,7.331,0,0,1-2.187-5.729,12.156,12.156,0,0,1,3.958-8.979,12.794,12.794,0,0,1,9.208-3.854,8.016,8.016,0,0,1,4.875,1.438,4.32,4.32,0,0,1,1.958,3.6q0,4.333-7.083,6.375a25.69,25.69,0,0,1-6.208,1q-.083,1.083-.083,1.833a3.946,3.946,0,0,0,.958,2.813,3.426,3.426,0,0,0,2.625,1.021,6.4,6.4,0,0,0,3.042-.75A14.766,14.766,0,0,0-148.4,44.75Zm-9.458-4.25a14.279,14.279,0,0,0,2.917-.667,8.189,8.189,0,0,0,3.521-2.479,5.328,5.328,0,0,0,1.4-3.4,1.99,1.99,0,0,0-.5-1.437A1.762,1.762,0,0,0-151.854,32q-1.958,0-3.625,2.354A15.462,15.462,0,0,0-157.854,40.5Zm25.375-10.458a9.939,9.939,0,0,1,5.375,1.313,3.876,3.876,0,0,1,2.083,3.354,2.888,2.888,0,0,1-.792,2.1,2.777,2.777,0,0,1-2.083.813,2.972,2.972,0,0,1-2.063-.729,2.337,2.337,0,0,1-.812-1.812,2.914,2.914,0,0,1,.75-1.708.84.84,0,0,0,.25-.5q0-.333-.708-.6A4.529,4.529,0,0,0-132.1,32a4.646,4.646,0,0,0-2.667.708,2.137,2.137,0,0,0-1.042,1.833A1.894,1.894,0,0,0-135.1,36a10.229,10.229,0,0,0,2.542,1.417A20.721,20.721,0,0,1-129.437,39a5.513,5.513,0,0,1,2.833,4.792,5.885,5.885,0,0,1-2.521,4.958,10.792,10.792,0,0,1-6.6,1.875,9.711,9.711,0,0,1-5.354-1.333,4.021,4.021,0,0,1-2.062-3.5,2.972,2.972,0,0,1,.813-2.167,2.809,2.809,0,0,1,2.1-.833,3.075,3.075,0,0,1,2.1.75,2.437,2.437,0,0,1,.854,1.917,2.561,2.561,0,0,1-1.083,1.917.575.575,0,0,0-.208.375q0,.458.75.771a4.9,4.9,0,0,0,1.875.313,4.716,4.716,0,0,0,2.833-.812,2.453,2.453,0,0,0,1.125-2.062q0-1.583-2.417-2.542a31.327,31.327,0,0,1-3.5-1.667,5.623,5.623,0,0,1-3-5.083,5.834,5.834,0,0,1,2.271-4.833A9.659,9.659,0,0,1-132.479,30.042Zm21.25,12.333,1.542,1.125a28.549,28.549,0,0,1-2.833,3.833q-3.042,3.25-6.25,3.25a4.127,4.127,0,0,1-2.812-1,3.139,3.139,0,0,1-1.146-2.458,11.767,11.767,0,0,1,.583-3.208q.25-.708.458-1.542l2.708-9.167H-122.6l.75-2.542h3.625l2.333-7.75h6.542l-2.292,7.75h4.75l-.75,2.542h-4.75l-2.917,9.833a24.347,24.347,0,0,0-.875,3.458.8.8,0,0,0,.188.521.553.553,0,0,0,.438.229q.625,0,1.9-1.417A20.1,20.1,0,0,0-111.229,42.375Zm43.958-11.708-2.875,9.75a30.235,30.235,0,0,0-1,4.875,2.338,2.338,0,0,0,.688,1.646,2.1,2.1,0,0,0,1.563.729,3.884,3.884,0,0,0,2.229-.854,8.883,8.883,0,0,0,2.146-2.271,12.7,12.7,0,0,0,2.542-6.875,1.7,1.7,0,0,0-.292-1,12.489,12.489,0,0,0-1.542-1.542,3.165,3.165,0,0,1-1.208-2.375,2.574,2.574,0,0,1,.792-1.958,2.9,2.9,0,0,1,2.083-.75,2.981,2.981,0,0,1,2.354,1.021,3.926,3.926,0,0,1,.9,2.688,19.093,19.093,0,0,1-.833,5.167A24.54,24.54,0,0,1-61.9,44.208q-3.667,6.417-9.208,6.417a6.407,6.407,0,0,1-4.1-1.271,6.234,6.234,0,0,1-2.146-3.646,14.232,14.232,0,0,1-3.937,3.75,8.653,8.653,0,0,1-4.479,1.167A5.367,5.367,0,0,1-89.5,49.438a4.345,4.345,0,0,1-1.312-3.4,17.634,17.634,0,0,1,.833-4.292l1.5-5.042a15.831,15.831,0,0,0,.667-2.792,1.049,1.049,0,0,0-.5-1.042,5.526,5.526,0,0,0-2.083-.25h-.417l.292-1.958,10.583-.583-3.75,12.542a13.57,13.57,0,0,0-.583,2.875,1.481,1.481,0,0,0,.458,1.083,1.436,1.436,0,0,0,1.042.458q2.333,0,4.292-3.083a20.231,20.231,0,0,0,1.292-2.667,31.358,31.358,0,0,0,1.167-3.208l2.208-7.417Zm22.833-.583-4.375,14.833a9.431,9.431,0,0,0-.417,1.75.589.589,0,0,0,.667.667q1.25,0,4.208-4.708l1.625,1.167A18.842,18.842,0,0,1-46.917,49a7.035,7.035,0,0,1-4.437,1.625,4.577,4.577,0,0,1-3.1-1.062,3.4,3.4,0,0,1-1.229-2.687,12.521,12.521,0,0,1,.625-3.083l2.125-7.083a12.383,12.383,0,0,0,.625-2.792,1.049,1.049,0,0,0-.5-1.042,5.362,5.362,0,0,0-2.042-.25h-1l.292-1.958Zm-4.75-9.75a3.41,3.41,0,0,1,2.5-1.042,3.41,3.41,0,0,1,2.5,1.042,3.41,3.41,0,0,1,1.042,2.5,3.41,3.41,0,0,1-1.042,2.5,3.458,3.458,0,0,1-2.542,1.042,3.33,3.33,0,0,1-2.458-1.062,3.431,3.431,0,0,1-1.042-2.479A3.41,3.41,0,0,1-49.188,20.333Zm23.792-1-7.583,25.583-.208.667a4.2,4.2,0,0,0-.208,1.083q0,.708.625.708.708,0,1.958-1.333a20.877,20.877,0,0,0,2.5-3.375l1.625,1.125a18.749,18.749,0,0,1-3.583,4.5,7.5,7.5,0,0,1-5.208,2.333,4.456,4.456,0,0,1-3.083-1.042,3.508,3.508,0,0,1-1.167-2.75,16.873,16.873,0,0,1,.958-4.417l4.875-16.5a12.523,12.523,0,0,0,.625-2.75,1.049,1.049,0,0,0-.5-1.042,5.362,5.362,0,0,0-2.042-.25h-1l.292-1.958Zm16.208,0-7.583,25.583-.208.667a4.2,4.2,0,0,0-.208,1.083q0,.708.625.708.708,0,1.958-1.333a20.877,20.877,0,0,0,2.5-3.375l1.625,1.125a18.749,18.749,0,0,1-3.583,4.5,7.5,7.5,0,0,1-5.208,2.333,4.456,4.456,0,0,1-3.083-1.042,3.508,3.508,0,0,1-1.167-2.75,16.873,16.873,0,0,1,.958-4.417l4.875-16.5a12.523,12.523,0,0,0,.625-2.75,1.049,1.049,0,0,0-.5-1.042,5.362,5.362,0,0,0-2.042-.25h-1l.292-1.958Zm30.458,0L17.479,32.208a8.284,8.284,0,0,1,5.375-2.167A6.7,6.7,0,0,1,27.833,32.1a7.007,7.007,0,0,1,2.021,5.1,12.424,12.424,0,0,1-1.229,5.271,14.692,14.692,0,0,1-3.4,4.646,12.623,12.623,0,0,1-8.917,3.5,9.778,9.778,0,0,1-6.167-1.812,5.832,5.832,0,0,1-2.333-4.854,7.9,7.9,0,0,1,.125-1.583q.125-.583.792-2.875l4.042-13.583a15.2,15.2,0,0,0,.667-2.75,1.037,1.037,0,0,0-.521-1.042,5.543,5.543,0,0,0-2.062-.25h-1l.292-1.958ZM20.4,33q-2.333,0-4.25,3.833a25.532,25.532,0,0,0-1.667,4.6,17.319,17.319,0,0,0-.708,4.229,3.34,3.34,0,0,0,.771,2.292,2.518,2.518,0,0,0,1.979.875q2.5,0,4.583-4.708a24.094,24.094,0,0,0,1.354-4.167,17.724,17.724,0,0,0,.6-3.833,3.355,3.355,0,0,0-.75-2.229A2.389,2.389,0,0,0,20.4,33ZM48.563,44.75l1.458,1.458a12.21,12.21,0,0,1-9.5,4.375q-4.125,0-6.312-1.979a7.331,7.331,0,0,1-2.187-5.729A12.156,12.156,0,0,1,35.979,33.9a12.794,12.794,0,0,1,9.208-3.854,8.016,8.016,0,0,1,4.875,1.438,4.32,4.32,0,0,1,1.958,3.6q0,4.333-7.083,6.375a25.69,25.69,0,0,1-6.208,1q-.083,1.083-.083,1.833A3.946,3.946,0,0,0,39.6,47.1a3.426,3.426,0,0,0,2.625,1.021,6.4,6.4,0,0,0,3.042-.75A14.766,14.766,0,0,0,48.563,44.75ZM39.1,40.5a14.279,14.279,0,0,0,2.917-.667,8.189,8.189,0,0,0,3.521-2.479,5.328,5.328,0,0,0,1.4-3.4,1.99,1.99,0,0,0-.5-1.437A1.762,1.762,0,0,0,45.1,32q-1.958,0-3.625,2.354A15.462,15.462,0,0,0,39.1,40.5Zm42.167,1.875L82.813,43.5a28.549,28.549,0,0,1-2.833,3.833q-3.042,3.25-6.25,3.25a4.127,4.127,0,0,1-2.812-1,3.139,3.139,0,0,1-1.146-2.458,11.767,11.767,0,0,1,.583-3.208q.25-.708.458-1.542l2.708-9.167H69.9l.75-2.542h3.625l2.333-7.75h6.542l-2.292,7.75H85.6l-.75,2.542H80.1l-2.917,9.833a24.347,24.347,0,0,0-.875,3.458.8.8,0,0,0,.188.521.553.553,0,0,0,.438.229q.625,0,1.9-1.417A20.1,20.1,0,0,0,81.271,42.375Zm21.75-11.708h6.542L105.479,44.5a13.59,13.59,0,0,0-.417,1.917.671.671,0,0,0,.188.458.536.536,0,0,0,.4.208q.542,0,1.854-1.417a22.688,22.688,0,0,0,2.479-3.25l1.625,1.042a22.993,22.993,0,0,1-2.75,3.792q-3,3.375-6,3.375a3.761,3.761,0,0,1-2.188-.646,2.98,2.98,0,0,1-1.229-1.687,4.545,4.545,0,0,1-.125-1.333A9.868,9.868,0,0,1,96.25,49.75a7.822,7.822,0,0,1-3.729.833,6.842,6.842,0,0,1-5.187-2.125,7.543,7.543,0,0,1-2.021-5.417,13,13,0,0,1,3.646-9.021,10.984,10.984,0,0,1,8.271-3.979q3.708,0,5.208,2.625Zm-4.458,1.667q-2.5,0-4.417,4A18.431,18.431,0,0,0,92.1,44.375a3.836,3.836,0,0,0,.688,2.4,2.215,2.215,0,0,0,1.854.9q2.5,0,4.333-4.042a27.4,27.4,0,0,0,1.542-4.333,15.65,15.65,0,0,0,.625-3.917,3.313,3.313,0,0,0-.708-2.187A2.315,2.315,0,0,0,98.563,32.333Zm29.375-13L123.4,34.542a17.877,17.877,0,0,1,4.271-3.521,8.652,8.652,0,0,1,4.1-.979,5.412,5.412,0,0,1,3.542,1.125,3.636,3.636,0,0,1,1.375,2.958q0,3-3.833,5.125a22.957,22.957,0,0,1-4.25,1.792,4.43,4.43,0,0,1,1.917,1.813,11.239,11.239,0,0,1,.708,3.646q.083.792.667.792,1.542,0,3.125-3.875l1.792.958a14,14,0,0,1-3.375,4.771,6.349,6.349,0,0,1-4.167,1.479,4.124,4.124,0,0,1-3.146-1.167,4.664,4.664,0,0,1-1.1-3.333,15.168,15.168,0,0,1,.208-2.292,6.8,6.8,0,0,0,.167-1.375,1.466,1.466,0,0,0-.208-.708,7.349,7.349,0,0,1-.875.042q-1.5,0-1.5-1.208a1.169,1.169,0,0,1,.417-.937,1.615,1.615,0,0,1,1.083-.354,5.345,5.345,0,0,1,1.917.542q4.75-1.583,4.75-4.458a1.794,1.794,0,0,0-.542-1.354,1.958,1.958,0,0,0-1.417-.521q-2.125,0-4.875,3.333a22.844,22.844,0,0,0-3.792,8.042L118.812,50h-6.542L119.4,25.917a16.4,16.4,0,0,0,.667-2.75,1.049,1.049,0,0,0-.5-1.042,5.526,5.526,0,0,0-2.083-.25h-.958l.25-1.958ZM155.6,44.75l1.458,1.458a12.21,12.21,0,0,1-9.5,4.375q-4.125,0-6.312-1.979a7.331,7.331,0,0,1-2.187-5.729,12.156,12.156,0,0,1,3.958-8.979,12.794,12.794,0,0,1,9.208-3.854,8.016,8.016,0,0,1,4.875,1.438,4.32,4.32,0,0,1,1.958,3.6q0,4.333-7.083,6.375a25.69,25.69,0,0,1-6.208,1q-.083,1.083-.083,1.833a3.946,3.946,0,0,0,.958,2.813,3.426,3.426,0,0,0,2.625,1.021,6.4,6.4,0,0,0,3.042-.75A14.766,14.766,0,0,0,155.6,44.75Zm-9.458-4.25a14.279,14.279,0,0,0,2.917-.667,8.189,8.189,0,0,0,3.521-2.479,5.328,5.328,0,0,0,1.4-3.4,1.99,1.99,0,0,0-.5-1.437A1.762,1.762,0,0,0,152.146,32q-1.958,0-3.625,2.354A15.462,15.462,0,0,0,146.146,40.5Zm26.5-10.417-1.333,5.5a18.907,18.907,0,0,1,4.292-4.271,7.657,7.657,0,0,1,4.25-1.271,4.835,4.835,0,0,1,3.375,1.208,3.976,3.976,0,0,1,1.333,3.083,16.376,16.376,0,0,1-1.292,5.333L181.312,45a7.2,7.2,0,0,0-.417,1.583.671.671,0,0,0,.188.458.536.536,0,0,0,.4.208,2.492,2.492,0,0,0,1.5-.937,29.088,29.088,0,0,0,2.542-3.229l.375-.458,1.625,1.042A22.776,22.776,0,0,1,183.062,49a6.847,6.847,0,0,1-4.333,1.625,4.5,4.5,0,0,1-3.1-1.021,3.523,3.523,0,0,1-1.146-2.771,12.057,12.057,0,0,1,.833-3.625l2.583-7.042a4.79,4.79,0,0,0,.375-1.5.97.97,0,0,0-.4-.75,1.3,1.3,0,0,0-.854-.333q-1.542,0-3.958,2.875a23.313,23.313,0,0,0-4.042,8.25L167.437,50H160.9l3.958-13.292a13.791,13.791,0,0,0,.625-2.792,1.049,1.049,0,0,0-.5-1.042,5.362,5.362,0,0,0-2.042-.25h-1l.292-1.958Zm48.625,13.792,1.5,1.292q-4.333,5.417-9.667,5.417a9.1,9.1,0,0,1-6.292-2.083,7.163,7.163,0,0,1-2.333-5.625,12.2,12.2,0,0,1,3.854-9,12.647,12.647,0,0,1,9.188-3.792,8.422,8.422,0,0,1,5.188,1.458,4.612,4.612,0,0,1,1.938,3.875,3.986,3.986,0,0,1-.979,2.813,3.372,3.372,0,0,1-2.6,1.062,3.336,3.336,0,0,1-2.333-.833,2.792,2.792,0,0,1-.917-2.167A2.881,2.881,0,0,1,219.4,33.75q.5-.333.5-.667a.859.859,0,0,0-.5-.75,2.448,2.448,0,0,0-1.25-.292q-2.667,0-4.625,3.625a18.662,18.662,0,0,0-1.542,4.1,17.394,17.394,0,0,0-.625,4.354,4.136,4.136,0,0,0,.958,2.813,3.108,3.108,0,0,0,2.458,1.1Q217.687,48.042,221.271,43.875Zm23.792-13.208H251.6L247.521,44.5a13.589,13.589,0,0,0-.417,1.917.671.671,0,0,0,.188.458.536.536,0,0,0,.4.208q.542,0,1.854-1.417a22.689,22.689,0,0,0,2.479-3.25l1.625,1.042a22.993,22.993,0,0,1-2.75,3.792q-3,3.375-6,3.375a3.761,3.761,0,0,1-2.187-.646,2.98,2.98,0,0,1-1.229-1.687,4.545,4.545,0,0,1-.125-1.333,9.868,9.868,0,0,1-3.062,2.792,7.822,7.822,0,0,1-3.729.833,6.842,6.842,0,0,1-5.187-2.125,7.543,7.543,0,0,1-2.021-5.417A13,13,0,0,1,231,34.021a10.984,10.984,0,0,1,8.271-3.979q3.708,0,5.208,2.625ZM240.6,32.333q-2.5,0-4.417,4a18.431,18.431,0,0,0-2.042,8.042,3.836,3.836,0,0,0,.688,2.4,2.215,2.215,0,0,0,1.854.9q2.5,0,4.333-4.042a27.4,27.4,0,0,0,1.542-4.333,15.649,15.649,0,0,0,.625-3.917,3.313,3.313,0,0,0-.708-2.187A2.315,2.315,0,0,0,240.6,32.333Zm25.792-2.25L265.1,35.375a15.62,15.62,0,0,1,3.6-4.125,6.325,6.325,0,0,1,3.771-1.208,3.936,3.936,0,0,1,2.813,1,3.489,3.489,0,0,1,1.063,2.667,3.551,3.551,0,0,1-.9,2.458,2.871,2.871,0,0,1-2.229,1,3.018,3.018,0,0,1-1.792-.563,2.424,2.424,0,0,1-1-1.479,5.476,5.476,0,0,1-.125-1.292q0-.542-.417-.542-.583,0-1.667,1.083a16.216,16.216,0,0,0-2.979,4.146,29.585,29.585,0,0,0-2.312,5.688L261.188,50h-6.542L258.6,36.708a12.383,12.383,0,0,0,.625-2.792,1.049,1.049,0,0,0-.5-1.042,5.362,5.362,0,0,0-2.042-.25h-1l.292-1.958ZM292.354,44.75l1.458,1.458a12.21,12.21,0,0,1-9.5,4.375q-4.125,0-6.312-1.979a7.331,7.331,0,0,1-2.187-5.729,12.156,12.156,0,0,1,3.958-8.979,12.794,12.794,0,0,1,9.208-3.854,8.016,8.016,0,0,1,4.875,1.438,4.32,4.32,0,0,1,1.958,3.6q0,4.333-7.083,6.375a25.69,25.69,0,0,1-6.208,1q-.083,1.083-.083,1.833A3.946,3.946,0,0,0,283.4,47.1a3.426,3.426,0,0,0,2.625,1.021,6.4,6.4,0,0,0,3.042-.75A14.766,14.766,0,0,0,292.354,44.75ZM282.9,40.5a14.279,14.279,0,0,0,2.917-.667,8.19,8.19,0,0,0,3.521-2.479,5.328,5.328,0,0,0,1.4-3.4,1.99,1.99,0,0,0-.5-1.437A1.763,1.763,0,0,0,288.9,32q-1.958,0-3.625,2.354A15.463,15.463,0,0,0,282.9,40.5Zm43.167-10.458a9.783,9.783,0,0,1,6.667,2.25,7.26,7.26,0,0,1,2.333,5.833A11.66,11.66,0,0,1,331.229,47a13.381,13.381,0,0,1-9.5,3.583,8.74,8.74,0,0,1-6.25-2.125,7.059,7.059,0,0,1-1.833-2.729,9.5,9.5,0,0,1-.667-3.521,11.283,11.283,0,0,1,3.9-8.562A13.083,13.083,0,0,1,326.063,30.042ZM325.9,32q-2.667,0-4.583,4.583a27.145,27.145,0,0,0-1.333,4.5,21.6,21.6,0,0,0-.542,4.417,3.738,3.738,0,0,0,.708,2.417,2.381,2.381,0,0,0,1.958.875q2.708,0,4.417-4.375A31.332,31.332,0,0,0,328,39.563a20.728,20.728,0,0,0,.6-4.312,3.546,3.546,0,0,0-.75-2.354A2.432,2.432,0,0,0,325.9,32Zm28.167-1.333-.667,2.542h-5.208l-1.958,8.917a113.084,113.084,0,0,1-4.208,15.333l-7.542,1.083q1.792-2.792,4.875-14.083l2.667-11.25H337.9l.708-2.542h4.083q1.542-5.583,3.833-8.083a9.457,9.457,0,0,1,7.167-3.292,6.337,6.337,0,0,1,4.1,1.292,4.045,4.045,0,0,1,1.6,3.292,3.231,3.231,0,0,1-.917,2.354,3.124,3.124,0,0,1-2.333.938,2.781,2.781,0,0,1-2.021-.792,2.625,2.625,0,0,1-.812-1.958,4.007,4.007,0,0,1,1-2.375.575.575,0,0,0,.208-.375q0-.417-.917-.417a2.693,2.693,0,0,0-2.4,1.563,27.443,27.443,0,0,0-2.021,6.146l-.417,1.708Zm.292,13.958,3.917-4.125q.5-.542.708-.542t.417.542l1.708,4.125a1.474,1.474,0,0,1-.458,1.583l-3.875,4.125q-.5.542-.729.542t-.437-.542l-1.667-4.125a1.309,1.309,0,0,1-.125-.812A1.957,1.957,0,0,1,354.354,44.625Zm6.917-8.125,4.917-10.083a14.824,14.824,0,0,0,1.042-2.75q1.167-4.375-2.667-4.375-3.958,0-5.083,4.292a11.579,11.579,0,0,0-.458,2.833l-.5,10.083a2.055,2.055,0,0,0,.25,1q.417.667.708.667t1.042-.667A3.917,3.917,0,0,0,361.271,36.5Z" data-name="Path 5573" transform="translate(-3121 8721)"/></g></svg>