<svg xmlns="http://www.w3.org/2000/svg" width="719.177" height="872.417" viewBox="0 0 719.177 872.417">
    <g id="Group_4097" data-name="Group 4097" transform="translate(4340 -9484)">
        <path id="Path_5574" data-name="Path 5574" d="M312.55,731.364c12.1,28.843-1.664,87.789-1.664,87.789s-51.708-31.47-63.812-60.313-7.258-58.376,10.823-65.963S300.447,702.521,312.55,731.364Z" transform="translate(-4580.412 9403.888)" fill="#e7eaf0"/>
        <circle id="Ellipse_209" data-name="Ellipse 209" cx="16.606" cy="16.606" r="16.606" transform="translate(-3969.035 9720.186)" fill="#ff0080"/>
        <circle id="Ellipse_210" data-name="Ellipse 210" cx="16.606" cy="16.606" r="16.606" transform="translate(-3969.035 9610.186)" fill="#ff0080"/>
        <circle id="Ellipse_211" data-name="Ellipse 211" cx="16.606" cy="16.606" r="16.606" transform="translate(-3969.035 9500.186)" fill="#ff0080"/>
        <path id="Path_5575" data-name="Path 5575" d="M688.459,80.112a5.006,5.006,0,0,0-5,5V140.7a5.006,5.006,0,0,0,5,5h266.13a5.006,5.006,0,0,0,5-5V85.112a5.006,5.006,0,0,0-5-5Z" transform="translate(-4580.412 9403.888)" fill="#e7eaf0"/>
        <path id="Path_5576" data-name="Path 5576" d="M690.256,84.011a2.9,2.9,0,0,0-2.9,2.9V138.9a2.9,2.9,0,0,0,2.9,2.9H952.791a2.9,2.9,0,0,0,2.9-2.9V86.91a2.9,2.9,0,0,0-2.9-2.9Z" transform="translate(-4580.412 9403.888)" fill="#fff"/>
        <path id="Path_5577" data-name="Path 5577" d="M936.307,127.541a4.71,4.71,0,1,0,0-9.421H714.249a4.71,4.71,0,0,0,0,9.421Z" transform="translate(-4580.412 9403.888)" fill="#e7eaf0"/>
        <path id="Path_5578" data-name="Path 5578" d="M809.8,107.077a4.71,4.71,0,1,0,0-9.421H714.249a4.71,4.71,0,1,0,0,9.421Z" transform="translate(-4580.412 9403.888)" fill="#ff0080"/>
        <path id="Path_5579" data-name="Path 5579" d="M688.459,190.112a5.006,5.006,0,0,0-5,5V250.7a5.006,5.006,0,0,0,5,5h266.13a5.006,5.006,0,0,0,5-5V195.112a5.006,5.006,0,0,0-5-5Z" transform="translate(-4580.412 9403.888)" fill="#e7eaf0"/>
        <path id="Path_5580" data-name="Path 5580" d="M690.256,194.011a2.9,2.9,0,0,0-2.9,2.9V248.9a2.9,2.9,0,0,0,2.9,2.9H952.791a2.9,2.9,0,0,0,2.9-2.9V196.91a2.9,2.9,0,0,0-2.9-2.9Z" transform="translate(-4580.412 9403.888)" fill="#fff"/>
        <path id="Path_5581" data-name="Path 5581" d="M936.307,237.541a4.71,4.71,0,1,0,0-9.421H714.249a4.71,4.71,0,0,0,0,9.421Z" transform="translate(-4580.412 9403.888)" fill="#e7eaf0"/>
        <path id="Path_5582" data-name="Path 5582" d="M809.8,217.077a4.71,4.71,0,1,0,0-9.421H714.249a4.71,4.71,0,1,0,0,9.421Z" transform="translate(-4580.412 9403.888)" fill="#ff0080"/>
        <path id="Path_5583" data-name="Path 5583" d="M688.459,300.112a5.006,5.006,0,0,0-5,5V360.7a5.006,5.006,0,0,0,5,5h266.13a5.006,5.006,0,0,0,5-5V305.112a5.006,5.006,0,0,0-5-5Z" transform="translate(-4580.412 9403.888)" fill="#e7eaf0"/>
        <path id="Path_5584" data-name="Path 5584" d="M690.256,304.011a2.9,2.9,0,0,0-2.9,2.9V358.9a2.9,2.9,0,0,0,2.9,2.9H952.791a2.9,2.9,0,0,0,2.9-2.9V306.91a2.9,2.9,0,0,0-2.9-2.9Z" transform="translate(-4580.412 9403.888)" fill="#fff"/>
        <path id="Path_5585" data-name="Path 5585" d="M936.307,347.541a4.71,4.71,0,1,0,0-9.421H714.249a4.71,4.71,0,0,0,0,9.421Z" transform="translate(-4580.412 9403.888)" fill="#e7eaf0"/>
        <path id="Path_5586" data-name="Path 5586" d="M809.8,327.077a4.71,4.71,0,1,0,0-9.421H714.249a4.71,4.71,0,1,0,0,9.421Z" transform="translate(-4580.412 9403.888)" fill="#ff0080"/>
        <path id="Path_5587" data-name="Path 5587" d="M392.742,542.641h0A13.892,13.892,0,0,1,381.559,525l10.53-35.8,16,3,.688,36.458a13.892,13.892,0,0,1-16.034,13.988Z" transform="translate(-4580.412 9403.888)" fill="#9f616a"/>
        <path id="Path_5588" data-name="Path 5588" d="M244.677,691.083l-20-3,5-195-28,84-15,118-19-5-4-123,22-145,110,25Z" transform="translate(-4340 9484)" fill="#2f2e41"/>
        <path id="Path_5589" data-name="Path 5589" d="M475.906,819.2h0a14.7,14.7,0,0,1-14.629-16.139l3.106-31.574a4.634,4.634,0,0,1,2.411-3.621c5.9-3.18,11.958-2.409,18.163,1.742a4.606,4.606,0,0,1,2,3.284l3.545,29.877a14.7,14.7,0,0,1-14.6,16.431Z" transform="translate(-4580.412 9403.888)" fill="#2f2e41"/>
        <path id="Path_5590" data-name="Path 5590" d="M394.27,816.845h0a13.241,13.241,0,0,1-6.428-19.822l21.334-31.713c7.691-5.519,12.329-2.831,14.132,7.482l4.313-10.807,3.25,3.545a10.338,10.338,0,0,1,.547,13.323L409.29,812.53a13.241,13.241,0,0,1-15.02,4.315Z" transform="translate(-4580.412 9403.888)" fill="#2f2e41"/>
        <circle id="Ellipse_212" data-name="Ellipse 212" cx="30" cy="30" r="30" transform="translate(-4081.323 9658.083)" fill="#9f616a"/>
        <path id="Path_5591" data-name="Path 5591" d="M548.089,339.2l-51-10c6.569-14.011,11.83-18.752,6-34h41C540.473,310.989,543.967,325.814,548.089,339.2Z" transform="translate(-4580.412 9403.888)" fill="#9f616a"/>
        <path id="Path_5592" data-name="Path 5592" d="M542.089,541.2l-120-34c24.036-52.9,29.071-110.983,21.944-172.38a11.109,11.109,0,0,1,10.149-12.365c15.653-1.289,31.972-2.944,48.907-5.255l19,13,22-5c7.059,3.422,14.17,6.267,20.587,9.1a25.738,25.738,0,0,1,13.993,31.655C559.116,425,546.028,483.494,542.089,541.2Z" transform="translate(-4580.412 9403.888)" fill="#e7eaf0"/>
        <path id="Path_5593" data-name="Path 5593" d="M411.089,496.2l-23-3,54.486-157c2.772-7.986,9.645-12.308,18.013-13.5l8,1-6,93Z" transform="translate(-4580.412 9403.888)" fill="#e7eaf0"/>
        <path id="Path_5594" data-name="Path 5594" d="M591.256,466.182h0A18.23,18.23,0,0,1,573.023,455l-21.934-52.8,18-65,4.758,3.028q.688.438,1.357.9c13.7,9.4,20.372,26.167,17.579,42.548l-4.694,27.527,19.364,41.577a18.23,18.23,0,0,1-16.2,13.41Z" transform="translate(-4580.412 9403.888)" fill="#e7eaf0"/>
        <path id="Path_5595" data-name="Path 5595" d="M531.4,239.732h0a31.858,31.858,0,0,1,14.555,4.285c1.02.594.549,2.734,1.491,3.433,1.187.879,3.765.345,4.817,1.375a31.927,31.927,0,0,1,9.494,25.723l-1.674,16.644-3.949-4.319A41.164,41.164,0,0,0,528.677,273.4q-.672-.046-1.346-.072l3.038-5.317-5.28,5.28a51.418,51.418,0,0,0-7.194.586l4.04-7.07-7.752,7.752h0A20.727,20.727,0,0,0,499.7,286.368l-.861,1.908-.964-15.879A32.006,32.006,0,0,1,531.4,239.732Z" transform="translate(-4580.412 9403.888)" fill="#2f2e41"/>
        <ellipse id="Ellipse_213" data-name="Ellipse 213" cx="2.41" cy="5.723" rx="2.41" ry="5.723" transform="translate(-4023.537 9688.16)" fill="#9f616a"/>
        <ellipse id="Ellipse_214" data-name="Ellipse 214" cx="2.41" cy="5.723" rx="2.41" ry="5.723" transform="translate(-4083.777 9686.354)" fill="#9f616a"/>
        <path id="Path_5596" data-name="Path 5596" d="M616.279,364.643h0a13.892,13.892,0,0,1,9.645,18.531l-13.53,34.777L596.706,413.6l2.409-36.385a13.892,13.892,0,0,1,17.164-12.576Z" transform="translate(-4580.412 9403.888)" fill="#9f616a"/>
        <path id="Path_5597" data-name="Path 5597" d="M357.677,384.083l-25-16,21-43,26,10-13,38Z" transform="translate(-4340 9484)" fill="#e7eaf0"/>
        <path id="Path_5598" data-name="Path 5598" d="M349.027,739.776H45.288V737.67h304.12Z" transform="translate(-4340 9484)" fill="#3f3d56"/>
        <path id="Path_5599" data-name="Path 5599" d="M28.417-11.5l5.375-12.917a5.345,5.345,0,0,0,.542-1.917,1.256,1.256,0,0,0-.625-1.083,2.878,2.878,0,0,0-1.625-.417h-.75l.292-2.25h9.792l-.292,2.25a5.133,5.133,0,0,0-3.042,1.521,16.7,16.7,0,0,0-2.458,4.479L25.917.583h-2.75L20.333-19.542,11.083.583H8.333L4.75-26.25a1.688,1.688,0,0,0-.625-1.25,3.553,3.553,0,0,0-1.833-.333H1.667l.292-2.25H14.583l-.292,2.25h-.625a2.643,2.643,0,0,0-1.5.292,1.491,1.491,0,0,0-.375,1.208l.042.667L13.667-11l6.167-13.708-.125-1.25a1.92,1.92,0,0,0-.729-1.479,4.06,4.06,0,0,0-2.1-.4h-.667l.292-2.25H29.458l-.292,2.25H28.25a3.094,3.094,0,0,0-1.5.271.883.883,0,0,0-.417.9,7.52,7.52,0,0,0,.125,1.125ZM52.958-5.25l1.458,1.458a12.21,12.21,0,0,1-9.5,4.375Q40.792.583,38.6-1.4a7.331,7.331,0,0,1-2.187-5.729A12.156,12.156,0,0,1,40.375-16.1a12.794,12.794,0,0,1,9.208-3.854,8.016,8.016,0,0,1,4.875,1.438,4.32,4.32,0,0,1,1.958,3.6q0,4.333-7.083,6.375a25.69,25.69,0,0,1-6.208,1q-.083,1.083-.083,1.833A3.946,3.946,0,0,0,44-2.9a3.426,3.426,0,0,0,2.625,1.021,6.4,6.4,0,0,0,3.042-.75A14.766,14.766,0,0,0,52.958-5.25ZM43.5-9.5a14.279,14.279,0,0,0,2.917-.667,8.189,8.189,0,0,0,3.521-2.479,5.328,5.328,0,0,0,1.4-3.4,1.99,1.99,0,0,0-.5-1.437A1.763,1.763,0,0,0,49.5-18q-1.958,0-3.625,2.354A15.462,15.462,0,0,0,43.5-9.5Zm17.708-6.25L64.708-26a7.581,7.581,0,0,1,.417-.875,5.1,5.1,0,0,1,4.75-2.458A2.688,2.688,0,0,1,72-28.708q.5.625-.208,1.833a5.88,5.88,0,0,1-.583.875L62.583-15.75ZM84.042-30.667,76.458-5.083l-.208.667a4.2,4.2,0,0,0-.208,1.083q0,.708.625.708.708,0,1.958-1.333a20.877,20.877,0,0,0,2.5-3.375L82.75-6.208a18.749,18.749,0,0,1-3.583,4.5A7.5,7.5,0,0,1,73.958.625,4.456,4.456,0,0,1,70.875-.417a3.508,3.508,0,0,1-1.167-2.75,16.873,16.873,0,0,1,.958-4.417l4.875-16.5a12.523,12.523,0,0,0,.625-2.75,1.049,1.049,0,0,0-.5-1.042,5.362,5.362,0,0,0-2.042-.25h-1l.292-1.958Zm16.208,0L92.667-5.083l-.208.667a4.2,4.2,0,0,0-.208,1.083q0,.708.625.708.708,0,1.958-1.333a20.877,20.877,0,0,0,2.5-3.375l1.625,1.125a18.749,18.749,0,0,1-3.583,4.5A7.5,7.5,0,0,1,90.167.625,4.456,4.456,0,0,1,87.083-.417a3.508,3.508,0,0,1-1.167-2.75,16.873,16.873,0,0,1,.958-4.417l4.875-16.5a12.523,12.523,0,0,0,.625-2.75,1.049,1.049,0,0,0-.5-1.042,5.362,5.362,0,0,0-2.042-.25h-1l.292-1.958Zm27.708,10.75-1.333,5.5a18.907,18.907,0,0,1,4.292-4.271,7.657,7.657,0,0,1,4.25-1.271,4.835,4.835,0,0,1,3.375,1.208,3.976,3.976,0,0,1,1.333,3.083,16.376,16.376,0,0,1-1.292,5.333L136.625-5a7.2,7.2,0,0,0-.417,1.583.671.671,0,0,0,.188.458.536.536,0,0,0,.4.208,2.492,2.492,0,0,0,1.5-.938,29.091,29.091,0,0,0,2.542-3.229l.375-.458,1.625,1.042A22.776,22.776,0,0,1,138.375-1,6.847,6.847,0,0,1,134.042.625a4.5,4.5,0,0,1-3.1-1.021,3.523,3.523,0,0,1-1.146-2.771,12.057,12.057,0,0,1,.833-3.625l2.583-7.042a4.79,4.79,0,0,0,.375-1.5.97.97,0,0,0-.4-.75,1.3,1.3,0,0,0-.854-.333q-1.542,0-3.958,2.875a23.313,23.313,0,0,0-4.042,8.25L122.75,0h-6.542l3.958-13.292a13.792,13.792,0,0,0,.625-2.792,1.049,1.049,0,0,0-.5-1.042,5.362,5.362,0,0,0-2.042-.25h-1l.292-1.958Zm30.167-.042a9.783,9.783,0,0,1,6.667,2.25,7.26,7.26,0,0,1,2.333,5.833A11.66,11.66,0,0,1,163.292-3a13.381,13.381,0,0,1-9.5,3.583,8.74,8.74,0,0,1-6.25-2.125,7.059,7.059,0,0,1-1.833-2.729,9.5,9.5,0,0,1-.667-3.521,11.283,11.283,0,0,1,3.9-8.563A13.083,13.083,0,0,1,158.125-19.958ZM157.958-18q-2.667,0-4.583,4.583a27.142,27.142,0,0,0-1.333,4.5A21.6,21.6,0,0,0,151.5-4.5a3.738,3.738,0,0,0,.708,2.417,2.381,2.381,0,0,0,1.958.875q2.708,0,4.417-4.375a31.335,31.335,0,0,0,1.479-4.854,20.727,20.727,0,0,0,.6-4.313,3.546,3.546,0,0,0-.75-2.354A2.432,2.432,0,0,0,157.958-18ZM180.792-7.625,182.333-6.5A28.549,28.549,0,0,1,179.5-2.667q-3.042,3.25-6.25,3.25a4.127,4.127,0,0,1-2.812-1,3.139,3.139,0,0,1-1.146-2.458,11.767,11.767,0,0,1,.583-3.208q.25-.708.458-1.542l2.708-9.167h-3.625l.75-2.542h3.625l2.333-7.75h6.542l-2.292,7.75h4.75l-.75,2.542h-4.75l-2.917,9.833a24.348,24.348,0,0,0-.875,3.458.8.8,0,0,0,.188.521.553.553,0,0,0,.438.229q.625,0,1.9-1.417A20.1,20.1,0,0,0,180.792-7.625Zm17.042-12.292L193.458-5.083a9.431,9.431,0,0,0-.417,1.75.589.589,0,0,0,.667.667q1.25,0,4.208-4.708l1.625,1.167A18.842,18.842,0,0,1,195.354-1,7.035,7.035,0,0,1,190.917.625a4.577,4.577,0,0,1-3.1-1.062,3.4,3.4,0,0,1-1.229-2.687,12.521,12.521,0,0,1,.625-3.083l2.125-7.083a12.383,12.383,0,0,0,.625-2.792,1.049,1.049,0,0,0-.5-1.042,5.362,5.362,0,0,0-2.042-.25h-1l.292-1.958Zm-4.75-9.75a3.41,3.41,0,0,1,2.5-1.042,3.41,3.41,0,0,1,2.5,1.042,3.41,3.41,0,0,1,1.042,2.5,3.41,3.41,0,0,1-1.042,2.5,3.458,3.458,0,0,1-2.542,1.042,3.33,3.33,0,0,1-2.458-1.062,3.431,3.431,0,0,1-1.042-2.479A3.41,3.41,0,0,1,193.083-29.667Zm25.958,10.333-.667,2.542h-5.208l-1.958,8.917A113.091,113.091,0,0,1,207,7.458l-7.542,1.083q1.792-2.792,4.875-14.083L207-16.792h-4.125l.708-2.542h4.083q1.542-5.583,3.833-8.083a9.457,9.457,0,0,1,7.167-3.292,6.337,6.337,0,0,1,4.1,1.292,4.045,4.045,0,0,1,1.6,3.292,3.231,3.231,0,0,1-.917,2.354,3.124,3.124,0,0,1-2.333.938,2.781,2.781,0,0,1-2.021-.792,2.625,2.625,0,0,1-.812-1.958,4.007,4.007,0,0,1,1-2.375.575.575,0,0,0,.208-.375q0-.417-.917-.417a2.693,2.693,0,0,0-2.4,1.563,27.44,27.44,0,0,0-2.021,6.146l-.417,1.708Zm9.875,5.458,2.333,7.917q2.792-4.708,2.792-6.583a4.45,4.45,0,0,0-.792-2.208,4.423,4.423,0,0,1-.875-2.458,2.575,2.575,0,0,1,.833-1.979,3.007,3.007,0,0,1,2.125-.771,2.984,2.984,0,0,1,2.063.688,2.41,2.41,0,0,1,.771,1.9,16.165,16.165,0,0,1-1.687,5.625,68.76,68.76,0,0,1-4.437,8.292,49.794,49.794,0,0,1-6.833,9.25,8.037,8.037,0,0,1-5.875,2.625,4.743,4.743,0,0,1-3.208-1.042,3.453,3.453,0,0,1-1.208-2.75,3,3,0,0,1,.833-2.187,2.841,2.841,0,0,1,2.125-.854,2.922,2.922,0,0,1,2.063.75,2.493,2.493,0,0,1,.813,1.917,3.4,3.4,0,0,1-.25,1.167.58.58,0,0,0-.042.25q0,.417.542.417a3.923,3.923,0,0,0,2.167-1.062,12.45,12.45,0,0,0,2.417-2.6L226.792.75l-4.167-14.083a6.732,6.732,0,0,0-.562-1.521.727.727,0,0,0-.646-.354q-.542,0-.958.813a28.657,28.657,0,0,0-1.292,3.646l-1.792-.542q2.042-8.667,6.75-8.667A3.39,3.39,0,0,1,227.375-18,21.279,21.279,0,0,1,228.917-13.875Zm36.667,0,2.333,7.917q2.792-4.708,2.792-6.583a4.45,4.45,0,0,0-.792-2.208,4.423,4.423,0,0,1-.875-2.458,2.575,2.575,0,0,1,.833-1.979A3.007,3.007,0,0,1,272-19.958a2.984,2.984,0,0,1,2.063.688,2.41,2.41,0,0,1,.771,1.9,16.165,16.165,0,0,1-1.687,5.625,68.758,68.758,0,0,1-4.437,8.292,49.793,49.793,0,0,1-6.833,9.25A8.037,8.037,0,0,1,256,8.417a4.743,4.743,0,0,1-3.208-1.042,3.453,3.453,0,0,1-1.208-2.75,3,3,0,0,1,.833-2.187,2.841,2.841,0,0,1,2.125-.854,2.922,2.922,0,0,1,2.063.75,2.493,2.493,0,0,1,.813,1.917,3.4,3.4,0,0,1-.25,1.167.58.58,0,0,0-.042.25q0,.417.542.417a3.923,3.923,0,0,0,2.167-1.062,12.45,12.45,0,0,0,2.417-2.6L263.458.75l-4.167-14.083a6.733,6.733,0,0,0-.562-1.521.727.727,0,0,0-.646-.354q-.542,0-.958.813a28.654,28.654,0,0,0-1.292,3.646l-1.792-.542q2.042-8.667,6.75-8.667A3.39,3.39,0,0,1,264.042-18,21.277,21.277,0,0,1,265.583-13.875Zm23.167-6.083a9.783,9.783,0,0,1,6.667,2.25,7.26,7.26,0,0,1,2.333,5.833A11.66,11.66,0,0,1,293.917-3a13.381,13.381,0,0,1-9.5,3.583,8.74,8.74,0,0,1-6.25-2.125,7.059,7.059,0,0,1-1.833-2.729,9.5,9.5,0,0,1-.667-3.521,11.283,11.283,0,0,1,3.9-8.563A13.083,13.083,0,0,1,288.75-19.958ZM288.583-18q-2.667,0-4.583,4.583a27.145,27.145,0,0,0-1.333,4.5,21.6,21.6,0,0,0-.542,4.417,3.738,3.738,0,0,0,.708,2.417,2.381,2.381,0,0,0,1.958.875q2.708,0,4.417-4.375a31.332,31.332,0,0,0,1.479-4.854,20.728,20.728,0,0,0,.6-4.313,3.546,3.546,0,0,0-.75-2.354A2.432,2.432,0,0,0,288.583-18Zm35.458-1.333-3.875,13a17.082,17.082,0,0,0-.667,2.792.558.558,0,0,0,.188.4.558.558,0,0,0,.4.187q.542,0,1.688-1.25A23.561,23.561,0,0,0,324.208-7.5l1.583,1.167A22.951,22.951,0,0,1,321.333-1,6.9,6.9,0,0,1,316.958.583q-4.042,0-4.042-3.542,0-.667.042-1.083A16.13,16.13,0,0,1,309.125-.5,7.212,7.212,0,0,1,305.333.583a4.521,4.521,0,0,1-3.312-1.25,4.411,4.411,0,0,1-1.271-3.292,16.453,16.453,0,0,1,.875-4.292l1.458-5.042a13.051,13.051,0,0,0,.667-2.792,1.049,1.049,0,0,0-.5-1.042,5.362,5.362,0,0,0-2.042-.25h-.417l.292-1.958,10.542-.583L307.875-7.25q-.042.167-.125.417t-.187.646q-.1.4-.187.646-.25.875-.292,1-.083.5-.083.583a1,1,0,0,0,.313.729,1,1,0,0,0,.729.312,3.919,3.919,0,0,0,2.125-1.062,12.91,12.91,0,0,0,2.458-2.646,19.664,19.664,0,0,0,2.833-5.833l2-6.875Zm43.167,0-2.875,9.75a30.238,30.238,0,0,0-1,4.875,2.338,2.338,0,0,0,.688,1.646,2.1,2.1,0,0,0,1.563.729,3.884,3.884,0,0,0,2.229-.854,8.883,8.883,0,0,0,2.146-2.271,12.7,12.7,0,0,0,2.542-6.875,1.7,1.7,0,0,0-.292-1,12.489,12.489,0,0,0-1.542-1.542,3.165,3.165,0,0,1-1.208-2.375,2.574,2.574,0,0,1,.792-1.958,2.9,2.9,0,0,1,2.083-.75,2.981,2.981,0,0,1,2.354,1.021,3.926,3.926,0,0,1,.9,2.688,19.093,19.093,0,0,1-.833,5.167,24.541,24.541,0,0,1-2.167,5.292Q368.917.625,363.375.625a6.407,6.407,0,0,1-4.1-1.271,6.234,6.234,0,0,1-2.146-3.646,14.233,14.233,0,0,1-3.937,3.75A8.653,8.653,0,0,1,348.708.625a5.367,5.367,0,0,1-3.729-1.187,4.345,4.345,0,0,1-1.312-3.4A17.634,17.634,0,0,1,344.5-8.25l1.5-5.042a15.833,15.833,0,0,0,.667-2.792,1.049,1.049,0,0,0-.5-1.042,5.526,5.526,0,0,0-2.083-.25h-.417l.292-1.958,10.583-.583-3.75,12.542a13.571,13.571,0,0,0-.583,2.875,1.481,1.481,0,0,0,.458,1.083,1.436,1.436,0,0,0,1.042.458q2.333,0,4.292-3.083a20.229,20.229,0,0,0,1.292-2.667,31.363,31.363,0,0,0,1.167-3.208l2.208-7.417Zm25.917-11.333L388.542-15.25q3.792-4.708,7.833-4.708a4.759,4.759,0,0,1,3.354,1.208,4.006,4.006,0,0,1,1.313,3.083,17.5,17.5,0,0,1-1.25,5.333L397.833-5a6.671,6.671,0,0,0-.458,1.583.671.671,0,0,0,.188.458.536.536,0,0,0,.4.208,2.434,2.434,0,0,0,1.479-.917A30.381,30.381,0,0,0,402-6.917a4.78,4.78,0,0,0,.375-.458L404-6.333a22.1,22.1,0,0,1-4.458,5.354,6.9,6.9,0,0,1-4.333,1.6A4.5,4.5,0,0,1,392.1-.4a3.523,3.523,0,0,1-1.146-2.771,11.571,11.571,0,0,1,.875-3.625l2.542-7.042a4.79,4.79,0,0,0,.375-1.5,1.05,1.05,0,0,0-.375-.771,1.187,1.187,0,0,0-.833-.354q-1.5,0-3.917,2.917a23.8,23.8,0,0,0-4.042,8.25L384,0h-6.542l7.125-24.083a11.854,11.854,0,0,0,.667-2.75,1.037,1.037,0,0,0-.521-1.042,5.543,5.543,0,0,0-2.062-.25h-1l.292-1.958ZM422.458-5.25l1.458,1.458a12.21,12.21,0,0,1-9.5,4.375q-4.125,0-6.312-1.979a7.331,7.331,0,0,1-2.187-5.729,12.156,12.156,0,0,1,3.958-8.979,12.794,12.794,0,0,1,9.208-3.854,8.016,8.016,0,0,1,4.875,1.438,4.32,4.32,0,0,1,1.958,3.6q0,4.333-7.083,6.375a25.69,25.69,0,0,1-6.208,1q-.083,1.083-.083,1.833A3.946,3.946,0,0,0,413.5-2.9a3.426,3.426,0,0,0,2.625,1.021,6.4,6.4,0,0,0,3.042-.75A14.766,14.766,0,0,0,422.458-5.25ZM413-9.5a14.279,14.279,0,0,0,2.917-.667,8.19,8.19,0,0,0,3.521-2.479,5.328,5.328,0,0,0,1.4-3.4,1.99,1.99,0,0,0-.5-1.437A1.763,1.763,0,0,0,419-18q-1.958,0-3.625,2.354A15.463,15.463,0,0,0,413-9.5Zm26.5-10.417-1.333,5.5a18.907,18.907,0,0,1,4.292-4.271,7.657,7.657,0,0,1,4.25-1.271,4.835,4.835,0,0,1,3.375,1.208,3.976,3.976,0,0,1,1.333,3.083,16.375,16.375,0,0,1-1.292,5.333L448.167-5a7.2,7.2,0,0,0-.417,1.583.671.671,0,0,0,.188.458.536.536,0,0,0,.4.208,2.492,2.492,0,0,0,1.5-.938,29.09,29.09,0,0,0,2.542-3.229l.375-.458,1.625,1.042A22.776,22.776,0,0,1,449.917-1,6.847,6.847,0,0,1,445.583.625a4.5,4.5,0,0,1-3.1-1.021,3.523,3.523,0,0,1-1.146-2.771,12.058,12.058,0,0,1,.833-3.625l2.583-7.042a4.79,4.79,0,0,0,.375-1.5.97.97,0,0,0-.4-.75,1.3,1.3,0,0,0-.854-.333q-1.542,0-3.958,2.875a23.314,23.314,0,0,0-4.042,8.25L434.292,0H427.75l3.958-13.292a13.793,13.793,0,0,0,.625-2.792,1.049,1.049,0,0,0-.5-1.042,5.362,5.362,0,0,0-2.042-.25h-1l.292-1.958ZM483.708-7.625,485.25-6.5a28.55,28.55,0,0,1-2.833,3.833q-3.042,3.25-6.25,3.25a4.127,4.127,0,0,1-2.812-1,3.139,3.139,0,0,1-1.146-2.458,11.767,11.767,0,0,1,.583-3.208q.25-.708.458-1.542l2.708-9.167h-3.625l.75-2.542h3.625l2.333-7.75h6.542l-2.292,7.75h4.75l-.75,2.542h-4.75l-2.917,9.833A24.346,24.346,0,0,0,478.75-3.5a.8.8,0,0,0,.188.521.553.553,0,0,0,.438.229q.625,0,1.9-1.417A20.1,20.1,0,0,0,483.708-7.625Zm18.833-23.042L497.958-15.25q3.792-4.708,7.833-4.708a4.759,4.759,0,0,1,3.354,1.208,4.006,4.006,0,0,1,1.313,3.083,17.5,17.5,0,0,1-1.25,5.333L507.25-5a6.671,6.671,0,0,0-.458,1.583.671.671,0,0,0,.188.458.536.536,0,0,0,.4.208,2.434,2.434,0,0,0,1.479-.917,30.381,30.381,0,0,0,2.563-3.25,4.78,4.78,0,0,0,.375-.458l1.625,1.042a22.1,22.1,0,0,1-4.458,5.354,6.9,6.9,0,0,1-4.333,1.6,4.5,4.5,0,0,1-3.1-1.021,3.523,3.523,0,0,1-1.146-2.771,11.571,11.571,0,0,1,.875-3.625l2.542-7.042a4.79,4.79,0,0,0,.375-1.5,1.05,1.05,0,0,0-.375-.771,1.187,1.187,0,0,0-.833-.354q-1.5,0-3.917,2.917A23.8,23.8,0,0,0,495-5.292L493.417,0h-6.542L494-24.083a11.854,11.854,0,0,0,.667-2.75,1.037,1.037,0,0,0-.521-1.042,5.543,5.543,0,0,0-2.062-.25h-1l.292-1.958ZM531.875-5.25l1.458,1.458a12.21,12.21,0,0,1-9.5,4.375q-4.125,0-6.312-1.979a7.331,7.331,0,0,1-2.187-5.729,12.156,12.156,0,0,1,3.958-8.979,12.794,12.794,0,0,1,9.208-3.854,8.016,8.016,0,0,1,4.875,1.438,4.32,4.32,0,0,1,1.958,3.6q0,4.333-7.083,6.375a25.689,25.689,0,0,1-6.208,1q-.083,1.083-.083,1.833a3.946,3.946,0,0,0,.958,2.813,3.426,3.426,0,0,0,2.625,1.021,6.4,6.4,0,0,0,3.042-.75A14.767,14.767,0,0,0,531.875-5.25ZM522.417-9.5a14.279,14.279,0,0,0,2.917-.667,8.189,8.189,0,0,0,3.521-2.479,5.328,5.328,0,0,0,1.4-3.4,1.99,1.99,0,0,0-.5-1.437A1.762,1.762,0,0,0,528.417-18q-1.958,0-3.625,2.354A15.462,15.462,0,0,0,522.417-9.5Zm26.5-10.417-1.292,5.292a15.62,15.62,0,0,1,3.6-4.125A6.325,6.325,0,0,1,555-19.958a3.936,3.936,0,0,1,2.813,1,3.489,3.489,0,0,1,1.063,2.667,3.551,3.551,0,0,1-.9,2.458,2.871,2.871,0,0,1-2.229,1,3.018,3.018,0,0,1-1.792-.563,2.423,2.423,0,0,1-1-1.479,5.478,5.478,0,0,1-.125-1.292q0-.542-.417-.542-.583,0-1.667,1.083a16.216,16.216,0,0,0-2.979,4.146,29.584,29.584,0,0,0-2.312,5.688L543.708,0h-6.542l3.958-13.292a12.382,12.382,0,0,0,.625-2.792,1.049,1.049,0,0,0-.5-1.042,5.361,5.361,0,0,0-2.042-.25h-1l.292-1.958ZM574.875-5.25l1.458,1.458a12.21,12.21,0,0,1-9.5,4.375q-4.125,0-6.312-1.979a7.331,7.331,0,0,1-2.187-5.729,12.156,12.156,0,0,1,3.958-8.979,12.794,12.794,0,0,1,9.208-3.854,8.016,8.016,0,0,1,4.875,1.438,4.32,4.32,0,0,1,1.958,3.6q0,4.333-7.083,6.375a25.689,25.689,0,0,1-6.208,1q-.083,1.083-.083,1.833a3.946,3.946,0,0,0,.958,2.813,3.426,3.426,0,0,0,2.625,1.021,6.4,6.4,0,0,0,3.042-.75A14.767,14.767,0,0,0,574.875-5.25ZM565.417-9.5a14.279,14.279,0,0,0,2.917-.667,8.189,8.189,0,0,0,3.521-2.479,5.328,5.328,0,0,0,1.4-3.4,1.99,1.99,0,0,0-.5-1.437A1.762,1.762,0,0,0,571.417-18q-1.958,0-3.625,2.354A15.462,15.462,0,0,0,565.417-9.5ZM12.583,30.083,8.208,44.917a9.431,9.431,0,0,0-.417,1.75.589.589,0,0,0,.667.667q1.25,0,4.208-4.708l1.625,1.167A18.842,18.842,0,0,1,10.1,49a7.035,7.035,0,0,1-4.438,1.625,4.577,4.577,0,0,1-3.1-1.062,3.4,3.4,0,0,1-1.229-2.687,12.521,12.521,0,0,1,.625-3.083l2.125-7.083a12.383,12.383,0,0,0,.625-2.792,1.049,1.049,0,0,0-.5-1.042,5.362,5.362,0,0,0-2.042-.25h-1l.292-1.958Zm-4.75-9.75a3.521,3.521,0,0,1,5,0,3.521,3.521,0,0,1,0,5,3.458,3.458,0,0,1-2.542,1.042,3.33,3.33,0,0,1-2.458-1.062,3.5,3.5,0,0,1,0-4.979Zm19.125,9.708a9.939,9.939,0,0,1,5.375,1.313,3.876,3.876,0,0,1,2.083,3.354,2.888,2.888,0,0,1-.792,2.1,2.777,2.777,0,0,1-2.083.813,2.972,2.972,0,0,1-2.062-.729,2.337,2.337,0,0,1-.812-1.812,2.914,2.914,0,0,1,.75-1.708.84.84,0,0,0,.25-.5q0-.333-.708-.6A4.529,4.529,0,0,0,27.333,32a4.646,4.646,0,0,0-2.667.708,2.137,2.137,0,0,0-1.042,1.833A1.894,1.894,0,0,0,24.333,36a10.23,10.23,0,0,0,2.542,1.417A20.72,20.72,0,0,1,30,39a5.513,5.513,0,0,1,2.833,4.792,5.885,5.885,0,0,1-2.521,4.958,10.792,10.792,0,0,1-6.6,1.875,9.711,9.711,0,0,1-5.354-1.333,4.021,4.021,0,0,1-2.062-3.5,2.972,2.972,0,0,1,.813-2.167,2.809,2.809,0,0,1,2.1-.833,3.075,3.075,0,0,1,2.1.75,2.437,2.437,0,0,1,.854,1.917,2.561,2.561,0,0,1-1.083,1.917.575.575,0,0,0-.208.375q0,.458.75.771a4.9,4.9,0,0,0,1.875.313,4.716,4.716,0,0,0,2.833-.812,2.453,2.453,0,0,0,1.125-2.062q0-1.583-2.417-2.542a31.326,31.326,0,0,1-3.5-1.667,5.623,5.623,0,0,1-3-5.083,5.834,5.834,0,0,1,2.271-4.833A9.659,9.659,0,0,1,26.958,30.042Zm35.083,0a9.939,9.939,0,0,1,5.375,1.313A3.876,3.876,0,0,1,69.5,34.708a2.888,2.888,0,0,1-.792,2.1,2.777,2.777,0,0,1-2.083.813,2.972,2.972,0,0,1-2.062-.729,2.337,2.337,0,0,1-.812-1.812,2.914,2.914,0,0,1,.75-1.708.84.84,0,0,0,.25-.5q0-.333-.708-.6A4.529,4.529,0,0,0,62.417,32a4.646,4.646,0,0,0-2.667.708,2.137,2.137,0,0,0-1.042,1.833A1.894,1.894,0,0,0,59.417,36a10.229,10.229,0,0,0,2.542,1.417A20.72,20.72,0,0,1,65.083,39a5.513,5.513,0,0,1,2.833,4.792A5.885,5.885,0,0,1,65.4,48.75a10.792,10.792,0,0,1-6.6,1.875,9.711,9.711,0,0,1-5.354-1.333,4.021,4.021,0,0,1-2.062-3.5,2.972,2.972,0,0,1,.813-2.167,2.809,2.809,0,0,1,2.1-.833,3.075,3.075,0,0,1,2.1.75,2.437,2.437,0,0,1,.854,1.917,2.561,2.561,0,0,1-1.083,1.917.575.575,0,0,0-.208.375q0,.458.75.771a4.9,4.9,0,0,0,1.875.313,4.716,4.716,0,0,0,2.833-.812,2.453,2.453,0,0,0,1.125-2.062q0-1.583-2.417-2.542a31.326,31.326,0,0,1-3.5-1.667,5.623,5.623,0,0,1-3-5.083A5.834,5.834,0,0,1,55.9,31.833,9.659,9.659,0,0,1,62.042,30.042Zm22.792,0a9.783,9.783,0,0,1,6.667,2.25,7.26,7.26,0,0,1,2.333,5.833A11.66,11.66,0,0,1,90,47a13.381,13.381,0,0,1-9.5,3.583,8.74,8.74,0,0,1-6.25-2.125,7.059,7.059,0,0,1-1.833-2.729,9.5,9.5,0,0,1-.667-3.521,11.283,11.283,0,0,1,3.9-8.562A13.083,13.083,0,0,1,84.833,30.042ZM84.667,32Q82,32,80.083,36.583a27.145,27.145,0,0,0-1.333,4.5,21.6,21.6,0,0,0-.542,4.417,3.738,3.738,0,0,0,.708,2.417,2.381,2.381,0,0,0,1.958.875q2.708,0,4.417-4.375a31.333,31.333,0,0,0,1.479-4.854,20.728,20.728,0,0,0,.6-4.312,3.546,3.546,0,0,0-.75-2.354A2.432,2.432,0,0,0,84.667,32Zm22.625-1.917-1.208,5.083q3.917-5.125,7.833-5.125a4.819,4.819,0,0,1,3.917,1.833,4.235,4.235,0,0,1,.75,2.542v.25q3.833-4.625,7.375-4.625a4.582,4.582,0,0,1,3.292,1.188,4.137,4.137,0,0,1,1.25,3.146,13.606,13.606,0,0,1-.917,4.417l-2.5,6.958a3.319,3.319,0,0,0-.208.958q0,.542.708.542a2.035,2.035,0,0,0,1.333-.792q.75-.792,2.833-3.542l.25-.292,1.583,1.125q-4.417,6.833-8.792,6.833a4.181,4.181,0,0,1-2.854-1.042,3.215,3.215,0,0,1-1.187-2.5,15.465,15.465,0,0,1,1.042-4.167l2.042-5.833a7.915,7.915,0,0,0,.542-2.458q0-1-1.083-1-1.5,0-3.5,2.417-2.208,2.667-4.167,9.375L114.25,50h-6.583l2.917-9.792a27.365,27.365,0,0,0,1.292-5.625,1.178,1.178,0,0,0-.229-.75.692.692,0,0,0-.562-.292q-1.292,0-3.5,2.875a25.1,25.1,0,0,0-3.75,7.792L102.125,50h-6.5l3.958-13.292a14.638,14.638,0,0,0,.625-2.792,1.049,1.049,0,0,0-.5-1.042,5.362,5.362,0,0,0-2.042-.25h-1l.292-1.958Zm43.75,14.667,1.458,1.458a12.21,12.21,0,0,1-9.5,4.375q-4.125,0-6.312-1.979a7.331,7.331,0,0,1-2.187-5.729,12.156,12.156,0,0,1,3.958-8.979,12.794,12.794,0,0,1,9.208-3.854,8.016,8.016,0,0,1,4.875,1.438,4.32,4.32,0,0,1,1.958,3.6q0,4.333-7.083,6.375a25.69,25.69,0,0,1-6.208,1q-.083,1.083-.083,1.833a3.946,3.946,0,0,0,.958,2.813,3.426,3.426,0,0,0,2.625,1.021,6.4,6.4,0,0,0,3.042-.75A14.766,14.766,0,0,0,151.042,44.75Zm-9.458-4.25a14.279,14.279,0,0,0,2.917-.667,8.189,8.189,0,0,0,3.521-2.479,5.328,5.328,0,0,0,1.4-3.4,1.99,1.99,0,0,0-.5-1.437A1.762,1.762,0,0,0,147.583,32q-1.958,0-3.625,2.354A15.462,15.462,0,0,0,141.583,40.5Zm26.375,1.875L169.5,43.5a28.549,28.549,0,0,1-2.833,3.833q-3.042,3.25-6.25,3.25a4.127,4.127,0,0,1-2.812-1,3.139,3.139,0,0,1-1.146-2.458,11.767,11.767,0,0,1,.583-3.208q.25-.708.458-1.542l2.708-9.167h-3.625l.75-2.542h3.625l2.333-7.75h6.542l-2.292,7.75h4.75l-.75,2.542h-4.75l-2.917,9.833A24.348,24.348,0,0,0,163,46.5a.8.8,0,0,0,.188.521.553.553,0,0,0,.438.229q.625,0,1.9-1.417A20.1,20.1,0,0,0,167.958,42.375Zm18.833-23.042L182.208,34.75q3.792-4.708,7.833-4.708A4.759,4.759,0,0,1,193.4,31.25a4.006,4.006,0,0,1,1.313,3.083,17.5,17.5,0,0,1-1.25,5.333L191.5,45a6.671,6.671,0,0,0-.458,1.583.671.671,0,0,0,.188.458.536.536,0,0,0,.4.208,2.434,2.434,0,0,0,1.479-.917,30.383,30.383,0,0,0,2.563-3.25,4.785,4.785,0,0,0,.375-.458l1.625,1.042a22.1,22.1,0,0,1-4.458,5.354,6.9,6.9,0,0,1-4.333,1.6,4.5,4.5,0,0,1-3.1-1.021,3.523,3.523,0,0,1-1.146-2.771,11.572,11.572,0,0,1,.875-3.625l2.542-7.042a4.79,4.79,0,0,0,.375-1.5,1.05,1.05,0,0,0-.375-.771,1.187,1.187,0,0,0-.833-.354q-1.5,0-3.917,2.917a23.8,23.8,0,0,0-4.042,8.25L177.667,50h-6.542l7.125-24.083a11.854,11.854,0,0,0,.667-2.75,1.037,1.037,0,0,0-.521-1.042,5.543,5.543,0,0,0-2.062-.25h-1l.292-1.958Zm25.458,10.75-4.375,14.833a9.431,9.431,0,0,0-.417,1.75.589.589,0,0,0,.667.667q1.25,0,4.208-4.708l1.625,1.167A18.842,18.842,0,0,1,209.771,49a7.035,7.035,0,0,1-4.437,1.625,4.577,4.577,0,0,1-3.1-1.062A3.4,3.4,0,0,1,201,46.875a12.521,12.521,0,0,1,.625-3.083l2.125-7.083a12.382,12.382,0,0,0,.625-2.792,1.049,1.049,0,0,0-.5-1.042,5.362,5.362,0,0,0-2.042-.25h-1l.292-1.958Zm-4.75-9.75a3.536,3.536,0,1,1,5,5,3.458,3.458,0,0,1-2.542,1.042,3.33,3.33,0,0,1-2.458-1.062,3.5,3.5,0,0,1,0-4.979Zm20.25,9.75-1.333,5.5a18.907,18.907,0,0,1,4.292-4.271,7.657,7.657,0,0,1,4.25-1.271,4.835,4.835,0,0,1,3.375,1.208,3.976,3.976,0,0,1,1.333,3.083,16.375,16.375,0,0,1-1.292,5.333L236.417,45A7.2,7.2,0,0,0,236,46.583a.671.671,0,0,0,.188.458.536.536,0,0,0,.4.208,2.492,2.492,0,0,0,1.5-.937,29.088,29.088,0,0,0,2.542-3.229l.375-.458,1.625,1.042A22.777,22.777,0,0,1,238.167,49a6.847,6.847,0,0,1-4.333,1.625,4.5,4.5,0,0,1-3.1-1.021,3.523,3.523,0,0,1-1.146-2.771,12.057,12.057,0,0,1,.833-3.625L233,36.167a4.79,4.79,0,0,0,.375-1.5.97.97,0,0,0-.4-.75,1.3,1.3,0,0,0-.854-.333q-1.542,0-3.958,2.875a23.313,23.313,0,0,0-4.042,8.25L222.542,50H216l3.958-13.292a13.791,13.791,0,0,0,.625-2.792,1.049,1.049,0,0,0-.5-1.042,5.362,5.362,0,0,0-2.042-.25h-1l.292-1.958Zm33.292.625q2.917-2.917,5.458-2.917a3.064,3.064,0,0,1,2.167.771,2.624,2.624,0,0,1,.833,2.021,2.473,2.473,0,0,1-.625,1.729,2.047,2.047,0,0,1-1.583.688q-1.417,0-2.083-1.792-.292-.708-.708-.708-.667,0-1.417,1a5.976,5.976,0,0,1,3.292,5.417A5.634,5.634,0,0,1,263.9,41.6a10.183,10.183,0,0,1-6.271,1.854,35.562,35.562,0,0,1-4.875-.417,11.259,11.259,0,0,0-1.417-.125,2.462,2.462,0,0,0-1.4.375,1.087,1.087,0,0,0-.562.917q0,1.25,2.042,1.417,5.792.583,7.417.917a6.171,6.171,0,0,1,3.313,1.708,4.707,4.707,0,0,1,1.021,3.208,5.7,5.7,0,0,1-2.979,5.167q-2.979,1.792-8.6,1.792a17.8,17.8,0,0,1-7.312-1.208q-2.6-1.208-2.6-3.417,0-3.083,5.25-4.042a5.674,5.674,0,0,1-1.958-1.5,3.048,3.048,0,0,1-.542-1.833q0-3.417,5-5a5.176,5.176,0,0,1-2.125-4.083,6.344,6.344,0,0,1,2.646-5.25,10.833,10.833,0,0,1,6.813-2.042A13.488,13.488,0,0,1,261.042,30.708ZM257.625,32a3.111,3.111,0,0,0-2.75,1.792,9.427,9.427,0,0,0-1.208,4.667,3.138,3.138,0,0,0,.729,2.208,2.559,2.559,0,0,0,1.979.792,2.994,2.994,0,0,0,2.75-2,9.943,9.943,0,0,0,1.083-4.5,3.109,3.109,0,0,0-.729-2.125A2.355,2.355,0,0,0,257.625,32Zm-7.333,19.125q-3.5,0-3.5,2.417,0,2.917,5,2.917,6.333,0,6.333-2.917,0-1.417-1.833-1.875A25.944,25.944,0,0,0,250.292,51.125Zm46.5-21.042-1.333,5.5a18.907,18.907,0,0,1,4.292-4.271A7.657,7.657,0,0,1,304,30.042a4.835,4.835,0,0,1,3.375,1.208,3.976,3.976,0,0,1,1.333,3.083,16.375,16.375,0,0,1-1.292,5.333L305.458,45a7.2,7.2,0,0,0-.417,1.583.671.671,0,0,0,.188.458.536.536,0,0,0,.4.208,2.492,2.492,0,0,0,1.5-.937,29.09,29.09,0,0,0,2.542-3.229l.375-.458,1.625,1.042A22.776,22.776,0,0,1,307.208,49a6.847,6.847,0,0,1-4.333,1.625,4.5,4.5,0,0,1-3.1-1.021,3.523,3.523,0,0,1-1.146-2.771,12.058,12.058,0,0,1,.833-3.625l2.583-7.042a4.79,4.79,0,0,0,.375-1.5.97.97,0,0,0-.4-.75,1.3,1.3,0,0,0-.854-.333q-1.542,0-3.958,2.875a23.314,23.314,0,0,0-4.042,8.25L291.583,50h-6.542L289,36.708a13.793,13.793,0,0,0,.625-2.792,1.049,1.049,0,0,0-.5-1.042,5.362,5.362,0,0,0-2.042-.25h-1l.292-1.958ZM329.917,44.75l1.458,1.458a12.21,12.21,0,0,1-9.5,4.375q-4.125,0-6.312-1.979a7.331,7.331,0,0,1-2.187-5.729,12.156,12.156,0,0,1,3.958-8.979,12.794,12.794,0,0,1,9.208-3.854,8.016,8.016,0,0,1,4.875,1.438,4.32,4.32,0,0,1,1.958,3.6q0,4.333-7.083,6.375a25.69,25.69,0,0,1-6.208,1Q320,43.542,320,44.292a3.946,3.946,0,0,0,.958,2.813,3.426,3.426,0,0,0,2.625,1.021,6.4,6.4,0,0,0,3.042-.75A14.766,14.766,0,0,0,329.917,44.75Zm-9.458-4.25a14.279,14.279,0,0,0,2.917-.667,8.19,8.19,0,0,0,3.521-2.479,5.328,5.328,0,0,0,1.4-3.4,1.99,1.99,0,0,0-.5-1.437A1.763,1.763,0,0,0,326.458,32q-1.958,0-3.625,2.354A15.463,15.463,0,0,0,320.458,40.5Zm38.5-9.833-2.875,9.75a30.238,30.238,0,0,0-1,4.875,2.338,2.338,0,0,0,.688,1.646,2.1,2.1,0,0,0,1.563.729,3.884,3.884,0,0,0,2.229-.854,8.883,8.883,0,0,0,2.146-2.271,12.7,12.7,0,0,0,2.542-6.875,1.7,1.7,0,0,0-.292-1,12.49,12.49,0,0,0-1.542-1.542,3.165,3.165,0,0,1-1.208-2.375A2.574,2.574,0,0,1,362,30.792a2.9,2.9,0,0,1,2.083-.75,2.981,2.981,0,0,1,2.354,1.021,3.926,3.926,0,0,1,.9,2.688,19.093,19.093,0,0,1-.833,5.167,24.541,24.541,0,0,1-2.167,5.292q-3.667,6.417-9.208,6.417a6.407,6.407,0,0,1-4.1-1.271,6.235,6.235,0,0,1-2.146-3.646,14.233,14.233,0,0,1-3.937,3.75,8.653,8.653,0,0,1-4.479,1.167,5.367,5.367,0,0,1-3.729-1.187,4.345,4.345,0,0,1-1.312-3.4,17.634,17.634,0,0,1,.833-4.292l1.5-5.042a15.833,15.833,0,0,0,.667-2.792,1.049,1.049,0,0,0-.5-1.042,5.526,5.526,0,0,0-2.083-.25h-.417l.292-1.958,10.583-.583-3.75,12.542a13.571,13.571,0,0,0-.583,2.875,1.481,1.481,0,0,0,.458,1.083,1.436,1.436,0,0,0,1.042.458q2.333,0,4.292-3.083a20.229,20.229,0,0,0,1.292-2.667,31.363,31.363,0,0,0,1.167-3.208l2.208-7.417Zm11.917,13.958,3.917-4.125q.5-.542.708-.542t.417.542l1.708,4.125a1.474,1.474,0,0,1-.458,1.583l-3.875,4.125q-.5.542-.729.542t-.437-.542l-1.667-4.125a1.309,1.309,0,0,1-.125-.812A1.957,1.957,0,0,1,370.875,44.625Zm6.917-8.125,4.917-10.083a14.824,14.824,0,0,0,1.042-2.75q1.167-4.375-2.667-4.375-3.958,0-5.083,4.292a11.579,11.579,0,0,0-.458,2.833l-.5,10.083a2.055,2.055,0,0,0,.25,1q.417.667.708.667t1.042-.667A3.917,3.917,0,0,0,377.792,36.5Z" transform="translate(-4340 10298)" fill="#3f3d56"/>
    </g>
</svg>
