<svg xmlns="http://www.w3.org/2000/svg" width="801.952" height="537" viewBox="0 0 801.952 537">
  <g id="undraw_reviews_lp8w" transform="translate(0)">
    <path id="Path_1855" data-name="Path 1855" d="M857.273,503a10.524,10.524,0,0,1,1.621-.347l21.9-44.5-6.686-10.023,13.807-12.067,17.357,21.24-35.351,51.448A10.5,10.5,0,1,1,857.273,503Z" transform="translate(-199.024 -181.5)" fill="#efa9b3"/>
    <path id="Path_1856" data-name="Path 1856" d="M894.656,442.218a4.512,4.512,0,0,1-1.016.8l-22.406,12.989a4.5,4.5,0,0,1-6.324-1.968l-10.9-23.023a4.476,4.476,0,0,1,1.537-5.645l13.889-9.448a4.5,4.5,0,0,1,5.718.544l19.413,19.481a4.5,4.5,0,0,1,.086,6.269Z" transform="translate(-199.024 -181.5)" fill="#e7eaf0"/>
    <path id="Path_1857" data-name="Path 1857" d="M727.092,515.689l-11.83,3.219-18.045-44.1,17.46-4.751Z" fill="#efa9b3"/>
    <path id="Path_1858" data-name="Path 1858" d="M906.717,697.917h23.644V712.8H891.83A14.887,14.887,0,0,1,906.717,697.917Z" transform="translate(-352.247 82.439) rotate(-15.221)" fill="#2f2e41"/>
    <path id="Path_1859" data-name="Path 1859" d="M625.961,524.716H613.7l-5.833-47.288h18.094Z" fill="#efa9b3"/>
    <path id="Path_1860" data-name="Path 1860" d="M604.944,521.212h23.644V536.1H590.057A14.887,14.887,0,0,1,604.944,521.212Z" fill="#2f2e41"/>
    <circle id="Ellipse_3" data-name="Ellipse 3" cx="24.561" cy="24.561" r="24.561" transform="translate(614.317 169.604)" fill="#efa9b3"/>
    <path id="Path_1861" data-name="Path 1861" d="M824.234,672.5H807.481a4.513,4.513,0,0,1-4.5-4.223c-4.992-79.361-2.072-136.289,9.19-179.153a4.663,4.663,0,0,1,.182-.552l.9-2.243a4.479,4.479,0,0,1,4.179-2.829h34.452a4.493,4.493,0,0,1,3.417,1.571l4.679,5.46c.091.106.177.215.259.329,21.1,29.426,40.011,86.954,61.912,164.278a4.485,4.485,0,0,1-2.959,5.517l-18,5.762a4.524,4.524,0,0,1-5.425-2.332l-46.723-96.907a3.5,3.5,0,0,0-6.62,1.046L828.693,668.61A4.517,4.517,0,0,1,824.234,672.5Z" transform="translate(-199.024 -181.5)" fill="#2f2e41"/>
    <path id="Path_1862" data-name="Path 1862" d="M858.092,490.931l-.141,0L816.1,489.608a4.485,4.485,0,0,1-4.329-3.954c-5.3-42.941,9.244-54.445,15.746-57.4a3.46,3.46,0,0,0,2.012-2.743l.562-4.5a4.484,4.484,0,0,1,.889-2.186c10.194-13.205,24.113-17.434,31.5-18.778a4.493,4.493,0,0,1,5.251,3.85l.843,6.463a3.56,3.56,0,0,0,.713,1.691c21.259,27.792-2.424,68.827-7.388,76.771h0A4.508,4.508,0,0,1,858.092,490.931Z" transform="translate(-199.024 -181.5)" fill="#e7eaf0"/>
    <path id="Path_1863" data-name="Path 1863" d="M887.455,378.43a97.754,97.754,0,0,0-19.5-20.42c-6.2-4.841-13.1-8.978-20.71-10.956s-16.019-1.642-22.963,2.049-14.125,11.025-14.169,18.889c-.014,2.527.629,5.945,3.117,5.508l.72.1,18.007-3.637,7.669,26.616c.539,1.87,1.262,3.961,3.037,4.758,1.672.751,3.6.043,5.3-.663.278-.116,2.668-5.482,2.668-5.482a1,1,0,0,1,1.723-.288l1.42,1.775a2,2,0,0,0,2.332.6l29.366-12.259c1.353-.565,2.865-1.3,3.257-2.715C889.095,380.944,888.267,379.576,887.455,378.43Z" transform="translate(-199.024 -181.5)" fill="#2f2e41"/>
    <path id="Path_1864" data-name="Path 1864" d="M999.976,718.5h-301a1,1,0,0,1,0-2h301a1,1,0,1,1,0,2Z" transform="translate(-199.024 -181.5)" fill="#3f3d56"/>
    <path id="Path_1865" data-name="Path 1865" d="M836.793,562.664a3.2,3.2,0,0,1-1.889-.626l-4.552-3.307a2.206,2.206,0,0,0-2.6,0l-4.552,3.307a3.213,3.213,0,0,1-4.945-3.592l1.739-5.351a2.207,2.207,0,0,0-.8-2.475l-4.552-3.308a3.213,3.213,0,0,1,1.889-5.813h5.627a2.208,2.208,0,0,0,2.105-1.529l1.738-5.351a3.213,3.213,0,0,1,6.112,0l1.739,5.351a2.208,2.208,0,0,0,2.1,1.529h5.626a3.213,3.213,0,0,1,1.889,5.813l-4.552,3.307a2.208,2.208,0,0,0-.8,2.475l1.739,5.351a3.165,3.165,0,0,1-1.168,3.592,3.2,3.2,0,0,1-1.889.625Z" transform="translate(-199.024 -181.5)" fill="#ff0080"/>
    <path id="Path_1866" data-name="Path 1866" d="M854.189,551.966a10.743,10.743,0,0,0,1.406-16.412l7.773-93.871-23.144,3.184-.44,91.2a10.8,10.8,0,0,0,14.4,15.9Z" transform="translate(-199.024 -181.5)" fill="#efa9b3"/>
    <path id="Path_1867" data-name="Path 1867" d="M864.881,455.2a4.512,4.512,0,0,1-1.28-.185l-24.846-7.308a4.5,4.5,0,0,1-2.927-5.941l9.195-23.754a4.476,4.476,0,0,1,5.153-2.772l16.415,3.568a4.5,4.5,0,0,1,3.542,4.521l-.764,27.492a4.5,4.5,0,0,1-4.487,4.378Z" transform="translate(-199.024 -181.5)" fill="#e7eaf0"/>
    <path id="Path_1868" data-name="Path 1868" d="M631.024,572.5h-425a7.008,7.008,0,0,1-7-7v-127a7.008,7.008,0,0,1,7-7h425a7.008,7.008,0,0,1,7,7v127a7.008,7.008,0,0,1-7,7Zm-425-139a5.006,5.006,0,0,0-5,5v127a5.006,5.006,0,0,0,5,5h425a5.006,5.006,0,0,0,5-5v-127a5.006,5.006,0,0,0-5-5Z" transform="translate(-199.024 -181.5)" fill="#3f3d56"/>
    <path id="Path_1869" data-name="Path 1869" d="M392,625.975a3.924,3.924,0,0,1-2.314-.766l-5.576-4.051a2.7,2.7,0,0,0-3.187,0l-5.576,4.051a3.937,3.937,0,0,1-6.058-4.4l2.13-6.555a2.705,2.705,0,0,0-.985-3.032l-5.576-4.051a3.936,3.936,0,0,1,2.314-7.121h6.893a2.7,2.7,0,0,0,2.579-1.873l2.13-6.555a3.937,3.937,0,0,1,7.488,0l2.13,6.555a2.7,2.7,0,0,0,2.579,1.874h6.893a3.937,3.937,0,0,1,2.314,7.121l-5.576,4.051a2.705,2.705,0,0,0-.985,3.032l2.13,6.555a3.878,3.878,0,0,1-1.43,4.4,3.924,3.924,0,0,1-2.314.766Z" transform="translate(-199.024 -181.5)" fill="#ff0080"/>
    <path id="Path_1870" data-name="Path 1870" d="M448.507,625.975a3.924,3.924,0,0,1-2.314-.766l-5.576-4.051a2.7,2.7,0,0,0-3.187,0l-5.576,4.051a3.937,3.937,0,0,1-6.058-4.4l2.13-6.555a2.705,2.705,0,0,0-.985-3.032l-5.576-4.051a3.937,3.937,0,0,1,2.314-7.121h6.893a2.7,2.7,0,0,0,2.579-1.873l2.13-6.555a3.936,3.936,0,0,1,7.488,0l2.13,6.555a2.705,2.705,0,0,0,2.579,1.873h6.893a3.937,3.937,0,0,1,2.314,7.121l-5.576,4.051a2.7,2.7,0,0,0-.985,3.032l2.13,6.555a3.877,3.877,0,0,1-1.43,4.4,3.924,3.924,0,0,1-2.314.766Z" transform="translate(-199.024 -181.5)" fill="#ff0080"/>
    <path id="Path_1871" data-name="Path 1871" d="M505.016,625.975a3.924,3.924,0,0,1-2.314-.766l-5.576-4.051a2.709,2.709,0,0,0-3.188,0l-5.576,4.051a3.936,3.936,0,0,1-6.058-4.4l2.13-6.555a2.705,2.705,0,0,0-.985-3.032l-5.576-4.051a3.937,3.937,0,0,1,2.314-7.121h6.893a2.7,2.7,0,0,0,2.579-1.873l2.13-6.555a3.936,3.936,0,0,1,7.488,0l2.13,6.555a2.7,2.7,0,0,0,2.579,1.874h6.893a3.937,3.937,0,0,1,2.314,7.121l-5.576,4.051a2.705,2.705,0,0,0-.985,3.032l2.13,6.555a3.878,3.878,0,0,1-1.43,4.4,3.925,3.925,0,0,1-2.314.766Z" transform="translate(-199.024 -181.5)" fill="#ff0080"/>
    <path id="Path_1872" data-name="Path 1872" d="M561.524,625.975a3.924,3.924,0,0,1-2.314-.766l-5.576-4.051a2.7,2.7,0,0,0-3.187,0l-5.576,4.052a3.937,3.937,0,0,1-6.058-4.4l2.13-6.555a2.7,2.7,0,0,0-.985-3.031l-5.576-4.052a3.937,3.937,0,0,1,2.314-7.121h6.893a2.705,2.705,0,0,0,2.579-1.873l2.13-6.555a3.936,3.936,0,0,1,7.488,0l2.13,6.555a2.7,2.7,0,0,0,2.579,1.873h6.893a3.937,3.937,0,0,1,2.314,7.121l-5.576,4.051a2.705,2.705,0,0,0-.985,3.032l2.13,6.555a3.877,3.877,0,0,1-1.43,4.4A3.924,3.924,0,0,1,561.524,625.975Z" transform="translate(-199.024 -181.5)" fill="#ff0080"/>
    <path id="Path_1873" data-name="Path 1873" d="M599.065,626.364a4.313,4.313,0,0,1-2.541-.841,4.261,4.261,0,0,1-1.571-4.835l2.13-6.555a2.318,2.318,0,0,0-.844-2.6l-5.577-4.052a4.324,4.324,0,0,1,2.542-7.822H600.1a2.318,2.318,0,0,0,2.21-1.606l2.13-6.555a4.324,4.324,0,0,1,8.225,0l2.13,6.555a2.318,2.318,0,0,0,2.21,1.606h6.893a4.324,4.324,0,0,1,2.542,7.822l-5.576,4.052a2.317,2.317,0,0,0-.844,2.6l2.13,6.555a4.324,4.324,0,0,1-6.654,4.834l-5.576-4.051a2.318,2.318,0,0,0-2.732,0l-5.576,4.051A4.31,4.31,0,0,1,599.065,626.364Zm9.484-7.339a4.315,4.315,0,0,1,2.541.828l5.577,4.052a2.324,2.324,0,0,0,3.576-2.6l-2.13-6.555a4.313,4.313,0,0,1,1.571-4.834l5.576-4.052a2.324,2.324,0,0,0-1.366-4.2H617a4.313,4.313,0,0,1-4.112-2.988l-2.13-6.555a2.324,2.324,0,0,0-4.421,0l-2.13,6.555a4.312,4.312,0,0,1-4.112,2.988H593.2a2.324,2.324,0,0,0-1.366,4.2l5.577,4.052a4.314,4.314,0,0,1,1.571,4.834l-2.13,6.555a2.324,2.324,0,0,0,3.576,2.6l5.577-4.051a4.317,4.317,0,0,1,2.542-.828Z" transform="translate(-199.024 -181.5)" fill="#3f3d56"/>
    <path id="Path_1874" data-name="Path 1874" d="M254.024,461.5a6.5,6.5,0,0,0,0,13h329a6.5,6.5,0,0,0,0-13Z" transform="translate(-199.024 -181.5)" fill="#ccc"/>
    <path id="Path_1875" data-name="Path 1875" d="M254.024,495.5a6.5,6.5,0,0,0,0,13h329a6.5,6.5,0,1,0,0-13Z" transform="translate(-199.024 -181.5)" fill="#ccc"/>
    <path id="Path_1876" data-name="Path 1876" d="M254.024,529.5a6.5,6.5,0,0,0,0,13h329a6.5,6.5,0,0,0,0-13Z" transform="translate(-199.024 -181.5)" fill="#ccc"/>
    <path id="Path_1877" data-name="Path 1877" d="M254.024,461.5a6.5,6.5,0,0,0,0,13h329a6.5,6.5,0,0,0,0-13Z" transform="translate(-199.024 -181.5)" fill="#e7eaf0"/>
    <path id="Path_1878" data-name="Path 1878" d="M254.024,495.5a6.5,6.5,0,0,0,0,13h329a6.5,6.5,0,1,0,0-13Z" transform="translate(-199.024 -181.5)" fill="#e7eaf0"/>
    <path id="Path_1879" data-name="Path 1879" d="M254.024,529.5a6.5,6.5,0,0,0,0,13h329a6.5,6.5,0,0,0,0-13Z" transform="translate(-199.024 -181.5)" fill="#e7eaf0"/>
    <path id="Path_1880" data-name="Path 1880" d="M631.024,322.5h-425a7.008,7.008,0,0,1-7-7v-127a7.008,7.008,0,0,1,7-7h425a7.008,7.008,0,0,1,7,7v127a7.008,7.008,0,0,1-7,7Zm-425-139a5.006,5.006,0,0,0-5,5v127a5.006,5.006,0,0,0,5,5h425a5.006,5.006,0,0,0,5-5v-127a5.006,5.006,0,0,0-5-5Z" transform="translate(-199.024 -181.5)" fill="#3f3d56"/>
    <path id="Path_1881" data-name="Path 1881" d="M392,375.975a3.925,3.925,0,0,1-2.314-.766l-5.576-4.051a2.7,2.7,0,0,0-3.187,0l-5.576,4.051a3.937,3.937,0,0,1-6.058-4.4l2.13-6.555a2.705,2.705,0,0,0-.985-3.032l-5.576-4.051a3.936,3.936,0,0,1,2.314-7.121h6.893a2.7,2.7,0,0,0,2.579-1.873l2.13-6.555a3.937,3.937,0,0,1,7.488,0l2.13,6.555a2.7,2.7,0,0,0,2.579,1.874h6.893a3.937,3.937,0,0,1,2.314,7.121l-5.576,4.051a2.705,2.705,0,0,0-.985,3.032l2.13,6.555a3.877,3.877,0,0,1-1.43,4.4,3.925,3.925,0,0,1-2.314.766Z" transform="translate(-199.024 -181.5)" fill="#ff0080"/>
    <path id="Path_1882" data-name="Path 1882" d="M448.507,375.975a3.925,3.925,0,0,1-2.314-.766l-5.576-4.051a2.7,2.7,0,0,0-3.187,0l-5.576,4.051a3.937,3.937,0,0,1-6.058-4.4l2.13-6.555a2.705,2.705,0,0,0-.985-3.032l-5.576-4.051a3.937,3.937,0,0,1,2.314-7.121h6.893a2.7,2.7,0,0,0,2.579-1.873l2.13-6.555a3.936,3.936,0,0,1,7.488,0l2.13,6.555a2.7,2.7,0,0,0,2.579,1.873h6.893a3.937,3.937,0,0,1,2.314,7.121l-5.576,4.051a2.7,2.7,0,0,0-.985,3.032l2.13,6.555a3.877,3.877,0,0,1-1.43,4.4,3.924,3.924,0,0,1-2.314.766Z" transform="translate(-199.024 -181.5)" fill="#ff0080"/>
    <path id="Path_1883" data-name="Path 1883" d="M505.016,375.975a3.924,3.924,0,0,1-2.314-.766l-5.576-4.051a2.708,2.708,0,0,0-3.188,0l-5.576,4.051a3.936,3.936,0,0,1-6.058-4.4l2.13-6.555a2.705,2.705,0,0,0-.985-3.032l-5.576-4.051a3.937,3.937,0,0,1,2.314-7.121h6.893a2.7,2.7,0,0,0,2.579-1.873l2.13-6.555a3.936,3.936,0,0,1,7.488,0l2.13,6.555a2.7,2.7,0,0,0,2.579,1.874h6.893a3.937,3.937,0,0,1,2.314,7.121l-5.576,4.051a2.705,2.705,0,0,0-.985,3.032l2.13,6.555a3.878,3.878,0,0,1-1.43,4.4,3.925,3.925,0,0,1-2.314.766Z" transform="translate(-199.024 -181.5)" fill="#ff0080"/>
    <path id="Path_1884" data-name="Path 1884" d="M599.065,376.364a4.313,4.313,0,0,1-2.541-.841,4.261,4.261,0,0,1-1.571-4.835l2.13-6.555a2.319,2.319,0,0,0-.844-2.6l-5.577-4.052a4.324,4.324,0,0,1,2.542-7.822H600.1a2.318,2.318,0,0,0,2.21-1.606l2.13-6.555a4.324,4.324,0,0,1,8.225,0l2.13,6.555a2.318,2.318,0,0,0,2.21,1.606h6.893a4.324,4.324,0,0,1,2.542,7.822l-5.576,4.052a2.317,2.317,0,0,0-.844,2.6l2.13,6.555a4.324,4.324,0,0,1-6.654,4.834l-5.576-4.051a2.318,2.318,0,0,0-2.732,0l-5.576,4.051a4.31,4.31,0,0,1-2.541.841Zm9.484-7.339a4.315,4.315,0,0,1,2.541.828l5.577,4.052a2.324,2.324,0,0,0,3.576-2.6l-2.13-6.555a4.313,4.313,0,0,1,1.571-4.834l5.576-4.052a2.324,2.324,0,0,0-1.366-4.2H617a4.313,4.313,0,0,1-4.112-2.988l-2.13-6.555a2.324,2.324,0,0,0-4.421,0l-2.13,6.555a4.312,4.312,0,0,1-4.112,2.988H593.2a2.324,2.324,0,0,0-1.366,4.2l5.577,4.052a4.314,4.314,0,0,1,1.571,4.834l-2.13,6.555a2.324,2.324,0,0,0,3.576,2.6l5.577-4.051a4.316,4.316,0,0,1,2.542-.828Z" transform="translate(-199.024 -181.5)" fill="#3f3d56"/>
    <path id="Path_1885" data-name="Path 1885" d="M542.065,376.2a4.313,4.313,0,0,1-2.541-.841,4.261,4.261,0,0,1-1.571-4.835l2.13-6.555a2.319,2.319,0,0,0-.844-2.6l-5.577-4.052A4.324,4.324,0,0,1,536.2,349.5H543.1a2.318,2.318,0,0,0,2.21-1.606l2.13-6.555a4.324,4.324,0,0,1,8.225,0l2.13,6.555A2.318,2.318,0,0,0,560,349.5h6.893a4.324,4.324,0,0,1,2.542,7.822l-5.576,4.052a2.318,2.318,0,0,0-.844,2.6l2.13,6.555a4.324,4.324,0,0,1-6.654,4.834l-5.576-4.051a2.318,2.318,0,0,0-2.732,0l-5.576,4.051a4.31,4.31,0,0,1-2.541.841Zm9.484-7.339a4.315,4.315,0,0,1,2.541.828l5.577,4.052a2.324,2.324,0,0,0,3.576-2.6l-2.13-6.555a4.313,4.313,0,0,1,1.571-4.834l5.576-4.052a2.324,2.324,0,0,0-1.366-4.2H560a4.313,4.313,0,0,1-4.112-2.988l-2.13-6.555a2.324,2.324,0,0,0-4.421,0l-2.13,6.555A4.312,4.312,0,0,1,543.1,351.5H536.2a2.324,2.324,0,0,0-1.366,4.2l5.577,4.052a4.314,4.314,0,0,1,1.571,4.834l-2.13,6.555a2.324,2.324,0,0,0,3.576,2.6l5.577-4.051a4.317,4.317,0,0,1,2.542-.828Z" transform="translate(-199.024 -181.5)" fill="#3f3d56"/>
    <path id="Path_1886" data-name="Path 1886" d="M254.024,211.5a6.5,6.5,0,0,0,0,13h329a6.5,6.5,0,1,0,0-13Z" transform="translate(-199.024 -181.5)" fill="#ccc"/>
    <path id="Path_1887" data-name="Path 1887" d="M254.024,245.5a6.5,6.5,0,1,0,0,13h329a6.5,6.5,0,1,0,0-13Z" transform="translate(-199.024 -181.5)" fill="#ccc"/>
    <path id="Path_1888" data-name="Path 1888" d="M254.024,279.5a6.5,6.5,0,0,0,0,13h329a6.5,6.5,0,0,0,0-13Z" transform="translate(-199.024 -181.5)" fill="#ccc"/>
    <path id="Path_1889" data-name="Path 1889" d="M254.024,211.5a6.5,6.5,0,0,0,0,13h329a6.5,6.5,0,1,0,0-13Z" transform="translate(-199.024 -181.5)" fill="#e7eaf0"/>
    <path id="Path_1890" data-name="Path 1890" d="M254.024,245.5a6.5,6.5,0,1,0,0,13h329a6.5,6.5,0,1,0,0-13Z" transform="translate(-199.024 -181.5)" fill="#e7eaf0"/>
    <path id="Path_1891" data-name="Path 1891" d="M254.024,279.5a6.5,6.5,0,0,0,0,13h329a6.5,6.5,0,0,0,0-13Z" transform="translate(-199.024 -181.5)" fill="#e7eaf0"/>
  </g>
</svg>
