<svg xmlns="http://www.w3.org/2000/svg" id="undraw_review_fkgn" width="990.06" height="695.365" viewBox="0 0 990.06 695.365"><ellipse id="Ellipse_1" cx="155" cy="12" fill="#ff0080" data-name="Ellipse 1" rx="155" ry="12" transform="translate(0 671.365)"/><path id="Path_2" fill="#ff0080" d="M229.227,130.649l-.133-.735-12.572-6.659h-1.973l-.755-1.446h-25.91l-6.009,1.446H159.746l-5.995,7-.061.429c-.388,2.5-9.059,61.341,13.818,80.062l9.539,4.433h6.169l-1.206-2.408,5.363,2.408h17.363l.308-.463,10.3-3.857.266-.306C216.542,209.444,238.439,182.839,229.227,130.649Z" data-name="Path 2" opacity=".1" transform="translate(-104.969 -102.318)"/><rect id="Rectangle_1" width="10.213" height="26.554" fill="#e7eaf0" data-name="Rectangle 1" transform="translate(82.915 86.813)"/><rect id="Rectangle_2" width="18.384" height="510.662" fill="#3f3d56" data-name="Rectangle 2" transform="translate(78.319 147.581)"/><rect id="Rectangle_3" width="27.576" height="17.362" fill="#3f3d56" data-name="Rectangle 3" transform="translate(73.723 138.9)"/><path id="Path_3" fill="#3f3d56" d="M63.51,107.239l17.362,18.384L73.723,138.9l14.3,3.064L101.3,138.9l-8.171-14.3,16.341-17.363Z" data-name="Path 3"/><path id="Path_4" fill="#3f3d56" d="M155.2,130.915l-8.171-8.171,6.128-6.128h77.621l6.128,7.149-9.192,7.149S178.692,128.872,155.2,130.915Z" data-name="Path 4" transform="translate(-104.969 -102.318)"/><path id="Path_5" fill="#3f3d56" d="M229.227,130.649l-.133-.735-12.572-6.659-5.74-3.044-32.223-2.073-18.067,4.249-.746.868-5.995,7-.061.429c-.388,2.5-9.059,61.341,13.818,80.062l9.539,4.433,8.028,3.728-1.859-3.728-3.054-6.1c-3.2-18.609-10.223-67.5-5.74-77.713l18.527-5.975,16.444,6.108c1.134,7.343,8.467,58.828-4.382,77.181l-.276.4v5.75l10.612-3.973.266-.306C216.542,209.444,238.439,182.839,229.227,130.649ZM213.5,208.27l-5.7,2.145v-.388c14.094-21.029,4.882-77.5,4.484-79.908l-.143-.878-16.117-5.985-2.992-1.113-3.452,1.113L172.3,128.831l-.3.521c-6.567,11.776,4.7,77.661,5.178,80.46l.041.225,1.215,2.431-9.141-4.218c-20.376-16.964-13.39-71.288-12.644-76.671l5.515-6.434,8.027-1.889,8.63-2.032,14.207.919,16.893,1.093.041.02,16.372,8.661c8.109,47.339-10.5,73.332-12.838,76.355Z" data-name="Path 5" transform="translate(-104.969 -102.318)"/><ellipse id="Ellipse_2" cx="27.576" cy="14.299" fill="#3f3d56" data-name="Ellipse 2" rx="27.576" ry="14.299" transform="translate(60.446 0)"/><path id="Path_6" fill="#3f3d56" d="M178.692,734.517,162.351,786.6s25.533,14.3,60.258,0l-16.341-52.088Z" data-name="Path 6" transform="translate(-104.969 -102.318)"/><circle id="Ellipse_3" cx="8.171" cy="8.171" r="8.171" fill="#ff0080" data-name="Ellipse 3" transform="translate(79.851 73.535)"/><path id="Path_7" fill="#ff0080" d="M494.407,485.545c4.316,15.954,19.1,25.834,19.1,25.834s7.785-15.986,3.469-31.939-19.1-25.834-19.1-25.834S490.092,469.592,494.407,485.545Z" data-name="Path 7" transform="translate(-104.969 -102.318)"/><path id="Path_8" fill="#e6e6e6" d="M500.749,482.117c11.842,11.528,13.289,29.25,13.289,29.25s-17.754-.969-29.6-12.5-13.289-29.25-13.289-29.25S488.907,470.588,500.749,482.117Z" data-name="Path 8" transform="translate(-104.969 -102.318)"/><path id="Path_9" fill="#e7eaf0" d="M1085.39,482.384,672.337,599.507l376.854-212.343a378.385,378.385,0,0,0-64.057-85.754L619.5,502.64,925.6,252.693A374.859,374.859,0,0,0,780.244,195.55L610.7,478.623,722.99,190.47c-1.672-.022-3.343-.047-5.021-.047-208.245,0-377.062,168.816-377.062,377.062a375.3,375.3,0,0,0,54.478,195.336H1040.55a378.255,378.255,0,0,0,44.833-280.436Z" data-name="Path 9" transform="translate(-104.969 -102.318)"/><path id="Path_10" fill="#ff0080" d="M1052.97,727.611c0-32.167-16.322-58.243-36.456-58.243-12.655,0-23.8,10.305-30.337,25.946a18.287,18.287,0,0,0-6.967-1.4c-6.094,0-11.729,3.123-16.324,8.408-5.892-19.5-18.387-32.955-32.85-32.955-13.522,0-25.316,11.771-31.61,29.24a19.916,19.916,0,0,0-12.477-4.692c-15.452,0-27.978,20.012-27.978,44.7a65.146,65.146,0,0,0,4.408,24.068h183.24C1050.23,752.926,1052.97,740.781,1052.97,727.611Z" data-name="Path 10" transform="translate(-104.969 -102.318)"/><path id="Path_11" fill="none" stroke="#3f3d56" stroke-miterlimit="10" stroke-width="2" d="M684.346,336.124h0a140.9,140.9,0,0,1,140.9-140.9" data-name="Path 11" transform="translate(-104.969 -102.318)"/><path id="Path_12" fill="#ff0080" d="M735.611,354.565c-11.286,41.72-49.943,67.557-49.943,67.557S665.31,380.32,676.6,338.6s49.943-67.557,49.943-67.557S746.9,312.846,735.611,354.565Z" data-name="Path 12" transform="translate(-104.969 -102.318)"/><path id="Path_13" fill="#ff0080" d="M632.941,354.565c11.286,41.72,49.943,67.557,49.943,67.557s20.359-41.8,9.073-83.522-49.943-67.557-49.943-67.557S621.655,312.846,632.941,354.565Z" data-name="Path 13" transform="translate(-104.969 -102.318)"/><path id="Path_14" fill="#3f3d56" d="M649.525,345.6c30.969,30.147,34.751,76.489,34.751,76.489s-46.427-2.535-77.4-32.682-34.751-76.489-34.751-76.489S618.556,315.452,649.525,345.6Z" data-name="Path 14" transform="translate(-104.969 -102.318)"/><path id="Path_15" fill="#3f3d56" d="M719.027,345.6c-30.969,30.147-34.751,76.489-34.751,76.489s46.427-2.535,77.4-32.682,34.751-76.489,34.751-76.489S750,315.452,719.027,345.6Z" data-name="Path 15" transform="translate(-104.969 -102.318)"/><path id="Path_16" fill="#ff0080" d="M802.422,225.363c5-18.49,22.135-29.942,22.135-29.942s9.023,18.527,4.021,37.017-22.135,29.942-22.135,29.942S797.42,243.853,802.422,225.363Z" data-name="Path 16" transform="translate(-104.969 -102.318)"/><path id="Path_17" fill="#ff0080" d="M847.926,225.363c-5-18.49-22.135-29.942-22.135-29.942s-9.023,18.527-4.021,37.017S843.9,262.38,843.9,262.38,852.928,243.853,847.926,225.363Z" data-name="Path 17" transform="translate(-104.969 -102.318)"/><path id="Path_18" fill="#3f3d56" d="M840.576,229.337c-13.725-13.361-15.4-33.9-15.4-33.9s20.577,1.124,34.3,14.485,15.4,33.9,15.4,33.9S854.3,242.7,840.576,229.337Z" data-name="Path 18" transform="translate(-104.969 -102.318)"/><path id="Path_19" fill="#3f3d56" d="M809.772,229.337c13.725-13.361,15.4-33.9,15.4-33.9s-20.577,1.124-34.3,14.485-15.4,33.9-15.4,33.9S796.047,242.7,809.772,229.337Z" data-name="Path 19" transform="translate(-104.969 -102.318)"/><path id="Path_20" fill="#3f3d56" d="M975.748,605.911H958.936V512.783a9.635,9.635,0,0,0-9.607-9.607h-28.82V421.208A9.635,9.635,0,0,0,910.9,411.6H462.592a9.635,9.635,0,0,0-9.607,9.607v81.968h-28.82a9.635,9.635,0,0,0-9.607,9.607v93.128H397.747a9.635,9.635,0,0,0-9.607,9.607v137.7a9.635,9.635,0,0,0,9.607,9.607h578a9.635,9.635,0,0,0,9.607-9.607v-137.7a9.635,9.635,0,0,0-9.607-9.607Z" data-name="Path 20" transform="translate(-104.969 -102.318)"/><path id="Path_21" fill="#ff0080" d="M891.745,576.8c-8.828,13.972-6.1,31.542-6.1,31.542s17.039-5.083,25.866-19.055,6.1-31.542,6.1-31.542S900.573,562.828,891.745,576.8Z" data-name="Path 21" transform="translate(-104.969 -102.318)"/><path id="Path_22" fill="#e7eaf0" d="M898.56,579.15c-.477,16.52-12.547,29.576-12.547,29.576s-11.3-13.729-10.822-30.25S887.739,548.9,887.739,548.9,899.037,562.629,898.56,579.15Z" data-name="Path 22" transform="translate(-104.969 -102.318)"/><rect id="Rectangle_4" width="544.378" height="9.607" fill="#e6e6e6" data-name="Rectangle 4" transform="translate(309.589 503.594)"/><rect id="Rectangle_5" width="467.525" height="9.607" fill="#e6e6e6" data-name="Rectangle 5" transform="translate(348.016 401.122)"/><circle id="Ellipse_4" cx="9.607" cy="9.607" r="9.607" fill="#ff0080" data-name="Ellipse 4" transform="translate(710.667 157.753)"/><path id="Path_23" fill="#ff0080" d="M412.411,390.687l252.994-71.854,37.7,132.749-18.277,5.191,13.934,49.06-62.994-35.126-185.657,52.73Z" data-name="Path 23"/><path id="Path_24" fill="#fff" d="M670.8,551.867l-5.608-2.759c-19.987-10.052-33.135-16.526-36.477-28.294a17.4,17.4,0,0,1,12.093-21.842,18.93,18.93,0,0,1,15.7,2.57,18.929,18.929,0,0,1,12-10.438,17.4,17.4,0,0,1,21.768,12.225c3.342,11.768-4.441,24.187-16.16,43.244Z" data-name="Path 24" transform="translate(-104.969 -102.318)"/><path id="Path_25" fill="#a0616a" d="M221.795,420.463s-6.491,19.473-2.885,23.8-21.637-12.982-21.637-12.982l13.7-15.867Z" data-name="Path 25" transform="translate(-104.969 -102.318)"/><circle id="Ellipse_5" cx="32.381" cy="32.381" r="32.381" fill="#2f2e41" data-name="Ellipse 5" transform="translate(69.643 253.351)"/><path id="Path_26" fill="#a0616a" d="M227.894,537.4l-16.588,12.982-9.376-15.146,16.588-11.539Z" data-name="Path 26"/><path id="Path_27" fill="#2f2e41" d="M309.423,737.438l4.327,20.915,12.261,16.588s33.176,10.1,10.818,15.146-27.406-3.606-27.406-3.606l-15.867-13.7v18.751h-10.1L281.3,764.844s-1.442-7.933,5.049-16.588l1.442-12.982Z" data-name="Path 27" transform="translate(-104.969 -102.318)"/><path id="Path_28" fill="#a0616a" d="M225.762,478.521l5.77,33.176s61.3-6.491,65.631,5.77,5.77,15.867,5.77,15.867l-12.261,4.327-5.77-10.818a13.7,13.7,0,0,0-10.818.721c-5.77,2.885-56.255,10.1-59.861.721s-13.7-43.994-13.7-43.994l15.146-12.261Z" data-name="Path 28" transform="translate(-104.969 -102.318)"/><path id="Path_29" d="M225.762,478.521l5.77,33.176s61.3-6.491,65.631,5.77,5.77,15.867,5.77,15.867l-12.261,4.327-5.77-10.818a13.7,13.7,0,0,0-10.818.721c-5.77,2.885-56.255,10.1-59.861.721s-13.7-43.994-13.7-43.994l15.146-12.261Z" data-name="Path 29" opacity=".1" transform="translate(-104.969 -102.318)"/><path id="Path_30" fill="#2f2e41" d="M259.659,574.443l5.049,17.309L277.689,658.1s1.442,49.043,3.606,54.813,2.164,6.491,0,8.655-6.491,9.376,0,13.7,29.57,9.376,30.291,4.327.721-12.982,0-16.588,2.164-59.861,2.164-59.861L305.1,577.328l-29.57-13.7Z" data-name="Path 30" transform="translate(-104.969 -102.318)"/><path id="Path_31" d="M259.659,574.443l5.049,17.309L277.689,658.1s1.442,49.043,3.606,54.813,2.164,6.491,0,8.655-6.491,9.376,0,13.7,29.57,9.376,30.291,4.327.721-12.982,0-16.588,2.164-59.861,2.164-59.861L305.1,577.328l-29.57-13.7Z" data-name="Path 31" opacity=".1" transform="translate(-104.969 -102.318)"/><path id="Path_32" fill="#2f2e41" d="M290.672,506.648l15.867,30.291s90.873,40.388,82.94,56.976-51.928,47.6-51.928,47.6-2.164,12.261-8.655,8.655-22.358-22.358-20.915-24.521,6.491-7.212,8.655-6.491,27.406-18.752,27.406-18.752l-43.273-10.818s-51.928-1.442-54.812-25.964,0-28.849,0-28.849l-3.606-7.933,29.57-18.03Z" data-name="Path 32" transform="translate(-104.969 -102.318)"/><path id="Path_33" fill="#2f2e41" d="M313.029,626.37l-15.145,13.7s-12.982-5.77-20.915-3.606-21.637,3.606-21.637,3.606l2.164,12.261,18.4-3.395-14.795,20.7s0,32.455,9.376,32.455,6.491-19.473,6.491-19.473l28.849-22.358s14.424-5.77,15.867-5.77S313.029,626.37,313.029,626.37Z" data-name="Path 33" transform="translate(-104.969 -102.318)"/><circle id="Ellipse_6" cx="24.521" cy="24.521" r="24.521" fill="#a0616a" data-name="Ellipse 6" transform="translate(89.42 274.872)"/><path id="Path_34" fill="#575a89" d="M194.75,420.823s11.54-2.885,15.146,0,4.327,9.376,9.376,10.1,9.376.721,10.1,1.442,17.309,20.915,17.309,20.915,10.1,5.77,12.261,13.7,23.8,34.618,26.685,37.5-18.752,17.309-25.964,22.358-28.128,7.212-34.618-4.327S183.21,435.969,194.75,420.823Z" data-name="Path 34" transform="translate(-104.969 -102.318)"/><path id="Path_35" fill="#a0616a" d="M222.156,467.7l5.77,33.176s61.3-6.491,65.631,5.77,5.77,15.867,5.77,15.867l-12.261,4.327-5.77-10.818a13.7,13.7,0,0,0-10.818.721c-5.77,2.885-56.255,10.1-59.861.721s-13.7-43.994-13.7-43.994l15.146-12.261Z" data-name="Path 35" transform="translate(-104.969 -102.318)"/><path id="Path_36" fill="#575a89" d="M208.374,423.858s17.388,36.633,15.946,46.73-6.491,2.885-6.491,2.885-6.491-10.1-9.376-4.327-6.491,13.7-9.376,12.982-18.752-54.091-10.1-59.14S208.374,423.858,208.374,423.858Z" data-name="Path 36" transform="translate(-104.969 -102.318)"/><circle id="Ellipse_7" cx="32.381" cy="32.381" r="32.381" fill="#2f2e41" data-name="Ellipse 7" transform="translate(34.563 210.715)"/><path id="Path_37" fill="#2f2e41" d="M143.982,372.228a32.383,32.383,0,0,0,50.005-17,32.383,32.383,0,1,1-63.167-13.279,32.371,32.371,0,0,0,13.162,30.282Z" data-name="Path 37" transform="translate(-104.969 -102.318)"/><circle id="Ellipse_8" cx="23.746" cy="23.746" r="23.746" fill="#2f2e41" data-name="Ellipse 8" transform="translate(69.642 267.383)"/><ellipse id="Ellipse_9" cx="21.048" cy="16.461" fill="#2f2e41" data-name="Ellipse 9" rx="21.048" ry="16.461" transform="translate(92.309 265.763)"/><ellipse id="Ellipse_10" cx="4.688" cy="8.294" fill="#a0616a" data-name="Ellipse 10" rx="4.688" ry="8.294" transform="translate(109.614 293.623)"/><path id="Path_38" fill="#2f2e41" d="M283.621,526.527s12.767-7.325,15.138-5.488,3.423,7.584,3.423,7.584l-14.756,5.792-4.327-7.933Z" data-name="Path 38" transform="translate(-104.969 -102.318)"/></svg>