<svg xmlns="http://www.w3.org/2000/svg" xmlns:xlink="http://www.w3.org/1999/xlink" width="921.692" height="707.024" viewBox="0 0 921.692 707.024">
    <defs>
        <linearGradient id="linear-gradient" x1="31.936" y1="1" x2="31.936" gradientUnits="objectBoundingBox">
            <stop offset="0" stop-color="gray" stop-opacity="0.251"/>
            <stop offset="0.54" stop-color="gray" stop-opacity="0.122"/>
            <stop offset="1" stop-color="gray" stop-opacity="0.102"/>
        </linearGradient>
    </defs>
    <g id="Group_4095" data-name="Group 4095" transform="translate(5036 -7883.504)">
        <path id="Path_5322" data-name="Path 5322" d="M628.705,149.9c-39.549,27.688-90.846,25.9-135.8,11.493S406.66,121.334,362.862,103.1A422.6,422.6,0,0,0,248.6,73.319C192.781,66.932,130.444,74.713,91.554,119.5c-43.311,49.844-39.985,139.767,6.841,185.558,23.832,23.276,55.035,34.7,82.244,52.871s52.418,48.331,50.1,83.39c-2.146,32.494-27.09,57.395-52.905,73.035-19.95,12.083-44.517,25.277-46.92,50.306-2.326,24.217,18.333,43.191,38.061,53.983,64.355,35.213,143.658,34.871,207.791-.855,22.866-12.784,43.867-29.749,67.853-39.651,62.978-26.1,132.379.18,199.068,9.782A397.948,397.948,0,0,0,813,575.591c33.024-9.757,66.177-24.67,89.375-52.452,16.734-20.035,27.158-45.38,36.941-70.426q15.648-40.045,30.091-80.662c5.772-16.247,11.459-32.819,12.955-50.212,2.7-31.511-8.688-62.662-24.2-89.256C921.331,169.39,859.3,124.993,792.125,113.715S653.88,124.463,601.778,172.665" transform="translate(-5097.065 7871.613)" fill="#ff0080" opacity="0.1"/>
        <g id="Group_4081" data-name="Group 4081" transform="translate(-4576.95 8030.351)" opacity="0.1">
            <path id="Path_5323" data-name="Path 5323" d="M601.158,174.592,597.9,363.57s117.936,0,218.283,32.579l1.95-190.911S657.193,166.768,601.158,174.592Z" transform="translate(-597.9 -173.542)"/>
        </g>
        <path id="Path_5324" data-name="Path 5324" d="M598.158,170.592,594.9,359.57s117.936,0,218.283,32.58l1.949-190.911S654.193,162.768,598.158,170.592Z" transform="translate(-5174.416 7857.388)" fill="#f7f7fd"/>
        <g id="Group_4082" data-name="Group 4082" transform="translate(-4849.875 8035.774)" opacity="0.1">
            <path id="Path_5325" data-name="Path 5325" d="M495.7,180.924,498.962,369.9s-117.936,0-218.274,32.579L278.73,211.571S439.669,173.142,495.7,180.924Z" transform="translate(-278.73 -179.884)"/>
        </g>
        <path id="Path_5326" data-name="Path 5326" d="M498.7,175.924,501.962,364.9s-117.936,0-218.274,32.58L281.73,206.571S442.669,168.142,498.7,175.924Z" transform="translate(-5129.039 7856.614)" fill="#f7f7fd"/>
        <g id="Group_4083" data-name="Group 4083" transform="translate(-4799.671 8054.025)" opacity="0.2">
            <path id="Path_5327" data-name="Path 5327" d="M453.8,201.785l1.753,101.339s-63.278,0-117.064,17.47L337.44,218.212S423.754,197.613,453.8,201.785Z" transform="translate(-337.44 -201.227)" fill="#ff0080"/>
        </g>
        <g id="Group_4084" data-name="Group 4084" transform="translate(-4287.206 8100.912)" opacity="0.1">
            <path id="Path_5328" data-name="Path 5328" d="M936.74,256.06v187s38.48-4.566,119.244,95.13l7.166-187S979.093,260.618,936.74,256.06Z" transform="translate(-936.74 -256.06)"/>
        </g>
        <path id="Path_5329" data-name="Path 5329" d="M934.74,253.06v187s38.48-4.566,119.244,95.13l7.166-187S977.093,257.618,934.74,253.06Z" transform="translate(-5223.656 7845.287)" fill="#f7f7fd"/>
        <g id="Group_4085" data-name="Group 4085" transform="translate(-5035.568 8101.768)" opacity="0.1">
            <path id="Path_5330" data-name="Path 5330" d="M187.972,257.06v187s-38.445-4.566-119.193,95.13l-7.209-187S145.618,261.618,187.972,257.06Z" transform="translate(-61.57 -257.06)"/>
        </g>
        <path id="Path_5331" data-name="Path 5331" d="M190.972,253.06v187s-38.446-4.566-119.193,95.13l-7.209-187S148.618,257.618,190.972,253.06Z" transform="translate(-5097.573 7845.287)" fill="#f7f7fd"/>
        <g id="Group_4086" data-name="Group 4086" transform="translate(-4544.747 8067.29)" opacity="0.2">
            <path id="Path_5332" data-name="Path 5332" d="M574.5,145.37l79.892,14.289V171.3L574.5,155.956Z" transform="translate(-574.5 -145.37)" fill="#ff0080"/>
        </g>
        <path id="Path_5333" data-name="Path 5333" d="M380.964,276.87,301.08,291.159V302.8l79.884-15.341Z" transform="translate(-5079.63 7902.866)" fill="#fff"/>
        <path id="Path_5334" data-name="Path 5334" d="M575.74,170.74,721.758,200.9v11.638L575.74,181.326Z" transform="translate(-5119.426 7918.244)" fill="#fff"/>
        <path id="Path_5335" data-name="Path 5335" d="M575.74,196.11l146.018,30.151v11.646L575.74,206.688Z" transform="translate(-5119.426 7914.567)" fill="#fff"/>
        <g id="Group_4087" data-name="Group 4087" transform="translate(-4254.866 8158.734)" opacity="0.2">
            <path id="Path_5336" data-name="Path 5336" d="M913.5,252.31v10.27l31.323,25.448,1.471-8.808Z" transform="translate(-913.5 -252.31)" fill="#ff0080"/>
        </g>
        <path id="Path_5337" data-name="Path 5337" d="M913.5,368.31v10.27l31.323,25.448,1.471-8.807Z" transform="translate(-5168.366 7889.617)" fill="#fff"/>
        <path id="Path_5338" data-name="Path 5338" d="M914,272.91l-.5,10.278,59.216,55.779-.975-11.741Z" transform="translate(-5168.366 7903.439)" fill="#fff"/>
        <path id="Path_5339" data-name="Path 5339" d="M913.5,295.23v9.782l59.216,56.77V349.059Z" transform="translate(-5168.366 7900.206)" fill="#fff"/>
        <g id="Group_4088" data-name="Group 4088" transform="translate(-4999.868 8160.958)" opacity="0.2">
            <path id="Path_5340" data-name="Path 5340" d="M100.98,254.91l.487,10.278L42.26,320.967l.975-11.741Z" transform="translate(-42.26 -254.91)" fill="#ff0080"/>
        </g>
        <g id="Group_4089" data-name="Group 4089" transform="translate(-4999.868 8180.043)" opacity="0.2">
            <path id="Path_5341" data-name="Path 5341" d="M101.467,277.23v9.782L42.26,343.783V331.059Z" transform="translate(-42.26 -277.23)" fill="#ff0080"/>
        </g>
        <ellipse id="Ellipse_161" data-name="Ellipse 161" cx="48.741" cy="8.773" rx="48.741" ry="8.773" transform="translate(-4909.783 8465.982)" fill="#ff0080" opacity="0.1"/>
        <path id="Path_5342" data-name="Path 5342" d="M128.3,636.84s4.695,6.14-2.172,15.392-12.527,17.1-10.261,22.883c0,0,10.355-17.222,18.812-17.461S137.575,647.238,128.3,636.84Z" transform="translate(-5104.932 7789.68)" fill="#ff0080"/>
        <path id="Path_5343" data-name="Path 5343" d="M128.346,636.84a7.378,7.378,0,0,1,.958,1.924c8.226,9.663,12.613,18.684,4.7,18.915-7.362.205-16.247,13.382-18.316,16.709.068.248.154.5.248.752,0,0,10.355-17.222,18.812-17.461S137.623,647.238,128.346,636.84Z" transform="translate(-5104.98 7789.68)" opacity="0.1"/>
        <path id="Path_5344" data-name="Path 5344" d="M140.516,645.765c0,2.163-.239,3.917-.539,3.917s-.547-1.753-.547-3.917.308-1.146.607-1.146S140.516,643.593,140.516,645.765Z" transform="translate(-5108.419 7788.588)" fill="#ffd037"/>
        <path id="Path_5345" data-name="Path 5345" d="M143.581,648.75c-1.9,1.035-3.557,1.659-3.7,1.4s1.283-1.317,3.181-2.352,1.146-.282,1.291,0S145.479,647.723,143.581,648.75Z" transform="translate(-5108.483 7788.167)" fill="#ffd037"/>
        <path id="Path_5346" data-name="Path 5346" d="M99.682,636.84s-4.677,6.123,2.163,15.417,12.527,17.1,10.261,22.883c0,0-10.355-17.222-18.812-17.461S90.412,647.238,99.682,636.84Z" transform="translate(-5101.132 7789.68)" fill="#ff0080"/>
        <path id="Path_5347" data-name="Path 5347" d="M99.679,636.84a7.7,7.7,0,0,0-.958,1.924c-8.226,9.663-12.613,18.684-4.7,18.915,7.371.205,16.247,13.382,18.316,16.709a6.451,6.451,0,0,1-.248.752s-10.355-17.222-18.812-17.461S90.41,647.238,99.679,636.84Z" transform="translate(-5101.129 7789.68)" opacity="0.1"/>
        <path id="Path_5348" data-name="Path 5348" d="M91.26,645.765c0,2.163.239,3.917.539,3.917s.547-1.753.547-3.917-.308-1.146-.607-1.146S91.26,643.593,91.26,645.765Z" transform="translate(-5101.44 7788.588)" fill="#ffd037"/>
        <path id="Path_5349" data-name="Path 5349" d="M87.564,648.75c1.9,1.035,3.549,1.659,3.694,1.4s-1.283-1.317-3.181-2.352-1.146-.282-1.291,0S85.666,647.723,87.564,648.75Z" transform="translate(-5100.738 7788.167)" fill="#ffd037"/>
        <path id="Path_5350" data-name="Path 5350" d="M93,679.487s13.134-.4,17.1-3.224,20.2-6.182,21.181-1.659,19.736,22.481,4.908,22.6-34.452-2.309-38.4-4.72S93,679.487,93,679.487Z" transform="translate(-5101.693 7784.528)" fill="#b4c2d3"/>
        <path id="Path_5351" data-name="Path 5351" d="M136.458,696.831c-14.828.12-34.452-2.309-38.4-4.72-3.01-1.83-4.207-8.406-4.609-11.441H93.01s.855,10.595,4.78,13,23.575,4.84,38.4,4.72c4.276,0,5.763-1.556,5.678-3.814C141.281,695.951,139.647,696.806,136.458,696.831Z" transform="translate(-5101.694 7783.329)" fill="#192431" opacity="0.2"/>
        <ellipse id="Ellipse_162" data-name="Ellipse 162" cx="80.38" cy="13.767" rx="80.38" ry="13.767" transform="translate(-4602.894 8331.723)" fill="#ff0080" opacity="0.1"/>
        <path id="Path_5352" data-name="Path 5352" d="M639.57,324.368a11.2,11.2,0,0,0-.855,2.625q-.077.342-.154.718c-.513,2.617-.855,5.909-1.035,7.824-.086.958-.128,1.573-.128,1.573s-18.547-1.24-15.332-4.352a6.84,6.84,0,0,0,1.71-3.078c.094-.333.171-.667.24-1.009a17.357,17.357,0,0,0,.3-2.352v-.6a24.241,24.241,0,0,0-.18-3.839s6.029,0,10.578.487C637.775,322.718,640.16,323.325,639.57,324.368Z" transform="translate(-5178.297 7835.316)" fill="#d38884"/>
        <path id="Path_5353" data-name="Path 5353" d="M604.163,418.153c-6.319-.205-1.659-13.365-.932-15.135s-1.077-6.105-1.077-6.105-2.138-12.536-2.138-13.357a33.47,33.47,0,0,0-.718-5.079,8.551,8.551,0,0,1,.855-4.977c.727-1.137.616-5.695.616-5.695v-5.9l1.411-1.864,3.6,3.42,1,.941,1.761,6.6-.624,9.458-.333,9.21,2.181,12.741S610.525,418.367,604.163,418.153Z" transform="translate(-5175.042 7829.786)" fill="#d38884"/>
        <path id="Path_5354" data-name="Path 5354" d="M545.367,293.657l-5.387-2.24v-.872l1.4-1.864,3.608,3.4Z" transform="translate(-5114.245 7901.154)" opacity="0.1"/>
        <path id="Path_5355" data-name="Path 5355" d="M603.947,350.11a24.846,24.846,0,0,0-1.5,5.285,23.432,23.432,0,0,1-1.411,5.071l5.986,2.488Z" transform="translate(-5175.305 7831.225)" fill="#4c4981"/>
        <path id="Path_5356" data-name="Path 5356" d="M603.947,350.11a24.846,24.846,0,0,0-1.5,5.285,23.432,23.432,0,0,1-1.411,5.071l5.986,2.488Z" transform="translate(-5175.305 7831.225)" opacity="0.05"/>
        <path id="Path_5357" data-name="Path 5357" d="M656.719,495.841l-.5,1.06s-.539,3.514-.539,3.6-1.556,2.428-1.556,2.428l-3.908.855-1.659-.205a23.34,23.34,0,0,0-.445-2.873c-.06-.265-.12-.539-.2-.812a21.956,21.956,0,0,0-2.728-6.191s-2.9-7.149-3.933-8.081-4.977-10.364-4.558-12.639a66.375,66.375,0,0,0-.162-8.927c-.171-2.848-.359-5.242-.359-5.242L646.022,453l1.146,1.8.684,1.069a4.887,4.887,0,0,1-.043.547v.128a18.246,18.246,0,0,1-.855,4.276s-.735,5.285,0,6.217,3.078,13.391,3.6,19.154v.522a11.565,11.565,0,0,0,3.5,6.738h0c.1.12.214.231.325.342A22.582,22.582,0,0,0,656.719,495.841Z" transform="translate(-5180.396 7816.316)" fill="#d38884"/>
        <path id="Path_5358" data-name="Path 5358" d="M650.554,510.376l1.659.205,3.908-.855s1.556-2.352,1.556-2.429.539-3.6.539-3.6l.5-1.06.06-.128a20.77,20.77,0,0,1-2.685-2.215h0c-.094-.085-.188-.171-.274-.265s.556,3.42-2.42,4.951c-1.445.744-2.634,1.317-3.463,1.71Z" transform="translate(-5182.388 7809.503)" opacity="0.1"/>
        <path id="Path_5359" data-name="Path 5359" d="M659.427,503.261l-.556,1.189s-.539,3.514-.539,3.6-1.556,2.428-1.556,2.428l-3.908.855-2.249-.265a14.85,14.85,0,0,0-.188-1.873c-.068-.47-.162-.992-.291-1.556.855-.385,2.18-1.018,3.882-1.9a4.848,4.848,0,0,0,2.42-4.951,23.6,23.6,0,0,0,2.044,1.813C658.9,502.894,659.23,503.124,659.427,503.261Z" transform="translate(-5182.419 7809.392)" fill="#ceddf9"/>
        <path id="Path_5360" data-name="Path 5360" d="M659.476,503.568l-.556,1.189s-.539,3.514-.539,3.6-1.556,2.428-1.556,2.428l-3.908.855-2.249-.265a14.893,14.893,0,0,0-.188-1.873,7.8,7.8,0,0,1,1.419.2s5.336,1.137,5.592-3.087c.154-2.394.65-3.335,1.043-3.7C658.945,503.2,659.279,503.432,659.476,503.568Z" transform="translate(-5182.469 7809.084)" opacity="0.1"/>
        <path id="Path_5361" data-name="Path 5361" d="M658.875,502.847s-1.325-.291-1.591,3.925-5.592,3.087-5.592,3.087-2.617-.65-2.642.436a10.16,10.16,0,0,0,.7,2.925s.154,2.514.65,3.113.18,2.822.18,2.822.205,1.659,4.327,0c0,0,3.677-.761,6.73-5.336.1-.154-.359-.624,2.309-1.582s10.261-7.1,9.714-10.1a2.566,2.566,0,0,0-1.813-2.155,3.121,3.121,0,0,0-2.386.325,18.9,18.9,0,0,1-2.232,1.026,10.951,10.951,0,0,1-3.181.761,12.244,12.244,0,0,0-2.471.47,5.13,5.13,0,0,1-2.7.282Z" transform="translate(-5182.261 7809.525)" fill="#cc8294"/>
        <path id="Path_5362" data-name="Path 5362" d="M620.534,468.706a7.253,7.253,0,0,0-1.505,1.71c-1.5,2.3-2.411,5.515-3.42,6.9-1.317,1.8-1.71,5.284-1.71,5.284-.351,2.292-5.208,14.537-6.525,16.709s-3.147,8.081-3.147,8.081a6.377,6.377,0,0,0-.941,4.481.9.9,0,0,0,.051.4.153.153,0,0,1,0,.163v.06l-1.8,3.053-5.712-.8-2.95-2a10.073,10.073,0,0,0,.641-1.223,54.045,54.045,0,0,0,2.7-9.817s1.59-7.183,1.471-8.859a67.072,67.072,0,0,1,.47-6.841s4.5-13.724,5.934-15.948a6.4,6.4,0,0,0,1.077-2.95,2.484,2.484,0,0,0,0-.641l1.933-1.924S623.014,466.73,620.534,468.706Z" transform="translate(-5174.123 7814.644)" fill="#d38884"/>
        <path id="Path_5363" data-name="Path 5363" d="M603.408,519.786v.676l-1.8,3.053-5.712-.8-2.95-2a10.027,10.027,0,0,0,.641-1.223c1.437-.41,4.72.752,4.72.752s3.549.676,5.045-.41A.092.092,0,0,1,603.408,519.786Z" transform="translate(-5174.133 7806.694)" opacity="0.1"/>
        <path id="Path_5364" data-name="Path 5364" d="M601.666,528.042l-5.8,1.385-5.319-3.934.274-2.215a3.821,3.821,0,0,0,.975-.855,3.507,3.507,0,0,0,.77-1.59c.308-1.633,5.361.154,5.361.154s3.694.7,5.131-.47a9.013,9.013,0,0,0,.274,3.2,2.386,2.386,0,0,0,.855,1.274C605.668,526.007,601.666,528.042,601.666,528.042Z" transform="translate(-5173.785 7806.587)" fill="#ceddf9"/>
        <path id="Path_5365" data-name="Path 5365" d="M601.666,528.428l-5.8,1.385-5.319-3.933.274-2.215a3.816,3.816,0,0,0,.975-.855h1.163c.855.085,2.993,3.891,2.993,3.891,5.25.351,6.841-1.368,7.38-2.634a2.386,2.386,0,0,0,.855,1.274C605.668,526.393,601.666,528.428,601.666,528.428Z" transform="translate(-5173.785 7806.202)" opacity="0.1"/>
        <path id="Path_5366" data-name="Path 5366" d="M595.085,527.442s-2.1-3.8-2.993-3.882a20.186,20.186,0,0,0-2.258,0s-2.326,5.515-3.181,5.986-2.1,3.113-2.1,3.113,6.157,5.986,12.108,4.814a12.344,12.344,0,0,1,5.456,1.36c2.753,1.437,14.255.351,15.657-2.172,1.043-1.9,1.462-3.275.539-4.276a2.5,2.5,0,0,0-2.163-.735,8.143,8.143,0,0,1-7.542-3.335s-5.25-4.806-5.678-4.814S603.277,527.989,595.085,527.442Z" transform="translate(-5172.916 7806.102)" fill="#cc8294"/>
        <path id="Path_5367" data-name="Path 5367" d="M647.861,456.5l-.043.051c-.359.393-2.89,3.172-3.66,3.369a36.539,36.539,0,0,0-3.728,1.65s-1.556,2.078-2.8,2.181a4.883,4.883,0,0,0-1.094.291c-.171-2.848-.359-5.242-.359-5.242l9.842-5.8,1.146,1.8c.257.727.547,1.4.641,1.616Z" transform="translate(-5180.396 7816.316)" opacity="0.1"/>
        <path id="Path_5368" data-name="Path 5368" d="M607.711,409.967s-3.831,4.994,0,11.621a38.711,38.711,0,0,0,7.875,9.945l13.049,27.038s3.42-1.864,4.669-1.967,2.8-2.172,2.8-2.172a36.241,36.241,0,0,1,3.728-1.659c.855-.205,3.7-3.42,3.7-3.42s-1.428-3.1-1.111-3.933-.932-2.907-.932-2.907a17.1,17.1,0,0,1-.855-3.207c0-.855-1.351-2.8-1.351-2.8a8.854,8.854,0,0,1-1.343-3.215c0-1.137-2.009-5.627-2.009-5.627L635.408,408Z" transform="translate(-5176.024 7822.836)" fill="#ceddf9"/>
        <path id="Path_5369" data-name="Path 5369" d="M643.48,449.353s-2.873,3.207-3.7,3.42a36.227,36.227,0,0,0-3.728,1.659s-1.556,2.069-2.8,2.172a9.918,9.918,0,0,0-2.565.915c-1.112.5-2.112,1.052-2.112,1.052l-13.057-27.038a28.285,28.285,0,0,1-3.172-3.249,44.874,44.874,0,0,1-4.7-6.7,11.211,11.211,0,0,1-1.488-8.064,9.279,9.279,0,0,1,1.488-3.549l9.286-.658,18.5-1.317.154,5.823.342,13.844s.3.693.676,1.608a17.58,17.58,0,0,1,1.291,3.985,8.781,8.781,0,0,0,1.343,3.215,8.691,8.691,0,0,1,1.351,2.8,17.344,17.344,0,0,0,.855,3.215s1.249,2.069.941,2.89S643.48,449.353,643.48,449.353Z" transform="translate(-5176.016 7822.836)" opacity="0.05"/>
        <path id="Path_5370" data-name="Path 5370" d="M622.612,468.7a7.253,7.253,0,0,0-1.505,1.71c-5.635.41-12.185-2.565-13.887-3.352a2.484,2.484,0,0,0,0-.641l1.932-1.924S625.091,466.722,622.612,468.7Z" transform="translate(-5176.2 7814.652)" opacity="0.1"/>
        <path id="Path_5371" data-name="Path 5371" d="M639.165,415.769s-.855,2.9-1.137,4.139-.932,7.362-.932,7.362l-.359,1.71L630.82,457.2l-1.291,6.131c-2.275,1.248-7.97-2.078-7.97-2.078-6.636.735-14.819-3.514-14.819-3.514s1.343-4.352,1.035-6.524,1.864-3.942,1.864-3.942c-.513-1.967,1.343-10.569,1.343-10.569s.419-3.207,1.975-4.036-.205-2.069-.624-2.8a3.174,3.174,0,0,1,.145-1.9,14.114,14.114,0,0,1,.479-1.411C609.006,422.6,608.4,416.427,608.39,413a21.93,21.93,0,0,1,.111-2.505l8.551-1.5,18.684-3.266,1.907,5.866h0l.479,1.471Z" transform="translate(-5176.131 7823.166)" fill="#ceddf9"/>
        <path id="Path_5372" data-name="Path 5372" d="M639.985,324.367a11.2,11.2,0,0,0-.855,2.625q-.077.342-.154.718c-1.8,1.171-2.916,1.18-5.225,1.18-.8,0-1.24-1.522-1.992-1.71,0,0-1.129-4.07-1.445-.641-2.172-.445-4.045,1.248-5.584-.231h0v-.6a24.227,24.227,0,0,0-.18-3.839s6.029,0,10.578.487C638.189,322.716,640.575,323.324,639.985,324.367Z" transform="translate(-5178.711 7835.316)" opacity="0.1"/>
        <path id="Path_5373" data-name="Path 5373" d="M643.69,314.675a11.561,11.561,0,0,1-13.862,11.313h0a11.544,11.544,0,1,1,12.382-16.982A11.341,11.341,0,0,1,643.69,314.675Z" transform="translate(-5178.142 7838.032)" fill="#d38884"/>
        <path id="Path_5374" data-name="Path 5374" d="M637.527,336.857c-.085.958-.128,1.573-.128,1.573s-18.547-1.24-15.332-4.352a6.843,6.843,0,0,0,1.71-3.078l8.047,1.317s2.275,1.762,4.036,3.42A7.315,7.315,0,0,0,637.527,336.857Z" transform="translate(-5178.297 7833.995)" opacity="0.1"/>
        <path id="Path_5375" data-name="Path 5375" d="M638.054,413.649a5.985,5.985,0,0,1-2.437-.179,4.95,4.95,0,0,1-.983-.436c-1.556-.932-6.73.214-6.73.214s-14.092.932-14.716,0c-.351-.539-2.839-.462-4.874-.3-.855.068-1.582.154-2.1.205A9.28,9.28,0,0,1,607.7,409.6l9.287-.658,18.684-3.267,1.907,5.866h0A21.114,21.114,0,0,0,638.054,413.649Z" transform="translate(-5176.055 7823.174)" opacity="0.1"/>
        <path id="Path_5376" data-name="Path 5376" d="M629.044,332.989l-10.107-1.659a3.01,3.01,0,0,1-1.907,1.659c-1.342.308-7.354,3.42-10.047,7.149l-2.694,3.737s-2.18,2.694-1.454,4.866,1.556,9.534,1.556,9.534l1.035,8.183s1.967,5.909,1.351,8.5.308,13.468.308,13.468l-2.069,13.468s7.037-.932,7.7,0,14.716,0,14.716,0,5.131-1.146,6.73-.214a5.625,5.625,0,0,0,3.42.624s-1.24-4.275-.521-6.627a26.572,26.572,0,0,0,.521-6.738s1.035-6.319.513-7.456,1.146-5.285,1.146-5.285l5.49-28.9s-.667-5.182-3.6-6.943-6.242-2.283-8-3.933S629.044,332.989,629.044,332.989Z" transform="translate(-5175.543 7833.946)" fill="#4c4981"/>
        <path id="Path_5377" data-name="Path 5377" d="M639,366.193v3.42l3.19,8.6,1.154,7.978s2.078,5.695,2.078,7.7,5.071,11.5,5.071,11.5,1.385,3.215.693,3.831-6.7,14.3.855,13.887,5.182-14.708,5.182-14.708l-1.035-6.217s-1.454-15.546-1.454-16.683c0,0-1.864-6.627-2.069-8.081s-1.556-8.808-1.556-8.808l-1.137-4.763Z" transform="translate(-5180.806 7829.234)" fill="#d38884"/>
        <path id="Path_5378" data-name="Path 5378" d="M571.189,307.82l-11.262,6.447-3.5,5.285,4.66-4.737Z" transform="translate(-5116.628 7898.382)" opacity="0.1"/>
        <path id="Path_5379" data-name="Path 5379" d="M628.126,393.63s-5.131,3.344-7.542,3.344-8,5.746-8,5.746,7.927-5.131,8.551-4.968S628.126,393.63,628.126,393.63Z" transform="translate(-5176.977 7824.919)" opacity="0.1"/>
        <path id="Path_5380" data-name="Path 5380" d="M614.76,395.72s-4.814,4.353-3.574,4.823,7.7-4.823,7.7-4.823Z" transform="translate(-5176.745 7824.617)" opacity="0.1"/>
        <path id="Path_5381" data-name="Path 5381" d="M639.81,377.55s-3.728,5.054-2.719,4.977,3.882-2.959,3.882-2.959Z" transform="translate(-5180.504 7827.25)" opacity="0.1"/>
        <path id="Path_5382" data-name="Path 5382" d="M640.271,383.37s-4.036,4.583-3.882,5.746S640.271,383.37,640.271,383.37Z" transform="translate(-5180.426 7826.405)" opacity="0.1"/>
        <path id="Path_5383" data-name="Path 5383" d="M641.807,386.05s-2.719,4.857-1.556,5.866S641.807,386.05,641.807,386.05Z" transform="translate(-5180.944 7826.018)" opacity="0.1"/>
        <path id="Path_5384" data-name="Path 5384" d="M637.815,371.46s-2.026,3.42-.547,3.651,1.625,0,1.625,0Z" transform="translate(-5180.476 7828.131)" opacity="0.1"/>
        <path id="Path_5385" data-name="Path 5385" d="M638.173,356.83a35.7,35.7,0,0,1-2.069,6.1,28.261,28.261,0,0,1-.8-3.053A20.832,20.832,0,0,1,638.173,356.83Z" transform="translate(-5180.27 7830.251)" opacity="0.1"/>
        <path id="Path_5386" data-name="Path 5386" d="M642.212,309.008a5.028,5.028,0,0,1-.778,1.206,8.926,8.926,0,0,0-1.4,1.608,8.63,8.63,0,0,0-.5,2.745c-.154.924-.735,1.95-1.71,1.975a3.472,3.472,0,0,1-1.368-.41,1.393,1.393,0,0,0-1.36.043,1.522,1.522,0,0,0-.436,1.026,13.549,13.549,0,0,0-.137,2.429,6.062,6.062,0,0,0,.051.966,5.431,5.431,0,0,1-.18,3.078,3.728,3.728,0,0,1-1.916,1.539,11.852,11.852,0,0,1-2.685.752h0a29.529,29.529,0,0,1-5.293.171,1.309,1.309,0,0,1-.479-.077.677.677,0,0,1-.205-.128,16.2,16.2,0,0,0,.316-2.95,11.544,11.544,0,1,1,18.086-13.973Z" transform="translate(-5178.143 7838.029)" opacity="0.1"/>
        <path id="Path_5387" data-name="Path 5387" d="M636.545,298.568a10.034,10.034,0,0,0-3.1.684c-2.146.47-4.344-.5-6.55-.5a12.159,12.159,0,0,0-5.387,1.608,13,13,0,0,0-3.591,2.514,5.857,5.857,0,0,0-1.71,3.951,6.478,6.478,0,0,1-.077,2.565,7.21,7.21,0,0,1-.787,1.2,3.558,3.558,0,0,0-.368,2.967,9.844,9.844,0,0,0,1.77,2.651c1.419,1.821,2.309,4,3.583,5.934a18.478,18.478,0,0,0,1.864,2.369,1.317,1.317,0,0,0,.4.316,1.232,1.232,0,0,0,.47.068c2.7.077,5.5.137,7.987-.924a3.65,3.65,0,0,0,1.915-1.539,5.43,5.43,0,0,0,.188-3.078,14.11,14.11,0,0,1,.077-3.42,1.5,1.5,0,0,1,.436-1.018,1.368,1.368,0,0,1,1.368-.043,3.729,3.729,0,0,0,1.36.41c.932,0,1.522-1.06,1.71-1.984a4.652,4.652,0,0,1,1.907-4.352,6.585,6.585,0,0,0,1.172-5.84C640.564,301.184,638.683,298.781,636.545,298.568Z" transform="translate(-5177.298 7838.695)" fill="#1e1637"/>
        <path id="Path_5388" data-name="Path 5388" d="M650.438,354.04a13.461,13.461,0,0,0,0,4.276c-.1,1.146,0,7.465,0,7.465-3.42-1.043-12.117,1.035-12.117,1.035l-1.035-3.1a7.7,7.7,0,0,1-1.3-2.565,28.436,28.436,0,0,1-.8-3.061,63.509,63.509,0,0,1-1.018-6.507c-.436-3.292,4.464-6.841,8.175-8.808s6.96,6.422,6.96,6.422S650.848,352.415,650.438,354.04Z" transform="translate(-5180.1 7832.332)" opacity="0.1"/>
        <path id="Path_5389" data-name="Path 5389" d="M650.438,353.348a13.5,13.5,0,0,0,0,4.275c-.1,1.137,0,7.456,0,7.456-3.42-1.035-12.117,1.035-12.117,1.035l-1.035-3.1a7.609,7.609,0,0,1-1.3-2.565,28.2,28.2,0,0,1-.8-3.053,63.893,63.893,0,0,1-1.018-6.507c-.436-3.3,4.464-6.841,8.175-8.816s6.96,6.422,6.96,6.422S650.848,351.689,650.438,353.348Z" transform="translate(-5180.1 7832.434)" fill="#4c4981"/>
        <path id="Path_5390" data-name="Path 5390" d="M641.066,303.6a6.839,6.839,0,0,0-.761-1.667c.051.145.1.282.145.427a6.585,6.585,0,0,1-1.172,5.84,4.652,4.652,0,0,0-1.907,4.352c-.145.924-.735,1.941-1.71,1.975a3.474,3.474,0,0,1-1.368-.41,1.394,1.394,0,0,0-1.36.043,1.522,1.522,0,0,0-.436,1.026,14.018,14.018,0,0,0-.077,3.42,5.533,5.533,0,0,1-.188,3.087,3.806,3.806,0,0,1-1.916,1.539c-2.488,1.06-5.285,1-7.987.924a1.239,1.239,0,0,1-.47-.077,1.1,1.1,0,0,1-.4-.316,16.583,16.583,0,0,1-1.864-2.369c-1.274-1.933-2.163-4.1-3.583-5.934a17.444,17.444,0,0,1-1.172-1.505v.1a9.467,9.467,0,0,0,1.77,2.651c1.411,1.821,2.309,4,3.574,5.935a17.815,17.815,0,0,0,1.873,2.369,1.28,1.28,0,0,0,.393.316,1.256,1.256,0,0,0,.47.068c2.7.077,5.507.137,7.987-.924a3.651,3.651,0,0,0,1.916-1.539,5.43,5.43,0,0,0,.188-3.078,15.023,15.023,0,0,1,.077-3.42,1.581,1.581,0,0,1,.436-1.018,1.368,1.368,0,0,1,1.368-.043,3.725,3.725,0,0,0,1.36.41c.94,0,1.522-1.06,1.71-1.984a8.4,8.4,0,0,1,.5-2.745,8.6,8.6,0,0,1,1.4-1.608A6.6,6.6,0,0,0,641.066,303.6Z" transform="translate(-5177.305 7838.206)" opacity="0.2"/>
        <path id="Path_5391" data-name="Path 5391" d="M738.47,305.05l-7.388,15.7s-1.086,2.95-1.787,3.5-3.805,9.868-3.805,9.868l-7.927,12.211h0l-.539.855-3.1-.855-2.18-8.141.128-2.36v-.3s4.891-5.131,5.986-5.515c0,0,.855.1,2.48-3.874s3.113-4.831,3.113-4.831l.855-2.873,9.175-14.614s7.7-11.022,9.791-6.131S738.47,305.05,738.47,305.05Z" transform="translate(-5191.344 7839.001)" fill="#ffd2c6"/>
        <path id="Path_5392" data-name="Path 5392" d="M703.554,436.162a1.773,1.773,0,0,1-.248.752c-.855,1.248-5.669,26.654-5.669,26.654.385,1.71-.7,5.131-1.4,6.687s-2.258,9.629-2.258,9.629-.385,17.41-1.385,20.129.316,8.551.316,8.551c-.094,2.677,1.514,5.515,2.471,6.952l.188.274c.308.445.513.7.513.7a4.137,4.137,0,0,0,1.086,1.343l.222.171a12.551,12.551,0,0,0,4.353,1.839h.154c.616.137,1.026.2,1.026.2l.385,2.1-4.113.855-7.85.539s-9.252.71-7.149-3.421a6.539,6.539,0,0,0,.376-.855h0a6.5,6.5,0,0,0,.214-.616,21.283,21.283,0,0,0,.41-8.773l-1.787-14.058c-2.95-13.057,2.317-27.586,2.317-27.586s-.453-1.163.556-4.113,0-9.406,0-9.406-.539-8.312-1.24-12.425a25.181,25.181,0,0,1-.282-5.242,26.114,26.114,0,0,1,.282-3.061l17.709-2.351A13.319,13.319,0,0,1,703.554,436.162Z" transform="translate(-5187.11 7819.413)" fill="#ffd2c6"/>
        <path id="Path_5393" data-name="Path 5393" d="M703.539,536.316l-4.113.855-7.85.539s-9.252.71-7.149-3.42a6.55,6.55,0,0,0,.376-.855h0a6.447,6.447,0,0,0,.214-.616,14.539,14.539,0,0,1,4.686.941c2.634,1.017,4.618-1.633,4.618-1.633l1.283-2.446.188-.35c.308.444.513.7.513.7a4.277,4.277,0,0,0,1.308,1.514l-.222.453-1.24,2.617s1.591.163,3.762.513a1.71,1.71,0,0,0,2.052-1.12h.154c.616.137,1.026.2,1.026.2Z" transform="translate(-5187.343 7805.256)" opacity="0.1"/>
        <path id="Path_5394" data-name="Path 5394" d="M707.23,538.352c-.308,1.4-8.97,1.83-8.97,1.83s-4.823-.462-6.174.658-5.327.855-5.481.855-2.249-.077-3.07-3.839,1.069-4.276,1.154-4.335h0a14.182,14.182,0,0,1,4.9.949c2.634,1.018,4.618-1.633,4.618-1.633l1.471-2.8c.308.445.513.7.513.7a4.277,4.277,0,0,0,1.308,1.514l-1.462,3.07s1.591.162,3.763.5a1.8,1.8,0,0,0,2.206-1.71,2.053,2.053,0,0,0,0-.231s1.351.393,3.027.855A3.121,3.121,0,0,1,707.23,538.352Z" transform="translate(-5187.228 7805.154)" fill="#626696"/>
        <path id="Path_5395" data-name="Path 5395" d="M727.083,454.335c-.205,1.24-.419,4.455-.419,4.455.727,2.694-1.137,9.09-1.137,9.09l-.932,3.651c.41,4.66-2.565,16.059-2.565,16.059s-1.992,10.569-3.027,15.127a12.509,12.509,0,0,0,.539,7.619l.077.188a1.392,1.392,0,0,0,.06.256,2.634,2.634,0,0,0,.12.368,5.461,5.461,0,0,0,1.017,1.71,5.02,5.02,0,0,0,.556.573h0a11.3,11.3,0,0,0,3.3,2.035h0l.522.205a16.138,16.138,0,0,0,1.65.513h.188l-.419,2.445-5.49-1.411-7.354-2.386-3.566-2a2.28,2.28,0,0,1,.111-.573.185.185,0,0,0,0-.068,3.681,3.681,0,0,1,.111-.573c.564-3.207,1.967-12.177,1.266-18.812-.855-8.183,2.565-19.479,3.36-22.164a13.4,13.4,0,0,0,.624-4.771c-1.351-1.967-1.659-9.842-1.659-9.842s-2.488-5.079-4.541-10.467A26.739,26.739,0,0,1,708,440.114a18.461,18.461,0,0,1-.3-3.976s16.683-15.229,18.513-.487c.06.5.12.975.18,1.445C728.016,450.649,727.28,453.129,727.083,454.335Z" transform="translate(-5190.758 7819.761)" fill="#ffd2c6"/>
        <path id="Path_5396" data-name="Path 5396" d="M727.51,530.026l-.419,2.446-5.49-1.411-7.354-2.386-3.617-2.069a2.278,2.278,0,0,1,.111-.573.191.191,0,0,0,0-.069,3.712,3.712,0,0,1,.111-.573h.513a6.756,6.756,0,0,1,3.078.419c1.2.445,2.771.958,3.087.744a3.9,3.9,0,0,1,1.761-.308l.761-1.71.12-.256a5.366,5.366,0,0,0,1.018,1.71,6.538,6.538,0,0,0,.59.607v.59l-.043.855a10.7,10.7,0,0,0,2.642,1.214,1.52,1.52,0,0,0,.735,0h0l.522.205a16.081,16.081,0,0,0,1.651.513h0Z" transform="translate(-5191.183 7805.988)" opacity="0.1"/>
        <path id="Path_5397" data-name="Path 5397" d="M724.655,535.382c-1.531-.436-5.225-1.146-5.823-.6s-5.721,0-5.721,0a3.113,3.113,0,0,1-2.642-1.548c-1.069-1.659-.205-7.02-.205-7.02h.376l.633-.068h0a6.844,6.844,0,0,1,3.078.41c1.2.453,2.77.966,3.087.753a3.825,3.825,0,0,1,1.762-.317l.855-1.924a5.466,5.466,0,0,0,1.018,1.71,5.6,5.6,0,0,0,.59.6l-.077,1.428a10.942,10.942,0,0,0,2.642,1.223,1.069,1.069,0,0,0,1.266-.4,1.017,1.017,0,0,0,.094-.214h0a9.457,9.457,0,0,0,2.172.718h0a3.968,3.968,0,0,1,4.276,3.044C732.847,535.562,726.186,535.819,724.655,535.382Z" transform="translate(-5191.083 7805.874)" fill="#626696"/>
        <path id="Path_5398" data-name="Path 5398" d="M703.937,436.162l-.949.291a13.259,13.259,0,0,1-2.283.479c-4.908.693-12.989.274-15.554.111a26.141,26.141,0,0,1,.282-3.061l17.709-2.352A13.388,13.388,0,0,1,703.937,436.162Z" transform="translate(-5187.492 7819.413)" opacity="0.1"/>
        <path id="Path_5399" data-name="Path 5399" d="M719.126,427.768s-6.5,1.009-11.792,2.163c-1.761.385-3.421.8-4.609,1.18a14.044,14.044,0,0,1-2.283.487c-5.892.855-16.358.06-16.358.06-2.873-9.321,3.489-21.061,3.489-21.061-.145-.932,1.325-3.8,1.325-3.8v-.094l.906-3.326h24.157l.3,1.428.616,2.907,3.8,18.017Z" transform="translate(-5187.229 7823.507)" fill="#626696"/>
        <path id="Path_5400" data-name="Path 5400" d="M726.405,437.177l-.145.06-2.83,1.257c-3.061,1.411-12.219,1.71-15.392,1.71a18.461,18.461,0,0,1-.3-3.976s16.683-15.229,18.513-.487C726.285,436.237,726.345,436.741,726.405,437.177Z" transform="translate(-5190.764 7819.75)" opacity="0.1"/>
        <path id="Path_5401" data-name="Path 5401" d="M724.293,431.975l-.59.265-2.83,1.257c-3.113,1.437-12.57,1.71-15.6,1.71h-.8a3.6,3.6,0,0,1-2.8-1.71c0-.188-.145-1.112-.265-1.9-.111-.633-.2-1.18-.2-1.18a74.778,74.778,0,0,1-9.406-4.866c-2.369-1.616-1.77-13.1-1.317-18.872.162-1.992.308-3.3.308-3.3l24.456,1.428,3.42.2,1.958.436.522.111s1.411,10.261,2.1,11.116.239,3.728.154,5.37a9.753,9.753,0,0,1-.231,2.095,12.937,12.937,0,0,1,.778,4.481A8.95,8.95,0,0,0,724.293,431.975Z" transform="translate(-5188.207 7823.507)" fill="#626696"/>
        <circle id="Ellipse_163" data-name="Ellipse 163" cx="10.022" cy="10.022" r="10.022" transform="translate(-4500.119 8150.278)" fill="#ffd2c6"/>
        <path id="Path_5402" data-name="Path 5402" d="M692.353,330.385s.693,9.492-1.249,11.672a88.379,88.379,0,0,1-6.995,6.294l1.556,6.447,8.782,1.009,10.261-10.954-2.334-2.83s-1.787-6.063-.316-9.09S692.353,330.385,692.353,330.385Z" transform="translate(-5187.341 7834.087)" fill="#ffd2c6"/>
        <path id="Path_5403" data-name="Path 5403" d="M717.563,352.844h0l-.539.855-3.1-.855-2.18-8.141.128-2.36.641-.924s3.42.077,3.275,3.19C715.639,347.329,717.2,351.81,717.563,352.844Z" transform="translate(-5191.344 7832.485)" opacity="0.1"/>
        <path id="Path_5404" data-name="Path 5404" d="M721.147,406.8s-2.471.547-5.3.915-6.1.564-7.439-.222c-2.249-1.334-14.434-.949-17.957-.812h-.6l.906-3.326h24.157l.3,1.428,3.42.2,1.958.436C720.95,406.249,721.147,406.8,721.147,406.8Z" transform="translate(-5188.173 7823.511)" opacity="0.1"/>
        <path id="Path_5405" data-name="Path 5405" d="M706.658,342.13s3.42.077,3.267,3.19,1.864,8.466,1.864,8.466l-.778,1.787s-1.086,4.352-.231,5.438,3.959,1.086,2.172,10.022c0,0-.385,6.687.547,8.859s.932,7.379,2.326,9.56a51.6,51.6,0,0,1,3.266,7.226s-10.1,2.249-12.741.7-18.881-.778-18.881-.778.077-2.719,0-3.036a2.514,2.514,0,0,1,.385-1.975c.547-.744,1.4-1.984.932-3.07s1.163-2.694.308-4.378-1.89-2.018-1.71-2.942a3.96,3.96,0,0,0-.958-2.942c-.616-.778-4.814-8.987-4.814-8.987l-.7-3.831s-5.4-3.959-5.3-5.823,2.044-4.455,2.044-4.455l5.2-5.131s2.882,3.1,5.678,2.018,8.807-6.294,8.807-6.294,2.146-1.163,2.3-2.018,1.479-.077,1.479-.077,1.941-1.069,2.326-.693a6.837,6.837,0,0,0,2.1.693Z" transform="translate(-5186.109 7832.381)" fill="#ffcde5"/>
        <path id="Path_5406" data-name="Path 5406" d="M673.339,361.06l-1.65,1.3a21.849,21.849,0,0,0-2.078,8.466,111.653,111.653,0,0,1-2.095,13.117l-3.267,5.84s-5.361,11.262-6.063,14.255-3.882,8.047-3.882,8.047-10.8,9.706-3.267,11.458,7.773-7.7,7.773-7.7a11.111,11.111,0,0,0,2.044-3.266c.333-1.325,9.842-18.222,9.842-18.222s3.343-4.549,2.642-6.961c0,0,4.352-10.261,4.352-12.827a45.049,45.049,0,0,0-.7-6.4l.7-5.361Z" transform="translate(-5182.163 7829.639)" fill="#ffd2c6"/>
        <path id="Path_5407" data-name="Path 5407" d="M702.168,386.11s-7.61,3.985-9.09,4.2,6.448-.855,6.448-.855Z" transform="translate(-5188.615 7826.009)" opacity="0.1"/>
        <path id="Path_5408" data-name="Path 5408" d="M708.537,389.74s-10.1,3.42-14.537,2.8C694,392.528,705.048,394.64,708.537,389.74Z" transform="translate(-5188.774 7825.482)" opacity="0.1"/>
        <path id="Path_5409" data-name="Path 5409" d="M709.291,391.05s-9.1,5.721-14.451,4.789c0,0,12.51,2.488,14.451,1.163l-5.592-1.548S709.907,392.162,709.291,391.05Z" transform="translate(-5188.896 7825.292)" opacity="0.1"/>
        <path id="Path_5410" data-name="Path 5410" d="M694.709,304.833a9.458,9.458,0,0,0-7.7,1.445c-1.556,1.223-2.565,3.1-4.344,4.01a23.273,23.273,0,0,1-2.839,1,8.2,8.2,0,0,0-5,8.825c.274,1.539.992,2.959,1.351,4.481.633,2.711.068,5.55-.616,8.252a86.983,86.983,0,0,1-8.637,21.42,2.276,2.276,0,0,0-.428,1.437,2.114,2.114,0,0,0,.53.915c3.591,4.147,9.406,5.575,14.922,5.763a11.526,11.526,0,0,0,5.917-.983,8.962,8.962,0,0,0,2.882-2.642,14.04,14.04,0,0,0,2.685-9.03c-.145-2.608-1.018-5.242-.359-7.764a1.983,1.983,0,0,1,.462-.949c.59-.607,1.573-.445,2.411-.547,2.283-.265,3.754-2.668,4.028-4.951s-.3-4.575-.317-6.841a14.418,14.418,0,0,1,2.711-8.457,9.328,9.328,0,0,0,1.984-3.378c.325-1.642-.624-2.847-1.445-4.139-1.274-2.018-1.9-4.37-3.839-5.909a10.354,10.354,0,0,0-4.361-1.958Z" transform="translate(-5184.79 7837.825)" opacity="0.1"/>
        <path id="Path_5411" data-name="Path 5411" d="M693.988,304.1a9.406,9.406,0,0,0-7.645,1.445c-1.556,1.231-2.565,3.1-4.353,4.019a24.8,24.8,0,0,1-2.839.992,8.2,8.2,0,0,0-5,8.807c.274,1.539.992,2.959,1.351,4.481.633,2.711.077,5.55-.616,8.252a86.818,86.818,0,0,1-8.628,21.378,2.188,2.188,0,0,0-.427,1.437,1.974,1.974,0,0,0,.522.915c3.591,4.156,9.406,5.575,14.922,5.763a11.587,11.587,0,0,0,5.917-.975,9.083,9.083,0,0,0,2.882-2.651,14.049,14.049,0,0,0,2.676-9.03c-.154-2.565-1.026-5.242-.367-7.764a2.144,2.144,0,0,1,.462-.949c.6-.607,1.573-.445,2.42-.539,2.275-.265,3.745-2.677,4.019-4.951s-.3-4.575-.308-6.841a14.331,14.331,0,0,1,2.711-8.448,9.41,9.41,0,0,0,1.984-3.42c.316-1.642-.633-2.839-1.454-4.139-1.274-2.01-1.9-4.37-3.839-5.909a10.355,10.355,0,0,0-4.387-1.873Z" transform="translate(-5184.692 7837.93)" fill="#985c7e"/>
        <path id="Path_5412" data-name="Path 5412" d="M694.84,417.76s1.992,9.329,5.31,11.86Z" transform="translate(-5188.896 7821.423)" opacity="0.1"/>
        <g id="Group_4090" data-name="Group 4090" transform="translate(-4518.88 8151.312)" opacity="0.1">
            <path id="Path_5413" data-name="Path 5413" d="M676.19,324.276c-.1-.359-.222-.727-.351-1.086C675.977,323.558,676.062,323.883,676.19,324.276Z" transform="translate(-667.263 -316.187)"/>
            <path id="Path_5414" data-name="Path 5414" d="M703.084,315a3.421,3.421,0,0,1,0,.855,9.091,9.091,0,0,1-1.984,3.378,14.443,14.443,0,0,0-2.711,8.457c0,2.3.581,4.592.308,6.841s-1.71,4.686-4.019,4.942c-.855.1-1.821-.06-2.411.547a2.162,2.162,0,0,0-.47.949c-.658,2.523.222,5.131.368,7.764a14.048,14.048,0,0,1-2.719,9.021,8.868,8.868,0,0,1-2.882,2.642,11.483,11.483,0,0,1-5.909.983c-5.4-.18-11.116-1.573-14.742-5.567a1.418,1.418,0,0,0-.085.753,1.976,1.976,0,0,0,.522.915c3.591,4.156,9.406,5.575,14.922,5.763a11.587,11.587,0,0,0,5.917-.975,9.081,9.081,0,0,0,2.882-2.651,14.048,14.048,0,0,0,2.676-9.03c-.154-2.565-1.026-5.242-.368-7.764a2.146,2.146,0,0,1,.462-.949c.6-.607,1.573-.445,2.42-.539,2.274-.265,3.745-2.677,4.019-4.951s-.3-4.575-.308-6.841a14.332,14.332,0,0,1,2.711-8.448,9.411,9.411,0,0,0,1.984-3.42A3.839,3.839,0,0,0,703.084,315Z" transform="translate(-665.81 -315)"/>
        </g>
        <ellipse id="Ellipse_164" data-name="Ellipse 164" cx="18.094" cy="1.83" rx="18.094" ry="1.83" transform="translate(-4943.636 8368.791)" fill="#ff0080" opacity="0.1"/>
        <path id="Path_5415" data-name="Path 5415" d="M195.114,536.09s-23.6,12.194-11.407,26.508a4.532,4.532,0,0,0,4.464,2.9s-.667-1.206,1.873-2.172a12.338,12.338,0,0,0,2.565-1.351,5.985,5.985,0,0,0,2.283-3.053h0s4.831-6.456,1.086-18.4c0,0,.487-3.421.06-3.925l-2.865,3.925s2.967,1.992,3.309,4.917c0,0-3.087-4.908-3.762-4.344-.137.111-1.419,2.146-1.419,2.146s5.131,3.489,5.515,8.012c0,0-2.89-6.336-5.986-7.243l-1.762,3.19s5.61,3.42,6.242,8.551c0,0-3.258-6.516-6.584-7.824l-1.308,3.369s5.4,3.42,5.9,7.7c0,0-4.523-7.149-6.148-6.918,0,0-1.018,3.164-.855,4.139,0,0,3.831,2.565,3.9,5.071,0,0-3.532-4.464-4.079-4.164,0,0-.222,4.481.855,6.841a13.6,13.6,0,0,1-1.565-6.841,7.431,7.431,0,0,0-2.257,3.643s-1.018-2.471,2.326-4.729c0,0,.316-3.489.7-3.916,0,0-3.617,1.761-5.131,3.933,0,0,.564-3.232,5.473-4.84l1.249-3.42s-4.908,2.078-6.43,3.908c0,0,1.094-3.207,6.841-4.746l1.71-3.147a27.8,27.8,0,0,0-6.49,3.147s1.65-2.762,7.012-4.028l1.385-1.975s-3.172,1.137-4.053,1.539-1.06.205-1.06.205a11.357,11.357,0,0,1,5.678-2.565S195.328,536.3,195.114,536.09Z" transform="translate(-5114.329 7804.278)" fill="#ff0080"/>
        <path id="Path_5416" data-name="Path 5416" d="M224.591,540.043c2.471,1.462,6.336,2.411,11.2-.727l-.051,6.935c.351,4.763,6.225,22.087,6.225,22.087l4.147,14.263a111.531,111.531,0,0,1,4.566,31.015,29.637,29.637,0,0,0,1.325,9.765c2.206,5.986-.855,13.682-2.206,16.529a69.022,69.022,0,0,1-6.841,1.924,4.673,4.673,0,0,0-.616.188v-.043s-6.225,2.471-9,2.129c-2.061-.256-3.352,2.317-1.71,4.207a12.542,12.542,0,0,1-4.147.547c-2.771-.342-4.147,4.421,1.035,5.781s34.6,0,34.6,0a4.173,4.173,0,0,0,2.215-4.609c2.257-.085,3.668-.154,3.668-.154s5.191-2.377,0-8.833l-.274.214L267.62,638v-4.421s6.576-31.639,4.5-35.333-3.113-22.763-3.113-22.763l.693-20.728c1.873-3.874,2.839-9.936,3.326-14.682a31.278,31.278,0,0,0,1.325-6.969c.077-1.112.145-2.283.188-3.5a23.47,23.47,0,0,0-1.257-7.824,77.336,77.336,0,0,1,7.833-9.843,10.081,10.081,0,0,0,3.113-8.833l-1.71-11.552-4.156-19.667c.522-5.473-.616-8.619-1.881-10.4.3-1.761.581-3.531.8-5.3a67.854,67.854,0,0,0-1.214-23.088c-.6-2.642-1.419-5.353-3.267-7.354-2.1-2.266-5.507-3.651-6.285-6.619a21.56,21.56,0,0,0-.479-2.232c-.761-1.95-3.164-2.651-5.267-2.907-3.745-.453-9.158-.8-12.758.667a15.474,15.474,0,0,0-7.345,6.892,5.908,5.908,0,0,0-.855,4.275,5.607,5.607,0,0,0,.6,1.445,13.014,13.014,0,0,0-.855,4.558,13.263,13.263,0,0,0,8.466,12.3c.077.256.154.513.222.77a12.831,12.831,0,0,1,.333,1.847c-.06,1.206-.137,2.411-.2,3.609a4.049,4.049,0,0,1-.128.487,88.79,88.79,0,0,0-8.7,4.438c2.078,3.053-.342,15.965-.342,15.965-5.19,3.061-10.381,10.877-4.848,19.026a20.141,20.141,0,0,1,2.42,16.888l-.855,13.288h0l-.171,2.651h.068l-.068,1.009h.145v1.086a15.938,15.938,0,0,0-8.1,5.986,21.448,21.448,0,0,1-3.626,4.447,2.668,2.668,0,0,0,.419,4.429Zm41.772-35.3a12.613,12.613,0,0,1,1.231-6.678h2.446c.086.573.18,1.12.3,1.616.7,3.027-2.1,4.455-3.976,5.062Z" transform="translate(-5120.555 7822.026)" fill="url(#linear-gradient)"/>
        <path id="Path_5417" data-name="Path 5417" d="M269.8,673.748l1.334,3.993-4.31,4.327-14.314,3.326-10.321-1,.667-3.66h0a4.4,4.4,0,0,1,3.275-3.224c4.276-1,12.331-3.266,14.032-6.43Z" transform="translate(-5123.31 7784.719)" fill="#db8b8b"/>
        <path id="Path_5418" data-name="Path 5418" d="M269.8,673.748l1.334,3.993-4.31,4.327-14.314,3.326-10.321-1,.667-3.66h0a4.4,4.4,0,0,1,3.275-3.224c4.276-1,12.331-3.266,14.032-6.43Z" transform="translate(-5123.31 7784.719)" opacity="0.1"/>
        <path id="Path_5419" data-name="Path 5419" d="M244.191,684.361l2-2.668-2-3.078s-5.986,2.411-8.654,2.078-3.993,4.336,1,5.661,33.289,0,33.289,0,4.994-2.326,0-8.654l-4.31,3.326s-7.328,4-10.988,3.335Z" transform="translate(-5122.001 7783.759)" fill="#2e3037"/>
        <path id="Path_5420" data-name="Path 5420" d="M235.55,689.852l10.321.992,14.314-3.326,4.327-4.327-.351-1.06-.5-1.488-.479-1.445-9.654-2.668a5.984,5.984,0,0,1-1.958,1.967c-3.138,2.138-8.773,3.685-12.074,4.464l-.419.12a4.424,4.424,0,0,0-1.71,1.035,4.379,4.379,0,0,0-1.189,2.069Z" transform="translate(-5122.348 7783.928)" fill="#db8b8b"/>
        <path id="Path_5421" data-name="Path 5421" d="M235.55,690.8l10.321.992,14.314-3.327,4.327-4.327-.351-1.06-3.976,3.053s-7.32,4-10.988,3.335H238.885l1.992-2.668-1.8-2.771a4.386,4.386,0,0,0-2.9,3.1Z" transform="translate(-5122.348 7782.979)" opacity="0.1"/>
        <path id="Path_5422" data-name="Path 5422" d="M237.579,689.811l1.992-2.668-1.992-3.078s-5.986,2.411-8.662,2.078-3.993,4.335,1,5.661,33.289,0,33.289,0,4.994-2.326,0-8.654l-4.327,3.292s-7.32,4-10.988,3.335Z" transform="translate(-5121.042 7782.97)" fill="#2e3037"/>
        <path id="Path_5423" data-name="Path 5423" d="M249.18,462.149s15.982,1.659,13.682-4.994a12.1,12.1,0,0,1-.5-5.883,16.341,16.341,0,0,1,2.83-6.772l-14.982,2.334a18.9,18.9,0,0,1,2.027,4.806C253.994,458.7,249.18,462.149,249.18,462.149Z" transform="translate(-5124.323 7817.549)" fill="#db8b8b"/>
        <path id="Path_5424" data-name="Path 5424" d="M277.817,553.9s-.334,14.314-3.66,21.309l-.7,20.3s1,18.641,2.993,22.31-4.327,34.623-4.327,34.623v5.319s-10.646,4-13.682-.658l3.044-39.617-1.308-54.949Z" transform="translate(-5125.664 7801.697)" fill="#474463"/>
        <path id="Path_5425" data-name="Path 5425" d="M277.817,553.9s-.334,14.314-3.66,21.309l-.7,20.3s1,18.641,2.993,22.31-4.327,34.623-4.327,34.623v5.319s-10.646,4-13.682-.658l3.044-39.617-1.308-54.949Z" transform="translate(-5125.664 7801.697)" opacity="0.1"/>
        <path id="Path_5426" data-name="Path 5426" d="M286.351,500.17l1.992,5.327,1.667,11.322a10,10,0,0,1-2.993,8.654c-3.993,3.993-9.321,12.322-9.321,12.322l-6.328-18.958s6.328-1,5.327-5.327-.667-12.322-.667-12.322Z" transform="translate(-5127.537 7809.482)" fill="#fc6681"/>
        <path id="Path_5427" data-name="Path 5427" d="M286.351,500.17l1.992,5.327,1.667,11.322a10,10,0,0,1-2.993,8.654c-3.993,3.993-9.321,12.322-9.321,12.322l-6.328-18.958s6.328-1,5.327-5.327-.667-12.322-.667-12.322Z" transform="translate(-5127.537 7809.482)" opacity="0.05"/>
        <path id="Path_5428" data-name="Path 5428" d="M254.29,678.5c4.276,6.721,10.911,2.908,12.091,2.146L265.9,679.2l-9.654-2.668a5.984,5.984,0,0,1-1.958,1.967Z" transform="translate(-5125.063 7783.928)" opacity="0.1"/>
        <path id="Path_5429" data-name="Path 5429" d="M238.67,562.818c.333,4.66,5.986,21.643,5.986,21.643l3.993,13.973a110.793,110.793,0,0,1,4.387,30.39,29.928,29.928,0,0,0,1.308,9.569c2.668,7.32-2.659,17.307-2.659,17.307,4.66,8.32,12.647,2.668,12.647,2.668V653.04s6.328-28.963,4.66-34.623-2.326-20.976-2.326-20.976V569.812a31.4,31.4,0,0,0,9.1-19.89c.085-1.086.145-2.232.188-3.42.274-7.516-4.866-16.315-6.841-19.462-.479-.753-.778-1.18-.778-1.18L238.9,537.523h-.068v3.66Z" transform="translate(-5122.8 7805.76)" fill="#474463"/>
        <path id="Path_5430" data-name="Path 5430" d="M250.35,446.834a18.9,18.9,0,0,1,2.027,4.806,12.955,12.955,0,0,0,10.124-.368,16.341,16.341,0,0,1,2.831-6.772Z" transform="translate(-5124.492 7817.549)" opacity="0.1"/>
        <circle id="Ellipse_165" data-name="Ellipse 165" cx="12.98" cy="12.98" r="12.98" transform="translate(-4880.469 8243.416)" fill="#db8b8b"/>
        <path id="Path_5431" data-name="Path 5431" d="M238.67,541.181h.137c13.964,2.865,31.485-11.681,31.485-11.681a17.827,17.827,0,0,1-1.214-2.48c-.479-.752-.778-1.18-.778-1.18l-29.4,11.681-.077,1.163Z" transform="translate(-5122.8 7805.763)" opacity="0.1"/>
        <path id="Path_5432" data-name="Path 5432" d="M241.756,463.43s18.641-11.322,24.636-6.661l8.32,10.655s5.327,1.659,4.327,12.313l3.993,19.308-11.971,3s-7.072,6.653-1.385,16.324c0,0-17.641,14.648-31.639,11.655l.992-15.648s3-8.654-2.326-16.64-.333-15.648,4.66-18.65C241.38,479.036,243.714,466.423,241.756,463.43Z" transform="translate(-5122.183 7815.934)" fill="#fc6681"/>
        <path id="Path_5433" data-name="Path 5433" d="M239.295,544.17s-6.986,1.325-10.321,6.653a20.558,20.558,0,0,1-3.48,4.353,2.642,2.642,0,0,0,.41,4.216c2.642,1.582,6.952,2.565,12.391-1.907C247.615,549.822,239.295,544.17,239.295,544.17Z" transform="translate(-5120.765 7803.106)" fill="#db8b8b"/>
        <path id="Path_5434" data-name="Path 5434" d="M251.932,472.1s6.661-.667,8.32,16.649,4.327,21.309,4.327,21.309,1.667,8.987-2.326,14.314-11.655,16.64-11.655,16.64-8.32,2.334-9.988-5.986l10.321-19.308s1.667-6.653-2.326-11.313S241.61,468.771,251.932,472.1Z" transform="translate(-5123.081 7813.585)" opacity="0.1"/>
        <path id="Path_5435" data-name="Path 5435" d="M251.152,470.957s6.661-.667,8.32,16.64,4.335,21.309,4.335,21.309,1.659,8.987-2.334,14.314-11.655,16.64-11.655,16.64-8.32,2.334-9.988-5.986l10.321-19.308s1.667-6.661-2.326-11.322S240.83,467.6,251.152,470.957Z" transform="translate(-5122.968 7813.751)" fill="#fc6681"/>
        <path id="Path_5436" data-name="Path 5436" d="M246.639,485.57s-.667,10.321,2.326,15.982,3,12.98,0,16.982" transform="translate(-5123.945 7811.597)" opacity="0.1"/>
        <path id="Path_5437" data-name="Path 5437" d="M244.7,469.821s2.668-2.659,10.321-2.993,10.988-2.668,10.988-2.668" transform="translate(-5123.673 7814.7)" opacity="0.1"/>
        <path id="Path_5438" data-name="Path 5438" d="M263,418.2c2.018.248,4.335.941,5.062,2.848a21.162,21.162,0,0,1,.462,2.189c.753,2.907,4.028,4.275,6.046,6.49,1.787,1.958,2.565,4.618,3.147,7.2a67.716,67.716,0,0,1,1.172,22.618c-.65,5.524-1.975,10.962-2.352,16.5s.308,11.381,3.343,16.042c1.3,2,3.019,3.762,3.942,5.986-1.907,1.548-4.541,1.77-6.995,1.856q-4.276.137-8.551,0a9.15,9.15,0,0,1-4.37-.906,6.679,6.679,0,0,1-2.292-2.463,17.631,17.631,0,0,1-1.984-9.346c.068-3.232.581-6.43.641-9.654a8.682,8.682,0,0,0-1.112-5.062,16.406,16.406,0,0,0-2.8-2.565c-3.557-3.156-4.78-8.226-4.9-12.981s.658-9.526.257-14.272c-.154-1.856-.855-4.087-2.676-4.447a11.589,11.589,0,0,1-1.71-.222c-1.471-.564-1.325-2.634-1.71-4.147-.47-1.71-1.915-3.01-2.326-4.729-.958-4.027,4.164-8.833,7.525-10.261S259.393,417.752,263,418.2Z" transform="translate(-5123.454 7821.414)" opacity="0.1"/>
        <path id="Path_5439" data-name="Path 5439" d="M263.384,417.419c2.018.256,4.327.949,5.062,2.847a20.9,20.9,0,0,1,.462,2.2c.752,2.907,4.028,4.276,6.046,6.482,1.787,1.958,2.565,4.618,3.147,7.2a67.715,67.715,0,0,1,1.172,22.618c-.65,5.524-1.975,10.962-2.352,16.5s.308,11.381,3.343,16.042c1.3,2,3.019,3.762,3.942,5.986-1.907,1.548-4.541,1.77-6.995,1.856q-4.276.137-8.594,0a9.149,9.149,0,0,1-4.37-.906,6.721,6.721,0,0,1-2.292-2.454,17.6,17.6,0,0,1-1.984-9.355c.068-3.232.582-6.43.641-9.654a8.7,8.7,0,0,0-1.112-5.062,16.754,16.754,0,0,0-2.8-2.565c-3.557-3.155-4.789-8.218-4.908-12.981s.667-9.526.265-14.272c-.154-1.856-.855-4.087-2.677-4.446a11.622,11.622,0,0,1-1.71-.222c-1.471-.564-1.325-2.634-1.71-4.147-.47-1.71-1.915-3.01-2.326-4.729-.958-4.019,4.164-8.833,7.525-10.261S259.776,417.009,263.384,417.419Z" transform="translate(-5123.503 7821.524)" fill="#472727"/>
        <ellipse id="Ellipse_166" data-name="Ellipse 166" cx="20.523" cy="2.822" rx="20.523" ry="2.822" transform="translate(-4234.651 8532.468)" fill="#ff0080" opacity="0.1"/>
        <ellipse id="Ellipse_167" data-name="Ellipse 167" cx="20.523" cy="2.822" rx="20.523" ry="2.822" transform="translate(-4313.27 8540.445)" fill="#ff0080" opacity="0.1"/>
        <ellipse id="Ellipse_168" data-name="Ellipse 168" cx="20.523" cy="2.822" rx="20.523" ry="2.822" transform="translate(-4405.869 8529.654)" fill="#ff0080" opacity="0.1"/>
        <ellipse id="Ellipse_169" data-name="Ellipse 169" cx="14.588" cy="2.001" rx="14.588" ry="2.001" transform="translate(-4275.867 8563.96)" fill="#ff0080" opacity="0.1"/>
        <ellipse id="Ellipse_170" data-name="Ellipse 170" cx="14.588" cy="2.001" rx="14.588" ry="2.001" transform="translate(-4357.461 8561.951)" fill="#ff0080" opacity="0.1"/>
        <path id="Path_5440" data-name="Path 5440" d="M914.941,746.215s28.783-94.352-4.506-132.148c-24.9-28.27-53.162-24.892-65.843-21.378a23.4,23.4,0,0,0-15.1,12.553c-4.421,9.543-3.626,25.046,27.62,43.131,52.307,30.279,55.582,71.829,55.582,71.829Z" transform="translate(-5208.124 7796.41)" fill="#ff0080"/>
        <path id="Path_5441" data-name="Path 5441" d="M852.77,608.71s84.852,26.508,65.843,140.16" transform="translate(-5211.779 7793.755)" fill="none" stroke="#565987" stroke-miterlimit="10" stroke-width="1"/>
        <path id="Path_5442" data-name="Path 5442" d="M909.256,619.84s-11.689,7.867-7.969,19.667" transform="translate(-5218.703 7792.142)" fill="none" stroke="#565987" stroke-miterlimit="10" stroke-width="1"/>
        <path id="Path_5443" data-name="Path 5443" d="M862.72,627.243s7.149-7.269,15.836-3.258" transform="translate(-5213.22 7791.716)" fill="none" stroke="#565987" stroke-miterlimit="10" stroke-width="1"/>
        <path id="Path_5444" data-name="Path 5444" d="M902,670.352s12.536-6.362,15.777,1.608" transform="translate(-5218.913 7785.173)" fill="none" stroke="#565987" stroke-miterlimit="10" stroke-width="1"/>
        <path id="Path_5445" data-name="Path 5445" d="M936.616,686.272s-9.406-.752-9.586,3.754" transform="translate(-5222.539 7782.523)" fill="none" stroke="#565987" stroke-miterlimit="10" stroke-width="1"/>
        <path id="Path_5446" data-name="Path 5446" d="M922.492,762.13s-33.708-68.579-42.969-67.074c-4.4.71-6.422,5.036-7.345,9.406a27.593,27.593,0,0,0,1.838,16.692C878.787,732.107,891.614,752.946,922.492,762.13Z" transform="translate(-5214.512 7781.248)" fill="#ff0080"/>
        <path id="Path_5447" data-name="Path 5447" d="M881.15,710.28s35.384,51.307,42.225,53.564" transform="translate(-5215.892 7779.038)" fill="none" stroke="#565987" stroke-miterlimit="10" stroke-width="1"/>
        <line id="Line_18" data-name="Line 18" x2="8.26" transform="translate(-4337.999 8497.331)" fill="none" stroke="#565987" stroke-miterlimit="10" stroke-width="1"/>
        <line id="Line_19" data-name="Line 19" x2="12.946" y2="0.556" transform="translate(-4328.106 8516.101)" fill="none" stroke="#565987" stroke-miterlimit="10" stroke-width="1"/>
        <line id="Line_20" data-name="Line 20" x1="1.402" y2="6.747" transform="translate(-4321.632 8501.085)" fill="none" stroke="#565987" stroke-miterlimit="10" stroke-width="1"/>
        <line id="Line_21" data-name="Line 21" x1="0.248" y2="6.131" transform="translate(-4306.711 8521.606)" fill="none" stroke="#565987" stroke-miterlimit="10" stroke-width="1"/>
        <path id="Path_5448" data-name="Path 5448" d="M929.94,762.13s33.708-68.579,42.969-67.074c4.4.71,6.43,5.036,7.345,9.406a27.6,27.6,0,0,1-1.839,16.692C973.6,732.107,960.775,752.946,929.94,762.13Z" transform="translate(-5222.961 7781.248)" fill="#ff0080"/>
        <path id="Path_5449" data-name="Path 5449" d="M972.747,710.28s-35.384,51.307-42.217,53.564" transform="translate(-5223.045 7779.038)" fill="none" stroke="#565987" stroke-miterlimit="10" stroke-width="1"/>
        <line id="Line_22" data-name="Line 22" x1="8.26" transform="translate(-4255.311 8497.331)" fill="none" stroke="#565987" stroke-miterlimit="10" stroke-width="1"/>
        <line id="Line_23" data-name="Line 23" x1="12.946" y2="0.556" transform="translate(-4269.891 8516.101)" fill="none" stroke="#565987" stroke-miterlimit="10" stroke-width="1"/>
        <line id="Line_24" data-name="Line 24" x2="1.402" y2="6.747" transform="translate(-4264.82 8501.085)" fill="none" stroke="#565987" stroke-miterlimit="10" stroke-width="1"/>
        <line id="Line_25" data-name="Line 25" x2="0.248" y2="6.131" transform="translate(-4278.586 8521.606)" fill="none" stroke="#565987" stroke-miterlimit="10" stroke-width="1"/>
        <path id="Path_5450" data-name="Path 5450" d="M861.911,790.659a5.822,5.822,0,0,1-1.916-2.9,2.566,2.566,0,0,1,1.343-2.95c1.231-.47,2.565.385,3.54,1.249s2.138,1.847,3.42,1.667a5.275,5.275,0,0,1-1.625-4.917,2.068,2.068,0,0,1,.453-.992c.684-.735,1.924-.419,2.745.154,2.565,1.83,3.326,5.37,3.344,8.551a16.172,16.172,0,0,0,0-3.523,3.618,3.618,0,0,1,1.325-3.113,3.976,3.976,0,0,1,2.018-.479,4.19,4.19,0,0,1,3.275.932,3.257,3.257,0,0,1-.128,4.019,12.529,12.529,0,0,1-3.42,2.711,7.606,7.606,0,0,0-2.42,2.309,3.011,3.011,0,0,0-.18.411h-7.328A20.243,20.243,0,0,1,861.911,790.659Z" transform="translate(-5212.814 7768.735)" fill="#ff0080"/>
        <path id="Path_5451" data-name="Path 5451" d="M1012.131,758.366a5.824,5.824,0,0,1-1.915-2.9,2.566,2.566,0,0,1,1.334-2.942c1.231-.479,2.565.376,3.549,1.24s2.138,1.847,3.42,1.71a5.275,5.275,0,0,1-1.625-4.917,2.072,2.072,0,0,1,.453-.992c.684-.735,1.924-.419,2.745.154,2.565,1.83,3.326,5.37,3.344,8.551a16.171,16.171,0,0,0,0-3.523,3.617,3.617,0,0,1,1.326-3.112,3.973,3.973,0,0,1,2.018-.479,4.156,4.156,0,0,1,3.266.932c1,1.06.736,2.848-.128,4.019a12.487,12.487,0,0,1-3.42,2.711,7.605,7.605,0,0,0-2.42,2.309,2.945,2.945,0,0,0-.179.41h-7.328A20.239,20.239,0,0,1,1012.131,758.366Z" transform="translate(-5234.581 7773.407)" fill="#ff0080"/>
        <path id="Path_5452" data-name="Path 5452" d="M962.07,790.659a5.841,5.841,0,0,1-1.924-2.9,2.566,2.566,0,0,1,1.343-2.95c1.231-.47,2.565.385,3.549,1.249s2.138,1.847,3.421,1.667a5.241,5.241,0,0,1-1.625-4.917,1.992,1.992,0,0,1,.453-.992c.684-.735,1.916-.419,2.736.154,2.565,1.83,3.335,5.37,3.344,8.551a16.159,16.159,0,0,0,.051-3.523,3.609,3.609,0,0,1,1.317-3.113,4,4,0,0,1,2.018-.479,4.182,4.182,0,0,1,3.275.932,3.257,3.257,0,0,1-.128,4.019,12.613,12.613,0,0,1-3.42,2.711,7.437,7.437,0,0,0-2.42,2.309,2.192,2.192,0,0,0-.18.411h-7.337A20.189,20.189,0,0,1,962.07,790.659Z" transform="translate(-5227.325 7768.735)" fill="#ff0080"/>
        <path id="Path_5453" data-name="Path 5453" d="M819.373,726.94s-2.753,3.592,1.266,9.021,7.337,10.013,5.986,13.4c0,0-6.062-10.082-11-10.261S813.943,732.977,819.373,726.94Z" transform="translate(-5206.046 7776.625)" fill="#ff0080"/>
        <path id="Path_5454" data-name="Path 5454" d="M819.374,726.94a4.278,4.278,0,0,0-.564,1.129c-4.814,5.652-7.38,10.937-2.754,11.065,4.318.128,9.492,7.841,10.723,9.782a2.657,2.657,0,0,1-.146.445s-6.062-10.082-11-10.261S813.944,732.977,819.374,726.94Z" transform="translate(-5206.047 7776.625)" opacity="0.1"/>
        <path id="Path_5455" data-name="Path 5455" d="M814.44,732.163c0,1.266.146,2.292.316,2.292s.317-1.026.317-2.292-.171-.667-.351-.667S814.44,730.9,814.44,732.163Z" transform="translate(-5206.225 7775.985)" fill="#ffd037"/>
        <path id="Path_5456" data-name="Path 5456" d="M812.275,733.922c1.112.6,2.078.966,2.163.812s-.744-.77-1.855-1.377-.676-.163-.761,0S811.164,733.315,812.275,733.922Z" transform="translate(-5205.814 7775.74)" fill="#ffd037"/>
        <path id="Path_5457" data-name="Path 5457" d="M836.128,726.94s2.745,3.592-1.274,9.021-7.328,10.013-5.986,13.4c0,0,6.063-10.082,11.005-10.261S841.558,732.977,836.128,726.94Z" transform="translate(-5208.272 7776.625)" fill="#ff0080"/>
        <path id="Path_5458" data-name="Path 5458" d="M836.154,726.94a4.414,4.414,0,0,1,.556,1.129c4.823,5.652,7.388,10.937,2.754,11.065-4.276.128-9.483,7.841-10.723,9.782a1.429,1.429,0,0,0,.145.445s6.063-10.082,11.005-10.261S841.584,732.977,836.154,726.94Z" transform="translate(-5208.298 7776.625)" opacity="0.1"/>
        <path id="Path_5459" data-name="Path 5459" d="M843.272,732.163c0,1.266-.137,2.292-.316,2.292s-.316-1.026-.316-2.292.179-.667.35-.667S843.272,730.9,843.272,732.163Z" transform="translate(-5210.311 7775.985)" fill="#ffd037"/>
        <path id="Path_5460" data-name="Path 5460" d="M845.073,733.922c-1.112.6-2.086.966-2.164.812s.744-.77,1.856-1.377.676-.163.761,0S846.184,733.315,845.073,733.922Z" transform="translate(-5210.349 7775.74)" fill="#ffd037"/>
        <path id="Path_5461" data-name="Path 5461" d="M837.513,751.906s-7.7-.24-10-1.89-11.826-3.617-12.4-.967-11.561,13.16-2.873,13.229,20.163-1.351,22.481-2.762S837.513,751.906,837.513,751.906Z" transform="translate(-5205.423 7773.608)" fill="#b4c2d3"/>
        <path id="Path_5462" data-name="Path 5462" d="M812.073,762.057c8.688.068,20.172-1.351,22.489-2.762,1.753-1.069,2.463-4.917,2.694-6.7h.257s-.487,6.2-2.8,7.611-13.8,2.83-22.481,2.762c-2.505,0-3.377-.915-3.326-2.232C809.26,761.544,810.209,762.04,812.073,762.057Z" transform="translate(-5205.424 7772.907)" fill="#192431" opacity="0.2"/>
        <ellipse id="Ellipse_171" data-name="Ellipse 171" cx="29.689" cy="4.387" rx="29.689" ry="4.387" transform="translate(-4922.643 8542.378)" fill="#ff0080" opacity="0.1"/>
        <ellipse id="Ellipse_172" data-name="Ellipse 172" cx="29.689" cy="4.387" rx="29.689" ry="4.387" transform="translate(-4850.755 8581.755)" fill="#ff0080" opacity="0.1"/>
        <ellipse id="Ellipse_173" data-name="Ellipse 173" cx="19.659" cy="2.198" rx="19.659" ry="2.198" transform="translate(-4523.565 8481.341)" fill="#ff0080" opacity="0.1"/>
        <ellipse id="Ellipse_174" data-name="Ellipse 174" cx="19.659" cy="2.198" rx="19.659" ry="2.198" transform="translate(-4615.464 8544.567)" fill="#ff0080" opacity="0.1"/>
        <ellipse id="Ellipse_175" data-name="Ellipse 175" cx="19.659" cy="2.198" rx="19.659" ry="2.198" transform="translate(-4656.893 8583.944)" fill="#ff0080" opacity="0.1"/>
        <path id="Path_5572" data-name="Path 5572" d="M-128.61,0H-139.49l.2-1.575h.2a3.65,3.65,0,0,0,2.217-.408,1.069,1.069,0,0,0,.306-.452q.1-.277.481-1.765l3.383-12.658a8.665,8.665,0,0,0,.408-1.838.609.609,0,0,0-.437-.642,7.369,7.369,0,0,0-1.867-.146h-.642l.233-1.575h10.879l-.2,1.575h-.2a3.65,3.65,0,0,0-2.217.408.794.794,0,0,0-.292.423q-.087.277-.5,1.794L-130.915-4.2a15,15,0,0,0-.408,1.838.609.609,0,0,0,.438.642,7.369,7.369,0,0,0,1.867.146h.642Zm11.579-13.942-.933,3.85a13.235,13.235,0,0,1,3-2.99,5.36,5.36,0,0,1,2.975-.89,3.384,3.384,0,0,1,2.362.846,2.783,2.783,0,0,1,.933,2.158,11.463,11.463,0,0,1-.9,3.733L-110.965-3.5a5.04,5.04,0,0,0-.292,1.108.469.469,0,0,0,.131.321.375.375,0,0,0,.277.146,1.745,1.745,0,0,0,1.05-.656,20.363,20.363,0,0,0,1.779-2.26l.263-.321,1.137.729A15.943,15.943,0,0,1-109.74-.7,4.793,4.793,0,0,1-112.773.438a3.148,3.148,0,0,1-2.173-.715,2.466,2.466,0,0,1-.8-1.94,8.44,8.44,0,0,1,.583-2.537l1.808-4.929a3.353,3.353,0,0,0,.262-1.05.679.679,0,0,0-.277-.525.911.911,0,0,0-.6-.233q-1.079,0-2.771,2.012A16.319,16.319,0,0,0-119.569-3.7L-120.677,0h-4.579l2.771-9.3a9.654,9.654,0,0,0,.437-1.954.734.734,0,0,0-.35-.729,3.753,3.753,0,0,0-1.429-.175h-.7l.2-1.371Zm20.417,8.6,1.079.787a19.985,19.985,0,0,1-1.983,2.683A6.077,6.077,0,0,1-101.894.408a2.889,2.889,0,0,1-1.969-.7,2.2,2.2,0,0,1-.8-1.721,8.237,8.237,0,0,1,.408-2.246q.175-.5.321-1.079l1.9-6.417h-2.537l.525-1.779h2.537l1.633-5.425H-95.3l-1.6,5.425h3.325l-.525,1.779h-3.325l-2.042,6.883a17.044,17.044,0,0,0-.613,2.421.56.56,0,0,0,.131.365.387.387,0,0,0,.306.16q.437,0,1.327-.992A14.072,14.072,0,0,0-96.615-5.338Zm14.233,1.662,1.021,1.021A8.547,8.547,0,0,1-88.01.408,6.37,6.37,0,0,1-92.429-.977a5.132,5.132,0,0,1-1.531-4.01,8.509,8.509,0,0,1,2.771-6.285,8.956,8.956,0,0,1,6.446-2.7,5.611,5.611,0,0,1,3.412,1.006,3.024,3.024,0,0,1,1.371,2.523q0,3.033-4.958,4.463a17.983,17.983,0,0,1-4.346.7q-.058.758-.058,1.283a2.762,2.762,0,0,0,.671,1.969,2.4,2.4,0,0,0,1.838.715,4.483,4.483,0,0,0,2.129-.525A10.336,10.336,0,0,0-82.381-3.675ZM-89-6.65a10,10,0,0,0,2.042-.467A5.733,5.733,0,0,0-84.5-8.852a3.729,3.729,0,0,0,.977-2.377,1.393,1.393,0,0,0-.35-1.006A1.234,1.234,0,0,0-84.8-12.6a3.213,3.213,0,0,0-2.537,1.648A10.824,10.824,0,0,0-89-6.65Zm21.029-14.817L-73.281-3.558l-.146.467a2.937,2.937,0,0,0-.146.758q0,.5.438.5.5,0,1.371-.933a14.614,14.614,0,0,0,1.75-2.363l1.137.788A13.124,13.124,0,0,1-71.385-1.2,5.249,5.249,0,0,1-75.031.438,3.119,3.119,0,0,1-77.19-.292a2.456,2.456,0,0,1-.817-1.925,11.811,11.811,0,0,1,.671-3.092l3.412-11.55a8.766,8.766,0,0,0,.438-1.925.734.734,0,0,0-.35-.729,3.753,3.753,0,0,0-1.429-.175h-.7l.2-1.371Zm11.346,0L-61.935-3.558l-.146.467a2.937,2.937,0,0,0-.146.758q0,.5.438.5.5,0,1.371-.933a14.614,14.614,0,0,0,1.75-2.363l1.138.788A13.124,13.124,0,0,1-60.04-1.2,5.249,5.249,0,0,1-63.685.438a3.119,3.119,0,0,1-2.158-.729,2.456,2.456,0,0,1-.817-1.925,11.811,11.811,0,0,1,.671-3.092l3.412-11.55a8.766,8.766,0,0,0,.438-1.925.734.734,0,0,0-.35-.729,3.753,3.753,0,0,0-1.429-.175h-.7l.2-1.371Zm9.362,7.525L-50.327-3.558a6.6,6.6,0,0,0-.292,1.225.412.412,0,0,0,.467.467q.875,0,2.946-3.3l1.137.817A13.189,13.189,0,0,1-49-.7,4.925,4.925,0,0,1-52.106.438a3.2,3.2,0,0,1-2.173-.744,2.38,2.38,0,0,1-.86-1.881A8.765,8.765,0,0,1-54.7-4.346L-53.215-9.3a8.668,8.668,0,0,0,.438-1.954.734.734,0,0,0-.35-.729,3.753,3.753,0,0,0-1.429-.175h-.7l.2-1.371Zm-3.325-6.825a2.387,2.387,0,0,1,1.75-.729,2.387,2.387,0,0,1,1.75.729,2.387,2.387,0,0,1,.729,1.75,2.387,2.387,0,0,1-.729,1.75,2.421,2.421,0,0,1-1.779.729,2.331,2.331,0,0,1-1.721-.744,2.4,2.4,0,0,1-.729-1.735A2.387,2.387,0,0,1-50.59-20.767Zm17.5,7.263a5.707,5.707,0,0,1,3.821-2.042,2.145,2.145,0,0,1,1.517.54,1.837,1.837,0,0,1,.583,1.415,1.731,1.731,0,0,1-.437,1.21,1.433,1.433,0,0,1-1.108.481q-.992,0-1.458-1.254-.2-.5-.5-.5-.467,0-.992.7a4.184,4.184,0,0,1,2.3,3.792,3.944,3.944,0,0,1-1.735,3.281,7.128,7.128,0,0,1-4.39,1.3,24.893,24.893,0,0,1-3.413-.292,7.881,7.881,0,0,0-.992-.088,1.723,1.723,0,0,0-.977.262.761.761,0,0,0-.394.642q0,.875,1.429.992,4.054.408,5.192.642a4.32,4.32,0,0,1,2.319,1.2A3.3,3.3,0,0,1-31.6,1.021a3.987,3.987,0,0,1-2.085,3.617A11.806,11.806,0,0,1-39.71,5.892a12.461,12.461,0,0,1-5.119-.846,2.63,2.63,0,0,1-1.823-2.392q0-2.158,3.675-2.829a3.972,3.972,0,0,1-1.371-1.05,2.133,2.133,0,0,1-.379-1.283q0-2.392,3.5-3.5a3.623,3.623,0,0,1-1.487-2.858,4.441,4.441,0,0,1,1.852-3.675,7.583,7.583,0,0,1,4.769-1.429A9.441,9.441,0,0,1-33.09-13.5Zm-2.392.9a2.178,2.178,0,0,0-1.925,1.254,6.6,6.6,0,0,0-.846,3.267,2.2,2.2,0,0,0,.51,1.546,1.791,1.791,0,0,0,1.385.554,2.1,2.1,0,0,0,1.925-1.4,6.96,6.96,0,0,0,.758-3.15,2.177,2.177,0,0,0-.51-1.487A1.649,1.649,0,0,0-35.481-12.6ZM-40.615.788q-2.45,0-2.45,1.692,0,2.042,3.5,2.042,4.433,0,4.433-2.042,0-.992-1.283-1.312A18.161,18.161,0,0,0-40.615.788Zm24.179-4.463,1.021,1.021A8.547,8.547,0,0,1-22.065.408,6.37,6.37,0,0,1-26.483-.977a5.132,5.132,0,0,1-1.531-4.01,8.509,8.509,0,0,1,2.771-6.285,8.956,8.956,0,0,1,6.446-2.7,5.611,5.611,0,0,1,3.413,1.006,3.024,3.024,0,0,1,1.371,2.523q0,3.033-4.958,4.463a17.983,17.983,0,0,1-4.346.7q-.058.758-.058,1.283a2.762,2.762,0,0,0,.671,1.969,2.4,2.4,0,0,0,1.837.715,4.483,4.483,0,0,0,2.129-.525A10.336,10.336,0,0,0-16.435-3.675ZM-23.056-6.65a10,10,0,0,0,2.042-.467A5.733,5.733,0,0,0-18.55-8.852a3.729,3.729,0,0,0,.977-2.377,1.393,1.393,0,0,0-.35-1.006,1.234,1.234,0,0,0-.933-.365,3.213,3.213,0,0,0-2.538,1.648A10.824,10.824,0,0,0-23.056-6.65Zm18.55-7.292-.933,3.85a13.235,13.235,0,0,1,3-2.99,5.36,5.36,0,0,1,2.975-.89,3.384,3.384,0,0,1,2.362.846,2.783,2.783,0,0,1,.933,2.158,11.463,11.463,0,0,1-.9,3.733L1.56-3.5a5.039,5.039,0,0,0-.292,1.108.469.469,0,0,0,.131.321.375.375,0,0,0,.277.146,1.745,1.745,0,0,0,1.05-.656,20.362,20.362,0,0,0,1.779-2.26l.262-.321,1.138.729A15.943,15.943,0,0,1,2.785-.7,4.793,4.793,0,0,1-.248.438,3.148,3.148,0,0,1-2.421-.277a2.466,2.466,0,0,1-.8-1.94A8.44,8.44,0,0,1-2.64-4.754L-.831-9.683a3.353,3.353,0,0,0,.262-1.05.679.679,0,0,0-.277-.525.911.911,0,0,0-.6-.233q-1.079,0-2.771,2.012A16.319,16.319,0,0,0-7.044-3.7L-8.152,0h-4.579L-9.96-9.3a9.654,9.654,0,0,0,.438-1.954.734.734,0,0,0-.35-.729,3.753,3.753,0,0,0-1.429-.175H-12l.2-1.371Zm20.417,8.6,1.079.787a19.984,19.984,0,0,1-1.983,2.683A6.077,6.077,0,0,1,10.631.408a2.889,2.889,0,0,1-1.969-.7,2.2,2.2,0,0,1-.8-1.721,8.237,8.237,0,0,1,.408-2.246q.175-.5.321-1.079l1.9-6.417H7.948l.525-1.779H11.01l1.633-5.425h4.579l-1.6,5.425h3.325l-.525,1.779H15.094L13.052-4.871A17.043,17.043,0,0,0,12.44-2.45a.56.56,0,0,0,.131.365.387.387,0,0,0,.306.16q.438,0,1.327-.992A14.072,14.072,0,0,0,15.91-5.338Zm21.175-8.633a6.958,6.958,0,0,1,3.762.919A2.713,2.713,0,0,1,42.306-10.7a2.022,2.022,0,0,1-.554,1.473,1.944,1.944,0,0,1-1.458.569,2.08,2.08,0,0,1-1.444-.51,1.636,1.636,0,0,1-.569-1.269,2.04,2.04,0,0,1,.525-1.2.588.588,0,0,0,.175-.35q0-.233-.5-.423a3.171,3.171,0,0,0-1.138-.19,3.252,3.252,0,0,0-1.867.5,1.5,1.5,0,0,0-.729,1.283,1.325,1.325,0,0,0,.5,1.021,7.161,7.161,0,0,0,1.779.992A14.5,14.5,0,0,1,39.215-7.7,3.859,3.859,0,0,1,41.2-4.346,4.119,4.119,0,0,1,39.433-.875,7.554,7.554,0,0,1,34.81.438,6.8,6.8,0,0,1,31.062-.5a2.814,2.814,0,0,1-1.444-2.45,2.081,2.081,0,0,1,.569-1.517,1.966,1.966,0,0,1,1.473-.583,2.153,2.153,0,0,1,1.473.525,1.706,1.706,0,0,1,.6,1.342,1.793,1.793,0,0,1-.758,1.342.4.4,0,0,0-.146.263q0,.321.525.54a3.428,3.428,0,0,0,1.313.219,3.3,3.3,0,0,0,1.983-.569,1.717,1.717,0,0,0,.787-1.444q0-1.108-1.692-1.779a21.929,21.929,0,0,1-2.45-1.167,3.936,3.936,0,0,1-2.1-3.558,4.084,4.084,0,0,1,1.59-3.383A6.762,6.762,0,0,1,37.085-13.971ZM55.11-3.675l1.021,1.021A8.547,8.547,0,0,1,49.481.408,6.37,6.37,0,0,1,45.063-.977a5.132,5.132,0,0,1-1.531-4.01A8.509,8.509,0,0,1,46.3-11.273a8.956,8.956,0,0,1,6.446-2.7,5.611,5.611,0,0,1,3.413,1.006,3.024,3.024,0,0,1,1.371,2.523q0,3.033-4.958,4.463a17.983,17.983,0,0,1-4.346.7q-.058.758-.058,1.283a2.762,2.762,0,0,0,.671,1.969,2.4,2.4,0,0,0,1.838.715,4.483,4.483,0,0,0,2.129-.525A10.336,10.336,0,0,0,55.11-3.675ZM48.49-6.65a10,10,0,0,0,2.042-.467A5.733,5.733,0,0,0,53-8.852a3.729,3.729,0,0,0,.977-2.377,1.393,1.393,0,0,0-.35-1.006,1.234,1.234,0,0,0-.933-.365,3.213,3.213,0,0,0-2.537,1.648A10.824,10.824,0,0,0,48.49-6.65ZM71.56-13.533H76.14L73.281-3.85a9.513,9.513,0,0,0-.292,1.342.469.469,0,0,0,.131.321.375.375,0,0,0,.277.146q.379,0,1.3-.992a15.881,15.881,0,0,0,1.735-2.275l1.138.729a16.1,16.1,0,0,1-1.925,2.654q-2.1,2.362-4.2,2.362a2.632,2.632,0,0,1-1.531-.452,2.086,2.086,0,0,1-.86-1.181,3.182,3.182,0,0,1-.087-.933A6.908,6.908,0,0,1,66.821-.175a5.475,5.475,0,0,1-2.61.583,4.789,4.789,0,0,1-3.631-1.487,5.28,5.28,0,0,1-1.415-3.792,9.1,9.1,0,0,1,2.552-6.315,7.689,7.689,0,0,1,5.79-2.785,3.845,3.845,0,0,1,3.646,1.838ZM68.44-12.367q-1.75,0-3.092,2.8a12.9,12.9,0,0,0-1.429,5.629A2.685,2.685,0,0,0,64.4-2.26a1.551,1.551,0,0,0,1.3.627q1.75,0,3.033-2.829A19.178,19.178,0,0,0,69.81-7.5a10.955,10.955,0,0,0,.438-2.742,2.319,2.319,0,0,0-.5-1.531A1.62,1.62,0,0,0,68.44-12.367Zm18.054-1.575-.9,3.7a10.934,10.934,0,0,1,2.523-2.887,4.427,4.427,0,0,1,2.64-.846,2.756,2.756,0,0,1,1.969.7,2.442,2.442,0,0,1,.744,1.867,2.486,2.486,0,0,1-.627,1.721,2.01,2.01,0,0,1-1.56.7,2.113,2.113,0,0,1-1.254-.394,1.7,1.7,0,0,1-.7-1.035,3.834,3.834,0,0,1-.087-.9q0-.379-.292-.379-.408,0-1.167.758a11.351,11.351,0,0,0-2.085,2.9,20.709,20.709,0,0,0-1.619,3.981L82.848,0H78.269L81.04-9.3a8.668,8.668,0,0,0,.437-1.954.734.734,0,0,0-.35-.729,3.753,3.753,0,0,0-1.429-.175H79l.2-1.371Zm18.375,9.654,1.05.9Q102.885.408,99.152.408a6.37,6.37,0,0,1-4.4-1.458,5.014,5.014,0,0,1-1.633-3.937,8.539,8.539,0,0,1,2.7-6.3,8.853,8.853,0,0,1,6.431-2.654,5.9,5.9,0,0,1,3.631,1.021,3.228,3.228,0,0,1,1.356,2.712,2.791,2.791,0,0,1-.685,1.969,2.36,2.36,0,0,1-1.823.744,2.335,2.335,0,0,1-1.633-.583,1.954,1.954,0,0,1-.642-1.517,2.017,2.017,0,0,1,1.108-1.779q.35-.233.35-.467a.6.6,0,0,0-.35-.525,1.714,1.714,0,0,0-.875-.2q-1.867,0-3.238,2.538A13.064,13.064,0,0,0,98.365-7.16a12.176,12.176,0,0,0-.437,3.048A2.9,2.9,0,0,0,98.6-2.144a2.175,2.175,0,0,0,1.721.773Q102.36-1.371,104.869-4.287Zm13.883-17.179-3.208,10.792q2.654-3.3,5.483-3.3a3.331,3.331,0,0,1,2.348.846,2.8,2.8,0,0,1,.919,2.158,12.249,12.249,0,0,1-.875,3.733L122.048-3.5a4.67,4.67,0,0,0-.321,1.108.469.469,0,0,0,.131.321.375.375,0,0,0,.277.146,1.7,1.7,0,0,0,1.035-.642,21.268,21.268,0,0,0,1.794-2.275,3.35,3.35,0,0,0,.262-.321l1.138.729a15.471,15.471,0,0,1-3.121,3.748A4.83,4.83,0,0,1,120.21.438a3.148,3.148,0,0,1-2.173-.715,2.466,2.466,0,0,1-.8-1.94,8.1,8.1,0,0,1,.613-2.537l1.779-4.929a3.353,3.353,0,0,0,.262-1.05.735.735,0,0,0-.262-.54.831.831,0,0,0-.583-.248q-1.05,0-2.742,2.042A16.662,16.662,0,0,0,113.473-3.7L112.365,0h-4.579l4.988-16.858a8.3,8.3,0,0,0,.467-1.925.726.726,0,0,0-.365-.729,3.88,3.88,0,0,0-1.444-.175h-.7l.2-1.371ZM-111.606,31.058l-.467,2.3a6.026,6.026,0,0,1,4.608-2.333,4.94,4.94,0,0,1,3.719,1.429,5.3,5.3,0,0,1,1.385,3.85,9.142,9.142,0,0,1-2.538,6.358,7.716,7.716,0,0,1-5.833,2.771,4,4,0,0,1-3.675-1.9L-115.4,46.9a12.594,12.594,0,0,0-.467,1.867q0,.758,1.662.758h.438l-.2,1.371h-9.042l.2-1.371h.117a2.778,2.778,0,0,0,1.838-.408,1.069,1.069,0,0,0,.306-.452q.1-.277.54-1.765l3.354-11.287a9.046,9.046,0,0,0,.438-1.867.726.726,0,0,0-.365-.729,3.88,3.88,0,0,0-1.444-.175h-.7l.2-1.371Zm2.713,2.012q-1.575,0-2.8,2.158a16.965,16.965,0,0,0-1.269,3.223,11.741,11.741,0,0,0-.6,3.135,2.165,2.165,0,0,0,.583,1.531,1.877,1.877,0,0,0,1.429.627q1.633,0,2.829-2.3a16.562,16.562,0,0,0,1.21-3.208,11.938,11.938,0,0,0,.481-3.033,2.263,2.263,0,0,0-.51-1.546A1.713,1.713,0,0,0-108.894,33.071Zm17.675-2.042A6.848,6.848,0,0,1-86.552,32.6a5.082,5.082,0,0,1,1.633,4.083A8.162,8.162,0,0,1-87.6,42.9a9.367,9.367,0,0,1-6.65,2.508,6.118,6.118,0,0,1-4.375-1.487,4.941,4.941,0,0,1-1.283-1.91,6.648,6.648,0,0,1-.467-2.465,7.9,7.9,0,0,1,2.727-5.994A9.158,9.158,0,0,1-91.219,31.029Zm-.117,1.371q-1.867,0-3.208,3.208a19,19,0,0,0-.933,3.15,15.121,15.121,0,0,0-.379,3.092,2.617,2.617,0,0,0,.5,1.692,1.667,1.667,0,0,0,1.371.612q1.9,0,3.092-3.062a21.934,21.934,0,0,0,1.035-3.4,14.509,14.509,0,0,0,.423-3.019,2.482,2.482,0,0,0-.525-1.648A1.7,1.7,0,0,0-91.335,32.4Zm24.5-.933-2.012,6.825a21.166,21.166,0,0,0-.7,3.412,1.637,1.637,0,0,0,.481,1.152,1.469,1.469,0,0,0,1.094.51,2.719,2.719,0,0,0,1.56-.6,6.218,6.218,0,0,0,1.5-1.59,8.887,8.887,0,0,0,1.779-4.812,1.19,1.19,0,0,0-.2-.7,8.742,8.742,0,0,0-1.079-1.079,2.215,2.215,0,0,1-.846-1.663,1.8,1.8,0,0,1,.554-1.371,2.033,2.033,0,0,1,1.458-.525,2.087,2.087,0,0,1,1.648.715,2.749,2.749,0,0,1,.627,1.881,13.366,13.366,0,0,1-.583,3.617,17.178,17.178,0,0,1-1.517,3.7q-2.567,4.492-6.446,4.492a4.485,4.485,0,0,1-2.873-.89A4.364,4.364,0,0,1-73.894,42a9.963,9.963,0,0,1-2.756,2.625,6.057,6.057,0,0,1-3.135.817,3.757,3.757,0,0,1-2.61-.831,3.041,3.041,0,0,1-.919-2.377,12.344,12.344,0,0,1,.583-3l1.05-3.529a11.082,11.082,0,0,0,.467-1.954.734.734,0,0,0-.35-.729,3.868,3.868,0,0,0-1.458-.175h-.292l.2-1.371,7.408-.408-2.625,8.779a9.5,9.5,0,0,0-.408,2.012,1.037,1.037,0,0,0,.321.758,1,1,0,0,0,.729.321q1.633,0,3-2.158a14.161,14.161,0,0,0,.9-1.867,21.951,21.951,0,0,0,.817-2.246l1.546-5.192Zm18.463,9.858,1.021,1.021A8.547,8.547,0,0,1-54,45.408a6.37,6.37,0,0,1-4.419-1.385,5.132,5.132,0,0,1-1.531-4.01,8.509,8.509,0,0,1,2.771-6.285,8.956,8.956,0,0,1,6.446-2.7,5.611,5.611,0,0,1,3.413,1.006,3.024,3.024,0,0,1,1.371,2.523q0,3.033-4.958,4.462a17.983,17.983,0,0,1-4.346.7q-.058.758-.058,1.283a2.762,2.762,0,0,0,.671,1.969,2.4,2.4,0,0,0,1.838.715,4.483,4.483,0,0,0,2.129-.525A10.336,10.336,0,0,0-48.373,41.325Zm-6.621-2.975a9.995,9.995,0,0,0,2.042-.467,5.733,5.733,0,0,0,2.465-1.735,3.729,3.729,0,0,0,.977-2.377,1.393,1.393,0,0,0-.35-1.006,1.234,1.234,0,0,0-.933-.365,3.213,3.213,0,0,0-2.538,1.648A10.824,10.824,0,0,0-54.994,38.35Zm18.55-7.292-.9,3.7a10.934,10.934,0,0,1,2.523-2.887,4.427,4.427,0,0,1,2.64-.846,2.756,2.756,0,0,1,1.969.7,2.442,2.442,0,0,1,.744,1.867,2.486,2.486,0,0,1-.627,1.721,2.01,2.01,0,0,1-1.56.7,2.113,2.113,0,0,1-1.254-.394,1.7,1.7,0,0,1-.7-1.035,3.834,3.834,0,0,1-.087-.9q0-.379-.292-.379-.408,0-1.167.758a11.352,11.352,0,0,0-2.085,2.9,20.709,20.709,0,0,0-1.619,3.981L-40.09,45h-4.579l2.771-9.3a8.668,8.668,0,0,0,.438-1.954.734.734,0,0,0-.35-.729,3.753,3.753,0,0,0-1.429-.175h-.7l.2-1.371Zm18.171,10.267,1.021,1.021a8.547,8.547,0,0,1-6.65,3.063,6.37,6.37,0,0,1-4.419-1.385,5.132,5.132,0,0,1-1.531-4.01,8.509,8.509,0,0,1,2.771-6.285,8.956,8.956,0,0,1,6.446-2.7,5.611,5.611,0,0,1,3.413,1.006,3.024,3.024,0,0,1,1.371,2.523q0,3.033-4.958,4.462a17.983,17.983,0,0,1-4.346.7q-.058.758-.058,1.283a2.762,2.762,0,0,0,.671,1.969,2.4,2.4,0,0,0,1.837.715,4.483,4.483,0,0,0,2.129-.525A10.336,10.336,0,0,0-18.273,41.325Zm-6.621-2.975a9.995,9.995,0,0,0,2.042-.467,5.733,5.733,0,0,0,2.465-1.735,3.729,3.729,0,0,0,.977-2.377,1.393,1.393,0,0,0-.35-1.006,1.234,1.234,0,0,0-.933-.365,3.213,3.213,0,0,0-2.538,1.648A10.824,10.824,0,0,0-24.894,38.35ZM4.681,23.533-.54,41.15a8.978,8.978,0,0,0-.292,1.371.469.469,0,0,0,.131.321.375.375,0,0,0,.277.146q.379,0,1.3-.977A15.234,15.234,0,0,0,2.64,39.692l1.138.729a16.1,16.1,0,0,1-1.925,2.654q-2.1,2.363-4.2,2.362a2.568,2.568,0,0,1-1.823-.612,2.291,2.291,0,0,1-.685-1.692v-.2A8.3,8.3,0,0,1-7.1,44.854a5.241,5.241,0,0,1-2.479.554,4.861,4.861,0,0,1-3.646-1.473,5.237,5.237,0,0,1-1.429-3.806,9.046,9.046,0,0,1,2.552-6.3,7.7,7.7,0,0,1,5.79-2.771,3.9,3.9,0,0,1,3.646,1.808l1.4-4.725a8.766,8.766,0,0,0,.438-1.925.734.734,0,0,0-.35-.729,3.753,3.753,0,0,0-1.429-.175h-.933l.2-1.371ZM-5.352,32.662q-1.779,0-3.092,2.771a13.167,13.167,0,0,0-1.429,5.629,2.733,2.733,0,0,0,.467,1.692,1.525,1.525,0,0,0,1.283.612q1.75,0,3.063-2.829a14.1,14.1,0,0,0,1.487-5.775,2.261,2.261,0,0,0-.5-1.517A1.606,1.606,0,0,0-5.352,32.662Zm30.917-9.129L22.91,32.546a5.8,5.8,0,0,1,3.762-1.517,4.688,4.688,0,0,1,3.485,1.444,4.905,4.905,0,0,1,1.415,3.573,8.7,8.7,0,0,1-.86,3.69,10.285,10.285,0,0,1-2.377,3.252,8.836,8.836,0,0,1-6.242,2.45,6.844,6.844,0,0,1-4.317-1.269,4.083,4.083,0,0,1-1.633-3.4,5.532,5.532,0,0,1,.087-1.108q.087-.408.554-2.012l2.829-9.508a10.639,10.639,0,0,0,.467-1.925.726.726,0,0,0-.365-.729,3.88,3.88,0,0,0-1.444-.175h-.7l.2-1.371ZM24.952,33.1q-1.633,0-2.975,2.683a17.872,17.872,0,0,0-1.167,3.223,12.124,12.124,0,0,0-.5,2.96,2.338,2.338,0,0,0,.54,1.6,1.763,1.763,0,0,0,1.385.613q1.75,0,3.208-3.3a16.865,16.865,0,0,0,.948-2.917,12.407,12.407,0,0,0,.423-2.683,2.348,2.348,0,0,0-.525-1.56A1.672,1.672,0,0,0,24.952,33.1Zm15.954,2.188,1.633,5.542q1.954-3.3,1.954-4.608a3.115,3.115,0,0,0-.554-1.546,3.1,3.1,0,0,1-.612-1.721,1.8,1.8,0,0,1,.583-1.385,2.361,2.361,0,0,1,2.931-.058,1.687,1.687,0,0,1,.54,1.327A11.315,11.315,0,0,1,46.2,36.775a48.132,48.132,0,0,1-3.106,5.8,34.856,34.856,0,0,1-4.783,6.475A5.626,5.626,0,0,1,34.2,50.892a3.32,3.32,0,0,1-2.246-.729,2.417,2.417,0,0,1-.846-1.925,2.1,2.1,0,0,1,.583-1.531,1.989,1.989,0,0,1,1.487-.6,2.046,2.046,0,0,1,1.444.525,1.745,1.745,0,0,1,.569,1.342,2.377,2.377,0,0,1-.175.817.406.406,0,0,0-.029.175q0,.292.379.292a2.746,2.746,0,0,0,1.517-.744,8.715,8.715,0,0,0,1.692-1.823l.846-1.167L36.5,35.667a4.713,4.713,0,0,0-.394-1.065.509.509,0,0,0-.452-.248q-.379,0-.671.569a20.061,20.061,0,0,0-.9,2.552L32.827,37.1q1.429-6.067,4.725-6.067A2.373,2.373,0,0,1,39.827,32.4,14.9,14.9,0,0,1,40.906,35.287Zm25.667,0,1.633,5.542q1.954-3.3,1.954-4.608a3.115,3.115,0,0,0-.554-1.546,3.1,3.1,0,0,1-.613-1.721,1.8,1.8,0,0,1,.583-1.385,2.361,2.361,0,0,1,2.931-.058,1.687,1.687,0,0,1,.54,1.327,11.315,11.315,0,0,1-1.181,3.938,48.132,48.132,0,0,1-3.106,5.8,34.856,34.856,0,0,1-4.783,6.475,5.626,5.626,0,0,1-4.112,1.837,3.32,3.32,0,0,1-2.246-.729,2.417,2.417,0,0,1-.846-1.925,2.1,2.1,0,0,1,.583-1.531,1.989,1.989,0,0,1,1.487-.6,2.046,2.046,0,0,1,1.444.525,1.745,1.745,0,0,1,.569,1.342,2.377,2.377,0,0,1-.175.817.406.406,0,0,0-.029.175q0,.292.379.292a2.746,2.746,0,0,0,1.517-.744,8.715,8.715,0,0,0,1.692-1.823l.846-1.167-2.917-9.858a4.713,4.713,0,0,0-.394-1.065.509.509,0,0,0-.452-.248q-.379,0-.671.569a20.061,20.061,0,0,0-.9,2.552L58.494,37.1q1.429-6.067,4.725-6.067A2.373,2.373,0,0,1,65.494,32.4,14.9,14.9,0,0,1,66.573,35.287ZM82.79,31.029A6.848,6.848,0,0,1,87.456,32.6a5.082,5.082,0,0,1,1.633,4.083A8.162,8.162,0,0,1,86.406,42.9a9.367,9.367,0,0,1-6.65,2.508,6.118,6.118,0,0,1-4.375-1.487A4.941,4.941,0,0,1,74.1,42.01a6.648,6.648,0,0,1-.467-2.465,7.9,7.9,0,0,1,2.727-5.994A9.158,9.158,0,0,1,82.79,31.029ZM82.673,32.4q-1.867,0-3.208,3.208a19,19,0,0,0-.933,3.15,15.121,15.121,0,0,0-.379,3.092,2.617,2.617,0,0,0,.5,1.692,1.667,1.667,0,0,0,1.371.612q1.9,0,3.092-3.062a21.934,21.934,0,0,0,1.035-3.4,14.509,14.509,0,0,0,.423-3.019,2.482,2.482,0,0,0-.525-1.648A1.7,1.7,0,0,0,82.673,32.4Zm24.821-.933-2.712,9.1a11.956,11.956,0,0,0-.467,1.954.456.456,0,0,0,.408.408q.379,0,1.181-.875a16.492,16.492,0,0,0,1.706-2.3l1.108.817A16.066,16.066,0,0,1,105.6,44.3a4.827,4.827,0,0,1-3.062,1.108q-2.829,0-2.829-2.479,0-.467.029-.758a11.291,11.291,0,0,1-2.683,2.479,5.048,5.048,0,0,1-2.654.758,3.165,3.165,0,0,1-2.319-.875,3.087,3.087,0,0,1-.89-2.3,11.518,11.518,0,0,1,.613-3L92.823,35.7a9.136,9.136,0,0,0,.467-1.954.734.734,0,0,0-.35-.729,3.753,3.753,0,0,0-1.429-.175h-.292l.2-1.371,7.379-.408-2.625,8.867q-.029.117-.088.292t-.131.452q-.073.277-.131.452-.175.612-.2.7-.058.35-.058.408a.748.748,0,0,0,.729.729,2.743,2.743,0,0,0,1.487-.744A9.037,9.037,0,0,0,99.5,40.362a13.765,13.765,0,0,0,1.983-4.083l1.4-4.812Zm3.733,9.771,2.742-2.888q.35-.379.5-.379t.292.379l1.2,2.888a1.032,1.032,0,0,1-.321,1.108l-2.713,2.888q-.35.379-.51.379t-.306-.379l-1.167-2.888a.916.916,0,0,1-.088-.569A1.37,1.37,0,0,1,111.227,41.237Zm4.842-5.687,3.442-7.058a10.379,10.379,0,0,0,.729-1.925q.817-3.062-1.867-3.062-2.771,0-3.558,3a8.106,8.106,0,0,0-.321,1.983l-.35,7.058a1.438,1.438,0,0,0,.175.7q.292.467.5.467t.729-.467A2.742,2.742,0,0,0,116.069,35.55Z" transform="translate(-4864 7905)" fill="#474463"/>
    </g>
</svg>
